<?xml version="1.0" encoding="UTF-8"?>
<svg id="Layer_1" data-name="Layer 1" xmlns="http://www.w3.org/2000/svg" viewBox="0 0 612 792">
  <defs>
    <style>
      .cls-1 {
        fill: #1f468a;
      }

      .cls-1, .cls-2, .cls-3, .cls-4, .cls-5, .cls-6, .cls-7, .cls-8 {
        stroke-width: 0px;
      }

      .cls-2 {
        fill: #1d3b6d;
      }

      .cls-3 {
        fill: #e93a25;
      }

      .cls-4 {
        fill: #21714b;
      }

      .cls-5 {
        fill: #c43027;
      }

      .cls-6 {
        fill: #f2c03e;
      }

      .cls-7 {
        fill: #cca432;
      }

      .cls-8 {
        fill: #231c1c;
      }
    </style>
  </defs>
  <g>
    <path class="cls-3" d="M545.58,401.18c-2.12-1.08-4.3-1.62-6.53-1.63-1.7,0-2.97.76-4.53,1.22-1.05.31-2.19.61-3.43.89-3.28.73-6.6,2.11-9.95,4.14-1.92,1.16-4.15,2.11-6.69,2.87-5,1.48-8.66,3.34-13.9,6.47-1.95,1.16-4.54,2.49-7.79,3.97-.88.4-1.6.63-2.17.69.25-1.05.67-2.04,1.23-2.99.72-1.2,1.2-2.15,1.44-2.84.64-1.81,1.32-3.6,2.04-5.35,1.04-2.54,1.19-5.2,2.11-7.71.86-2.32,1.35-4.48,1.46-6.47.28-4.73,2.07-8.72,2.56-13.28.4-3.67,1.11-7.25,2.14-10.74.63-2.11.7-5.03,1.62-6.74,1.37-2.54,2.11-4.6,2.24-6.17.27-3.49.78-6.33,1.53-8.52,1.37-4,2.46-7.87,4.16-11.75,1.68-3.83,3.45-7.67,5.31-11.52,1.18-2.44,2-4.62,2.46-6.55.35-1.47.75-2.99,1.2-4.55,1.34-4.69,1.4-10.09.84-14.88-.33-2.79-.6-5.68-.81-8.67-.19-2.59-.7-6.11-1.53-10.56-.33-1.78,1.56-3.7,3.33-1.93,3.48,3.45,6.92,7.63,10.34,12.54,1.73,2.49,3.21,6.29,5.03,9.43,2.14,3.7,3.87,7.57,5.19,11.62.85,2.61,1.56,5.5,2.14,8.67.5,2.71,1.95,4.89,2.49,7.53.87,4.31,1.6,8.62,2.19,12.93.11.84.14,1.71.08,2.6-.29,4.19-.76,7.9-1.42,11.14-1.08,5.28-.65,10.62-1.77,15.61-.76,3.38-1.22,6.21-1.39,8.48-.16,2.13-1.37,4.06-1.61,5.98-.55,4.45-.42,9.82.38,16.1Z"/>
    <path class="cls-3" d="M200.64,415.57c1.72.7,3.41,1.27,5.07,1.71,1.9.5,3.59,1.04,5.07,1.62,2.38.93,4.75,1.28,7.1,2.31,4.92,2.13,8.71,3.59,11.39,4.37,3.83,1.12,7.79,2.39,11.87,3.82,1.73.61,3.28,1.28,4.64,2.03,2.09,1.13,4.36,1.84,6.37,3.15,3.95,2.57,7.67,5.13,11.14,7.66,2.59,1.89,4.6,3.98,6.01,6.26.88,1.41,1.57,2.86,2.09,4.36l-.57,3.33c-.04.23-.02.46.07.67,1.08,2.63,1.25,5.79,1.78,7.9.66,2.62,1.25,5.46,1.77,8.5.42,2.46,1.66,4.95,2.15,7.44.91,4.66,2.18,9.28,2.69,13.88.77,6.93,1.33,13.02,1.67,18.27.59,9.07.8,19.13.62,30.17-.03,2.11-.13,4.1-.29,5.98-.23,2.71-.23,5.63-1.03,8.15-.73,2.31-1.29,4.62-1.67,6.92-.55,3.32-2.3,6.1-3.09,9.33-.92,3.79-3.66,7.61-6.01,10.61-1.23,1.57-2.47,3.08-3.71,4.52-.88,1.01-1.61,2.85-2.21,5.52-.33,1.48,1.03,3.01,2.53,2.77,3.35-.55,6.71-1.23,9.95-1.77,2.36-.4,4.73-.82,7.11-1.27,5.07-.94,10.13-1.36,15.17-1.24.23,3.39.55,6.8.96,10.2.18,1.49.21,2.86.08,4.11-.14,1.36-.16,2.72-.08,4.09.36,5.74.58,12.04.66,18.91.03,2.8.2,5.99.5,9.57.17,1.9.26,3.6.28,5.08.03,2.27.32,4.51.29,6.77-.11,8.79.33,17.54,1.32,26.27.22,1.96.33,5.19.31,9.68,0,3.23.05,6.45.19,9.66.19,4.54.18,9.28.7,13.86.63,5.54,1.15,10.88,1.56,16.02.21,2.72,1.51,5.1,1.56,7.93.04,2.07.32,4.28.86,6.62.33,1.39.35,3.29.1,4.69-.63,3.51-1.46,6.89-2.5,10.14-.59,1.87-1.73,3.42-3.42,4.63-1.34.97-2.69,1.99-4.03,3.05-3.13,2.49-7.44,4.66-11.57,5.35-1.89.32-3.62.92-5.19,1.8-3.45,1.94-6.49,3.25-9.12,3.92-1.96.5-3.7,1.01-5.22,1.54-4.86,1.67-9.91,2.64-14.63,4.66-3.09,1.33-6.01,2.61-8.75,3.84-2.64,1.18-5.23,2.09-7.76,2.7-3.09.75-6.04,1.61-8.86,2.59-1.06.37-2.29.51-3.67.41-1.28-.09-2.54-.19-3.78-.31.67-1.74,1.52-3.33,2.55-4.77,1.4-1.97,2.12-2.98,2.14-3.02,2.67-4.16,4.99-7.72,9.41-10.3.75-.44,1.24-1.09,1.46-1.95.14-.57-.14-1.16-.67-1.4-2.47-1.15-6.56,3.72-7.75,5.46-1.69,2.47-3.38,4.95-5.06,7.42-1.66,2.45-2.95,5.11-3.87,8-3.7-.93-6.46-2.92-8.3-6,1.48-1.59,1.76-3.95,2.98-6.24.57-1.06,1.07-2.16,1.51-3.31.85-2.21,2.22-4.16,4.11-5.86,2.36-2.12,4.97-4.23,7.82-6.33.25-.18.37-.48.34-.78-.06-.56-.25-.87-.58-.93-.78-.16-1.48-.03-2.1.39-3.47,2.36-7.63,6.08-9.88,10.14-2.02,3.65-4.29,6.23-4.6,10.91-2.21-6.36-2.02-12.72.57-19.07.94-2.31,2.06-4.21,3.36-5.7,1.41-1.61,3.3-3.81,5.68-6.62,5.22-6.15,11.41-10.58,18.57-13.29,3.34-1.27,6.39-2.56,9.14-3.89,3.13-1.52,4.58-4.11,5.24-7.4.28-1.41.39-2.96.33-4.66-.15-4.17-.02-7.32.4-9.45,1.24-6.29,1.82-11.31,1.76-15.05-.05-3.26-.14-6.44-.25-9.52-.16-4.06-.47-7.52.29-11.76.52-2.93,1.11-5.85,1.75-8.75.81-3.67,1.22-7.18,1.65-10.81.31-2.7-.81-6.03-.48-9.12.29-2.66.28-5.31-.01-7.95-.4-3.52.57-6.74.54-10.23-.01-2.22.45-4.43.52-6.66.12-3.62.37-6.9.76-9.86.18-1.45.55-3.03,1.1-4.73.69-2.15.89-4.6,1-6.9.06-1.25-.9-2.31-2.15-2.37-.15,0-.29,0-.44.02-2.08.3-4.27.75-6.56,1.33-3.31.84-6.91.95-10.8.35-3.83-.59-7.63-1.28-11.41-2.05-2.46-.51-5.01-.04-7.53-.54-5.75-1.13-10.87-2.69-15.35-4.68-6.59-2.93-12.44-5.92-17.54-8.98-1.91-1.15-3.83-2.32-5.77-3.51-1.86-1.15-3.88-2.04-6.07-2.66-2.48-.71-5.11-1.77-7.89-3.18-2.06-1.04-4.53-2.09-7.42-3.14-5.01-1.84-9.64-3.52-13.9-5.06-2.19-.79-4.94-1.46-8.24-2.01-6.28-1.05-12.35-3.34-18.79-2.7-1.54.16-3.4.11-5.59-.15-3.6-.42-7.09-.85-10.46-1.3-2.16-.29-4.59-.47-7.3-.55-2-.06-4.43-.25-7.27-.58-3.13-.36-6.29-.45-9.5-.26.3-.7.83-1.17,1.61-1.41,3.18-.96,6.28-1.66,9.3-2.09,1.6-.23,3.08-.62,4.44-1.19,2.01-.84,4.24-1.54,6.68-2.09,1.05-.24,2.09-.59,3.13-1.04,2.52-1.11,5.08-2.16,7.68-3.15.25-.1.49-.24.69-.41,2.25-1.85,2.41-3.02.48-3.53-.3-.08-.61-.05-.9.08-1.89.84-3.85,1.85-5.89,3-2.35,1.34-4.79,2.24-7.38,2.86-3.82.92-8.58,1.93-14.27,3.02-1.58.3-3.12.73-4.64,1.3-1.86.7-3.94.89-6.25.58-1.29-.18-2.96.14-3.3,1.66-.21.98-.5,1.53-.86,1.67-2.62-.42-5.32-.39-7.8-1.03-3.75-.98-7.41-1.85-11-2.61-.69-.15-1.83-.8-2.5-1.32-2.14-1.65-4.61-2.16-6.68-3.89-4.56-3.81-7.29-7.84-9.84-12.83-.9-1.78-1.56-3.66-1.97-5.65-.82-3.95-1.82-7.93-3-11.93-.81-2.75-.92-6.43-.31-11.04,4.48,1.74,7.71,1.12,9.69-1.86.65-.98,1.47-2.85,2.46-5.61.86-2.4,1.46-4.36,1.8-5.86.51-2.24.92-4.94,1.21-8.09.24-2.6.17-4.79-.21-6.58-.43-2.06-1.34-4.12-2.73-6.17-.81-1.2-1.62-1.84-2.43-1.93-1.81-.18-3.42-.63-4.83-1.34,1.87-2.34,3.85-4.44,5.94-6.31,1.24-1.1,3.22-2.86,5.96-5.27,2.01-1.77,4.17-3.34,6.47-4.71,5.68-3.38,10.7-6.48,15.06-9.29,3.3-2.12,6.52-4.14,9.66-6.03,4.22-2.54,8.38-5.08,12.52-7.97,4.71-3.3,9.78-5.67,15.21-7.13,4.54-1.22,8.75-2.76,12.64-4.64,2.46-1.19,4.96-2.36,7.49-3.51,1.56-.72,3.28-.72,4.96-1.15,3.11-.79,6.28-1.69,9.51-1.78,2.24-.06,4.25-.88,6.57-1.1,2.31-.22,4.71-.54,7.18-.96,3.73-.63,8.43-.94,14.11-.94,1.48,0,2.94.27,4.39.8,4.17,1.53,7.55,3.03,10.16,4.48.96.54,2.04.7,3.22.49,4.24-.77,8.82.38,13.14.92.71.08,1.86.03,3.45-.16ZM133.97,418.65c-1.86.6-3.79,1.01-5.69,1.4-.42.08-.77.27-1.06.57-.28.29-.28.75,0,1.03.06.06.12.1.2.14,3.57,1.76,6.04,4.46,7.41,8.11,1,2.66,2.02,5.31,2.37,8.11.53,4.13,1.09,8.31,1.95,12.26,1.2,5.52,1.96,11.34,3.64,16.59.78,2.44,1.75,5.08,2.92,7.93,1.01,2.49,2.41,5.1,4.17,7.83,2.36,3.66,5.07,6.2,9.39,6.73,4.22.52,7.42-.21,12.12-1.3,2.03-.47,3.4-1.37,4.84-2.85,3-3.09,5.15-6.26,6.45-9.5,1.12-2.81,2.2-6.09,3.23-9.84,1.81-6.6,3.12-12.31,3.79-19.15.23-2.37.02-4.56-.63-6.58-1.28-3.98-2.64-7.95-4.08-11.89-1.2-3.28-2.4-6.77-5.52-8.79-2.83-1.84-6.34-3.28-10.51-4.32-.97-.25-1.99-.37-3.08-.36-2.7.01-5.36-.01-8.01.48-2.81.52-5.6.4-8.37,1.06-4.41,1.07-9.06,1.75-13.95,2.04-.55.03-1.08.13-1.59.3ZM119.32,473.87c1.57-3.64,1.78-7.21.64-10.72-1.31-4.04-4.09-5.72-8.35-5.04-2.26.36-4.15,1.19-5.65,2.49-2.63,2.29-2.65,5.32-2.34,8.55.29,3.05,1.85,5.25,4.85,6.42,3.63,1.42,8.84,2.99,10.85-1.7Z"/>
    <path class="cls-3" d="M36.88,476.56c3.62.8,4.42,6.64,3.68,9.47-.17.68-.87,1.08-1.55.91-.13-.03-.25-.09-.36-.16-.44-.28-.75-.71-.93-1.28-.75-2.46-1.53-5.02-2.34-7.66-.07-.23-.04-.49.08-.71.29-.52.77-.71,1.42-.57Z"/>
    <path class="cls-3" d="M569.92,502.98c.17.19.73.38,1.7.57.28.05.48.21.6.47.43.95.68,1.99.75,3.1.16,2.59.51,5.04,1.08,7.37.59,2.48,1,4.75,1.22,6.81.48,4.42,1.01,9.02,1.58,13.79.49,4.1,1.73,7.96,2.14,12.05.3,2.92.66,5.78,1.08,8.57.32,2.08.39,4.13.23,6.14-.3,3.62-.54,7.17-.71,10.64-.22,4.23,0,8.19.68,11.89.93,5.18,1.2,10.39,1.8,15.61.37,3.2.64,6.44.82,9.71.17,3.19.38,6.4.62,9.65.42,5.59-1.27,10.58-2.99,15.66-.57,1.7-1.54,3.57-2.9,5.6-2.64,3.94-5.17,7.87-7.59,11.78-1.38,2.23-2.67,4.6-3.86,7.09-.84,1.74-1.74,3.29-2.7,4.64-2.17,3.04-4.31,6.28-6.42,9.71-2.77,4.5-6.46,9.66-11.09,15.47-1.34,1.68-2.52,3.45-3.53,5.31-.95,1.73-2.08,3.54-3.4,5.42-1.78,2.56-2.99,5.62-5.42,7.97-5.52,5.35-11.06,10.75-16.63,16.19.3-1.86.49-3.55.57-5.05.11-1.93.6-3.75.64-5.64.03-1.5.25-2.89.65-4.17,1.19-3.79,2.36-7.56,3.51-11.32.37-1.23,1.39-3.89-.4-4.55-.58-.21-1.24-.06-1.66.4-.76.81-1.27,1.75-1.52,2.82-1.16,4.79-2.12,9.91-2.89,15.37-.13.92-.42,1.83-.89,2.66-1.85,3.28-2.6,6.97-2.26,11.08-1.59.17-3.18.45-4.76.83-1.31.32-2.6.36-3.87.14.64-3.04,1.51-6.18,1.67-9.28.08-1.51.25-2.63.54-3.35.89-2.24,1.53-4.41,1.9-6.52.25-1.38.81-3.14,1.42-4.19,1.59-2.76,2.83-5.39,3.73-7.9.23-.66.2-1.27-.09-1.86-.12-.24-.38-.35-.77-.32-.34.03-.64.23-.79.52-1.22,2.46-2.5,4.93-3.86,7.41-.77,1.41-1.43,3.36-2,5.85-1.4,6.22-2.89,12.52-4.49,18.92-1.7-1.15-2.97-2.61-3.81-4.4-.68-1.45-1.04-3.25-1.07-5.4-.08-5.55.53-10.2,1.83-13.94.89-2.56,2.35-5.3,4.37-8.22,2.19-3.14,3.59-6.83,5.86-9.93,2.25-3.07,4.09-5.82,5.51-8.25.87-1.48,1.77-2.92,2.71-4.33,1-1.5,1.86-2.96,2.59-4.36,1.2-2.34,2.16-4.67,3.74-6.87,2.51-3.47,4.18-6.89,5.01-10.23.95-3.82-1.64-8.97-2.39-12.97-.65-3.51-2.17-7.24-2.13-10.78.03-3.07-1.44-5.25-2.16-8.12-.93-3.74-2.07-7.06-2.48-11.03-.2-2-.51-3.92-.95-5.76-.76-3.26-.86-6.73-1.45-10.18-1.27-7.51-2.03-13.34-2.29-17.49-.17-2.69-.36-5.37-.59-8.04-.33-3.77.13-7.41.13-11.18,0-5.79.33-11.66,1.02-17.6,1.64-.85,3.3-1.86,4.98-3.03,2.16-1.49,3.79-2.54,4.9-3.14,3.28-1.81,6.83-3.4,9.88-5.2,5.46-3.24,10.99-6.63,16.58-10.18,1.09-.69,3.31-2.31,6.67-4.84,1.25-.95,2.9-1.97,4.95-3.05,2.29-1.21,4.68-2.73,7.15-4.54Z"/>
    <path class="cls-3" d="M512.61,538.5c-1.34,9.15-1.81,18.27-1.41,27.35.21,4.51.06,9.02.69,13.6.63,4.68.89,9.48.76,14.39-.08,3.06,0,6.09.22,9.09.49,6.43.53,12.89.11,19.4-.16,2.5-.2,4.93-.13,7.31.09,3.01-.26,6.3-1.04,9.85-.55,2.47-.78,5.58-.69,9.31.09,3.93-.69,7.24-3.09,10.3-1.03,1.31-1.96,2.69-2.79,4.14-1.35,2.37-3.3,4.34-4.51,6.73-.8,1.59-1.66,3.1-2.57,4.53-.88,1.39-1.58,2.83-2.09,4.31-1.69,4.92-3.54,9.83-5.56,14.74-1.24,3.02-2.01,6.17-3,9.33-.36,1.16-.88,2.36-1.57,3.6-2.58,4.67-4.27,8.22-5.04,10.66-1.26,3.99-2.55,7.65-3.87,10.99-.52,1.31-1.21,2.66-2.06,4.04-1.88,3.05-4.87,5.09-7.03,8.02-2.21,2.99-4.96,5.1-8.24,6.32-.26-1.15-.34-2.19-.22-3.12.5-4.04.84-8.12,1.93-11.95,1.32-4.63,2.76-8.91,4.34-12.82.09-.22.06-.47-.08-.66-.18-.24-.39-.37-.64-.38-.61-.04-1.03.22-1.25.79-1.29,3.3-2.43,6.64-3.41,10.03-.4,1.37-1.1,3.3-2.1,5.79-1.68,4.19-2.47,8.59-2.38,13.2-2.63.61-5.7.84-9.2.68.32-3.51.78-6.18,1.39-8.01,1.03-3.08,3.56-9.76,7.59-20.05.17-.42.08-.78-.25-1.08-.29-.26-.72-.19-1.28.21-.22.16-.39.38-.49.64-1.3,3.41-2.95,6.76-4.05,10.2-1.01,3.15-2.18,6.21-3.5,9.16-.48,1.07-.88,2.47-1.2,4.21-.3,1.59-.74,3.12-1.32,4.59-2.62-.45-3.61-.92-5.21-2.97-.67-.85-1.07-1.85-1.21-2.98-.66-5.47.43-9.86,1.22-15.1.2-1.35.53-2.5.99-3.44.73-1.49,1.65-2.9,2.02-4.52.75-3.25,2.17-6.5,4.25-9.75,2.09-3.26,3.2-6.86,5.17-10.14,1.41-2.35,2.44-4.67,3.08-6.96.53-1.89,1.24-3.75,2.11-5.56,2.31-4.77,4.21-10,5.7-15.69.46-1.74.67-4.73.5-6.85-.27-3.21-.02-6.4-.33-9.59-.1-1.05-.18-2.11-.24-3.18-.2-3.85-1.44-7.49-1.89-11.3-.33-2.77-1.18-5.47-1.58-8.33-.25-1.78-.61-3.57-1.09-5.37-1.58-5.96-2.69-12.29-3.04-18.49-.11-1.92-.39-4.12-.85-6.61-.46-2.46-.65-5.14-.59-8.03.05-2.19-.09-4.27-.42-6.26-.45-2.7-.8-5.43-1.04-8.21-.31-3.56.08-6.96,1.17-10.18,1.79-.62,3.46-1.41,5.01-2.37,2.78-1.72,4.35-2.68,4.71-2.86,3.91-2.05,7.87-4.18,11.87-6.37,3.08-1.69,6.11-3.95,9.4-5.45,3.43-1.56,6.74-3.38,10.08-5.13,1.17-.61,3.59-1.44,7.26-2.49,1.71-.49,5.72-2.24,12.01-5.25Z"/>
    <path class="cls-3" d="M402.55,587.91c-.22,1.4-.28,2.43-.18,3.07.55,3.6,1.04,7.31,1.48,11.11.23,2.02.25,3.94.06,5.76-.21,1.96-.15,3.89.16,5.79,1.03,6.18,1.78,12.62,2.24,19.3.25,3.62.52,7.04.8,10.27.32,3.66.64,7.35.96,11.05.47,5.44,0,10.83.63,16.2.36,3.02.58,6.39.67,10.13.12,5.03.58,10.79,1.39,17.29.64,5.12-.3,9.74-.28,14.75.01,4.93.29,9.71.84,14.33.34,2.9.36,5.65.04,8.24-.56,4.56-1.79,9.03-3.69,13.42-2.85,6.57-6.71,9.69-13.13,12.38-2.8,1.17-5.65,1.66-8.42,2.92-4.29,1.94-9.23,2-13.63,2.93-2.41.51-7.31,1.85-14.7,4.02,2.7-5.74,5.75-11.2,9.14-16.36.63-.96,1.08-2,1.35-3.12.13-.57-.21-1.14-.78-1.27-.17-.04-.35-.04-.53.01-1.71.47-2.59,3.65-3.19,5.16-.42,1.04-1.06,2.16-1.92,3.36-2.89,3.98-5.68,8.15-8.38,12.52-3.61.01-7.53.33-11.77.94-.88.13-2.15.1-3.81-.09,2.08-3.47,3.68-5.82,4.81-7.04,1.75-1.89,3.58-4.01,5.5-6.36,1-1.22,2.35-2.17,4.05-2.85.88-.35,1.4-.99,1.55-1.9.1-.59-.3-1.14-.88-1.24-.02,0-.04,0-.06,0-1.16-.13-2.24.13-3.23.8-1.29.87-2.42,1.95-3.38,3.22-2.27,3-4.57,6.08-6.89,9.23-1.36,1.84-2.68,3.8-3.96,5.88-4.12-.98-6.47-3.59-7.04-7.82-.27-2.01-.16-4.25.33-6.73.35-1.76,1.17-3.48,2.44-5.18,4.27-5.7,9.37-10.1,15.28-13.19,1.68-.88,3.34-1.95,4.97-3.21,4.21-3.27,8.44-6.72,12.67-10.35,1.57-1.35,2.53-2.92,2.88-4.71.58-2.99,1.03-6.04,1.13-9.06.12-3.3.38-6.8.77-10.48.41-3.81-.3-8.19-.17-12.25.08-2.58-.07-5.12-.45-7.6-.42-2.74-.71-5.18-.86-7.3-.39-5.7-.81-10.53-1.25-14.5-.67-6.04-1.27-12.09-1.79-18.16-.13-1.47-.19-2.86-.18-4.18,0-1.97-.35-3.81-.35-5.76,0-3.28,0-6.47,0-9.59,0-1.96-.19-4.58-.57-7.86-.95-8.31-.34-16.51,1.83-24.59,1.78-.18,3.39-.22,4.82-.12.71.05,1.49.07,2.34.06.8,0,1.59,0,2.36,0,4.55.09,8.56.17,12.04.25,3.46.08,7.1-.81,10.52-1.18.91-.09,2.71-.2,5.39-.33Z"/>
  </g>
  <g>
    <path class="cls-5" d="M128.28,420.06c1.9-.4,3.83-.8,5.69-1.4.51-.17,1.04-.26,1.59-.3,4.89-.29,9.54-.97,13.95-2.04,2.77-.67,5.56-.55,8.37-1.06,2.65-.5,5.31-.47,8.01-.48,1.08,0,2.11.12,3.08.36,4.17,1.04,7.67,2.48,10.51,4.32,3.12,2.02,4.32,5.51,5.52,8.79,1.44,3.94,2.8,7.9,4.08,11.89.65,2.02.86,4.21.63,6.58-.67,6.85-1.98,12.55-3.79,19.15-1.04,3.75-2.12,7.03-3.23,9.84-1.3,3.25-3.45,6.42-6.45,9.5-1.44,1.49-2.81,2.38-4.84,2.85-4.7,1.1-7.9,1.82-12.12,1.3-4.32-.53-7.03-3.07-9.39-6.73-1.77-2.73-3.16-5.34-4.17-7.83-1.17-2.85-2.14-5.49-2.92-7.93-1.68-5.25-2.44-11.07-3.64-16.59-.86-3.96-1.42-8.14-1.95-12.26-.35-2.8-1.37-5.45-2.37-8.11-1.37-3.65-3.84-6.35-7.41-8.11-.36-.17-.52-.61-.34-.97.03-.07.08-.14.14-.2.29-.29.64-.48,1.06-.57Z"/>
    <path class="cls-5" d="M119.32,473.87c-2.01,4.69-7.22,3.12-10.85,1.7-2.99-1.18-4.56-3.37-4.85-6.42-.31-3.23-.29-6.26,2.34-8.55,1.5-1.3,3.38-2.13,5.65-2.49,4.25-.68,7.04,1,8.35,5.04,1.14,3.51.93,7.08-.64,10.72Z"/>
    <path class="cls-5" d="M32.99,469.83c1.41.71,3.02,1.15,4.83,1.34.81.08,1.62.73,2.43,1.93,1.39,2.06,2.3,4.12,2.73,6.17.38,1.78.45,3.98.21,6.58-.29,3.15-.7,5.85-1.21,8.09-.34,1.51-.95,3.46-1.8,5.86-.99,2.76-1.8,4.63-2.46,5.61-1.98,2.98-5.21,3.6-9.69,1.86-.03-.85,0-1.76.11-2.73.32-2.82-.42-5.86-.99-8.62-.23-1.12-.12-3.24.33-6.35.22-1.51.63-2.92,1.25-4.25.78-1.68,1.14-3.47,1.08-5.37-.09-2.83,1.09-5.84,2.11-8.48.13-.33.49-.88,1.08-1.64ZM40.56,486.03c.74-2.83-.06-8.67-3.68-9.47-.66-.14-1.13.05-1.42.57-.12.22-.15.47-.08.71.82,2.64,1.6,5.2,2.34,7.66.17.58.48,1,.93,1.28.59.38,1.38.2,1.75-.39.07-.11.12-.23.16-.36Z"/>
    <path class="cls-5" d="M80.59,558.32c-3.08.33-6.24.08-9.48-.74.36-.14.65-.69.86-1.67.34-1.52,2-1.84,3.3-1.66,2.31.31,4.39.12,6.25-.58,1.52-.56,3.07-.99,4.64-1.3,5.69-1.09,10.45-2.1,14.27-3.02,2.59-.62,5.03-1.52,7.38-2.86,2.03-1.16,4-2.16,5.89-3,.28-.13.6-.16.9-.08,1.92.51,1.76,1.69-.48,3.53-.21.17-.44.31-.69.41-2.59.99-5.15,2.04-7.68,3.15-1.03.45-2.08.8-3.13,1.04-2.44.55-4.67,1.25-6.68,2.09-1.35.57-2.83.96-4.44,1.19-3.02.43-6.12,1.13-9.3,2.09-.78.24-1.32.71-1.61,1.41Z"/>
  </g>
  <path class="cls-6" d="M545.58,401.18c.31,1.62.78,3.21,1.42,4.79,1.12,2.77,1.74,4.3,1.84,4.61.75,2.2,1.5,4.4,2.26,6.6.71,2.08,1.32,4.33,1.83,6.73.48,2.25.97,4.48,1.47,6.69.44,1.89,1.16,4.06,2.15,6.51,2.16,5.3,3.84,10.82,5.05,16.57.25,1.18.66,2.4,1.22,3.64,2.3,5.04,4.51,9.69,5.65,15.35.75,3.71,1.84,7.44,3.26,11.19.18.47.31,1.45.4,2.94.35,6.23-.38,11.62-2.21,16.17-2.48,1.81-4.86,3.33-7.15,4.54-2.04,1.08-3.69,2.1-4.95,3.05-3.35,2.54-5.58,4.15-6.67,4.84-5.6,3.55-11.13,6.94-16.58,10.18-3.04,1.8-6.59,3.39-9.88,5.2-1.1.6-2.74,1.65-4.9,3.14-1.68,1.17-3.34,2.18-4.98,3.03-1.86.74-2.59,1.25-2.2,1.53-6.3,3.02-10.3,4.77-12.01,5.25-3.67,1.04-6.08,1.87-7.26,2.49-3.35,1.75-6.65,3.57-10.08,5.13-3.29,1.49-6.31,3.75-9.4,5.45-4,2.19-7.96,4.31-11.87,6.37-.35.18-1.92,1.14-4.71,2.86-1.55.96-3.22,1.75-5.01,2.37-.79.29-1.62.59-2.48.91-.86.32-1.67.69-2.43,1.11-3.83,2.09-7.69,4.18-11.6,6.28-3.31,1.77-7,2.91-10.32,4.72-2.16,1.18-4.5,2.21-7.03,3.12-3.6,1.28-6.05,2.02-7.37,2.2-2.86.39-5.69.78-8.49,1.15-2.68.12-4.48.23-5.39.33-3.42.36-7.06,1.25-10.52,1.18-3.47-.08-7.48-.16-12.04-.25-.77-.01-1.55-.02-2.36,0-.85.01-1.63,0-2.34-.06-1.43-.1-3.04-.06-4.82.12-5.39.09-11.88.73-19.49,1.93-3.95.62-8.31.66-13.08.11-2.13-.25-4.1-.27-5.92-.08-5.38.57-11.75-.43-16.02-.3-3.14.09-7.22.64-12.25,1.66-5.04-.12-10.1.3-15.17,1.24-2.38.44-4.75.87-7.11,1.27-3.24.55-6.59,1.22-9.95,1.77-1.51.24-2.87-1.29-2.53-2.77.59-2.67,1.33-4.51,2.21-5.52,1.25-1.44,2.48-2.95,3.71-4.52,2.35-3,5.09-6.82,6.01-10.61.79-3.24,2.54-6.01,3.09-9.33.38-2.3.94-4.61,1.67-6.92.79-2.52.79-5.44,1.03-8.15.16-1.87.26-3.87.29-5.98.17-11.04-.03-21.1-.62-30.17-.34-5.24-.9-11.33-1.67-18.27-.51-4.6-1.78-9.22-2.69-13.88-.49-2.49-1.73-4.99-2.15-7.44-.52-3.04-1.11-5.87-1.77-8.5-.53-2.11-.7-5.27-1.78-7.9-.09-.22-.11-.44-.07-.67l.57-3.33c3.51-1.8,7.67-2.56,12.46-2.29,3.08.17,6.08.24,9.01.21,1.58-.01,3.29-.17,5.12-.47,4.52-.73,9.25-.35,13.68-.48,1.32-.04,2.61-.49,3.94-.47,5.12.05,10.48-.03,16.09-.23,2.03-.08,4.31-.42,6.82-1.02,4.17-1,8.56-1.25,12.67-3,2.06-.25,4.11-.64,6.14-1.2,1.82-.5,3.46-.84,4.92-1.03,2.48-.32,4.13-.6,4.96-.85,4.87-1.45,9.36-2.5,13.45-3.14,3.53-.55,6.68-1.6,10.04-2.05,3.04-.4,6.13-.9,9.25-1.5.77-.15,1.56-.25,2.35-.3.81-.05,1.59-.11,2.36-.18,4.28-.38,8.65-.76,13.1-1.13,2.59-.22,4.96-.5,7.09-.82,2.51-.38,4.86-.71,7.04-.99,5.44-.69,10.66-2.61,15.89-3.76,2.54-.56,5.27-.8,8.21-.73,4.68.12,9.38-.86,13.75-1.99,2.35-.6,4.37-.92,6.62-1.3.76-.13,1.63-.42,2.6-.86,1.58-.73,3.2-1.21,4.87-1.44l6.11-1.75c.29.16.51.06.66-.29.56-.06,1.28-.29,2.17-.69,3.25-1.49,5.84-2.81,7.79-3.97,5.24-3.13,8.9-4.99,13.9-6.47,2.55-.76,4.78-1.71,6.69-2.87,3.35-2.03,6.67-3.4,9.95-4.14,1.24-.28,2.38-.57,3.43-.89,1.56-.45,2.83-1.23,4.53-1.22,2.23,0,4.41.55,6.53,1.63ZM545.35,410.4c-1.31-3.09-2.29-7.86-6.96-6.71-1.84.45-3.57.96-5.43,1.28-2.63.45-5.13,1.22-7.5,2.32-3.6,1.66-5.6,2.57-5.98,2.71-5.73,2.21-10.47,4.43-14.24,6.64-4.3,2.53-8.68,5.02-13.14,7.46-.74.4-1.52.7-2.36.9-5.54,1.29-10.31,2.6-14.31,3.92-1.02.34-2.34.49-3.95.47-2.5-.04-4.29,1.54-6.69,1.81-2.56.3-4.92-.33-7.47.23-2.58.57-5.37,1.06-8.36,1.48-3.3.46-6.2,1.42-9.28,2.36-5.19,1.58-10.44,2.05-15.74,2.9-2.42.39-5.1.66-8.05.83-2.91.16-5.62.5-8.12,1.03-3.71.79-8.23.38-11.69,2.55-.54.34-.83.97-.74,1.61.59,4.3.57,8.6,1.44,12.92.67,3.33,1.13,6.81,1.39,10.44.11,1.66.67,3.29,1.08,4.92.27,1.1.46,2.34.56,3.72.52,7.36,1.37,14.88,1.6,22.42.08,2.65.39,5.28.92,7.9.54,2.65.53,5.25.98,7.9.91,5.41,1.27,10.5,2.2,15.82,1.27,7.24,2.07,12.89,2.38,16.97.34,4.49.8,8.7,1.37,12.63.25,1.73.36,3.33.35,4.82-.01,3,.38,5.87.38,8.86,0,2.54-.53,9.84,4.34,8.52,2.92-.79,5.9-1.54,8.71-2.76,7.28-3.16,14.1-6.48,20.48-9.94,3.34-1.82,6.74-3.54,10.17-5.17,3.86-1.82,7.24-3.56,10.13-5.23,8.92-5.12,15.16-8.59,18.74-10.43,1.57-.8,3.14-1.58,4.71-2.34,3.55-1.71,6.86-3.7,10.63-5.05,7.09-2.52,14.05-5.94,20.88-10.25,2.94-1.86,6.12-3.66,9.55-5.4,4.78-2.43,9.16-5.6,13.92-8.06,2.6-1.35,4.85-3.27,7.32-4.88,2.58-1.66,5.12-3.26,7.54-5.07,1.87-1.4,3.62-2.51,5.24-3.32,3.69-1.86,5.41-4.21,6.01-8.16.57-3.69.52-7.19-.13-10.51-1.69-8.62-4.74-18.01-8.21-26.15-1.24-2.91-1.63-6.03-2.87-9.01-.91-2.22-1.02-4.69-1.87-6.97-2.85-7.62-5.18-15.56-6.99-23.81-.65-2.98-1.63-6.02-2.95-9.13Z"/>
  <path class="cls-7" d="M545.35,410.4c1.32,3.11,2.3,6.15,2.95,9.13,1.81,8.26,4.14,16.19,6.99,23.81.85,2.28.96,4.76,1.87,6.97,1.23,2.99,1.63,6.1,2.87,9.01,3.47,8.14,6.52,17.53,8.21,26.15.65,3.31.69,6.82.13,10.51-.6,3.95-2.31,6.3-6.01,8.16-1.62.81-3.36,1.92-5.24,3.32-2.42,1.81-4.97,3.41-7.54,5.07-2.48,1.61-4.72,3.53-7.32,4.88-4.77,2.46-9.15,5.63-13.92,8.06-3.43,1.74-6.61,3.54-9.55,5.4-6.83,4.31-13.79,7.73-20.88,10.25-3.78,1.35-7.08,3.34-10.63,5.05-1.57.76-3.14,1.53-4.71,2.34-3.58,1.84-9.82,5.31-18.74,10.43-2.89,1.66-6.27,3.4-10.13,5.23-3.44,1.63-6.83,3.35-10.17,5.17-6.37,3.47-13.2,6.78-20.48,9.94-2.81,1.22-5.79,1.97-8.71,2.76-4.88,1.32-4.34-5.98-4.34-8.52,0-2.99-.39-5.86-.38-8.86,0-1.48-.11-3.09-.35-4.82-.57-3.93-1.02-8.14-1.37-12.63-.31-4.07-1.1-9.73-2.38-16.97-.93-5.32-1.29-10.41-2.2-15.82-.45-2.65-.44-5.25-.98-7.9-.53-2.62-.83-5.25-.92-7.9-.23-7.53-1.08-15.05-1.6-22.42-.1-1.38-.29-2.62-.56-3.72-.41-1.63-.97-3.26-1.08-4.92-.26-3.64-.72-7.12-1.39-10.44-.87-4.32-.85-8.62-1.44-12.92-.09-.63.2-1.26.74-1.61,3.46-2.17,7.97-1.76,11.69-2.55,2.5-.53,5.21-.88,8.12-1.03,2.95-.17,5.63-.44,8.05-.83,5.3-.86,10.55-1.32,15.74-2.9,3.08-.94,5.98-1.9,9.28-2.36,3-.42,5.78-.91,8.36-1.48,2.55-.57,4.91.06,7.47-.23,2.41-.28,4.2-1.86,6.69-1.81,1.61.02,2.92-.13,3.95-.47,4-1.33,8.77-2.63,14.31-3.92.84-.2,1.63-.5,2.36-.9,4.46-2.45,8.84-4.93,13.14-7.46,3.76-2.21,8.51-4.43,14.24-6.64.38-.15,2.37-1.05,5.98-2.71,2.37-1.1,4.87-1.87,7.5-2.32,1.87-.32,3.59-.83,5.43-1.28,4.67-1.15,5.65,3.62,6.96,6.71Z"/>
  <path class="cls-1" d="M285.89,216.03c3.35,2.07,6.79,4.29,9.42,7.14,5.46,5.87,10.44,10.66,14.94,14.36,3.66,3.01,6.65,5.93,8.99,8.77,4.22,5.13,8.24,10.61,12.9,15.15,3.01,2.93,5.94,5.87,9.06,8.55,5.47,4.7,10.35,9.1,14.64,13.21,1.45,1.39,2.88,3.18,4.29,5.35,1.47,2.27,4.41,5.52,8.82,9.77,8.83,8.49,16.22,15.71,23.94,24.17,8.28,9.09,16.62,18.05,25.03,26.89,1.67,1.76,3.37,3.4,5.09,4.92,3.53,3.12,6.01,6.83,9.7,9.8,2.1,1.69,4.16,3.44,6.19,5.25,2.02,1.81,3.45,4.23,5.33,6.24,1.89,2.01,4.37,3.04,6.57,4.91,4.79,4.11,9.1,8.94,13.49,13.04,2.72,2.54,5.25,5,7.58,7.39,4.44,4.57,9.26,9.34,14.46,14.33,1.48,1.43,2.69,3.03,3.63,4.8l-6.11,1.75.81-1.35c.47-.76.31-1.75-.38-2.34-4.25-3.64-8.31-7.59-12.17-11.85-3.31-3.65-6.74-7-10.4-10.17-3.3-2.86-6.43-6.55-9.48-9.93-.58-.64-1.99-1.69-4.23-3.15-1.66-1.07-3.59-2.74-4.78-4.3-1.1-1.43-2.25-2.64-3.45-3.63-1.33-1.1-2.51-2.23-3.54-3.41-2.7-3.07-6.12-5.28-8.84-8.21-3.17-3.42-6.18-6.9-9.38-10.06-7.41-7.3-14.51-14.68-21.29-22.15-3.3-3.64-6.88-7.02-10.17-10.81-4.87-5.61-9.74-10.13-14.82-15.06-3.27-3.18-5.11-4.97-5.51-5.37-3.02-3.04-5.8-6.26-8.33-9.69-1.63-2.21-3.41-3.82-5.37-5.57-3.45-3.09-6.54-6.34-10.02-9.42-2.28-2.02-4.26-3.85-5.93-5.5-3.95-3.89-8.19-7.73-11.55-11.88-2.06-2.54-4.05-4.97-5.99-7.31-2.05-2.47-5.18-5.4-9.38-8.78-1.36-1.09-2.57-2.2-3.62-3.34-2.3-2.48-4.97-4.79-7.11-7.44-1.86-2.31-4.15-3.9-6.33-5.83-.57-.5-1.21-.74-1.95-.73-.44,0-.79.38-.78.82,0,.06,0,.12.02.17.29,1.17.61,2.17.94,3,2.02,5.07,3.97,9.92,5.85,14.55,1.68,4.13,2.24,8.82,3.4,13,.67,2.42,1.25,4.87,1.73,7.37,1.01,5.32,2.05,9.8,3.11,13.46,1.04,3.61,1.85,6.95,2.43,10.01.61,3.21,1.22,6.34,2,9.43,1.93,7.77,3.8,15.11,5.61,22.02,1.52,5.82,3.18,11.27,4.56,16.83,1.08,4.41,2.2,8.62,3.34,12.61,1.72,6.05,3.41,12.1,5.07,18.17,1.53,5.57,3.33,11.12,4.48,16.7.76,3.68,1.85,7.27,2.61,10.99.51,2.52,1.22,5.26,2.12,8.21,2.45,8.02,4.71,16.31,6.79,24.87.33,1.33.91,2.54,1.09,3.92.13,1,.37,1.98.72,2.94.83,2.3,1.52,4.62,2.04,6.96.47,2.09,2.1,3.06,3.43,4.51-4.11,1.74-8.5,2-12.67,3-2.51.6-4.79.94-6.82,1.02-5.61.2-10.97.28-16.09.23-1.33-.01-2.62.43-3.94.47-4.43.13-9.16-.25-13.68.48-1.83.3-3.54.45-5.12.47-2.93.03-5.93-.04-9.01-.21-4.79-.27-8.95.5-12.46,2.29-.51-1.5-1.21-2.96-2.09-4.36-1.42-2.28-3.42-4.37-6.01-6.26-3.48-2.54-7.19-5.09-11.14-7.66-2.01-1.31-4.28-2.02-6.37-3.15-1.36-.74-2.91-1.42-4.64-2.03-4.08-1.43-8.04-2.71-11.87-3.82-2.68-.78-6.48-2.24-11.39-4.37-2.36-1.03-4.73-1.38-7.1-2.31-1.48-.59-3.17-1.13-5.07-1.62-1.66-.43-3.35-1-5.07-1.71.71-2.71,1.41-5.35,2.12-7.9,2.02-7.35,4.33-14.76,6.94-22.24,1.75-5.04,4.69-9.43,5.91-14.53.56-2.37,1.39-4.65,2.49-6.84,2.04-4.06,3.48-8.36,5.7-12.46,2.16-4.01,3.21-9.23,4.25-13.9.8-3.53,2.34-6.4,3.34-9.78.98-3.32,2.67-6.33,3.71-9.59.98-3.08,2.27-6.13,3.86-9.13,1.03-1.94,1.45-3.86,2.07-5.91,1.22-4.02,3.54-7.63,4.64-11.69.56-2.05.91-4.35,2.21-6.08,1.58-2.1,3.08-3.63,3.79-6.3.76-2.9,1.54-5.68,2.33-8.33.81-2.68,2.61-5.07,3.42-7.87,1.01-3.51,2.08-6.55,3.18-9.14,2.61-6.07,5.75-11.26,9.41-15.57,1.29-1.51,2.3-2.9,3.04-4.16.72-1.24,1.51-2.93,2.36-5.06,1.7-4.26,4.1-8.11,7.18-11.54l3.32-1.51Z"/>
  <path class="cls-2" d="M483.83,421.83c-1.67.23-3.29.71-4.87,1.44-.97.44-1.83.73-2.6.86-2.25.38-4.27.7-6.62,1.3-4.37,1.13-9.07,2.11-13.75,1.99-2.93-.08-5.67.17-8.21.73-5.24,1.15-10.45,3.07-15.89,3.76-2.18.28-4.53.61-7.04.99-2.13.33-4.5.6-7.09.82-4.45.37-8.82.75-13.1,1.13-.76.07-1.55.13-2.36.18-.79.05-1.58.15-2.35.3-3.13.6-6.21,1.1-9.25,1.5-3.36.45-6.51,1.49-10.04,2.05-4.09.64-8.58,1.69-13.45,3.14-.83.25-2.48.53-4.96.85-1.46.19-3.1.53-4.92,1.03-2.03.55-4.08.95-6.14,1.2-1.33-1.45-2.96-2.42-3.43-4.51-.53-2.34-1.21-4.66-2.04-6.96-.35-.96-.59-1.94-.72-2.94-.18-1.37-.76-2.58-1.09-3.92-2.08-8.56-4.34-16.85-6.79-24.87-.91-2.96-1.61-5.69-2.12-8.21-.76-3.72-1.85-7.31-2.61-10.99-1.15-5.59-2.95-11.13-4.48-16.7-1.66-6.07-3.35-12.12-5.07-18.17-1.14-3.99-2.25-8.2-3.34-12.61-1.37-5.56-3.04-11.01-4.56-16.83-1.81-6.91-3.68-14.25-5.61-22.02-.77-3.09-1.39-6.22-2-9.43-.58-3.06-1.4-6.39-2.43-10.01-1.06-3.66-2.09-8.15-3.11-13.46-.48-2.5-1.05-4.95-1.73-7.37-1.16-4.18-1.72-8.87-3.4-13-1.88-4.64-3.83-9.49-5.85-14.55-.33-.84-.65-1.84-.94-3-.11-.43.16-.87.58-.98.06-.01.11-.02.17-.02.73-.01,1.38.23,1.95.73,2.18,1.93,4.47,3.53,6.33,5.83,2.14,2.66,4.81,4.96,7.11,7.44,1.06,1.14,2.26,2.25,3.62,3.34,4.2,3.38,7.32,6.31,9.38,8.78,1.93,2.34,3.93,4.78,5.99,7.31,3.35,4.15,7.6,7.99,11.55,11.88,1.67,1.65,3.65,3.48,5.93,5.5,3.48,3.08,6.57,6.32,10.02,9.42,1.96,1.76,3.74,3.36,5.37,5.57,2.53,3.42,5.31,6.65,8.33,9.69.4.41,2.24,2.2,5.51,5.37,5.07,4.93,9.95,9.45,14.82,15.06,3.29,3.79,6.86,7.17,10.17,10.81,6.78,7.47,13.88,14.85,21.29,22.15,3.2,3.15,6.21,6.64,9.38,10.06,2.72,2.94,6.15,5.15,8.84,8.21,1.04,1.18,2.22,2.32,3.54,3.41,1.2.99,2.35,2.2,3.45,3.63,1.19,1.56,3.12,3.23,4.78,4.3,2.24,1.46,3.65,2.51,4.23,3.15,3.05,3.38,6.18,7.07,9.48,9.93,3.66,3.17,7.09,6.51,10.4,10.17,3.86,4.26,7.92,8.21,12.17,11.85.68.58.84,1.57.38,2.34l-.81,1.35Z"/>
  <path class="cls-4" d="M239.83,20.32c1.84.49,3.52.99,5.03,1.49,1.34.45,2.65,1.11,3.94,1.98,1.91,1.29,3.13,2.08,3.69,2.37,4.54,2.39,9.13,4.93,12.88,8.26,1.07.95,2.38,2.32,3.96,4.1,1.07,1.21,2.46,2.48,4.17,3.82,2.8,2.2,5.36,4.39,7.66,6.56,2.75,2.58,6.29,7.24,7.91,10.82,1.03,2.28,1.91,4.7,2.62,7.24.92,3.27.95,7.31,1.29,10.95.53,5.56,2.09,10.86,4.68,15.91.19.37.46.7.79.97,4.48,3.58,9.08,7.76,13.83,12.53,2.75,2.78,6.59,4.67,9.86,6.93,3.37,2.32,6.99,4.26,10.05,6.88,2.04,1.75,4.34,3.08,6.22,5.03,3.55,3.68,7.14,7.22,10.79,10.64,5.75,5.37,8.21,12.21,11.74,18.88,1.46,2.76,2.75,5.77,3.86,9.03.36,1.06.54,2.1.52,3.12-.02,2.06.58,4.04.93,6.06,1.34,7.87-1.33,15.14-3.23,22.62-.62,2.47-1.38,5.16-2.29,8.08-.53,1.72-1.17,3.23-1.9,4.52-.88,1.54-1.63,2.95-2.26,4.23-.39.79-1.01,1.44-1.87,1.94-.23.14-.46.16-.71.06-1.24-.49-2.2-1.3-2.9-2.44-1.47-2.41-3.42-4.35-5.84-5.83-1.83-1.12-3.16-2.99-5.15-4-2.36-1.2-4.08-2.32-4.97-5.08-.73-2.24-1.37-4.48-1.92-6.74-1.38-5.55,1.82-10.54.65-15.97-.36-1.67-.27-3.31-.71-4.96-.74-2.72-1.76-5.03-3.07-6.93-5.19-7.53-11.12-14.54-19.64-17.83-3.15-1.21-5.7-3.26-8.75-4.23-5.43-1.73-10.9-3.34-15.98-6.07-4.06-2.18-8.31-3.85-12.41-6.09-2.36-1.29-4.43-2.35-6.21-3.19-2.07-.97-4.17-1.99-6.29-3.06-.37-.8-.68-1.69-.93-2.69-.92-3.67-1.84-7.26-2.49-11.1-.32-1.88-.74-3.73-1.27-5.54-.13-.43-.2-.9-.23-1.39-.03-.63-.07-1.1-.12-1.41-.04-2.12.05-4.09.28-5.9.36-2.88.54-4.83.54-5.84,0-2.84-.13-6.04-.4-9.6-.19-2.6-.68-5.27-1.46-7.99-.79-2.78-.38-5.62-.99-8.43-1.16-5.25-2.4-10.55-3.72-15.91-.42-1.71-1.04-3.19-1.65-4.83-1.39-3.75-3.33-7.31-5.01-10.95-.36-.78-1.09-1.96-2.18-3.54-.75-1.09-1.41-2.33-1.97-3.72,0-1.52.21-2.78.64-3.76Z"/>
  <g>
    <path class="cls-8" d="M239.83,20.32c-.43.98-.64,2.24-.64,3.76.2,4.97.93,9.84,2.19,14.62.73,2.75,1.27,5.2,1.62,7.35,1.03,6.39,3.22,12.05,4.5,18.35.64,3.15,1.35,6.41,2.13,9.76,1.05,4.48,3.25,9.48,3.38,13.82.06,2.09.27,3.59.63,4.5.93,2.4,1.64,5.18,2.12,8.32.05.31.09.78.12,1.41.02.49.1.95.23,1.39.53,1.82.96,3.67,1.27,5.54.65,3.85,1.57,7.44,2.49,11.1.25,1,.55,1.89.93,2.69,1.2,3.42,2.17,6.87,2.89,10.35.7,3.4,1.17,5.61,1.42,6.62.85,3.58,1.44,7.26,2.62,10.67.62,1.77.76,3.65,1.29,5.4,2.9,9.54,5.25,19.01,7.05,28.41.76,3.97,2.07,7.33,3.52,10.94.53,1.32.99,2.79,1.38,4.43,1.33,5.51,2.96,10.94,4.92,16.28l-3.32,1.51c-1-1-1.78-2.58-2.33-4.73-.72-2.77-1.38-5.56-1.98-8.36-.59-2.73-1.85-5.07-2.57-7.73-.8-2.94-1.66-5.88-2.57-8.84-.42-1.36-.82-3.51-1.18-6.44-.28-2.29-.77-4.47-1.46-6.54-1.13-3.39-2-6.83-2.61-10.3-.47-2.67-1.06-5.07-1.78-7.2-2.94-8.79-5.03-16.23-6.27-22.32-.65-3.2-1.23-6.23-1.76-9.09-.55-2.98-1.19-5.97-1.92-8.96-.84-3.46-1.64-7.13-2.4-11.03-.74-3.79-2.01-8.49-3.83-14.12-1.13-3.47-1.39-7.69-2.71-11.37-2.6-7.24-3.74-14.35-5.69-21.82-.99-3.76-1.93-7.49-2.84-11.18-.43-1.76-.94-3.58-1.51-5.47-.97-3.18-1.79-7.87-2.46-14.08-.47-4.37-4.94-4.71-6.4-8.19-.9-2.11-1.76-4.32-2.58-6.63-1.4-3.9-.52-11.8,4.66-13.04,5.08-1.23,8.03,7.97,9.1,11.38.33,1.06.4,2.26.21,3.6-.27,1.95-.22,3.69.14,5.23Z"/>
    <path class="cls-8" d="M504.11,726.74l-2.75-.69c1.6-6.4,3.1-12.7,4.49-18.92.56-2.49,1.23-4.44,2-5.85,1.36-2.48,2.65-4.95,3.86-7.41.15-.3.45-.5.79-.52.39-.03.65.08.77.32.29.58.32,1.2.09,1.86-.9,2.5-2.14,5.13-3.73,7.9-.61,1.05-1.17,2.8-1.42,4.19-.38,2.11-1.01,4.28-1.9,6.52-.28.72-.46,1.84-.54,3.35-.16,3.09-1.03,6.24-1.67,9.28Z"/>
    <path class="cls-8" d="M516.98,724.19c-1.24-.02-2.65.51-4.24,1.59-.34-4.11.41-7.8,2.26-11.08.47-.84.76-1.74.89-2.66.76-5.46,1.73-10.59,2.89-15.37.25-1.07.76-2.01,1.52-2.82.42-.45,1.07-.61,1.66-.4,1.79.66.76,3.32.4,4.55-1.15,3.76-2.32,7.54-3.51,11.32-.41,1.28-.62,2.67-.65,4.17-.04,1.89-.53,3.72-.64,5.64-.08,1.5-.27,3.18-.57,5.05Z"/>
    <path class="cls-8" d="M459.69,746.53l-3.81.87c-.09-4.61.7-9.01,2.38-13.2,1-2.49,1.71-4.42,2.1-5.79.98-3.39,2.12-6.73,3.41-10.03.23-.57.64-.84,1.25-.79.25.01.46.14.64.38.14.19.18.44.08.66-1.58,3.92-3.03,8.19-4.34,12.82-1.09,3.83-1.43,7.91-1.93,11.95-.12.93-.04,1.98.22,3.12Z"/>
    <path class="cls-8" d="M446.68,748.08l-3.11-.14c.58-1.47,1.02-3,1.32-4.59.33-1.74.73-3.14,1.2-4.21,1.32-2.95,2.48-6,3.5-9.16,1.1-3.44,2.75-6.79,4.05-10.2.1-.25.27-.48.49-.64.56-.41.99-.48,1.28-.21.33.3.42.66.25,1.08-4.03,10.29-6.56,16.98-7.59,20.05-.61,1.83-1.08,4.5-1.39,8.01Z"/>
    <path class="cls-8" d="M357.78,770.86c-1.06.38-2.5.47-4.31.28,2.7-4.37,5.5-8.54,8.38-12.52.87-1.19,1.51-2.31,1.92-3.36.6-1.5,1.48-4.69,3.19-5.16.56-.16,1.13.17,1.29.73.05.17.05.36.01.53-.27,1.12-.72,2.16-1.35,3.12-3.4,5.17-6.44,10.62-9.14,16.36Z"/>
    <path class="cls-8" d="M337.9,771.99c-.81.06-1.63-.03-2.48-.25,1.28-2.08,2.6-4.04,3.96-5.88,2.33-3.15,4.62-6.23,6.89-9.23.96-1.27,2.09-2.35,3.38-3.22.99-.67,2.07-.93,3.23-.8.59.07,1.02.6.95,1.19,0,.02,0,.04,0,.06-.15.91-.67,1.54-1.55,1.9-1.7.68-3.05,1.64-4.05,2.85-1.92,2.35-3.76,4.47-5.5,6.36-1.13,1.22-2.73,3.57-4.81,7.04Z"/>
    <path class="cls-8" d="M209.04,783.78l-.41-2.01c.31-4.68,2.58-7.26,4.6-10.91,2.26-4.06,6.41-7.78,9.88-10.14.62-.42,1.32-.55,2.1-.39.33.07.52.38.58.93.03.3-.09.59-.34.78-2.85,2.1-5.46,4.21-7.82,6.33-1.89,1.7-3.26,3.65-4.11,5.86-.44,1.15-.94,2.25-1.51,3.31-1.22,2.29-1.5,4.65-2.98,6.24Z"/>
    <path class="cls-8" d="M219.13,790.34l-1.79-.56c.92-2.89,2.21-5.56,3.87-8,1.68-2.47,3.37-4.95,5.06-7.42,1.19-1.74,5.28-6.61,7.75-5.46.53.25.81.83.67,1.4-.22.86-.7,1.52-1.46,1.95-4.42,2.58-6.74,6.13-9.41,10.3-.03.04-.74,1.05-2.14,3.02-1.02,1.44-1.87,3.02-2.55,4.77Z"/>
  </g>
</svg>