<?xml version="1.0" encoding="UTF-8"?>
<svg id="Layer_1" data-name="Layer 1" xmlns="http://www.w3.org/2000/svg" viewBox="0 0 612 792">
  <defs>
    <style>
      .cls-1 {
        fill: #527ec0;
      }

      .cls-1, .cls-2, .cls-3, .cls-4, .cls-5, .cls-6, .cls-7, .cls-8, .cls-9 {
        stroke-width: 0px;
      }

      .cls-2 {
        fill: #72304b;
      }

      .cls-3 {
        fill: #90ca71;
      }

      .cls-4 {
        fill: #6a9dd4;
      }

      .cls-5 {
        fill: #231c1c;
      }

      .cls-6 {
        fill: #8a4a32;
      }

      .cls-7 {
        fill: #612b45;
      }

      .cls-8 {
        fill: #65bc46;
      }

      .cls-9 {
        fill: #6e3d2c;
      }
    </style>
  </defs>
  <g>
    <path class="cls-3" d="M538.8,155.47c.61.89,1.38,1.82,2.31,2.79,1.01,1.06,1.79,1.98,2.33,2.76,5.3,7.6,9.39,15.89,13.31,24.23,1.33,2.83,2.67,5.48,4.03,7.93,2.23,4.02,3.68,8.31,6.23,12.05,2.81,4.14,5.19,8.53,7.97,12.71,2.26,3.39,4.74,7.48,7.42,12.25,3.35,5.96,6.17,11.34,8.48,16.16.92,1.91,2.39,4.09,4.41,6.53,2.89,3.49,5.11,6.95,7.12,10.96,1.82,3.65,2.28,7.65,2.51,11.62.14,2.4-.15,4.66-.88,6.76-1.66,4.86-3.72,8.56-6.2,11.11-1.75,1.81-4,3.94-6.74,6.38-2.73,2.44-5.24,4.43-7.54,5.97-4.19,2.81-8.26,6.76-12.62,8.79-3.78,1.76-7.81,3.63-12.11,5.63-4.97,2.3-9.65,3.16-15.1,3.39-1.3.05-1.59.62-.86,1.7,2.74,4.11,5.66,8.39,7.16,13.11,1.36,4.31,4.14,8.34,5.9,12.67,1.08,2.65,2.32,5.04,3.08,7.92.63,2.36,1.26,4.58,1.91,6.67.71,2.28,1.26,4.55,1.65,6.81.58,3.39.99,6.47,1.22,9.24.28,3.49.31,7.78.09,12.9-.13,2.85-.13,5.71,0,8.58.12,2.6.14,5.41.06,8.43-.04,1.6.43,6.82,1.41,15.65.27,2.44.28,5.66.02,9.67-.13,2-.12,3.95.03,5.87.35,4.62-1.34,9.21-1.54,13.9-.05,1.22-.24,2.39-.58,3.51-1.34,4.47-2.5,9.36-4.48,13.53-1.56,3.27-3.67,6.81-6.35,10.61-2.05,2.9-4.16,5.74-7.27,7.76-3.1,2.02-5.79,4.5-8.93,6.3-3.58,2.05-7.68,3-10.85,5.28-1.92.46-3.83.89-5.74,1.3-3.76.8-7.73,2.67-11.31,2.27-3.41-.39-6.9-.56-10.45-.52-5.65.06-11.22-.8-16.72-1.89-4.22-.83-8.54-2.64-12.77-3.86-1-.29-1.92-.69-2.77-1.22-3.23-2-6.79-3.61-9.95-5.72-3.13-2.09-6.2-4.06-9.2-5.91-.72-.44-1.42-.98-2.09-1.62-3.45-3.28-7.15-6.87-11.11-10.76-1.06-1.03-2.44-2.24-4.14-3.63-1.41-1.15-2.67-2.39-3.8-3.73-2.09-3-4.31-5.84-6.64-8.52-.99-1.13-2.94-4.22-5.85-9.26-1.78-3.07-3.54-5.72-5.29-7.96-3.95-5.06-7.63-10.2-11.69-15.11-1.87-2.26-3.62-4.5-5.26-6.71-1.91-2.59-4.11-5.29-6.58-8.11-5.21-5.92-9.39-12.14-13.42-19.17-1.64-2.86-3.31-5.36-5.01-7.48-2.86-3.57-5.69-7.2-8.47-10.91-1.63-2.16-2.01-5.6.84-7.09,2.86-1.49,5.98-.59,8.98-.19,3.33.44,6.23,1.57,9,3.37,5.79,3.75,11.51,7.61,17.14,11.59,1.77,1.24,5.57,3.66,11.4,7.26.91,2.02,2.27,3.16,4.07,3.44,1.57.24,2.93.46,4.09.65.88.5,1.66.99,2.34,1.48,5.44,3.93,12.7,4.17,18.14,7.05,4.11,2.18,8.32,3.36,12.42,5.28,5.03,2.36,10.53,3.71,15.65,5.82,1.69.7,3.45.98,5.23,1.3,1.35.25,2.74.28,4.16.1,4.19-.53,8.21-.33,12.53-.88,3.78-.48,7.55-1,11.32-1.54,2.78-.4,5.76-1.21,8.93-2.44,2.17-.85,4.06-2.35,5.94-3.76,2.84-2.13,5.92-3.5,8.92-5.25,6.47-3.77,8.62-8.57,11.4-15.42,4.01-9.85,6.33-19.32,6.97-28.41.2-2.76.28-5.54.25-8.34-.03-2.78.08-5.57.34-8.37.29-3.16.19-6.98-.38-10.23-.35-2.02-.67-4.12-.95-6.31-.11-.83.17-1.6-.04-2.39-.06-.23-.19-.42-.39-.56-1.94-1.43-3.08-2.53-3.41-3.31-1.47-3.44-3.28-6.8-5.41-10.08-.39-1.13-.69-1.83-.9-2.1-.83-1.04-1.64-2.08-2.44-3.14-.59-.88-.92-1.57-.99-2.07-.5-3.66-1.3-7.31-1.77-10.91-.79-5.92-2.39-11.5-3.36-17.36-.37-2.23-.83-4.53-1.38-6.89-.7-3.01-1.44-6.98-2.2-11.93-.19-1.28-.89-2.87-1.08-4.33-1.02-8.23-2.4-15.98-4.13-23.26-.64-2.7-1.08-5.42-1.33-8.14-.46-5.21-1.2-10.23-2.21-15.07-.39-1.88-.47-4.43-1.04-6.68-.9-3.57-1.8-7.14-2.71-10.71-.26-1.02-.76-2.44-1.51-4.27-.56-1.37-1.02-2.81-1.38-4.32,2.94-2.02,5.65-4.15,8.85-5.72,4.83-2.37,9.81-4.6,14.41-7.32,1.97-1.17,3.35-1.82,4.14-1.97,5.14-.95,9.53-3.02,13.17-6.21ZM534.02,314.72c1.46,3.02,3.31,4.93,5.54,5.75,1.91.7,3.88.45,5.87.5,1.45.04,2.84-.1,4.16-.4,5.52-1.28,10.38-3.16,14.58-5.64,4.44-2.63,9.18-4.83,13.26-7.73,4.16-2.96,8.79-6.52,13.89-10.69,2.66-2.17,4.46-4.03,5.4-5.57,1.64-2.67,3.06-6.44,4.28-11.32.96-3.83.14-7.7-.47-11.46-.75-4.67-3.76-11.49-9.04-12.36-1.37-.22-3.1,0-5.18.65-3.79,1.2-7.47,2.33-11.02,3.37-2.78.82-5.54,2.23-8.14,3.56-1.3.67-3.38,1.53-6.23,2.59-4.5,1.68-8.6,4.16-12.29,7.44-3.53,3.15-7.01,6.26-9.72,10.09-1.21,1.7-2.28,3.34-3.23,4.91-1.53,2.53-3.26,6.21-5.18,11.03-1.05,2.64-1.03,5.23.07,7.78.96,2.23,2.11,4.73,3.45,7.5ZM504.9,412.78c-5.21,1.97-10.96,3.34-16.31,4.27-.9.15-1.8.27-2.73.34-2.46.19-4.74.67-7.28.74-2.41.07-4.76.18-7.04.33-2.77.19-5.17.07-7.21-.34-2.67-.54-5.41-1.35-8.22-2.42-3.16-1.2-6.69-1.54-9.55-3.25-3.03-1.8-5.75-3.13-8.18-3.97-4.11-1.43-7.91-3.48-11.93-4.72-4.59-1.41-8.15-2.72-10.68-3.94-4.74-2.28-9.69-5.01-14.15-7.83-3.3-2.09-6.96-3.64-9.87-6.18-1.85-1.61-3.51-2.85-4.98-3.73-3.46-2.07-6.96-4.38-10.5-6.94-2.36-1.71-4.76-2.69-7.54-3.17-.53-.09-1.06.23-1.21.76-.41,1.41,1.44,3.26,2.47,4.24,5,4.75,9.47,9.2,13.41,13.36.47.5.96.96,1.46,1.39,1.29,1.11,2.45,2.34,3.8,3.37,4.96,3.83,9.87,7.35,14.73,11.7,4.42,3.95,9.08,7.42,13.98,10.4,1.59.97,3.36,2.42,5.31,4.34,2.72,2.68,5.9,4.75,9.06,6.9,1.28.88,2.62,1.74,4.01,2.59,2.88,1.77,5.69,3.58,8.43,5.45,2.7,1.84,6.36,3.46,10.98,4.86,2.91.88,5.47,2.15,8.28,2.94,2.44.69,4.53,1.33,6.28,1.91,2.97,1,5.97,2.23,9.09,2.65,2.97.39,5.85.98,8.84,1.24,3.18.27,6.45.63,9.8,1.09,6.22.85,12.09,1.13,18.13.78,4.5-.27,8.85-2.86,12.95-4.56,4.54-1.87,7.65-4.17,10.73-7.64,2.16-2.44,4.26-4.8,6.29-7.1.64-.73,1.16-1.46,1.57-2.18,1.86-3.36,4.02-6.99,6.48-10.89,2.25-3.58,3.8-6.62,4.65-9.12,1.97-5.86,2.18-12.01,2.59-18.26.18-2.7.2-5.09.06-7.18-.15-2.25-.27-4.49-.37-6.74-.1-2.11-.39-4.28-.88-6.51-1.12-5.05-2.73-9.87-4.82-14.48-1.07-2.36-2.08-4.67-3.01-6.93-1.77-4.26-3.62-8.66-5.56-13.19-1.58-3.69-3.4-6.72-5.36-10.04-.2-.34-.63-.45-.98-.25-.04.03-.08.06-.12.09-.15.14-.23.32-.23.53,0,2.32.23,4.43.69,6.34.45,1.84.29,3.78.47,5.67.14,1.55.21,3.07.19,4.58-.04,2.68.45,5.25.3,7.95-.11,2.13-.22,4.35-.31,6.65-.13,3.4-.86,7.4-2.19,12.01-.85,2.95-1.13,6.03-2.42,8.81-1.09,2.34-2.07,4.62-2.94,6.84-2.13,5.46-6.13,9.72-9.69,14.18-1.9,2.39-4.9,3.34-7.43,5-2.02,1.33-4.12,2.62-6.31,3.88-1.8,1.03-3.11,2.66-5.03,3.38Z"/>
    <path class="cls-3" d="M394.97,204.73c-.08,7.66.22,15.28.9,22.87.24,2.68.22,7.11-.07,13.28-.12,2.54.33,7.48,1.34,14.81.45,3.29.74,7.95.88,13.97.08,3.24.35,6.38.82,9.43.75,4.88,1.2,10.21,1.34,15.98.03,1.35-.12,3.4-.47,6.15-.43,3.38-.38,6.74.15,10.08-.13,3.17-.17,6.27-.11,9.28.03,1.44.05,2.82.07,4.14.04,2.71.13,5.56.25,8.55.09,2-.07,3.71-.46,5.14-.93,3.43-1.89,6.63-4.08,9.59-2.01,2.72-3.94,5.26-5.8,7.62-3.29,4.17-8.18,5.23-13.12,6.51-2.6.67-5,1.14-7.19,1.41-4.63.56-9.3,1.19-14.01,1.89-4.7.7-8.75.5-13.52-.65-3.53-.85-6.49-2.13-8.88-3.84-2.09-1.49-4.23-2.88-6.43-4.15-3.74-2.16-6.51-5.42-8.69-8.91-1.58-2.53-3.27-5.13-5.06-7.81-3.2-4.75-2.79-10.58-1.98-15.92.74-4.91,1.28-10.02,1.61-15.32.25-4.08.84-8.54,1.74-13.36.23-1.23.25-2.89.06-4.97l.73-4.55c.38-1.56.52-3.24.42-5.04-.13-2.43-.17-4.1-.11-5,.32-4.78.75-9.64.8-14.36.02-2.2.21-4.43.57-6.68.51-3.25.17-6.64.73-9.91.23-1.33.32-2.7.27-4.11-.07-1.84.34-3.59.29-5.46-.07-2.58-.06-5.12.04-7.6.09-2.28.04-4.8-.15-7.55-.31-4.53-.29-9.09.05-13.67,1.93.48,3.2.73,3.81.73,6.43,0,12.97.24,19.39-.35,2.26-.21,4.62-.35,7.09-.41,3.51-.1,7.01-.3,10.5-.62,4.07-.37,8.21.33,12.34.11,4.4-.24,8.69-.34,12.86-.3,1.69.01,3.54-.1,5.55-.34,1.76-.22,3.6-.42,5.52-.62ZM391.24,329.37c-.27-.86-.79-1.66-1.57-2.41-4.13-4.01-7.99-7.3-13.23-9.33-1.83-.71-3.69-1.55-5.57-2.51-3.2-1.65-6.68-2.55-10.43-2.72-4.46-.2-9.59-.34-13.97.52-3.81.75-7.76,1.28-11.35,2.79-4.16,1.74-8.22,3.66-12.18,5.76-2.82,1.49-5.42,3.3-7.79,5.42-2.53,2.27.55,9.33,2,11.6,1.85,2.91,3.82,5.98,5.9,9.2,1.19,1.82,2.76,3.38,4.72,4.67,2.2,1.45,4.3,2.79,6.32,4.02,2.09,1.27,5.41,2.63,9.96,4.08,2.42.78,5.49,1.3,7.88,1,4.73-.6,9.51-1.19,14.35-1.79,2.83-.35,5.54-1,8.37-1.44,1.15-.18,2.34-.47,3.56-.88,3.87-1.29,7.39-2.17,10.02-5.59,3.13-4.07,6.71-6.61,5.59-12.61-.22-1.15-.44-2.19-.68-3.12-.57-2.22-1.2-4.44-1.89-6.67Z"/>
    <path class="cls-3" d="M533.69,534.68c1.9,4.76,3.27,9.69,4.12,14.79.65,3.89,1.23,6.86,1.74,8.89,1.86,7.48,3.4,14.66,4.61,21.52.13.72.66,3.03,1.59,6.93.98,4.1.96,8.01,2.52,12.3.66,1.8,1.13,3.59,1.42,5.36.95,5.75,2.05,11.92,3.31,18.5.35,1.85.85,3.72,1.49,5.59,1.42,4.16.96,8.26,1.84,12.44.49,2.31.99,4.63,1.51,6.95.8,3.6,2.27,8.31,4.4,14.1.79,2.15,1.33,4.26,1.61,6.3.94,6.84,2.28,13.22,4.48,19.88.44,1.32.77,3.91.99,7.78-2.08-2.89-4.13-3.82-6.16-2.79-2.1,1.06-2.87,3.58-1.58,5.61,1.34,2.11,2.23,3.92,2.67,5.41-1.36-.84-2.57-2.21-3.64-4.12-2.06-3.67-3.44-6.39-4.15-8.16-1.76-4.4-3.21-8.92-4.37-13.55-.95-3.8-2.09-7.76-3.44-11.91-1.46-4.5-2.78-8.85-3.95-13.03-.07-.26-.34-.4-.6-.33-.09.03-.18.08-.24.16-.14.17-.21.39-.2.64.07,2.06.33,4.1.79,6.11,1.83,8.04,3.61,15.79,5.34,23.26,1.95,8.42,4.83,17.5,6.97,25.92.77,3.02,1.36,6.64,1.76,10.84-2.01-4.74-4.56-6.43-7.66-5.05-1.49.66-2.19,1.79-2.1,3.38.04.66.43,1.56,1.18,2.69.92,1.39,1.47,2.87,1.65,4.45-2.27-1.14-3.82-2.8-4.64-4.96-1.6-4.19-3.08-8.32-4.16-12.72-1.44-5.84-2.84-11.47-4.21-16.9-.52-2.07-1.18-4.13-1.98-6.18-1.18-3.04-1.6-6.07-2.61-9.03-1.26-3.67-2.24-7.34-2.92-11.02-.22-1.14-.63-2.18-1.24-3.12-.43-.66-1.31-.84-1.97-.41-.08.05-.15.11-.21.17-2.02,1.99-.44,9.02-.06,11.62.18,1.25.42,2.43.72,3.55.8,3.01,1.6,6.01,2.39,8.98,2.61,9.82,2.89,19.96,5.11,29.76.43,1.88.72,3.86.88,5.92.16,2.18.47,4.33.92,6.45.6,2.78.65,5.64,1.18,8.48.38,2.04-.07,4.86-1.34,8.46-.55-1.43-.92-2.87-1.12-4.32-.21-1.51-.65-2.66-1.32-3.46-2-2.36-6.23-1.72-6.68,1.58-.1.71-.02,1.59.22,2.62.49,2.08.81,4.21.96,6.38-4.47-6.19-6.92-13.24-7.35-21.13-.14-2.65-.37-4.79-.7-6.41-.81-4.05-1.59-8.07-2.36-12.07-.41-2.15-.89-4.09-1.43-5.79-1.11-3.5-2.03-7.29-1.92-10.96.07-2.05,0-3.77-.21-5.16-.78-5.2-1.72-9.82-2.83-13.86-.16-.57-.4-1.1-.7-1.57-.31-.47-.94-.59-1.4-.28-.13.09-.24.2-.32.34-.71,1.25-1.02,2.67-1.03,4.08-.03,3.47-.03,6.93,0,10.4.01,2.55.88,4.8,1.04,7.29.32,4.93.79,9.67,1.41,14.22.41,2.95.19,5.74.37,8.67.08,1.19.08,2.36.02,3.52-.15,3.01-.37,6.13-.65,9.34-.65-2.55-1.08-5.36-1.3-8.42-.19-2.7-2.35-4.75-5.08-3.98-1.9.53-2.93,2.29-3.1,5.28-1.65-6.13-3.19-13.04-4.6-20.73-.85-4.61-1.19-9.05-1.03-13.33.12-3.33-.71-6.28-.66-9.5.06-4.43-.31-8.67-1.13-12.72-.59-2.97-1.35-6.3-2.27-9.98-.71-2.84-1.75-5.82-2.84-8.57-.83-2.11-3.63-6.76-6.23-4.22-1.01,1-1.36,2.34-1.36,3.76v7.01c0,1.41.17,3.7.51,6.89.47,4.44.29,9.21-.55,14.33-.44,2.7-1.66,4.75-3.67,6.13,1.12-3.73,1.7-7.51,1.76-11.33.03-2.44-.96-3.93-2.98-4.47-1.44-.38-2.95-.08-4.42-.29-1.01-.14-1.9,0-2.65.4-1.05.57-1.7,1.33-1.97,2.25-.45,1.58-.99,3.21-1.63,4.88-.7-3.78-1.47-7.58-1.22-11.33.23-3.45.5-7.05.79-10.79.22-2.77.26-5.98.13-9.61-.11-3.31-.21-6.58-.29-9.82-.01-.47-.02-.92-.01-1.34.03-4.41-.55-8.39-.77-12.63-.32-6.04-.52-11.95-.61-17.74-.03-1.86-.18-3.77-.46-5.74-.81-5.82-.78-11.41-1.16-17.13-.24-3.61-.3-6.12-.17-7.53.24-2.59.35-4.34.31-5.26,2.41-.93,4.74-1.99,6.98-3.18,5.97-3.18,11.1-5.45,15.4-6.81,3.69-1.16,7.32-2.34,10.9-3.53,2.08-.69,4.24-1.46,6.49-2.32,1.84-.7,4.3-1.48,7.37-2.32,5.69-1.57,13.6-4.8,23.75-9.69Z"/>
    <path class="cls-3" d="M407.63,583.8c1.49,2.36,2.4,4.03,2.72,4.99,1.24,3.64,2.27,7.3,3.1,10.98.74,3.3,1.52,6.6,2.32,9.92,1.17,4.84,2.17,9.37,2.99,13.59.64,3.29,1.16,6.28,1.56,8.98.67,4.5,1.43,8.23,2.28,11.2,1.49,5.18,2.81,10.29,4.07,15.6.99,4.19,2.77,8.09,4.5,12.01,1,2.29,1.18,4.96,1.61,7.48-1.92-.04-4.43-.42-6.05.29-2.15.95-2.37,3.82-2.11,5.91.59,4.78,1.41,9.41,2.45,13.9-2.45-1.16-4.27-3.25-5.46-6.27-2.59-6.55-5.16-12.94-7.7-19.17-.23-.57-.57-1.03-1.02-1.37-.47-.37-1.15-.28-1.51.19-.14.17-.21.38-.23.6-.07,1.26-.14,2.58.2,3.81.51,1.86.99,3.5,1.29,5.48.74,4.92,2.69,9.52,3.95,14.12.71,2.6,2.11,6.57,4.19,11.9,1.85,4.73,3.47,9.74,5.05,14.68.63,1.97,1.17,3.96,1.6,5.97.81,3.77,1.59,7.47,2.34,11.09.41,1.97.93,3.94,1.57,5.9.58,1.8.43,3.96.42,5.94,0,2.13.53,5.21-.15,8.1-.41-.43-.82-1.37-1.25-2.82-.35-1.19-1.27-2.17-2.76-2.94-2.18-1.11-4.5.65-5.1,2.69-.1.33-.13,1.12-.08,2.37.03.79-.06,1.58-.26,2.39-2.55-6.3-4.02-10.91-4.39-13.82-.73-5.62-2.02-10.79-3.88-15.49-.64-1.62-1.06-3.22-1.26-4.79-.34-2.66-.82-4.61-1.45-5.85-1.69-3.34-3.18-6.69-4.47-10.06-.17-.43-.43-.69-.8-.77-.42-.09-.83.18-.92.59-.02.09-.02.18,0,.27.6,4.19,1.96,8.23,2.71,12.32.65,3.58,1.3,7.17,1.8,10.76.45,3.22,1.56,6.16,1.73,9.46.08,1.48.35,3.02.82,4.61.59,1.99.6,4.07,1.01,6.13,1.51,7.44,2.72,15,3.63,22.66-1.7-1.59-2-3.63-5.02-3.51-2.53.1-4.21,1.31-5.06,3.63-.33.9-.66,2.66-.98,5.28-1.63-3.64-2.18-7.07-3.59-10.68-.45-1.14-.68-2.6-.7-4.39-.03-3.22-.99-6.3-1.26-9.51-.14-1.74-.43-3.46-.85-5.16-.92-3.68-1.2-7.37-2.09-11.12-.95-3.99-1.72-8.09-2.33-12.29-.61-4.25-1.67-9.93-3.17-17.04-.06-.3-.33-.5-.62-.48h-.21c-.16.03-.28.16-.28.32.02,2.2.25,4.4.67,6.61.34,1.75.55,3.66.62,5.72.09,2.74,1.06,5.45,1.41,8.24.7,5.81,1.56,11.56,2.08,17.43.26,2.99.9,6,1.11,9.11.38,5.47.45,9.26.22,11.35-.14,1.19-1.03,2.96-2.67,5.33-.09-2.14-.1-4.22-.03-6.23.11-3.54-2.79-5.82-6.04-3.83-.73.45-1.35,1.49-1.85,3.12-1.23-9.28-2.79-18.47-4.68-27.59-.42-2.02-.68-3.88-.78-5.58-.11-1.82-.17-3.71-.2-5.64-.03-2.44-.61-4.56-1.05-6.87-.17-.93.1-1.92-.19-2.78-.13-.41-.25-.4-.34.02-.73,3.45-.44,6.81-.9,10.23-.25,1.82-.48,3.73-.68,5.72-.47,4.57-1.75,8.94-3.83,13.13-.21-2.09-.3-4.17-.27-6.25.03-2.26-.21-3.81-.73-4.64-1.15-1.84-3.22-1.96-6.19-.34,0-4.74.27-9.48-.5-14.1-.81-4.87-1.04-9.67-.48-14.45.18-1.5.14-3.02-.1-4.56-.42-2.69.32-5.25.05-7.71-.74-7.01-.06-15.28,2.05-24.8.8-3.62-.65-7.32-1.16-11.13-.42-3.25-.67-6.27-.75-9.07-.05-1.75-.22-3.41-.5-5-.42-2.26-.69-4.5-1.18-6.73-.6-2.74-1-6.3-1.19-10.66-.2-4.47-.92-11.48-2.17-21.03-.23-1.77.11-3.59-.07-5.51-.05-.58.33-1.52,1.15-2.81,2.63.76,5.2.31,7.7-1.35,4.86-3.21,9.24-5.79,14.84-7.68,4.17-1.4,8.26-2.85,12.26-4.34,1.8-.67,3.69-1.32,5.67-1.92,1.96-.6,3.89-1.26,5.8-1.96Z"/>
    <path class="cls-3" d="M326.15,611.8c1.49,3.5,3.4,6.8,5.74,9.9,1.01,1.35,2.07,3.07,3.16,5.16,2.05,3.94,4.91,6.51,9,7.63,3.25.89,6.09,2.05,8.53,3.48,3.91,2.28,3.83,5.67,3.83,9.64s-1.77,8.8-3.55,11.81c-3.32,5.61-8.03,9.75-14.05,13.58-4.45,2.83-9.64,6.66-15.57,11.48-1.84,1.49-5.01,3.6-9.51,6.31-3.11,1.88-6.16,3.93-9.13,6.15-5.06,3.79-10.03,7.51-14.92,11.17-4.03,3.02-7.56,6.19-10.58,9.51-1.93,2.13-3.92,4.18-5.95,6.15-2.23,2.15-4.13,4.7-6.64,6.46-4.69,3.27-8.98,5.36-11.07,11.32-1.12,3.21-2.44,6.35-3.96,9.43-.2-.62-.32-1.28-.35-1.97-.18-3.63-3.27-3.5-5.92-3.09-3.32.53-2.59,5.37-1.47,7.76-1.68-1.11-2.66-2.21-2.96-3.32-1.25-4.65-.29-8.95-.4-13.61-.01-.6-.47-1.09-1.06-1.13-4.39-.36-7.09,4.66-8.31,8.11-1.32,3.75-2.28,5.64-5.28,8.24-.1-.61-.15-1.25-.14-1.9.03-2.07-.88-3.72-3.23-3.63-1.9.08-3.31.68-4.24,1.81-.29.35-.6,1.13-.93,2.33-.25.9-.63,1.68-1.15,2.33-1.86-5.44-1.4-10.94,1.36-16.49.67-1.33,1.26-2.96.44-4.35-.39-.66-1.01-.93-1.85-.8-7.73,1.13-6.94,10.47-9.55,15.35-.4.75-1.44,1.71-3.12,2.88.13-2.9-.02-4.94-.45-6.13-1.86-5.08-7.4-3.4-10.2-.42-.98-5.44,1.87-9.62,4.75-13.93,1.1-1.64,1.73-3.38,1.91-5.21.08-.79-.5-1.49-1.29-1.57-.16-.02-.32,0-.48.03-5.36,1.28-6.99,5.08-9.31,9.51-1.1,2.1-3.2,4.73-6.3,7.9.14-1.47.27-2.88.4-4.21.19-1.84-1.52-3.4-3.5-2.92-2.13.52-4.53.86-5.53,3-.45.96-.88,1.71-1.3,2.25-.46-.88-.67-1.71-.62-2.51.04-.66-.46-1.23-1.12-1.27-.26-.02-.51.05-.73.19-2.66,1.73-5.58,2.94-8.78,3.63,1.62-1.75,3.21-3.44,4.75-5.08,2.25-2.37,3.24-5.17,2.99-8.4-.3-3.77-3.54-4.93-6.63-5.76-4.08-1.1-7.87-.66-11.38,1.31-1.53.86-2.5,1.37-2.92,1.53,3.29-5.93,8.28-9.69,13.42-13.96,2.26-1.88,4.54-3.92,6.82-6.13,7.6-7.33,16.28-13.86,26.05-19.6,2.52-1.48,5.38-2.46,7.68-4.25,2.59-2.01,5.19-4.04,7.81-6.11,2.48-1.95,5.33-3.22,7.77-5.01,1.62-1.18,3.24-2.32,4.84-3.43,4.16-2.87,5.82-6.76,5.11-11.63-.15-.99.07-1.97.65-2.92.27-.45.19-1.45-.24-2.98,6.55.09,12.95,1.07,19.19,2.95,1.53.46,2.85.79,3.96,1.01,3.07.6,6.28,1.38,9.26,1.1,2.36-.22,4.65.19,7.03.22,4.42.04,8.92.05,13.5.02,2.28,0,4.6-.39,6.97-1.13,2.59-1.67,4.91-3.77,6.95-6.31,1.52-1.9,2.76-3.32,3.71-4.25.9-.87,1.79-1.76,2.67-2.66,2.2-2.25,4.78-4.21,7.12-6.24,1.26-1.1,2.63-2.42,4.09-3.97,3.7-3.93,7.43-7.64,11.21-11.14.49-.45.74-.97.75-1.57.69-1.07,1.45-1.62,2.25-1.64Z"/>
    <path class="cls-3" d="M115.53,618.28c3.54,1.34,5.54,4.27,7.91,6.85,2.77,3.03,6.1,5.03,10.01,6.01,2.66.67,4.43,1.43,6.65,2.47,2.65,1.24,6.18,2.18,10.58,2.81,8.14,2.63,13.63,4.15,16.46,4.56,2.61.38,5.23.75,7.84,1.11,1.66.23,3.94.44,6.84.64,2.29.16,4.57.39,6.83.71,1.11.07,2.2.17,3.26.3,1.02.13,1.81.53,2.35,1.21,1.54,2.11,2.7,4.24,3.5,6.38.69,1.87,1.36,3.87,2,6.02,1.28,4.26-6.41,11.13-9.16,12.62-6.06,3.3-12.26,6.09-18.6,8.38-7.19,2.59-13.2,4.91-18.04,6.94-4.85,2.04-10.57,2.72-15.53,4.72-3.99,1.61-7.61,3.91-10.86,6.91-2.67,2.47-4.77,5.6-6.3,9.39-.52,1.29-1.08,3.61-1.69,6.98-.43,2.34-.9,4.69-1.41,7.07-1.35,6.2-4.05,11.75-8.11,16.64.66-3.45.92-6.73.8-9.86-.08-1.96-.53-3.4-1.36-4.32-1.12-1.24-2.56-2-4.31-2.3-6.01-1.05-10.48,1.06-13.41,6.32-1.96,3.53-2.87,7.64-2.73,12.33-1.53-2.74-2.2-5.66-2.02-8.76.11-1.76.31-3.51.62-5.24.75-4.16,2.74-7.74,3.95-11.71,1.71-5.62,4.57-14.64,1.92-19.86-1.01-1.97-3.6-1.54-5.06-.49-1.79,1.28-3.56,2.58-5.31,3.91-.66.5-1.33,1.23-2,2.18-1.78,2.53-3.4,5.33-4.87,8.4-.64,1.33-2.09,2.67-4.36,4.01-.67-5.47-3.34-7.02-8.02-4.65-1.66.84-2.53,2.49-2.59,4.95-.77-2.04-1.05-3.9-.85-5.58.28-2.33.81-5.07,1.59-8.21.32-1.31.87-2.68,1.64-4.13.89-1.66,2.43-5.47.57-7.03-.21-.18-.45-.25-.73-.21-4.04.59-7.23,9.13-9,12.2-1.32,2.28-3.28,3.72-5.87,4.32.7-1.53,1.69-2.75,2.06-4.45.44-2.03-1.21-3.96-3.3-3.81-1.67.12-3.35-.4-4.81.68-.67.5-1.33,1.19-1.97,2.07-.11-3.89.94-7.32,3.17-10.3,1.83-2.45,3.72-4.86,5.66-7.23,1.17-1.44,1.8-2.98,1.87-4.63.05-1.05-.76-1.95-1.81-1.99-.03,0-.06,0-.1,0-6.25.01-6.71,6.41-9.55,10.25-2.56,3.46-6.08,5.8-10.57,7.03,2-1.89,2.98-3.66,2.94-5.32-.02-.84-.48-1.67-1.39-2.49-1-.89-1.82-1.46-2.48-1.72-1.52-.57-3.27.07-5.24,1.93.85-4.1,3.53-7.05,6.56-9.49,1.61-1.29,7.06-5.52,7.47-7.76.06-.29-.05-.51-.31-.65-3.88-2.12-11.09,4.18-13.93,6.39-2.13,1.66-4.13,1.17-7.02,0,2.76-.88,4.41-1.98,4.95-3.31.98-2.38.14-8.81-4.32-8.06-1.11.19-2.42.74-3.94,1.67,1.89-4.34,4.73-7.8,8.52-10.38,6.6-4.51,12.72-8.16,18.37-10.96,4.62-2.3,9.23-4.55,13.84-6.76,2.2-1.05,4.25-1.96,6.15-2.71,2.74-1.08,5.51-2.41,8.37-3.07,2.17-.5,4.36-1.09,6.58-1.75,2.28-.69,4.6-1.23,6.96-1.62,4.93-.81,9.72-1.93,14.37-3.36,5.88-1.82,10.34-2.75,13.38-2.78,3.02-.03,5.14-.18,6.37-.45Z"/>
  </g>
  <g>
    <path class="cls-6" d="M538.8,155.47c-3.64,3.19-8.03,5.26-13.17,6.21-.79.14-2.16.8-4.14,1.97-4.6,2.73-9.58,4.95-14.41,7.32-3.2,1.57-5.9,3.7-8.85,5.72-2.72,1.81-5.13,3.53-8.16,5.11-2.74,1.43-5.36,3.05-7.88,4.86-2.45,1.77-4.89,3.44-7.32,5.03-1.74,1.25-3.49,2.46-5.23,3.6-1.8,1.19-3.67,2.16-5.61,2.92-3.2,1.26-5.72,3.22-9.23,3.87-2.61.48-4.83.74-6.66.78-8.95.14-17.67.19-26.17.14-2.77-.01-5.64.46-8.47.78-1.75.2-3.83.29-6.24.28-4.28-.02-8.38.2-12.3.66-1.92.2-3.76.41-5.52.62-2.01.24-3.86.36-5.55.34-4.17-.04-8.46.06-12.86.3-4.13.22-8.27-.48-12.34-.11-3.49.32-6.98.53-10.5.62-2.47.06-4.84.2-7.09.41-6.42.59-12.95.36-19.39.35-.61,0-1.88-.24-3.81-.73-.37-2.24-.42-4.08-.14-5.53.45-2.33,1.25-5.4,2.41-9.21.83-2.73,1.93-5.59,3.32-8.57,1.95-4.21,3.54-8.54,4.78-13,.45-1.64,1.15-3.42,2.09-5.35,2.42-4.96,3.83-10.54,6.89-15.7,1.55-2.61,2.52-5.04,3.52-7.76,1.59-4.32,4.47-7.96,6.06-12.32,1.18-3.25,2.38-6.58,3.6-10.01.46-1.3,1.29-2.8,2.49-4.49,2.78-3.91,3.96-8.53,6.41-12.62,3.15-5.28,5.77-10.53,7.84-15.73.84-2.13,1.83-4.24,2.97-6.33,1.52-2.81,2.34-5.8,3.7-8.76,2.33-5.07,4.53-9.94,6.6-14.6,1.64-3.71,2.71-7.91,4.7-11.3,2.31-3.94,4.71-8.34,7.2-13.22,2.41-4.72,3.86-9.54,6.2-14.22,2.64-5.26,4.85-10.51,7.06-15.81,1.84-4.43,6.14-.5,8.09,1.54,1.05,1.09,2.13,2.53,3.22,4.32,1.92,3.13,4,6.14,6.24,9.05,6.09,7.92,11.1,16.58,17.78,24.01,4.86,5.41,9.69,11.07,14.48,16.99,2.94,3.63,5.42,7.64,8.34,11.24,4.27,5.25,9.13,10.18,13.07,15.77,2.65,3.76,4.57,6.26,5.76,7.51,2.5,2.63,4.74,5.19,6.71,7.68,2.05,2.59,4.6,4.7,6.44,7.32,1.36,1.93,2.86,3.8,4.47,5.61,2.2,2.48,4.1,4.88,6.57,7.07,3.12,2.77,5.79,5.27,8.01,7.5,3.41,3.42,6.69,7.25,9.84,11.51,1.91,2.59,4.15,5.29,6.73,8.1,2.44,2.66,4.92,5.4,7.45,8.23ZM421.2,18.64c-2.61-4.41-5.61-8.7-8.51-12.9-.58-.84-1.37-1.37-2.37-1.6-.57-.13-1.14.23-1.27.8-.01.06-.02.13-.03.19-.07,1.57,0,3,.47,4.58,1.03,3.49,1.97,7.01,2.81,10.55.51,2.15.31,4.16.95,6.35,1.11,3.77,2.28,8.69,3.53,14.77.75,3.68,1.74,7.2,2.32,10.95,1.12,7.28,2.88,14.59,5.29,21.93,1.44,4.4,2.15,9.17,3.72,13.47,3.21,8.8,5.96,17.71,8.24,26.73.65,2.59.7,5.11,1.5,7.66,1.46,4.66,2.26,8.9,3.87,13.61.8,2.36,1.47,4.95,1.99,7.76.68,3.67,2.35,7.81,3.3,11.7,2.18,8.91,4.78,17.76,7.78,26.55,1.21,3.53,1.91,7.24,3.16,10.81.83,2.35,2.35,3.03,4.55,2.02,4.02-1.82,8.33-4.46,12.94-7.93,5.09-3.83,10.49-7.2,16.19-10.1.82-.42,1.84-1.14,3.07-2.18,2.84-2.39,6.49-4.52,9.59-6.01,2.07-1.01,4-2.01,5.77-3.02,1.53-.87,3.07-1.69,4.62-2.48,3.15-1.6,6.15-3.37,9.51-4.57,1.93-.69,3.84-1.39,5.74-2.08.93-.34,1.7-.87,2.3-1.57.17-.2.23-.43.17-.69-.19-.8-.56-1.49-1.11-2.06-2.61-2.72-4.8-5.78-7.19-8.47-1.49-1.69-2.86-3.43-4.12-5.23-1.49-2.14-2.92-3.86-4.29-5.18-2.46-2.36-5.06-4.79-7.81-7.28-1.88-1.7-4.04-4.1-6.48-7.21-.9-1.13-1.98-1.99-2.92-3.1-3.73-4.44-7.24-8.71-10.54-12.81-1.16-1.45-2.79-2.64-3.77-3.77-3.99-4.63-7.62-9.4-10.91-14.31-2.28-3.4-5.1-6.05-7.6-9.03-3.76-4.47-7.51-9.54-11.64-14.06-2.41-2.64-5.08-5.23-7.04-8.21-1.65-2.53-3.72-4.9-5.55-7.25-1.31-1.69-2.8-3.5-4.49-5.44-2.44-2.82-5.09-6.52-7.95-11.12-2.29-3.69-5.47-6.8-7.83-10.8Z"/>
    <path class="cls-6" d="M264.26,383.35c1.52,5.31,2.42,9.59,2.71,12.82.36,4.01.9,7.77,1,11.74.15,6.41.63,12.93,1.44,19.57.29,2.35.22,4.58.22,6.94,0,.9.7,2.36,2.1,4.39,1.52,2.21,3.09,4.15,4.22,6.6,1.31,2.83,2.63,5.69,3.95,8.57,1.83,3.99,2.9,8.59,4.98,12.07,2.6,4.35,5.75,8.58,7.92,13.49,1.07,2.43,1.91,4.07,2.53,4.93,2.52,3.48,4.78,7.23,6.79,11.26-1.01-.03-1.96-.06-2.87-.07-.96-.02-1.89.08-2.77.31-3.68.95-7.15,2.08-10.41,3.37-3.11,1.24-6.1,2.19-8.95,2.86-3.29.77-6.35,1.41-9.16,1.93-1.55.28-2.16,1.21-1.84,2.79.73,3.54,1.09,7.04,1.08,10.5,0,2.88.85,5.72.94,8.6.1,3.17.25,5.31.45,6.43.81,4.44,1.55,8.77,2.21,13.01.68,4.3,1.44,8.65,2.28,13.03,1.35,7.09,2.27,14.31,2.74,21.67.56,8.57,1.79,16.59,3.94,24.32,1.32,4.75,1.91,9.83,2.53,14.68.31,2.38.85,5.34,1.64,8.87.7,3.11,1.21,6.08,1.52,8.9.16,1.49.33,2.77.51,3.84.16.93.24,2.2.25,3.83.01,1.8.41,3.47,1.18,5.01-2.37.74-4.69,1.12-6.97,1.13-4.58.02-9.08.02-13.5-.02-2.38-.02-4.67-.43-7.03-.22-2.99.28-6.19-.5-9.26-1.1-1.11-.21-2.43-.55-3.96-1.01-6.24-1.88-12.63-2.86-19.19-2.95-1.36-.67-2.11-2.38-2.26-5.11-.22-3.92-.36-7.64-.42-11.17-.05-2.5-.28-4.84-.68-7.03-.78-4.19-1.45-8.62-2.01-13.29-.5-4.19-1.65-7.88-1.66-12.36,0-2.39-.33-4.71-.98-6.94-.35-1.2-.62-2.44-.81-3.73-.4-2.7-.78-5.3-1.13-7.81-.38-2.69.26-5.42-.11-8.16-.69-5.21-1.41-10.37-2.13-15.47-.01-.09-.05-.18-.11-.25-.22-.25-.41-.34-.58-.25-.13.07-.21.18-.24.34-.39,2.84-.95,5.71-1.66,8.6-.43,1.74-.78,3.53-1.04,5.36-.5,3.43-1.38,6.71-1.56,10.23-.09,1.69-.22,3.31-.42,4.83-.73,5.75-1.17,11.53-1.33,17.33-.03,1.23-.62,4.03-1.77,8.42-.74,2.81-1.38,5.67-1.92,8.59-.64,3.44-1.37,6.82-2.2,10.14-1.23,4.93-3.63,9.45-5.82,13.92-.72,1.45-1.51,2.56-2.38,3.34-.54-.68-1.32-1.08-2.35-1.21-1.06-.13-2.15-.23-3.26-.3.57-.35,1-.76,1.29-1.23.13-.2.3-.35.52-.46.65-.32,1.29-.63,1.95-.93,1.92-.88,3.23-3.58,3.91-5.53,1.83-5.25,3.12-10.58,3.86-16.01.41-3.01,1.75-5.67,2.24-8.7.2-1.28,1.16-3.04,1.18-4.01.03-2.73.41-5.71,1.14-8.94.27-1.19.46-3.23.57-6.13.08-2.12.28-4.13.58-6.03,1.96-12.12,3.76-22.47,5.4-31.06.48-2.51,1.69-4.57,2.12-7.2.52-3.2.59-5.95.23-8.24-.9-5.71-2.02-12.45-3.35-20.23-.57-3.36-1.19-6.58-1.87-9.69-.73-3.36-1.37-6.58-1.9-9.69-1.08-6.23-2.26-12.43-3.56-18.59-1.4-6.63-1.7-13.05-2.2-19.51-.07-.94-.67-1.77-1.54-2.13-5.46-2.28-10.85-4.58-16.15-6.89-4.57-2-9.16-4.7-13.74-6.48-1.35-.53-2.25-.07-2.69,1.36-1.3,4.23-1.61,8.76-2.41,13.08-.9,4.9-1.8,9.58-2.71,14.05-.52,2.57-.82,4.74-.9,6.52-.09,2.07-.27,4.2-.54,6.39-.73,5.95-1.19,12.03-1.39,18.27-.09,2.88-.45,8.7-1.08,17.46-.18,2.53-.47,5-.87,7.4-.53,3.26-.84,5.71-.92,7.35-.39,8.05-.41,16.5-.07,25.35.19,4.99-.25,9.96-.4,14.87-.1,3.43-.67,6.82-1.24,10.24-1.07,6.53-1.58,13.08-2.33,19.62-.31,2.7-.63,6.24-.97,10.64-.28,3.56-.63,7.1-1.07,10.64-.28,2.3.03,4.77.93,7.42-4.41-.63-7.94-1.56-10.58-2.81-2.22-1.04-3.99-1.8-6.65-2.47-3.91-.98-7.24-2.98-10.01-6.01-2.37-2.59-4.37-5.51-7.91-6.85.56-1.31,1.13-2.55,1.29-3.98.48-4.27,1.7-8.17,2.27-12.35.45-3.34,1.01-6.53,1.66-9.59.51-2.36.9-4.63,1.16-6.82.37-3.03,1.13-6.02,1.65-9.08.41-2.41.79-4.62,1.14-6.63.88-5.08,2.62-9.77,2.84-14.84.13-3.17,1.01-6.25,1.34-9.46.52-4.99.98-10.39,1.38-16.2.15-2.18.35-4.2.58-6.04.35-2.7.41-5.4.67-8.08,1.4-13.86,2.76-27.72,4.68-41.33.53-3.77,1.18-7.35,1.94-10.74,1.65-7.35,2.43-14.58,4.47-21.94,1.37-4.94,2.44-9.55,3.19-13.82.88-4.98,1.34-9.82,3.16-14.53,2.23-5.78,2-11.7,9.27-13.82,4.56-1.34,9.27-2.48,14.12-3.43,7.34-1.44,14.9-2.86,22.69-4.27,4.33-.79,8.72-1.44,13.17-1.97,4.52-.54,8.96-1.07,13.31-1.59,2.67-.32,5.35-.54,8.06-.67,2.82-.13,5.54-.32,8.15-.55,2.75-.24,5.46-.47,8.12-.68,2.57-.21,5.26-.54,8.09-1.01,3.43-.57,6.87-1.08,10.33-1.53Z"/>
    <path class="cls-6" d="M307.87,510.43l2.87,3.43c.81,5.67,1.79,11.26,2.94,16.77.53,2.54.84,5.2.96,8,.07,1.72.35,3.48.84,5.29,1.1,3.99.62,8.09,1.3,12.15,1.5,9.01,2.91,18.04,4.23,27.09.2,1.36.47,2.72.81,4.07.63,2.51.57,5.05,1.16,7.61.27,1.16.51,2.33.73,3.5.84,4.46,1.65,8.94,2.44,13.46-.81.02-1.56.57-2.25,1.64-.57-1.32-.96-3.37-1.16-6.16-.1-1.43-.66-4.19-1.68-8.29-.71-2.87-1.18-5.51-1.43-7.91-.28-2.78-.67-5.46-1.18-8.04-.33-1.66-.58-3.34-.77-5.05-.26-2.33-1.12-4.57-1.38-6.92-.38-3.58-.88-7.07-1.49-10.46-.78-4.41-.1-8.47-1.01-12.72-.83-3.91-.97-8.06-2.06-12-.6-2.2-.27-4.46-.79-6.79-.31-1.35-.54-2.75-.71-4.18-.15-1.26-.4-2.62-.76-4.06-.83-3.34-1.37-6.82-1.62-10.44Z"/>
  </g>
  <path class="cls-4" d="M474.87,191.69c.38,1.81.58,3.01.58,3.6.02,2.86.24,5.49.66,7.9.4,2.29.58,4.25.55,5.87-.15,6.58,1.06,13.18,2.62,19.87.9,3.85,1.2,7.68,1.95,11.52.31,1.57.57,3.12.78,4.66.44,3.17,1.08,6.6,1.92,10.28.85,3.76,1.49,7.18,1.91,10.26.79,5.72,1.64,11.53,2.56,17.43.39,2.48,1.39,5.06,1.57,7.74.21,3.09,1.16,6.2,1.47,9.16.44,4.07,1.56,7.76,2.13,11.7,1,6.96,1.9,13.94,2.72,20.94.34,2.84.45,5.69,1,8.58.62,3.27.85,6.65,1.44,9.84,1.33,7.22,2.6,14.48,3.81,21.76.06.34.37.56.71.51.06,0,.12-.03.17-.06.47-.23.82-.61,1.05-1.13,1.13-2.6,1.52-5.34,2.59-7.95,2.17-5.34,4.11-10.62,7.31-15.43,3.48-5.24,6.07-10.82,8.79-16.31,1.16-2.34,1.82-5.07,1.79-7.72-.05-4.13,0-7.9-.69-12.16-.52-3.18-1-6.36-1.46-9.55-.03-.2.05-.34.24-.42.1-.04.19-.04.28.02.8,1.05,1.61,2.1,2.44,3.14.22.27.52.97.9,2.1.6,6.82,1.26,13.46,1.98,19.93.34,3.09-1.31,6.44-2.84,9.08-1.71,2.95-3.09,5.93-4.9,8.88-4.27,6.93-6.93,11.65-7.98,14.15-1.93,4.61-3.64,9.1-5.13,13.48-.7,2.05-1.57,4.05-2.25,6.11-.2.61-.46,1.18-.79,1.69-.13.2-.2.42-.22.65-.14,1.57-.43,3.15-.87,4.75-.58,2.11-1.84,3.45-3.78,4.03-3.71,1.11-7.29,1.66-10.72,1.65-1.9,0-3.81.59-5.68,1.01-2.68.61-5.23.57-7.92.54-4.29-.04-8.49,2.65-12.72,1.67-5.18-1.2-10.76-2.36-16.16-1.79-3.88.41-7.65.45-11.67.62-1.84.08-3.66.03-5.45-.15-3.93-.4-8.08-.37-12.44.09-1.51.16-2.89-.08-4.45-.15-1.15-.19-2.52-.4-4.09-.65-1.8-.28-3.16-1.42-4.07-3.44.64-3.99.85-6.84.65-8.56-.45-3.72-.86-7.43-1.24-11.13-.24-2.29.29-5.28.18-7.89-.32-7.99-1.16-15.3-1.1-23.17.03-4.34-.3-8.43-1.01-12.25-.69-3.76-.95-7.87-.78-12.33.05-1.26-.41-2.38-1.36-3.37-.53-3.34-.58-6.7-.15-10.08.35-2.76.51-4.81.47-6.15-.14-5.77-.59-11.09-1.34-15.98-.47-3.04-.74-6.19-.82-9.43-.14-6.02-.43-10.67-.88-13.97-1.01-7.33-1.46-12.26-1.34-14.81.29-6.18.31-10.6.07-13.28-.68-7.59-.98-15.21-.9-22.87,3.92-.46,8.02-.68,12.3-.66,2.41,0,4.49-.08,6.24-.28,2.83-.32,5.7-.8,8.47-.78,8.5.05,17.23,0,26.17-.14,1.82-.03,4.04-.29,6.66-.78,3.5-.65,6.03-2.61,9.23-3.87,1.94-.76,3.81-1.74,5.61-2.92,1.74-1.15,3.48-2.35,5.23-3.6Z"/>
  <path class="cls-2" d="M315,285.95l-.73,4.55c-6.83,1.32-13.26,3.7-19.3,7.15-1.52.87-3.02,1.39-4.64,2-1.29.48-2.52.8-3.71.96-2.3.31-4.36,1.15-6.68,1.47-4.21.58-8.18,2.11-11.9,4.58-1.42.94-2.5,1.84-3.25,2.68-1.03,1.16-1.26,2.8-.7,4.9.67,2.53,1.6,5.14,2.79,7.83,1.28,2.87,3.04,5.39,4.47,8.16.62,1.21,1.32,2.4,2.11,3.59,2.37,3.56,4.16,7.46,6.06,11.28,1.11,2.25,2.3,4.86,3.58,7.85,1.45,3.38,3.05,6.93,4.82,10.66,2.41,5.08,5.03,10.91,7.86,17.48.95,2.19,2.24,4.39,3.15,6.46,1.74,3.97,3.52,8.38,5.34,13.24,1.74,4.64,3.71,8.52,5.67,12.84,1.47,3.24,3.38,6.24,5.19,9.36,1.19,2.04,2.42,4.45,3.69,7.23,2.74,5.96,5.34,11.78,8.37,17.52,3.89,7.38,7.69,14.76,11.4,22.13,1.01,2,2.38,3.61,3.19,5.74,1.26,3.3,2.53,6.56,3.51,9.97.99,3.49,2.21,6.8,3.2,10.4.75,2.74,2.51,5.39,5.86,4.04,4.21-1.7,8.7-3.73,13.46-6.09,1.57-.78,3.22-1.43,4.96-1.95,7.73-2.33,14.94-5.87,22.2-9.22,2.12-.98,5.49-2.39,10.13-4.23,4.33-1.71,8.58-3.63,12.75-5.76.04-.02,1.27-.53,3.68-1.53,1.61-.67,2.88-1.64,3.83-2.92,1.13,1.34,2.39,2.59,3.8,3.73,1.7,1.38,3.08,2.59,4.14,3.63,3.96,3.89,7.66,7.48,11.11,10.76.67.64,1.37,1.18,2.09,1.62,3,1.85,6.07,3.82,9.2,5.91,3.16,2.11,6.71,3.72,9.95,5.72.85.53,1.77.93,2.77,1.22,4.23,1.21,8.55,3.02,12.77,3.86,5.5,1.08,11.07,1.95,16.72,1.89,3.55-.04,7.03.13,10.45.52,3.58.4,7.55-1.46,11.31-2.27,1.91-.41,3.82-.84,5.74-1.3,2.23,6.33,3.61,10.74,4.15,13.21.82,3.73,1.8,7.43,2.94,11.08.36,1.15.62,2.27.76,3.35.16,1.23.31,2.37.44,3.43-10.14,4.89-18.06,8.12-23.75,9.69-3.07.84-5.52,1.62-7.37,2.32-2.25.86-4.41,1.63-6.49,2.32-3.58,1.19-7.21,2.36-10.9,3.53-4.3,1.36-9.43,3.63-15.4,6.81-2.24,1.19-4.57,2.25-6.98,3.18-4.91,1.33-9.72,2.91-14.44,4.72-8.24,3.18-12.4,4.78-12.49,4.82-9.54,3.52-18.95,7.43-28.24,11.73-1.91.7-3.84,1.36-5.8,1.96-1.98.61-3.87,1.25-5.67,1.92-4,1.49-8.08,2.94-12.26,4.34-5.6,1.88-9.98,4.47-14.84,7.68-2.5,1.66-5.06,2.11-7.7,1.35-1.13-.8-2.26-1.59-3.37-2.37-1.18-.83-2.07-1.73-2.69-2.69-1.71-2.68-3.57-5.32-5.57-7.91-.65-.84-1.17-1.95-1.55-2.92-1.34-3.39-2.71-6.44-4.1-9.15-2.2-4.29-4.05-8.71-6.33-13.02-3.36-6.32-5.86-12.96-9.39-19.14-1.39-2.43-2.67-4.97-3.82-7.6-.96-2.21-2.25-4.61-3.85-7.2-2.63-4.27-5.13-8.6-7.51-13.01-.47-.88-1.28-1.61-2.43-2.18l-2.87-3.43-5.75-14.7c-2-4.03-4.26-7.78-6.79-11.26-.62-.86-1.47-2.51-2.53-4.93-2.17-4.9-5.32-9.13-7.92-13.49-2.08-3.48-3.15-8.08-4.98-12.07-1.32-2.88-2.64-5.74-3.95-8.57-1.13-2.45-2.71-4.39-4.22-6.6-1.39-2.03-2.09-3.49-2.1-4.39,0-2.36.06-4.59-.22-6.94-.81-6.64-1.29-13.16-1.44-19.57-.09-3.97-.64-7.73-1-11.74-.29-3.23-1.19-7.5-2.71-12.82.06-.61.15-1.31.28-2.1.12-.75.16-1.45.11-2.11-.19-2.57-.46-5.07-.83-7.51-.35-2.4-.59-4.86-.72-7.36-.18-3.57-.54-7.2-1.06-10.89-.47-3.29-.42-6.79-.63-10.15-.19-3.17.24-6.37.27-9.57.07-7.26.4-14.55-1.1-21.58-.59-2.81.41-4.94,3-6.4,2.28-1.28,4.73-2.55,7.33-3.83,2.34-1.15,5.15-2.06,8.42-2.73,3.27-.67,6.42-1.43,9.46-2.28,1.18-.33,2.35-.78,3.52-1.35,5.19-2.54,9.1-4.43,11.74-5.66,3.28-1.53,6.93-2.82,10.94-3.88Z"/>
  <g>
    <path class="cls-5" d="M15.92,671.83c-.96.42-2.02.61-3.16.57-1.62-.06-2.88-.87-3.76-2.42-1.78-3.11-.57-5.73,3.63-7.84,1.52-.93,2.83-1.49,3.94-1.67,4.45-.75,5.3,5.67,4.32,8.06-.54,1.33-2.19,2.43-4.95,3.31Z"/>
    <path class="cls-5" d="M478.15,680.01c-.28.74-.61,1.5-.99,2.28-2.75,5.67-10.9,3.23-11.28-2.69-.18-2.82-.06-5.54.38-8.14.64-1.67,1.18-3.3,1.63-4.88.26-.93.92-1.68,1.97-2.25.75-.41,1.63-.55,2.65-.4,1.47.21,2.99-.09,4.42.29,2.02.54,3.01,2.03,2.98,4.47-.06,3.82-.64,7.6-1.76,11.33Z"/>
    <path class="cls-5" d="M432.79,678.55c3.25,2.44,2.79,6.34,4.28,9.73,1.61,3.66,2.57,7.52-.59,10.73-3.2,3.24-6.09,1.06-9.41-.35-1.04-4.49-1.85-9.12-2.45-13.9-.26-2.09-.04-4.96,2.11-5.91,1.62-.71,4.14-.33,6.05-.29Z"/>
    <path class="cls-5" d="M29.33,690.93c-1.78,1.21-3.8,1.17-6.05-.11-1.32-.76-1.97-1.91-1.94-3.48.02-1.16.62-2.5,1.81-4.01,1.97-1.86,3.72-2.51,5.24-1.93.66.25,1.49.83,2.48,1.72.91.82,1.37,1.65,1.39,2.49.04,1.66-.94,3.43-2.94,5.32Z"/>
    <path class="cls-5" d="M569.32,696.01c1.17,2.23,2.25,4.72,3.22,7.47,1.8,5.11-4.69,8.29-7.22,3.04-.38-.79-.73-1.55-1.06-2.27-.45-1.5-1.34-3.3-2.67-5.41-1.29-2.03-.52-4.55,1.58-5.61,2.03-1.03,4.08-.1,6.16,2.79Z"/>
    <path class="cls-5" d="M48.68,703.31c-1.39,1.49-3.26,1.93-5.59,1.31-2.85-.75-3.48-2.42-2.78-5.04.18-.67.29-1.26.34-1.78.64-.88,1.3-1.57,1.97-2.07,1.46-1.08,3.15-.56,4.81-.68,2.09-.15,3.74,1.77,3.3,3.81-.37,1.7-1.36,2.92-2.06,4.45Z"/>
    <path class="cls-5" d="M71.94,711.64c-.55,1.66-.72,3.83-1.43,5.14-1.81,3.33-7.36,3.3-8.88-.42-.34-.82-.44-2.29-.3-4.41.07-2.47.93-4.12,2.59-4.95,4.68-2.37,7.35-.82,8.02,4.65Z"/>
    <path class="cls-5" d="M558.52,720.09c.31.94.67,2.23,1.1,3.86,2.23,8.64-7.98,9.28-7.57,2.53.01-.27-.06-.52-.24-.73-.14-.18-.21-.24-.22-.19-.18-1.58-.73-3.06-1.65-4.45-.75-1.13-1.15-2.03-1.18-2.69-.09-1.59.61-2.72,2.1-3.38,3.1-1.38,5.66.3,7.66,5.05Z"/>
    <path class="cls-5" d="M511.44,728.07c.08,1.75.08,2.9,0,3.45-.34,2.28-2.88,3.7-5.06,2.92-1.55-.56-2.45-1.83-2.69-3.79-.44-3.48-1.01-6.71-1.72-9.69.17-2.99,1.21-4.75,3.1-5.28,2.73-.77,4.88,1.28,5.08,3.98.22,3.06.65,5.87,1.3,8.42Z"/>
    <path class="cls-5" d="M160.78,737.83c-.91.48-1.85,1.03-2.83,1.63-3.99,2.44-10.2.28-13.54-2.28-1.16-.89-2.1-2.02-2.84-3.37-3.4-6.33,2.2-9,6.01-12.37.42-.16,1.4-.67,2.92-1.53,3.51-1.98,7.3-2.42,11.38-1.31,3.09.83,6.33,1.99,6.63,5.76.25,3.23-.74,6.03-2.99,8.4-1.55,1.63-3.13,3.32-4.75,5.08Z"/>
    <path class="cls-5" d="M110.07,737.02c-.08.55-.15,1.28-.19,2.19-.19,3.93-2.23,6.6-6.36,6.92-2.28.18-4.83.12-7.65-.17-4.19-.43-6.46-2.69-6.8-6.78-.14-4.69.77-8.8,2.73-12.33,2.93-5.26,7.4-7.37,13.41-6.32,1.75.3,3.18,1.07,4.31,2.3.83.91,1.28,2.35,1.36,4.32.12,3.13-.14,6.41-.8,9.86Z"/>
    <path class="cls-5" d="M181.96,739.67c-.9,3.11-3.21,4.24-6.94,3.4-2.48-.55-2.92-3.04-2.99-5.28.42-.55.85-1.3,1.3-2.25,1-2.14,3.4-2.48,5.53-3,1.97-.47,3.68,1.08,3.5,2.92-.13,1.33-.26,2.73-.4,4.21Z"/>
    <path class="cls-5" d="M537.43,744.63c.15,1,.37,2.08.66,3.25.36,1.43.17,2.59-.57,3.5-1.44,1.78-4.14,1.94-5.72.27-.33-.34-.71-1.04-1.16-2.09-.34-.79-.72-1.5-1.14-2.13-.15-2.17-.47-4.29-.96-6.38-.24-1.03-.32-1.91-.22-2.62.45-3.3,4.68-3.94,6.68-1.58.67.8,1.12,1.95,1.32,3.46.2,1.45.57,2.88,1.12,4.32Z"/>
    <path class="cls-5" d="M373.4,749.85c-.52,5.39-7.4,5.79-7.88.34-.35-3.99-.73-8.08.7-11.58,2.97-1.61,5.04-1.5,6.19.34.52.83.76,2.37.73,4.64-.03,2.08.06,4.17.27,6.25Z"/>
    <path class="cls-5" d="M203.34,749.48c-2.13,3.48-6.59,2.58-9.28.55-2.14-1.61-1.2-4.87-1.38-7.09,2.81-2.98,8.34-4.66,10.2.42.43,1.18.58,3.22.45,6.13Z"/>
    <path class="cls-5" d="M251.49,750.98c-.11,3.31-1.65,4.83-4.64,4.56-1-.09-2.03-.71-3.1-1.85-1.11-2.39-1.85-7.23,1.47-7.76,2.64-.42,5.74-.54,5.92,3.09.03.69.15,1.35.35,1.97Z"/>
    <path class="cls-5" d="M225.73,751.97c-.24,1.55-.47,2.58-.7,3.09-1.28,2.88-5.62,4.39-7.65,1.52-.23-.33-.44-.93-.62-1.82-.15-.71-.39-1.33-.72-1.85.52-.66.9-1.43,1.15-2.33.33-1.2.64-1.97.93-2.33.93-1.13,2.34-1.73,4.24-1.81,2.36-.09,3.26,1.56,3.23,3.63,0,.66.04,1.29.14,1.9Z"/>
    <path class="cls-5" d="M431.6,759.62c.41,2.13.57,4.37.48,6.71-.14,3.69-4.06,5.85-6.92,3.45-.84-.71-1.44-1.86-1.79-3.45-.4-1.82-.81-3.5-1.22-5.02.2-.81.29-1.61.26-2.39-.05-1.25-.02-2.04.08-2.37.6-2.03,2.92-3.8,5.1-2.69,1.49.77,2.42,1.75,2.76,2.94.43,1.45.84,2.39,1.25,2.82Z"/>
    <path class="cls-5" d="M393.95,776.15c-.04,1.18-.36,2.16-.95,2.95-2.35,3.15-6.94,1.11-7-2.9-.04-2.35-.03-4.68.03-6.99.51-1.64,1.12-2.68,1.85-3.12,3.25-1.99,6.15.29,6.04,3.83-.07,2.01-.06,4.09.03,6.23Z"/>
    <path class="cls-5" d="M416.67,777.32c-.05,3.23-.36,6.51-.93,9.84-.88,5.14-7.7,4.75-9.27.7-.3-.79-.58-2.5-.85-5.13.32-2.62.65-4.38.98-5.28.84-2.32,2.53-3.53,5.06-3.63,3.02-.12,3.32,1.92,5.02,3.51Z"/>
  </g>
  <path class="cls-1" d="M498.23,176.69c.36,1.51.82,2.95,1.38,4.32.75,1.82,1.25,3.25,1.51,4.27.91,3.57,1.81,7.14,2.71,10.71.57,2.25.65,4.8,1.04,6.68,1.01,4.83,1.75,9.85,2.21,15.07.24,2.72.69,5.43,1.33,8.14,1.73,7.28,3.1,15.03,4.13,23.26.19,1.46.88,3.05,1.08,4.33.76,4.95,1.49,8.93,2.2,11.93.55,2.36,1.01,4.66,1.38,6.89.97,5.87,2.57,11.45,3.36,17.36.47,3.6,1.27,7.25,1.77,10.91.07.5.4,1.19.99,2.07-.09-.06-.18-.06-.28-.02-.19.08-.27.22-.24.42.45,3.19.94,6.37,1.46,9.55.69,4.26.64,8.03.69,12.16.04,2.65-.63,5.38-1.79,7.72-2.71,5.49-5.31,11.07-8.79,16.31-3.2,4.81-5.14,10.1-7.31,15.43-1.06,2.61-1.46,5.35-2.59,7.95-.22.53-.57.9-1.05,1.13-.31.15-.68.03-.83-.28-.03-.05-.05-.11-.06-.17-1.21-7.29-2.48-14.54-3.81-21.76-.59-3.19-.81-6.56-1.44-9.84-.55-2.89-.66-5.74-1-8.58-.82-7-1.73-13.98-2.72-20.94-.57-3.94-1.69-7.63-2.13-11.7-.32-2.97-1.26-6.07-1.47-9.16-.18-2.68-1.18-5.26-1.57-7.74-.92-5.91-1.78-11.72-2.56-17.43-.42-3.08-1.06-6.5-1.91-10.26-.84-3.68-1.48-7.11-1.92-10.28-.22-1.54-.48-3.09-.78-4.66-.75-3.83-1.06-7.67-1.95-11.52-1.56-6.69-2.77-13.29-2.62-19.87.04-1.62-.14-3.57-.55-5.87-.42-2.41-.64-5.04-.66-7.9,0-.58-.2-1.78-.58-3.6,2.43-1.59,4.87-3.27,7.32-5.03,2.51-1.81,5.14-3.43,7.88-4.86,3.04-1.58,5.44-3.3,8.16-5.11Z"/>
  <g>
    <path class="cls-8" d="M534.02,314.72c-1.34-2.77-2.49-5.27-3.45-7.5-1.1-2.54-1.13-5.13-.07-7.78,1.92-4.82,3.65-8.5,5.18-11.03.95-1.57,2.03-3.21,3.23-4.91,2.71-3.83,6.18-6.94,9.72-10.09,3.69-3.28,7.79-5.76,12.29-7.44,2.85-1.06,4.92-1.92,6.23-2.59,2.61-1.34,5.36-2.74,8.14-3.56,3.56-1.05,7.23-2.17,11.02-3.37,2.09-.66,3.82-.88,5.18-.65,5.28.87,8.29,7.68,9.04,12.36.6,3.76,1.42,7.63.47,11.46-1.22,4.87-2.64,8.65-4.28,11.32-.94,1.54-2.74,3.4-5.4,5.57-5.1,4.17-9.73,7.73-13.89,10.69-4.08,2.9-8.83,5.1-13.26,7.73-4.2,2.48-9.06,4.37-14.58,5.64-1.32.31-2.71.44-4.16.4-1.98-.05-3.96.21-5.87-.5-2.23-.82-4.08-2.74-5.54-5.75Z"/>
    <path class="cls-8" d="M391.24,329.37c.69,2.23,1.32,4.45,1.89,6.67.24.93.47,1.97.68,3.12,1.13,6-2.46,8.54-5.59,12.61-2.63,3.42-6.15,4.3-10.02,5.59-1.22.4-2.41.69-3.56.88-2.82.45-5.54,1.09-8.37,1.44-4.84.59-9.62,1.19-14.35,1.79-2.39.3-5.46-.22-7.88-1-4.55-1.45-7.87-2.81-9.96-4.08-2.02-1.23-4.12-2.57-6.32-4.02-1.96-1.29-3.54-2.85-4.72-4.67-2.09-3.22-4.05-6.29-5.9-9.2-1.45-2.28-4.53-9.33-2-11.6,2.37-2.13,4.97-3.93,7.79-5.42,3.96-2.1,8.02-4.02,12.18-5.76,3.6-1.52,7.54-2.04,11.35-2.79,4.37-.86,9.51-.72,13.97-.52,3.75.17,7.23,1.07,10.43,2.72,1.88.96,3.74,1.8,5.57,2.51,5.24,2.04,9.11,5.32,13.23,9.33.78.75,1.3,1.55,1.57,2.41Z"/>
    <path class="cls-8" d="M488.58,417.04c5.36-.93,11.1-2.3,16.31-4.27,1.92-.72,3.22-2.36,5.03-3.38,2.19-1.26,4.3-2.55,6.31-3.88,2.53-1.67,5.54-2.61,7.43-5,3.55-4.47,7.56-8.72,9.69-14.18.87-2.22,1.85-4.5,2.94-6.84,1.29-2.78,1.57-5.86,2.42-8.81,1.33-4.61,2.06-8.61,2.19-12.01.09-2.3.19-4.52.31-6.65.14-2.7-.34-5.27-.3-7.95.02-1.51-.04-3.04-.19-4.58-.19-1.9-.03-3.83-.47-5.67-.46-1.91-.69-4.02-.69-6.34,0-.22.08-.39.23-.53.29-.27.75-.25,1.01.04.03.04.06.08.09.12,1.96,3.32,3.78,6.35,5.36,10.04,1.94,4.53,3.79,8.93,5.56,13.19.93,2.25,1.94,4.56,3.01,6.93,2.09,4.61,3.7,9.43,4.82,14.48.49,2.23.79,4.39.88,6.51.1,2.25.23,4.5.37,6.74.14,2.09.12,4.48-.06,7.18-.41,6.25-.61,12.4-2.59,18.26-.84,2.5-2.39,5.54-4.65,9.12-2.46,3.9-4.62,7.53-6.48,10.89-.4.72-.92,1.45-1.57,2.18-2.03,2.3-4.13,4.67-6.29,7.1-3.07,3.47-6.19,5.77-10.73,7.64-4.11,1.7-8.45,4.29-12.95,4.56-6.05.35-11.91.07-18.13-.78-3.36-.46-6.62-.82-9.8-1.09-2.99-.25-5.87-.84-8.84-1.24-3.12-.42-6.12-1.65-9.09-2.65-1.74-.58-3.83-1.22-6.28-1.91-2.81-.79-5.37-2.05-8.28-2.94-4.62-1.4-8.28-3.02-10.98-4.86-2.74-1.87-5.55-3.68-8.43-5.45-1.39-.85-2.72-1.71-4.01-2.59-3.16-2.15-6.34-4.22-9.06-6.9-1.95-1.92-3.72-3.37-5.31-4.34-4.9-2.98-9.56-6.44-13.98-10.4-4.85-4.34-9.77-7.86-14.73-11.7-1.35-1.03-2.51-2.27-3.8-3.37-.5-.43-.99-.9-1.46-1.39-3.94-4.16-8.41-8.61-13.41-13.36-1.03-.98-2.88-2.83-2.47-4.24.16-.53.68-.85,1.21-.76,2.78.48,5.18,1.46,7.54,3.17,3.54,2.55,7.04,4.86,10.5,6.94,1.47.88,3.13,2.13,4.98,3.73,2.91,2.54,6.57,4.09,9.87,6.18,4.46,2.82,9.41,5.55,14.15,7.83,2.53,1.22,6.09,2.53,10.68,3.94,4.02,1.24,7.81,3.29,11.93,4.72,2.43.84,5.15,2.17,8.18,3.97,2.87,1.71,6.39,2.05,9.55,3.25,2.81,1.07,5.56,1.88,8.22,2.42,2.04.41,4.44.52,7.21.34,2.29-.15,4.64-.26,7.04-.33,2.54-.07,4.82-.55,7.28-.74.92-.07,1.83-.18,2.73-.34Z"/>
  </g>
  <g>
    <path class="cls-9" d="M412.7,5.74c2.9,4.19,5.9,8.49,8.51,12.9,2.36,4,5.54,7.11,7.83,10.8,2.86,4.59,5.51,8.3,7.95,11.12,1.69,1.94,3.18,3.76,4.49,5.44,1.83,2.36,3.9,4.72,5.55,7.25,1.95,2.98,4.62,5.57,7.04,8.21,4.13,4.52,7.88,9.59,11.64,14.06,2.5,2.98,5.31,5.63,7.6,9.03,3.28,4.91,6.92,9.68,10.91,14.31.98,1.13,2.61,2.32,3.77,3.77,3.3,4.1,6.81,8.37,10.54,12.81.93,1.11,2.02,1.97,2.92,3.1,2.44,3.11,4.6,5.51,6.48,7.21,2.74,2.49,5.34,4.92,7.81,7.28,1.37,1.32,2.8,3.04,4.29,5.18,1.26,1.8,2.63,3.54,4.12,5.23,2.39,2.69,4.58,5.75,7.19,8.47.55.57.92,1.26,1.11,2.06.06.26,0,.49-.17.69-.6.7-1.37,1.22-2.3,1.57-1.9.69-3.82,1.39-5.74,2.08-3.35,1.2-6.36,2.97-9.51,4.57-1.55.79-3.09,1.61-4.62,2.48-1.78,1.01-3.7,2.01-5.77,3.02-3.09,1.49-6.75,3.62-9.59,6.01-1.23,1.04-2.25,1.77-3.07,2.18-5.7,2.9-11.1,6.27-16.19,10.1-4.61,3.47-8.92,6.11-12.94,7.93-2.21,1-3.72.33-4.55-2.02-1.25-3.58-1.95-7.28-3.16-10.81-3.01-8.79-5.6-17.65-7.78-26.55-.96-3.89-2.62-8.04-3.3-11.7-.52-2.81-1.18-5.4-1.99-7.76-1.61-4.71-2.41-8.95-3.87-13.61-.8-2.56-.85-5.07-1.5-7.66-2.28-9.02-5.02-17.93-8.24-26.73-1.57-4.3-2.28-9.07-3.72-13.47-2.41-7.34-4.17-14.65-5.29-21.93-.58-3.75-1.57-7.27-2.32-10.95-1.25-6.08-2.43-11-3.53-14.77-.64-2.18-.44-4.2-.95-6.35-.84-3.54-1.78-7.06-2.81-10.55-.47-1.58-.55-3.02-.47-4.58.03-.59.52-1.04,1.1-1.02.06,0,.13.01.19.03,1,.23,1.79.76,2.37,1.6Z"/>
    <path class="cls-9" d="M188.66,643.44c-2.26-.32-4.54-.55-6.83-.71-2.91-.2-5.19-.41-6.84-.64-2.61-.36-5.23-.73-7.84-1.11-2.83-.41-8.32-1.93-16.46-4.56-.9-2.65-1.21-5.12-.93-7.42.44-3.54.79-7.08,1.07-10.64.34-4.4.66-7.95.97-10.64.75-6.54,1.26-13.09,2.33-19.62.56-3.42,1.13-6.81,1.24-10.24.15-4.91.59-9.88.4-14.87-.34-8.85-.32-17.3.07-25.35.08-1.64.39-4.09.92-7.35.4-2.41.69-4.88.87-7.4.63-8.76.99-14.57,1.08-17.46.19-6.23.65-12.32,1.39-18.27.27-2.19.45-4.32.54-6.39.08-1.78.38-3.95.9-6.52.9-4.47,1.81-9.15,2.71-14.05.8-4.32,1.11-8.85,2.41-13.08.44-1.44,1.34-1.89,2.69-1.36,4.57,1.77,9.16,4.48,13.74,6.48,5.3,2.32,10.69,4.61,16.15,6.89.88.36,1.47,1.19,1.54,2.13.5,6.46.8,12.87,2.2,19.51,1.3,6.16,2.48,12.36,3.56,18.59.54,3.1,1.17,6.33,1.9,9.69.67,3.1,1.3,6.33,1.87,9.69,1.33,7.78,2.44,14.52,3.35,20.23.36,2.3.29,5.05-.23,8.24-.42,2.62-1.64,4.68-2.12,7.2-1.64,8.59-3.44,18.94-5.4,31.06-.31,1.9-.5,3.91-.58,6.03-.11,2.9-.3,4.95-.57,6.13-.73,3.23-1.11,6.21-1.14,8.94-.01.97-.98,2.74-1.18,4.01-.49,3.04-1.83,5.69-2.24,8.7-.74,5.43-2.03,10.77-3.86,16.01-.68,1.95-2,4.65-3.91,5.53-.65.3-1.3.61-1.95.93-.22.11-.39.26-.52.46-.28.46-.71.87-1.29,1.23Z"/>
    <path class="cls-9" d="M302.12,495.73l5.75,14.7c.25,3.62.79,7.1,1.62,10.44.36,1.44.61,2.79.76,4.06.17,1.43.4,2.82.71,4.18.52,2.33.19,4.59.79,6.79,1.09,3.94,1.24,8.09,2.06,12,.9,4.26.22,8.32,1.01,12.72.61,3.39,1.1,6.87,1.49,10.46.26,2.35,1.12,4.6,1.38,6.92.19,1.71.44,3.39.77,5.05.51,2.58.91,5.26,1.18,8.04.24,2.4.72,5.03,1.43,7.91,1.02,4.1,1.58,6.87,1.68,8.29.2,2.79.59,4.84,1.16,6.16-.01.6-.27,1.12-.75,1.57-3.78,3.49-7.51,7.21-11.21,11.14-1.46,1.55-2.82,2.87-4.09,3.97-2.34,2.03-4.93,3.99-7.12,6.24-.89.9-1.78,1.79-2.67,2.66-.95.93-2.19,2.35-3.71,4.25-2.04,2.54-4.36,4.65-6.95,6.31-.77-1.55-1.16-3.22-1.18-5.01,0-1.62-.09-2.9-.25-3.83-.18-1.07-.35-2.35-.51-3.84-.32-2.82-.82-5.79-1.52-8.9-.79-3.53-1.34-6.48-1.64-8.87-.62-4.85-1.21-9.94-2.53-14.68-2.15-7.73-3.37-15.75-3.94-24.32-.47-7.36-1.39-14.58-2.74-21.67-.84-4.38-1.6-8.72-2.28-13.03-.67-4.24-1.4-8.57-2.21-13.01-.2-1.12-.35-3.26-.45-6.43-.09-2.87-.95-5.72-.94-8.6,0-3.46-.36-6.96-1.08-10.5-.32-1.57.29-2.5,1.84-2.79,2.81-.52,5.87-1.16,9.16-1.93,2.86-.67,5.84-1.62,8.95-2.86,3.26-1.29,6.73-2.42,10.41-3.37.89-.22,1.81-.33,2.77-.31.9.01,1.86.04,2.87.07Z"/>
  </g>
  <g>
    <path class="cls-7" d="M314.27,290.5c.19,2.08.17,3.74-.06,4.97-.91,4.82-1.49,9.27-1.74,13.36-.33,5.3-.87,10.4-1.61,15.32-.8,5.34-1.22,11.17,1.98,15.92,1.8,2.67,3.48,5.27,5.06,7.81,2.18,3.49,4.95,6.75,8.69,8.91,2.2,1.27,4.35,2.66,6.43,4.15,2.39,1.71,5.35,2.99,8.88,3.84,4.78,1.15,8.82,1.34,13.52.65,4.71-.69,9.38-1.32,14.01-1.89,2.19-.27,4.58-.74,7.19-1.41,4.94-1.27,9.83-2.33,13.12-6.51,1.86-2.36,3.8-4.9,5.8-7.62,2.19-2.96,3.15-6.16,4.08-9.59.39-1.43.55-3.15.46-5.14-.12-2.98-.21-5.83-.25-8.55-.02-1.32-.04-2.7-.07-4.14-.06-3.02-.02-6.11.11-9.28.96.99,1.41,2.12,1.36,3.37-.17,4.46.09,8.57.78,12.33.7,3.82,1.04,7.91,1.01,12.25-.06,7.87.78,15.18,1.1,23.17.11,2.61-.42,5.6-.18,7.89.38,3.7.79,7.41,1.24,11.13.21,1.72,0,4.57-.65,8.56-5.84-3.6-9.64-6.02-11.4-7.26-5.63-3.98-11.35-7.84-17.14-11.59-2.77-1.8-5.67-2.93-9-3.37-3-.39-6.13-1.3-8.98.19-2.85,1.49-2.47,4.93-.84,7.09,2.79,3.71,5.61,7.34,8.47,10.91,1.7,2.13,3.37,4.62,5.01,7.48,4.04,7.03,8.21,13.25,13.42,19.17,2.47,2.81,4.67,5.52,6.58,8.11,1.64,2.21,3.39,4.45,5.26,6.71,4.06,4.91,7.74,10.05,11.69,15.11,1.75,2.24,3.51,4.89,5.29,7.96,2.92,5.04,4.87,8.13,5.85,9.26,2.34,2.69,4.55,5.53,6.64,8.52-.94,1.27-2.22,2.25-3.83,2.92-2.41,1-3.64,1.51-3.68,1.53-4.17,2.13-8.43,4.05-12.75,5.76-4.64,1.84-8.02,3.25-10.13,4.23-7.26,3.35-14.47,6.89-22.2,9.22-1.74.53-3.39,1.18-4.96,1.95-4.77,2.36-9.26,4.39-13.46,6.09-3.35,1.36-5.11-1.3-5.86-4.04-.98-3.6-2.2-6.91-3.2-10.4-.98-3.41-2.25-6.66-3.51-9.97-.81-2.13-2.18-3.73-3.19-5.74-3.71-7.37-7.51-14.75-11.4-22.13-3.02-5.74-5.63-11.56-8.37-17.52-1.27-2.78-2.5-5.19-3.69-7.23-1.81-3.12-3.72-6.12-5.19-9.36-1.96-4.32-3.94-8.2-5.67-12.84-1.82-4.86-3.6-9.27-5.34-13.24-.91-2.07-2.2-4.27-3.15-6.46-2.83-6.58-5.45-12.41-7.86-17.48-1.77-3.72-3.37-7.28-4.82-10.66-1.28-2.99-2.47-5.6-3.58-7.85-1.9-3.82-3.69-7.72-6.06-11.28-.79-1.19-1.49-2.38-2.11-3.59-1.44-2.77-3.2-5.28-4.47-8.16-1.19-2.69-2.12-5.3-2.79-7.83-.56-2.11-.33-3.74.7-4.9.75-.84,1.83-1.74,3.25-2.68,3.72-2.47,7.69-4,11.9-4.58,2.32-.32,4.38-1.16,6.68-1.47,1.18-.16,2.42-.48,3.71-.96,1.62-.61,3.12-1.13,4.64-2,6.04-3.45,12.48-5.84,19.3-7.15Z"/>
    <path class="cls-7" d="M526.66,307.85c2.13,3.28,3.93,6.64,5.41,10.08.33.78,1.47,1.88,3.41,3.31.2.14.33.33.39.56.21.79-.07,1.57.04,2.39.28,2.19.59,4.29.95,6.31.57,3.25.67,7.07.38,10.23-.26,2.8-.38,5.59-.34,8.37.03,2.8-.06,5.57-.25,8.34-.64,9.09-2.97,18.55-6.97,28.41-2.78,6.84-4.93,11.65-11.4,15.42-2.99,1.74-6.07,3.12-8.92,5.25-1.88,1.41-3.77,2.91-5.94,3.76-3.17,1.23-6.14,2.04-8.93,2.44-3.77.54-7.55,1.05-11.32,1.54-4.32.55-8.34.35-12.53.88-1.42.18-2.81.15-4.16-.1-1.78-.32-3.54-.6-5.23-1.3-5.12-2.1-10.63-3.45-15.65-5.82-4.1-1.92-8.32-3.1-12.42-5.28-5.44-2.88-12.7-3.12-18.14-7.05-.68-.49-1.46-.98-2.34-1.48,1.57.07,2.94.31,4.45.15,4.37-.45,8.51-.48,12.44-.09,1.79.18,3.61.23,5.45.15,4.01-.17,7.78-.22,11.67-.62,5.4-.57,10.97.59,16.16,1.79,4.23.98,8.43-1.72,12.72-1.67,2.69.03,5.24.07,7.92-.54,1.87-.42,3.78-1.02,5.68-1.01,3.43,0,7.01-.54,10.72-1.65,1.93-.58,3.19-1.92,3.78-4.03.44-1.6.73-3.19.87-4.75.02-.23.09-.45.22-.65.33-.52.59-1.08.79-1.69.67-2.06,1.54-4.06,2.25-6.11,1.49-4.38,3.2-8.87,5.13-13.48,1.05-2.5,3.71-7.22,7.98-14.15,1.81-2.94,3.19-5.92,4.9-8.88,1.53-2.64,3.18-5.99,2.84-9.08-.72-6.47-1.38-13.11-1.98-19.93Z"/>
  </g>
</svg>