<?xml version="1.0" encoding="utf-8"?>
<!-- Generator: Adobe Illustrator 28.3.0, SVG Export Plug-In . SVG Version: 6.00 Build 0)  -->
<svg version="1.1" id="Layer_1" xmlns="http://www.w3.org/2000/svg" xmlns:xlink="http://www.w3.org/1999/xlink" x="0px" y="0px"
	 viewBox="0 0 1118.6 1398.4" style="enable-background:new 0 0 1118.6 1398.4;" xml:space="preserve">
<style type="text/css">
	.st0{fill:#8EB2C8;}
	.st1{fill:#2F2521;}
	.st2{fill:#BFDFB8;}
	.st3{fill:#E94957;}
	.st4{fill:#2CB280;}
	.st5{fill:#857348;}
	.st6{fill:#DFC05C;}
	.st7{fill:#A1C8EB;}
	.st8{fill:#259765;}
	.st9{fill:#F28A75;}
	.st10{fill:#A8C69C;}
	.st11{fill:#CE414A;}
	.st12{fill:#C8DCEE;}
</style>
<g>
	<g>
		<path class="st0" d="M271.1,198.6c3.6-0.5,5.9,0.7,6.7,3.7c0.6,2,0.9,3.9,0.9,5.8c0.1,8-0.1,15.9,0.6,23.9c0.3,3.8,0.4,7.5,0.2,11
			c-0.2,3.6-0.2,7.3-0.1,10.9c0.4,9.8,0.9,19,1.5,27.7c0.3,4.1,0.2,8.1-0.1,12.1c-0.4,5.2-0.5,10.6-0.3,16c0.2,3.3,1.4,6,3.8,8.2
			c4,3.7,7.3,7.8,11.8,10.9c4.5,3.2,8.7,6.3,12.6,9.4c2,1.6,3.3,3.7,3.9,6.5c2.4,10.1,1.7,20.8,1.7,30.9c0,5.6,0.8,12.6,2.5,21.1
			c0.8,4.1,0.7,8.4,1.1,12.6c0.1,0.7-0.5,1.4-1.2,1.5c-0.3,0-0.6,0-0.9-0.2c-4-2.7-7.5-5.7-10.4-9.2c-2.1-2.5-4.2-4.7-6.4-6.7
			c-10-8.8-19.9-17.7-30.5-25.5c-4.3-3.2-8.3-6.3-11.9-9.3c-3-2.5-5.4-6-8.6-8.5c-3.3-2.6-6.7-5.1-10.1-7.6
			c-3.7-2.7-5.7-6.2-6.4-10.6c-1-5.7-2.1-11.5-3.2-17.5c-0.9-4.6-0.6-9-1.1-13.7c-0.4-3.5-0.5-6.9-0.5-10.4c0-3.6-0.2-7.1-0.5-10.5
			c-0.7-6.5-1.2-13.1-1.6-19.8c-0.2-4.2-0.7-9-1.5-14.4c-0.4-2.8-0.6-5.7-0.7-8.9c-0.1-2.6-0.3-5.5-0.8-8.9
			c-0.3-2.4,0.3-4.9,1.8-7.3c3.7-2.4,6.3-3.9,7.7-4.4c5.6-1.8,10.2-3.8,13.7-5.9c1.5-0.9,2.8-1.5,3.9-1.9c3-1.2,6-2.9,8.9-4.4
			c1.9-1,4.1-2.1,6.8-3.2C266.7,200.9,269,199.8,271.1,198.6z"/>
		<path class="st0" d="M748.7,217.9c4,4.9,8.1,10,12.1,15.3c1.5,2,4.9,5.1,10,9.4c2,1.7,3.5,3.2,4.7,4.5c1.4,1.7,2.8,3.3,4.3,4.9
			c0.9,1,1.7,1.8,2.3,2.6c0.7,0.9,1.5,1.8,2.3,2.6c1.8,1.8,3.4,4.2,4.9,7c-4.5,3-9.2,5.7-14.2,8c-6.3,3-10.5,5-12.3,6.1
			c-3.6,2.1-7.2,4.3-10.6,6.6c-3.8,2.6-7.4,4.6-10.7,6.2c-14.5,6.9-28.4,13.2-41.7,18.9c-6.2,2.7-12.3,6-18.6,8.8
			c-7.5,3.4-15,7.6-22.5,12.5c-4.9,3.2-10.9,3.9-15.6,6.7c-5.6,3.3-11.3,6.6-16.6,10.3c-4.9,3.3-10.6,6.8-17.1,10.4
			c-2.9,1.6-5.4,3.6-7.8,5.9c-6.6,6.7-12.4-2.2-15.1-7.5c-0.2-0.3-0.2-0.7-0.2-1.1c0.2-1.4,0.1-2.4-0.5-3.1
			c2.1-5.1,3.4-9.6,3.8-13.3c0.9-8.2,1.7-16.3,2.5-24.5c0.2-2.4-0.1-6.7-0.9-13c-0.4-3-0.1-8.3,0.9-15.6c2.6-2.4,5.2-4.5,8-6.1
			c3.7-2.2,7.3-4.4,10.5-6.5c3.7-2.3,7.2-4.3,10.6-6c6.8-3.3,13.4-6.7,20.8-9.1c4.4-1.5,8.2-3.9,12.5-5.6c4.7-1.8,9.5-3.8,14.4-6
			c6.9-3.1,14-5.5,20.8-8.9c7.5-3.8,15.9-5.9,23.4-9.3c4.4-2,8.6-3,12.8-4.8c5.3-2.3,10.8-4.6,16.5-6.7
			C744.4,216.9,746.5,217,748.7,217.9z"/>
		<path class="st0" d="M323.5,424.7c1.3,0.7,2.4,1.4,3.5,2.5c2.5,2.8,4.8,5.5,7.5,8.2c6.3,6.1,12.4,12.5,18.2,19.1
			c2.9,3.3,6.1,5.8,9.2,8.8c3.5,3.4,7.1,6.1,10.9,9c1.4,1.1,2.9,2.3,4.5,3.6c9.3,8.1,18.8,15.9,28.6,23.4c1.4,1,2.8,2.4,4.5,4.2
			c0,8.4-1,16.9-2.9,25.5c-1.2,5.3-1.9,10.1-2.2,14.3c-0.1,0.9-0.4,1.7-0.8,2.3c-0.8,1-2.2,1.2-3.2,0.5c-8.1-5.3-14-9.2-24-15.8
			c-6.4-4.2-13-7.9-19.2-12c-4.9-3.3-10-6.7-15.2-10.2c-8-5.3-16.1-14.1-24.3-20.5c-5.3-4.1-9-7.4-11.1-9.8c-4.4-4.8-8.4-9-12-12.6
			c-2.7-2.6-1-5.7,0.9-8.2c4.8-6.3,9.3-12.2,13.5-17.4c3.3-4.2,7.1-8.3,10.3-12.9C321,425.5,322.1,424.8,323.5,424.7z"/>
		<path class="st0" d="M588.6,437.6c3.7,1.4,7.1,3.3,10.4,5.5c4.4,3,7.4,7.3,11.9,10.4c5.4,3.7,10.5,9.3,14.4,13.8
			c2.7,3-1.1,5.2-3.6,6.1c-7.5,2.7-14.8,5.3-22,7.9c-4.9,1.8-10.2,2.3-15,3.8c-9.3,2.9-18.9,6.4-28.9,10.3
			c-4.1,1.6-8.5,2.9-13.1,3.8c-6.6,1.3-12.6,3.1-18.2,5.5c-7.6,3.2-14.8,6.2-21.7,9.1c-8.8,3.7-19.6,7.6-32.4,11.6
			c-4.2,1.3-8.3,2.8-12.3,4.4c-4.1,1.7-8.3,3.2-12.6,4.7c-10.7,3.5-20,10-30.2,14.3c-2.7,1.1-6.4,1.1-6.4-2.9
			c0-6.7,0.9-13.1,2.9-19.5c1.2-3.6,2.1-7.6,2.9-11.9c0.5-3.2,0-6.3,2.1-9.9c2.7-1.4,5.5-2.7,8.5-4c4.7-2.1,9.7-4.5,14.9-7.4
			c3-1.6,6.5-3.1,10.6-4.3c2.3-0.7,4.9-1.8,7.9-3.4c9.2-4.9,17.9-9.6,26.2-14.2c6.1-3.4,12.3-5,18.5-8c2.7-1.3,5.4-2.4,8.3-3.3
			c10.3-3.1,21-6.7,31.8-10.7c3.3-1.2,6.8-2.2,10.5-2.9c5.5-1,11-2.4,16.4-4.2C576.2,440.4,582.6,439.5,588.6,437.6z"/>
		<path class="st0" d="M290.3,485.2c0.5-3.6,0.9-7,1.1-10.3c0.1-1.4,0.7-2.7,1.7-3.9c0.2-0.3,0.5-0.4,0.9-0.5
			c1.6-0.2,3.1,0.5,4.4,2.1c4.5,5.2,9,9.8,14.4,14.2c5.7,4.7,11.2,9.2,16.7,14.3c3.3,3.1,6.5,5.6,9.6,7.7c9.6,6.4,19.3,12.6,29,18.7
			c13,8.1,25.6,17,38,25.3c3.3,2.2,3,5.7,2.8,8.7c-0.6,9.5-1.4,18.4-2.2,26.8c-0.4,3.9-0.1,7.7-0.5,11.5c-0.3,3.7-0.2,7.4-0.3,11.1
			c-0.1,3.8-1.1,7.7-1.8,11.4c-0.4,2.2-0.7,4.5-1,7c-0.4,3.9-1.1,7.7-2,11.5c-0.5,2.3-0.7,4.6-1,6.9c-0.1,0.9-0.2,1.8-0.2,2.8
			c0,6.2,0.2,12.1-0.7,18.1c-0.5,3.3-0.7,6.8-0.6,10.5c0.1,3-0.2,6.1-0.7,9.4c-1.2,6.6-1.9,12-2.1,16.2c-0.5,7.1-1.6,13.9-3.4,20.6
			c-0.8,3-3,2.7-5.3,1.6c-4.6-2.1-9.6-3.6-13.9-6.1c-6-3.5-12.4-6.3-19.2-8.4c-5.4-1.6-9.6-5.3-15-7.1c-2.8-1-5.7-2.2-8.1-4
			c-3.9-2.9-8.1-5.3-12.4-7.4c-2.5-1.2-4.9-2.7-7.3-4.2c-3.8-2.2-8.1-3.2-11.7-5.8c-3.2-2.3-6.5-4.3-10-6.1
			c-6.2-3.2-11.2-11.6-14-17.8c-1.3-3-1.8-6-1.3-9.1c0.7-4.7,1.6-9.4,2.8-14.1c0.8-3.4,1.5-7.8,1.9-13c0.4-5.5,1.1-11.1,1.9-17
			c0.2-1.4,0-2.7,0.2-4.1c2.4-16,4.6-32.1,6.7-48.3c0.7-5.3,0.2-10.9,0.7-16.1c0.7-7.6,0.8-16.3,0.3-26.3
			C288.3,503.8,288.8,494.8,290.3,485.2z"/>
		<path class="st0" d="M557.5,577.1c5.6,7.1,8.4,14.4,9.5,23.5c0.6,4.7,0.8,9.6,0.7,14.5c-0.2,7.7-0.2,15.6-0.1,23.4
			c0,3.3-0.1,6.7-0.4,10.1c-0.3,3.5-0.6,6.9-0.8,10.2c-0.5,6.2-2.9,12-3.2,18.2c-0.2,3.8-0.7,6.9-1.4,9.4c-0.9,3-2.9,3.8-5.9,2.6
			c-8.3-3.3-16.7-6.1-25.2-9.2c-3.6-1.3-6.5-2.1-8.9-2.4c-6.8-0.8-12.7-2.3-19.2-4.8c-3.1-1.2-6.5-2.4-10-3.5
			c-9.3-2.9-18-5.7-26.4-8.6c-3.3-1.1-4.8-3.3-4.4-6.6c2-17.3,9.2-35.4,21-48.6c3.3-3.7,6.2-7.6,9.9-10.9c4.6-4.1,9.4-8.3,14.5-12.7
			c4.3-3.7,7.9-6.3,13.4-8.2c4.4-1.5,8.8-3,13.1-4.5c2.5-0.9,5-1.2,7.6-0.8C548.2,569.2,553.6,572.2,557.5,577.1z"/>
		<path class="st0" d="M502.8,675.1c4.9,2,10.3,3.4,16.3,4.2c2.8,0.4,5.3,0.9,7.4,1.7c7,2.5,13.7,4.9,20.1,7.2
			c1.2,0.4,2.2,1.1,3,2.1c0.5,0.6,0.5,1.6-0.2,2.1c-0.1,0.1-0.3,0.2-0.4,0.3c-9,3.5-17.8,7.1-27.2,8.6c-8.9,1.5-17.8,4-26.6,6.2
			c-4.2,1-8.6,2.4-13.4,4.2c-7.7,2.8-14.6,3.8-22.1,4.9c-2.8,0.4-6.6,0.6-6.6-3.2c0-3.5,0.3-6.8,0.8-10c0.4-3,0.6-5.9,0.5-8.8
			c-0.3-7.9,1-17.1,3.9-27.7c0.8-3,2.6-4.5,5.7-3.9c1.6,0.3,3.3,0.7,5,1.3c9.3,2.9,19,6,28.9,9.1
			C499.5,673.8,501.1,674.4,502.8,675.1z"/>
		<path class="st0" d="M574,707.6c-10.6,4.9-19.6,8.4-26.9,10.4c-4,1.1-8.4,2.1-13.1,3.1c-6.5,1.3-13.1,4-19.8,5.8
			c-3.5,1-7.6,1.6-12.5,1.9c-4.9,0.3-9.3,0.7-13.3,1.2c-2.1,0.2-4.6-0.3-6.6-1.3c-6.1-3-12.5-5.5-19.1-7.5c-0.4-0.1-0.7-0.4-0.8-0.8
			c-0.4-1.1,0.1-1.8,1.3-2.1c5-1,10.1-1.6,14.8-3.2c15.8-5.3,32.3-9.6,49.5-12.9c2.7-0.5,5.3-1.2,7.8-2.1c4.9-1.8,9.5-4.1,14.5-5.1
			c2.5-0.5,5-0.9,7.5-1.2c5.4-0.7,10.6,0,15.4,1.9c3.5,1.4,7.1,2.7,10.7,3.9c1.7,0.5,2.4,2.5,0.8,3.6c-1.7,1.2-4,1.9-5.9,2.6
			C576.9,706.3,575.5,706.9,574,707.6z"/>
		<path class="st0" d="M519,854.1c-3.8-1.6-7.8-4-12.1-7.1c-4.8-3.4-10.1-6.1-15.7-8c-2.9-1-5.7-2-8.3-3.1
			c-3.7-1.5-7.6-2.3-11.5-3.9c-5.2-2.2-10.1-4.4-14.6-6.7c-1.9-1-3.5-2.1-5-3.4c-2.9-2.6-3-8.6-2.6-12.3c0.8-9.5,1.2-16.1,1.1-19.9
			c-0.1-4.4,0-9,0.4-13.9c0.1-1.6,0.2-3.2,0.3-4.7c0.1-3.1,0.3-6.3,0.5-9.4c0.5-7.6,1-15,1.5-22c0.3-4.8,1-9.4,2-14
			c1.4-1.4,2.6-2,3.6-1.8c4.2,1,8.3,2.2,12.5,3.5c4.2,1.3,10,3.8,10.8,8.5c1.1,6.4,1.6,12,0.5,18.5c-0.8,4.7-0.7,9.6-1.4,14.3
			c-0.5,3.4-0.4,6.9,3.3,8.1c4.7,1.5,9.1,3.3,13.4,6c6.4,4,12.3,7.8,17.9,11.3c1.5,0.9,2.4,2.3,2.8,4.2c0.9,4.6,1.3,9.3,1.1,14.1
			c-0.1,2.6,0.4,5.6,1.5,9.1c1.2,3.9,3.8,6.5,7.2,8.7c4.8,3.1,9.3,5.9,13.5,8.4c4.4,2.6,8.3,5.9,12.5,8.8c2.2,1.5,3.3,3.7,3.2,6.4
			c-0.1,3.9-0.2,7.6-0.2,11.1c0,0.8-0.1,1.5-0.2,2.3c-0.2,1-0.2,2.2-1,3c-0.9,0.9-2,1-3.3,0.3c-2.9-1.5-5.5-3.3-8.5-4.6
			c-5.8-2.4-11.4-5.3-16.9-8.6C525.5,856.5,522.8,855.3,519,854.1z"/>
		<path class="st0" d="M510.2,787.7c-4.9-3-10.2-6-16-9.1c-1.1-0.6-1.5-2-0.9-3.1c0,0,0,0,0,0c0.4-0.7,0.9-1.2,1.6-1.5
			c8.6-4.1,16.8-8.2,26-11c3.6-1.1,6.8-2.3,9.7-3.4c4.2-1.7,8.5-3,12.8-4.9c11.3-5,22.7-9.5,34.4-13.5c5.5-1.9,14,4,18.5,7.6
			c2.5,2,2.3,4.8-0.5,6.5c-1.8,1.1-3.7,2.1-5.8,3c-6.6,2.9-12.2,5.6-16.9,8.2c-6.7,3.6-14.2,5.8-21.1,9c-8.7,4-17.3,7.6-26,11.4
			C520.7,789.3,515.4,790.9,510.2,787.7z"/>
		<path class="st0" d="M551.7,841.8c-5.6-3.7-11.2-7.2-17-10.6c-1.4-0.8-2.7-1.9-3.9-3.1c-1.3-1.4-0.4-3.3,1.2-3.8
			c3.7-1.1,7.5-2.2,11.2-3.7c4.8-2,10.1-3.7,16-5.2c1.5-0.4,3.1-0.9,4.6-1.6c13-5.7,25.3-12.1,36.9-19.1c2.4-1.5,5.3-1.2,7.9-0.4
			c5.1,1.6,10.1,3.4,15.1,5.4c1,0.4,1.9,1,2.5,1.8c0.8,1,0.7,2.4-0.3,3.2c-10.5,8.8-21.5,17.5-33.8,23.8
			c-8.8,4.5-17.5,9.2-26.9,12.9C561,843.1,555.8,844.5,551.7,841.8z"/>
	</g>
	<g>
		<path class="st1" d="M193.4,76.5c-1.1,3.2-2,6.7-2.5,10.5c-0.5,3.5-0.8,7-0.9,10.4c-0.4,9.1-1.2,18.1-2.4,27
			c-0.2,1.4-0.8,2.9-2,3.7c-3.7,2.3-6.3-4-6.6-6.5c-0.3-2.2-0.7-4.3-0.7-6.5c0-7.4,0.2-14.6-0.4-22.3c-0.3-4-0.4-8-0.6-12
			c-0.3-5.7-0.3-11.3,0.2-17c0.3-4.1,0.6-8,0.9-11.9c0.2-3.7-0.7-7.6-0.8-11.5c0-2.7-0.2-5.5-0.4-8.6c-0.2-3.4,0.6-6.7,0.4-10.1
			c-0.2-4.4,2-13.6,8.1-13.4c1.9,0.1,2.9,1.8,3.2,3.5c0.7,4.4,1.2,8.8,1.6,13.2c1.2,15.2,2.6,29.8,4.2,43.8
			C194.7,71.2,194.4,73.8,193.4,76.5z"/>
		<path class="st1" d="M234.8,125.7c1.6-3.1,1.2-6.1,1.2-9.5c0-1.5-0.1-3.2-0.3-5.1c-0.6-5.5-0.4-11.4-1.1-16.4
			c-0.5-3.7-1-7.3-1.6-10.9c-0.5-3.2-0.9-6.3-1.1-9.4c-0.2-3.2-0.4-6.4-0.7-9.5c-0.2-1.9,0-3.7,0.6-5.5c0.2-0.7,0.9-1.2,1.6-1.3
			c2.6-0.3,3.7,3.1,4.3,5.2c4.3,15.1,7.7,28.5,10.1,40.2c2.2,10.9,4.3,20.4,6.4,28.6c2.1,8.4,4.6,16.4,7.6,23.9
			c4.2,10.7,7.7,21.7,10.9,32.5c0.9,3-0.1,5.4-2.9,7.1c-4.5,2.7-9.1,4.4-13.7,7.1c-2.8,1.7-5.5,3.1-8.1,4.2
			c-2.8,1.2-4.9,0.6-6.3-1.9c-1.8-3.4-3-7-5.1-10.3c-2-3-4.5-5.9-7.7-8.6c-3.6-3.1-6.7-6.2-9.4-9c-4.8-5.3-5.6-13.9-4.9-21.2
			c0.4-4.9,0.1-9.6,0.6-14.4c0.4-3.7-0.1-6.8-0.3-10.2c-0.1-1.9-0.2-3.1-0.3-3.7c-0.9-6.1-1.7-11.8-2.5-17.3
			c-0.7-4.5-0.9-9.3-1.7-13.9c-1.3-7.9-2-15.4-6.4-22.4c-2-3.1-2.8-6.7-2.8-10.4c0.1-4.7,0-9.3,0.3-14.1c0.3-3.8-0.2-7.6,0.5-11.4
			c0.7-4,1.6-8,2.7-12.1c0.3-1,0.9-1.8,1.7-2.1c1-0.5,2.2,0,2.8,1c1.5,2.9,2.5,6.2,3,9.8c0.9,5.9,1.8,12.7,2.9,20.5
			c0.5,3.5,0.9,6.9,1.3,10.2c1.6,12.6,2.8,23.3,3.6,32.2c0.3,3.5,0.5,7.2,0.6,11c0.1,5.2,1,17.1,6.1,20.2
			C229.8,130.7,233.4,128.6,234.8,125.7z"/>
		<path class="st1" d="M227.3,216.7c-4.4,2.5-9.4,5.1-14.5,3.8c-1.4-0.4-3.4-1.5-5.7-3.5c-7-5.8-14-11.7-20.9-17.5
			c-2.6-2.2-5.2-4.1-7.8-5.9c-2.7-1.9-5.3-4-7.7-6.4c-2.9-2.9-3.4-7.5-3.5-11.3c-0.1-2.4-0.2-4.6-0.5-6.5c-0.4-3.1-0.7-6.5-1-10.1
			c-0.2-3.7-0.5-7.1-0.9-10.3c-1.1-10.4-1.7-17.6-1.8-21.4c-0.1-5.8-0.5-11.3-1-16.8c-0.3-2.6-0.4-4.6-0.5-6c-0.1-2.8,0-5.3-0.3-8
			c-0.5-4-0.7-6.6-0.6-7.9c0.4-5.6,0.3-11-0.2-16.4c-0.1-0.9,0.4-2.3,0.4-3.3c-0.1-6.9,0-13.9,0.4-21.2c0.1-1.5,0.3-3.1,0.5-4.7
			c0.6-3.6,3.8-5.4,7.1-3.5c2.7,1.6,3.9,6.3,4.2,9.1c0.4,3.7,0.7,7.4,0.6,11.2c-0.1,4.8,0.5,9.5,0.5,14.2c0,2.7,0,5.3,0,7.9
			c0,4.9,0.6,9.7,1.3,14.8c0.3,2.8,0.5,5.8,0.5,9.2c0,7.6-0.8,17.4,3.9,23.8c2.7,3.8,7.6,3.8,9.9-0.4c2.8-5,2.9-12.3,3.4-18.3
			c0.2-2.1,0.3-5.1,0.4-9c0.1-8.7,1.1-16.4,2.9-23.1c0.2-0.8,0.8-1.5,1.7-2.2c5.3-3.9,8.1,11.3,8.5,13.7c0.6,4.2,1.1,8.3,1.7,12.5
			c0.2,1.1,0.3,2.3,0.5,3.5c1.3,8.9,2.4,17.7,3.5,26.3c0.3,2.2,0.1,7.8-0.4,16.9c-0.3,4.4-0.3,8.1-0.2,11.2
			c0.2,3.5,0.6,7.2,1.2,10.9c1.1,5.8,9.2,12.6,13.6,16.4c3.6,3.1,6.7,6.4,8.9,10.8c1.5,2.8,2.7,5.5,3.6,8.1c1.3,3.5-1,5.4-4,6.4
			C231.9,214.4,229.4,215.4,227.3,216.7z"/>
		<path class="st1" d="M449,175.2c4.6-10.5,13.1-18.6,20.1-27.2c3.1-3.8,6.2-7.6,9.2-11.4c1.7-2.1,5.7-5.4,11.8-10
			c3.7-2,7.5-3.2,11.5-3.5c9.8-0.8,17.2,4.5,17,14.6c-0.1,3.1-0.3,6.7-0.6,10.8c-0.3,3.9-1,7.6-2.1,11c-3.1,9.5-7.7,18-14.1,25.3
			c-2.7,3.1-4.4,7.3-7.2,10.7c-2.1,2.6-4.4,5.2-6.7,8c-3,3.5-4.9,7.6-5.6,12.4c-0.3,2.4,0.5,4.4,0.4,6.7c-0.2,5,1.7,9.2,5.7,12.5
			c3.8,3.1,6.9,6.5,9.1,10.1c1.8,2.9,3.7,6.1,5.6,9.6c3.2,5.9,4.9,13.4,6,19.9c0.4,2.2,0.3,5.9-0.6,8.4c-1.9,4.8-3.8,10.4-6.5,14.9
			c-2.9,4.6-6.8,13.6-0.3,17.1c2.9,1.5,6.1,3,9.5,4.2c7.6,2.8,12.9,8.2,15.8,15.8c3.5,8.9,5.3,18.9,4,28.4
			c-0.8,6.2-0.9,14.2-3.7,19.2c-3.2,5.6-10.4,7.2-16.1,9.6c-6.4,2.7-12.9,4.2-19.7,4.4c-1.5,0-2.9,0.2-4.4,0.6
			c-1.5,0.4-3,0.6-4.5,0.7c-4.3,0.2-4.7-1-1.3-3.6c5.1-3.8,9-8.6,6.6-15.4c-2.6-7.2-8.3-17.5-15.9-20.2c-5.1-1.8-10.4-3-16-3.6
			c-0.9-0.1-2.7-0.5-5.4-1.2c-2.3-0.6-4-1.4-5-2.1c-4.1-3.3-3.6-9.4-0.9-13.7c5.5-8.7,12.4-15.9,20.7-21.7c3.4-2.4,5.7-6.7,8.9-9.9
			c1.7-1.7,3.4-3.2,4.6-5.3c2.2-3.8,4.1-7.9,5.7-12.4c1.5-4,2-8,1.7-11.9c-0.5-5.2-3.2-12.7-8.3-15.5c-6-3.3-12.2-3.5-18.5-0.5
			c-5.8,2.7-10.6,6.8-14.4,12.1c-2,2.8-3.8,6-6.4,8c-2.4,2-5.3,3.5-8.6,4.7c-2.3,0.9-4.5,0.8-6.4,0c-4.5-2-4.8-6.4-3.6-10.6
			c2.1-7.2,4.1-12.6,6-16.2c2-4,4.2-7.9,6.5-12c4.2-7.4,9.5-14.4,15.8-21c4.3-4.6,8.5-9.5,12.5-14.1c0.8-1,1.6-2,2.1-3
			c2.5-4.5,4.9-9.6,7-15.5c2.4-6.6,2.8-15.9-6-17.5c-3.6-0.7-7.6,0.7-11,2.1C450.5,179,449,177.8,449,175.2z M468.8,241.5
			c3.2,1.4,7.3-0.9,9-5.1c1.8-4.2,0.6-8.7-2.7-10l0,0c-3.2-1.4-7.3,0.9-9,5.1S465.6,240.2,468.8,241.5z"/>
		<path class="st1" d="M910.1,220.6c-6.7,5-1.5,10.3,4.8,9.6c4.7-0.5,9.3-1.4,13.7-2.6c4.7-1.3,9.1-4.1,13.7-5.5
			c3.2-1,12.6-2.2,14.9,1.7c1.8,3.2-0.5,7.6-3.1,9.8c-3.1,2.6-6.4,4.7-10,6.4c-5.3,2.5-10.3,5-14.9,7.8c-4,2.3-7.8,4.4-11.5,6.3
			c-5.1,2.7-10.1,6.1-15.4,8.7c-5.9,2.9-11.3,6.1-16.2,9.6c-1.6,1.2-3.5,3.3-5.7,6.3c-3.6,5.1-2.1,10.7,4.9,10.9
			c4.5,0.1,8.8,0.5,13.3,0.8c6.8,0.4,13.4,2.2,20.2,2.3c4.1,0,8.6,0.6,13.7,1.7c3.8,0.8,8.5,2,9.9,6c5.2,15-11.7,18.1-21.8,19.6
			c-6,0.9-11.6,0.2-17.5,0.1c-6.3,0-13.1-2.3-18.4-2.6c-8.4-0.4-17-1.1-25.8-2.1c-2.8-0.3-9.3,0.2-19.5,1.5
			c-5.3,0.7-14.5,2.6-27.7,5.7c-0.9,0.2-1.8,0.3-2.8,0.4c-7.6,0.5-6.9-3.5-7.6-9.3c-0.3-2.1-0.2-4.2-0.5-6.3
			c-0.5-3.7-0.8-7.5-0.9-11.3c-0.1-3.4-0.4-6.8-1.1-10.4c-0.9-4.9-1.5-9-1.8-12.3c-0.2-2.4-0.6-4.4-1.1-6.1
			c-0.5-1.7-1.6-3.4-3.1-5.1c-4.1-4.6-8.2-9.4-12.5-14.4c-2.6-3.1-5.3-5.9-8.1-8.5c-3.8-3.6-7.8-7-10.9-11.1
			c-2.7-3.7-5.5-7.5-8.4-11.4c-1.9-2.5-1.4-4.5,1.4-5.9c6.1-3.1,12.1-6.2,18-9.4c5-2.7,10-5.7,15-8.9c6.5-4.2,13.3-7.2,20-11.4
			c8.3-5.2,17.2-9.5,26.5-12.9c4.6-1.6,9.6-2.5,14.5-3.2c2.6-0.4,5.1-0.4,7.5,0.1c3.3,0.6,5,4,3,6.9c-2.7,4-7.7,6-11.5,8.4
			c-6.8,4.3-14.6,7.1-21.4,10.5c-3.2,1.6-5.7,3.3-7.5,5.1c-2,2-2.2,4.2-0.7,6.6c1.2,1.9,4.2,2.4,6.4,2.5c4.5,0.2,9.1-1,13.9-3.8
			c4-2.3,7.8-4.5,11.5-6.7c13.6-8.2,27.9-14.8,43.3-20.2c3.3-1.2,14.5-3.5,14.9,2.1c0.3,3.9-4.6,8.1-7.6,9.8
			c-5.2,3-10.1,6.1-14.8,9.4c-1.8,1.3-3.8,2.5-5.8,3.7c-4.2,2.5-9,4.8-12.4,8.2c-2.8,2.9-1.7,6.7,2.3,7.2c1.5,0.2,3.1,0,4.7-0.5
			c6.8-2.2,13.4-4,19.5-7.8c4.3-2.7,8.8-5.4,13.4-8.1c5.1-3,10.7-4.9,16.2-7.6c8-4,16.3-6.3,24.7-8.5c3.5-0.9,8.8-1.8,9.2,2.9
			c0.2,2.3-0.9,4.6-2.3,6.4c-2.7,3.5-5.7,8.4-9.8,10.5c-4.7,2.5-8.9,4.6-14.3,6.8C923.1,212.2,916.2,216,910.1,220.6z"/>
		<path class="st1" d="M515.9,1133.7c-2.1,17.7-7.6,33.4-16.5,47.1c-4.3,6.6-7,13.5-12.7,19.2c-1.6,1.6-3.1,3.3-4.7,5.1
			c-4.8,5.8-9,11.3-12.7,16.6c-1.6,2.3-3.4,4.3-5.5,5.9c-2.6,2-5,3.7-7.3,5.1c-0.9,0.5-2,0.4-2.8-0.4c-4.4-4.6,6.2-14.4,2.1-17.2
			c-0.8-0.6-1.9-0.6-2.8,0c-2.1,1.4-4,3.1-5.6,5.2c-3.4,4.3-6.9,8.7-10.4,13.3c-0.8,1-1.7,1.6-2.8,1.7c-1,0.1-1.9-0.6-2-1.6
			c-0.7-6.7,2.8-14,6.4-19.8c0.2-0.3,0.3-0.6,0.3-1c0-1-0.3-1.5-0.7-1.6c-1.1-0.2-2.2,0.2-2.8,1.2c-3,4.5-6,9.1-8.9,13.8
			c-1.7,2.6-5.7,6.4-9,4.2c-3-2-0.2-8.8,1.1-11c1.4-2.3,6-8.9,5.8-11.6c-0.1-1-1-1.8-2-1.7c-0.1,0-0.2,0-0.3,0.1
			c-1.2,0.3-2.1,1-3,2.2c-4.6,6.3-9.7,12.1-15.3,17.3c-2.8,2.6-6.6,0.7-6.7-3.1c-0.1-5.6,1.8-9.6,4.8-14c1-1.5,1.3-4-0.5-5
			c-2.3-1.2-5.7,0.8-7.4,2.2c-5.8,4.9-11.2,8.8-16.2,11.5c-2.5,1.3-8.5,2.9-9.5-1.2c-0.8-3.3-0.2-7,2-11.2c2-4,4.2-6.8,8-9.4
			c6.3-4.3,13-7.6,20-10c5.6-1.9,8.2-9.9,9.5-15.1c1.4-5.9,2.6-11.5,3.5-16.6c0.5-2.8,1.3-5.5,2.4-8c2.5-5.5,9-3.4,13.6-4.7
			c4.8-1.4,8.2-2.1,10.2-2.3c3.9-0.4,7.5-0.9,10.9-1.4c4.7-0.7,8.8-0.3,13.1-0.6c5.9-0.4,13-5.7,18.1-9.1c2-1.4,4.5-2.6,7.3-3.7
			c5.6-2.2,10.5-5.6,15.9-8.3c2.7-1.4,4.9-3.4,7.1-5.4c3.5-3,6.4,1.7,6.7,4.8C516.8,1120.9,516.7,1127.3,515.9,1133.7z"/>
		<path class="st1" d="M484.3,1316c-0.3,1.8,0.6,3,2.7,3.5c4.7,1.2,9.4,2.4,14.1,3.6c1.6,0.4,3,1.1,4.4,2.3c2.7,2.2,2.5,5.9-1.6,6
			c-1.6,0-2.7,0-3.2-0.1c-3.9-0.7-7.5-1.3-11-1.6c-1.6-0.2-3.1-0.1-4.6,0.3c-0.8,0.2-1.4,1.1-1.1,1.9c0.1,0.3,0.2,0.5,0.4,0.7
			c0.6,0.6,1.5,1,2.5,1.1c3.8,0.5,7.7,0.8,11.5,1.2c3,0.2,9.4,1.5,10.5,5c1.4,4.6-4.9,5.4-8,5c-4.1-0.5-8.2-1.1-12.3-1.6
			c-1.4-0.2-2.5,0.2-3.4,1.3c-0.4,0.4-0.1,1.1,0.7,2.1c0.3,0.4,0.8,0.6,1.3,0.6c7.2,0.5,13,2.9,17.6,7.2c2.1,2,1.5,5.2-1.7,5.5
			c-2,0.2-4,0.1-6.1-0.3c-3.1-0.5-6.1-0.7-9.2-0.6c-0.9,0-1.6,0.7-1.7,1.6c-0.1,1.1,0.4,2,1.4,2.7c3.9,2.7,7.6,5.4,11.2,8.2
			c4.3,3.3,6.5,7.5,6.8,12.6c0.2,4.7-3,6.5-7.2,6.4c-7-0.2-13.8-1.6-20.3-4.3c-8.7-3.7-12.4-10.3-15.9-18.7
			c-1.1-2.7-2.5-5.2-4.1-7.4c-3.6-5-7-9.4-10.1-13.1c-2.7-3.1-6-4.8-10-5.2c-11.1-1.1-21.4-8.8-28.5-17.2
			c-4.8-5.7-9.4-11.4-14.5-16.8c-2.3-2.5-4.6-5.1-6.7-7.9c-1.4-1.8-4-4-7.9-6.8c-6-4.2-11-5.1-17.8-5.8c-3.4-0.3-6.5,0.7-9,3
			c-6.9,6.1-16.2,11.7-24.2,13.8c-8.3,2.2-11.6-3.4-12.5-10.6c-0.5-4.2-0.8-7.8-0.9-10.8c-0.1-3.1,0.1-7.3,0.7-12.6
			c0.3-3.2,0.5-6.6,0.5-10c0-6-0.2-11.8,0.3-17.7c0.3-2.7,0.4-5.4,0.4-7.9c0.1-2.3,0.5-4.4,0.5-6.6c0-7.9,0-15.3,0.1-22.3
			c0-1.7,0.5-3.4,0.3-5.1c-0.5-4.7-0.2-9.5-0.8-14.2c-0.5-3.8-0.8-8-0.9-12.4c-0.1-3.1-0.2-6.1-0.3-9.2c-0.2-4.4,0-8.5,0.4-12.4
			c0.1-1,0.5-1.8,1.2-2.5c0.7-0.7,1.8-0.7,2.5,0c0.1,0.1,0.2,0.2,0.2,0.3c3.2,4.8,6.4,9.4,9.5,13.7c2.7,3.6,4.3,8.5,8.1,11.1
			c4,2.7,8.2,4.8,12.9,6.1c7.4,2,13.8,4.9,20.3,9.5c3.6,2.6-0.6,6.6-2.3,8.7c-3.9,4.9-5.6,10.2-5.1,15.8c0.6,6.6,4,9,10.1,7.5
			c6-1.5,12-6.2,17.1-10.2c0.8-0.6,1.9-0.5,2.6,0.3c0.1,0.1,0.2,0.2,0.2,0.4c0.3,0.7,0.4,1.5,0.2,2.3c-1.1,5.1-1.1,9.1,0,12
			c2.1,5.4,7.1,3.9,10.5,0.8c3.1-2.8,5.7-5.6,7.9-8.3c0.4-0.5,0.8-0.8,1.3-1c0.4-0.1,0.9,0.1,1,0.5c0.1,0.2,0.1,0.4,0,0.6
			c-1.5,3.6-2.2,7-1.9,10.2c0.2,3.1,2.5,4.5,5.3,5.3c3.5,1,6.6,3.4,9.4,7.2c4.6,6.5,9.4,11.9,14.3,16.4c3.5,3.2,6.5,6.1,8.9,8.8
			c5.4,5.9,11.1,10.6,16.3,16.5c3.3,3.8,6.4,7.8,10.4,10.7c5.1,3.6,10.2,6.1,15.5,7.6c3.2,0.9,6.2,1.9,9.3,2.9
			c3.6,1.2,6.7,5,3.6,8.6c-3.9,4.6-12,2.7-17.1,1.2c-1.4-0.4-2.9-0.4-4.3,0.1C484.6,1315.4,484.3,1315.7,484.3,1316z"/>
		<path class="st1" d="M449.2,1227.2c-0.5-0.7-1.2-1-2.1-1.1c0.4-0.5,1-0.7,1.6-0.5c0.3,0.1,0.5,0.4,0.5,0.8V1227.2z"/>
	</g>
	<g>
		<path class="st2" d="M468.8,241.5c-3.2-1.4-4.4-5.8-2.7-10s5.8-6.5,9-5.1c3.2,1.4,4.4,5.8,2.7,10c0,0,0,0,0,0
			C476.1,240.6,472.1,242.9,468.8,241.5z"/>
		<path class="st2" d="M351.6,322.5c0.7,2.1,0.7,4.4,0,6.8l-1.3-1.4c-0.2-0.3-0.5-0.4-0.9-0.4c-3.6,0-8.6,3.4-11.7,5.2
			c-1.8,1.1-3.9,1.9-6.3,2.5c-5,1.3-9.1,2.7-12.1,4.1c-5.3,2.5,0.1,8.1,2.5,10.5c2.8,2.6,5.4,5.2,7.7,7.6c4.7,5,9.8,9.5,14.9,14.1
			c1.1,1,3.2,3,4.8,2.8c0.6-0.1,1.3-0.3,2.1-0.7c0.5,3,0.9,5.8,1.2,8.5c0.1,0.8,0.7,2.4,1.9,4.7c-0.6-0.5-1.1-1.1-1.5-1.8
			c-1.2-2.3-2.8-4-4.8-5.7c-9-7.8-17.8-15.8-26.4-24.1c-1.6-1.6-3.2-2-4.6-1.3l-3.4-16.2c4.1-1.2,8.2-2.4,12.2-3.7
			c3.8-1.2,7.8-2.8,11.7-4.7C342.2,327.1,346.9,324.8,351.6,322.5z"/>
		<path class="st2" d="M591.8,371.1c0.8,0.6,1.4,1.6,1.8,3c0.3,0.8,0.6,1.6,1,2.3c0.5,0.9,0.7,1.7,0.6,2.5c-0.4,6-0.5,12.3-0.3,18.9
			c0.1,3.1,0,6.7-0.4,9.7c-1.2,7.9-2.8,15.6-4.5,23c-0.2,0.9-0.6,1.9-1.2,2.9c-0.2,0.3-0.2,0.6-0.1,0.9c0.7,2,0.7,3.1-0.1,3.4
			c-6.1,1.8-12.5,2.8-18.1,4.6c-5.4,1.8-10.9,3.1-16.4,4.2c-3.8,0.7-7.3,1.7-10.5,2.9c-10.9,4-21.5,7.6-31.8,10.7
			c-2.9,0.9-5.7,2-8.3,3.3c-6.1,3-12.3,4.6-18.5,8c-8.3,4.6-17,9.3-26.2,14.2c-3,1.6-5.6,2.7-7.9,3.4c-4.1,1.2-7.6,2.6-10.6,4.3
			c-5.2,2.9-10.2,5.3-14.9,7.4c-3,1.3-5.9,2.7-8.5,4l-6.4-1.2c-1.6-1.7-3.1-3.1-4.5-4.2c-9.8-7.5-19.4-15.3-28.6-23.4
			c-1.6-1.4-3-2.6-4.5-3.6c-3.8-2.8-7.4-5.5-10.9-9c-3.1-3-6.3-5.5-9.2-8.8c-5.8-6.6-11.9-13-18.2-19.1c-2.7-2.6-5.1-5.4-7.5-8.2
			c-1-1.1-2.2-1.8-3.5-2.5c-0.2-0.3-0.4-0.7-0.5-1c-0.1-0.3-0.1-0.7,0-1c0.2-0.8,0.6-1.7,1-2.5c3,3.6,6.1,7,9.4,10.3
			c4.3,4.4,7.5,7.8,9.6,10.1c3.3,3.6,6.6,7.2,9.9,10.8c2.5,2.6,4.9,5,7.2,7.1c3.3,3,6.5,6.2,10.2,8.8c3.4,2.5,7.5,5.8,12.4,9.9
			c8.7,7.4,16.7,13.6,24.2,18.7c1,0.7,2,0.7,3,0.2c0.6-0.3,0.9-0.9,0.9-1.6c-0.1-11.1,1.1-21.7-0.4-32.6c-0.8-5.9-1.1-11.8-0.8-17.6
			c0.2-3.2-1.7-5.8-4.1-7.9c-4-3.5-7.7-7.2-12-10.4c-5.2-4-9.2-7.2-11.9-9.5c-7-5.9-13.8-12.9-20.3-21c2.3,1,4.4,2.2,6.2,3.5
			c1,0.7,2.9,1.5,5.9,2.6c-0.9,1-0.8,2.1,0.4,3.2c5.6,5.5,11.6,10.8,17.9,15.6c5.7,4.3,11,8.7,16,13.2c1.9,1.7,4.2,2.8,6.9,3.3
			c1.8,0.3,4.2,0,7.2-0.9c3.6-1.2,7.1-2.3,10.5-3.4c3.7-1.2,7.6-2.4,11.7-3.5c7.9-2.1,15.6-5.6,23.5-7.9c1.7-0.5,3.3-1.1,5-1.8
			c7.9-3.4,16.2-6,24.2-9.2c4.2-1.7,8.5-2.8,12.8-4.4c7.4-2.8,14-4.4,21.2-6.2c5.3-1.3,10.3-3.8,15.6-5.6c4.1-1.4,7.7-2.7,10.9-3.9
			c5.8-2.3,11.6-4.5,17.2-7.6C580.2,378.8,586.1,375.1,591.8,371.1z"/>
		<path class="st2" d="M528.9,386.4c2.2,1.5,5.1,2.1,8.6,2c-3.3,1.5-6.8,2.3-10.7,2.4L528.9,386.4z"/>
		<path class="st2" d="M476.9,397.5c1.3,1.6,1.2,3.2,3.8,3.6c0.1,1.1-0.9,1.4-2.9,1.1c-3.3-0.5-6.7-1-10.2-1.5L476.9,397.5z"/>
		<path class="st2" d="M455.2,725.7c-1,4.6-1.7,9.3-2,14c-0.5,7.1-1,14.4-1.5,22c-0.2,3.1-0.4,6.2-0.5,9.4c-0.1,1.5-0.2,3.1-0.3,4.7
			c-0.4,4.9-0.5,9.5-0.4,13.9c0.1,3.8-0.2,10.4-1.1,19.9c-0.3,3.7-0.2,9.7,2.6,12.3c1.4,1.3,3.1,2.4,5,3.4c4.5,2.3,9.4,4.6,14.6,6.7
			c3.8,1.6,7.8,2.3,11.5,3.9c2.6,1.1,5.4,2.1,8.3,3.1c5.6,1.9,10.9,4.6,15.7,8c4.3,3.1,8.3,5.4,12.1,7.1l3.2,5.9l0.2,1.9
			c0,0.6,0.2,0.6,0.5,0.1l0.2-0.3c0.1-0.2,0.1-0.2,0.1,0c-0.1,0.3-0.2,0.6-0.4,0.7c-0.3,0.2-0.4,0.4-0.4,0.8
			c0.1,1.8-0.3,3.6-0.2,5.4c0.1,10.6,0,20.7-0.3,30.5c-0.1,1.7-0.4,3.2-1,4.6c-0.6,1.2-1.6,1.8-3.1,1.8c-1,0-2,0-3.1-0.1
			c-5.3-0.5-9.3-1-11.9-1.6c-4.3-1-7.7-1.6-10-1.9c-2.6-1.1-5.4-1.6-8.5-1.4c-1.6-0.5-2.7-0.8-3.3-0.9c-4.4-0.7-8.5-1.2-12.3-1.7
			c-0.9-0.1-1.8-0.2-2.7-0.4c-3.9-0.6-8-1-12.2-1.5c-4.7-0.5-9.1-1.8-13.9-1.9c-2.7,0-5.1-1.1-7.8-1.2c-0.8,0-1.8,0-3-0.1
			c-0.9-0.8-3-1.3-6.4-1.6c-2.3-1-4.9-1.7-7.7-2c-4.3-0.4-6.9-0.7-7.8-0.9c-6.5-1.2-12.9-2-19.3-2.4c-4.3-0.3-10.2-1.2-17.5-2.7
			c-4.9-1-9.7-1.6-14.3-1.8c-4.8-0.2-9.6-0.1-14.4,0.2l-10.9,0.5c-4-1.3-7.9-1.6-11.9-0.8l-5.7-0.6c-4.2-1.5-8.6-2.3-13.4-2.4
			c-6.7-0.1-13.3-0.1-19.7-0.1c-0.1,0-0.3-0.1-0.5-0.2c-0.3-0.2-0.5-0.2-0.8-0.2c-4.9,0-9.6,0-14.2,0c-1.3,0-3.5-0.1-6.5-0.3
			c-2.9-0.2-6.4,0.4-9.2-0.3c-4.5-1.2-7.2-2.4-4.3-7.4c4.2-7.2,6.9-11.4,8-12.6c2.8-3.1,5.6-6.1,8.3-9c1.4-1.5,2.4-3.3,3.8-5
			c4-4.8,7.8-9.7,12.1-14.2c1.9-2.1,3.8-4.2,5.7-6.5c1.9-2.3,3.9-4.6,6.1-7c2.1-2.3,4.2-4.7,6.1-7c1.4-1.7,2.4-3.7,3.1-5.9
			c0-0.2,0.3-0.3,0.7-0.3l2.5-3.4c1.9-1.7,3.6-3.4,5-5.1c1.2-1.5,2.4-2.9,3.7-4c1.4-1.2,2.7-2.7,4.1-4.3c3.4-4.1,7.8-8.1,10.3-12.9
			l4.8-5.6c1.6-1.3,3.2-2.2,4.3-4c1.6-2.6,3.4-5,5.4-7.3c7.9-9.5,15.8-18.9,23.6-28.1c2-2.3,3.3-4.5,4-6.4c1.6,0.7,3.1,1.5,4.5,2.2
			c1.5,0.8,3,1.5,4.5,1.9c5.4,1.8,11.2,3.6,15.6,7.5c3,2.6,9.8,0.2,14-1.3c5.7-1.9,11.2-3.5,16.3-4.7c0.8-0.2,1.6-0.2,2.5-0.1
			c0.3,0,0.7,0,1-0.1c2-0.9,3.8-1.4,5.3-1.2c1.7,4.8,3.6,9.4,5.7,13.7c3.4,7.2,6.9,14.9,10.4,23.1c0.4,1,1.1,1.8,1.9,2.4
			c0.5,0.3,1.1,0.2,1.5-0.2c0.1-0.1,0.1-0.2,0.2-0.3c0.9-2.6,0.6-5.2,0.8-7.8c0.8-9.5,1.6-19,2.3-28.4c0.2-3-0.5-5.2-2.3-6.7
			l3.9-0.9c1.4-0.3,1.8,0.2,1.3,1.5C454.6,722.8,454.7,724.1,455.2,725.7z M499,864.7c2.3,3.1,3.3,6.4,5.1,9.6
			c2.8,5,5.2,9.6,7.4,13.9c0.9,1.8,2,3.7,3.5,5.9c0.6,0.8,1.4,1.1,2.4,0.7c0.6-0.2,1-0.8,1-1.5c-0.2-5.8-0.2-11.6,0.2-17.6
			c0.2-2.8,0.2-5.3,0-7.4c-0.2-2.5-0.4-4.9-0.6-7.3c-0.2-2.1-1.3-4.2-3-5.4c-4.5-3-11.2-7-19.9-12c-1.9-1.1-3.7-1.5-5.4-1.3
			c-2.1,0.2-2.7,1.4-1.8,3.4c1.5,3.4,3.5,6.9,6,10.5C495.7,858.9,497,862,499,864.7z"/>
	</g>
	<g>
		<path class="st3" d="M530.4,383.2c0.6-2.1,1-4.3,1.3-6.5c0.4-3.2,0.8-6.3,1.2-9.4c0.3-2.5,0.4-5.1,0.3-7.7
			c-0.1-2.6-0.2-5.2-0.3-7.7c-0.2-4.6-1.3-10-3.2-16.1c-0.6-2-2.2-5.1-4.7-9.1c-0.6-0.9-1.2-1.7-2-2.4c-2.1-1.9-3.6-4-6.1-5.4
			c-3.1-1.7-6.3-3-9.5-4c-2.3-0.7-4.3-1.9-5.8-3.6c-0.2-0.3-0.3-0.6-0.3-0.9c0.1-0.9,0.1-1.8-0.1-2.7c-0.1-0.3,0-0.7,0.1-0.9
			c1.9-4.6,4.2-8.8,6.2-13.4c0.8-1.8,1.6-3.6,2.5-5.5c1.9-3.9,2.1-8.1,1.7-12.4c-0.3-2.7-0.8-5.5-1.7-8.3c-0.5-1.6-0.9-3.1-1.2-4.6
			c-0.4-1.6-0.8-3.1-1.5-4.5c-2.3-5.3-5.1-10.3-8.2-15.1c-1.3-2-2.8-4-4.5-6.1c-1.2-1.4-2.5-2.7-3.9-3.8c-2.7-2.1-4.5-4.7-5.5-7.6
			c-0.1-0.2-0.1-0.4,0-0.6c0.1-0.2,0.1-0.5,0-0.7c-0.1-0.2-0.2-0.5-0.2-0.8c-0.8-6.1,0.2-11,3-14.6c2.6-3.3,5.3-6.6,8.1-9.7
			c1.3-1.5,2.5-3.1,3.5-4.7c1.1-1.8,2.2-3.5,3.4-5.1c1.8-2.5,3.7-5,5.5-7.5c2.9-3.9,5.7-9,8.4-15.4c1.5-3.5,2.6-7.8,3.4-12.9
			c0.7-4.8,1.1-9.4,1.1-14c0-1-0.1-2-0.3-3c-0.2-1-0.3-2-0.4-3c-0.1-1.5-0.5-3-1.2-4.2c-1.6-2.7-3.7-5.1-6.2-7
			c-1.1-0.8-2-1.3-2.7-1.3c-2.3-0.2-4.5-0.6-6.7-1c-0.4-1.2,0.2-2.2,1.6-2.8c6-2.7,9.9-4.4,11.6-4.9c19.5-6.3,37.1-3.4,52.8,8.8
			c4.2,3.3,7.5,9.1,9.1,14.4c2.1,6.8,4.1,13.2,6,19.3c0.8,2.7,1.3,5.7,1.4,8.9c0.1,2.7,0.2,5.3,0.3,7.9c0.2,2.8,0.2,5.8,0.1,9.1
			c-0.4,9.3,3.3,17.9,3,27.2c-0.1,5.4-0.3,10.8-0.6,16.3c-0.3,7,0.5,13.9,0,20.8c-0.2,3.3-0.2,6.5,0,9.5c0.3,3.6,0.5,7,0.5,10.2
			c0,6.7,0.1,13.7-0.4,20.5c-0.3,4.6-0.7,9.1-0.1,13.8c0.6,5.5,1.3,11.7,0.7,17.2c-0.5,4.3-0.3,8.5-0.9,12.9
			c-0.4,2.7-0.5,5.4-0.9,8.1c-1.2,7.5-3.7,15.4-7.7,24c-1.2,2.7-2.7,5.1-4.4,7.3c-3.8,4.9-7,9-12.7,11.4c-6.5,2.6-12.9,5.7-19.8,4.8
			c-2.3-0.3-5.3,0.1-9.1,1.2C532.5,386,531.1,385.3,530.4,383.2z"/>
		<path class="st3" d="M479.9,392.7c-9,3.6-18,5.9-26.9,6.8c-5.6,0.6-12.5-0.5-17.2-0.6c-7.5-0.2-15.5-0.3-24.1-0.5
			c-2.6-0.1-4.9,0.2-6.9,0.7c-2.2,0.6-4.4,1-6.6,1.3c-3.8,0.6-9.6-0.4-9.7-5.3c-0.1-1.8,0-3,0.2-3.7c0.8-3,1.4-5.9,1.5-8.6
			c0.2-2.5,0.4-4.3,0.6-5.5c0.9-4.3,1.4-7.8,0.9-12.5c-0.2-2.4-0.3-4.8-0.2-7.3c0-1.2-0.3-2.3-0.4-3.5c-0.4-11.1-0.1-22,0.8-32.8
			c0.5-5.7,0.2-11.4,0.4-17.1c0.3-8.3,1.7-16.3,4.3-23.9c4.5-13.3,8.9-25.5,13.1-36.5c2.6-6.8,6.3-13,9.2-19.9
			c3.1-7.4,6.8-14.5,11.1-21.5c3.6-5.8,7.7-10.7,12.5-14.8c2.2-1.9,4.9-3.9,8.1-5.9l9.5-3.3c0.3-0.1,0.7-0.1,1,0
			c1.5,0.6,3.1,0.5,4.5,1.5c1.5,1,2.3,2.5,2.4,4.4c0,0.3,0.1,0.6,0.3,0.9c0.3,0.6,0.3,1.1-0.1,1.7c-0.2,0.3-0.3,0.6-0.2,0.9
			c0.1,0.9,0,1.9-0.4,2.8c-1.4,3.9-2.9,7.7-4.6,11.5c-1.6,3.6-4.1,7.2-7.3,10.5c-1.3,1.3-2.5,2.9-3.8,4.7c-1,1.5-2.4,3.1-4,4.6
			c-2,1.8-3.7,3.8-5.3,6c-1,1.5-2.4,2.2-3.4,3.5c-3,3.9-5.9,7.7-8.3,11.9c-3.4,5.9-6.3,11.4-8.5,16.5c-2.1,4.8-3.7,10-4.9,15.6
			c-0.4,1.8-0.5,3.9-0.4,6.2c0.2,3.4,1.5,5.8,4.1,7c2.2,1.1,3.8,0.6,6,0.8c0.9,0.1,1.7-0.1,2.4-0.4c2.9-1.2,5.8-1.9,8.3-3.8
			c2.4-1.8,4.3-3.8,5.8-6.2c0.3-0.4,0.6-0.8,1.1-1.1c0.3-0.2,0.5-0.4,0.6-0.7c0.8-1.4,1.7-2.7,2.8-4c0.6-0.6,1-1.3,1.4-2
			c0.8-1.3,2.1-1.5,3-2.6c2.6-3.1,6.4-5.4,11.5-6.9c2.2-0.6,3.4,0,5.5-0.2c2.4-0.2,6.1,1.7,7.5,3c0.7,0.6,1.4,1.3,2.1,2
			c0.6,0.6,1.1,1.3,1.6,2.1c2.9,4.8,3.4,10.3,1.6,16.4c-1.9,6.6-4.9,12.4-9,17.2c-2,2.4-4.2,4.9-6.6,7.5c-4.7,5-11.1,9.3-15.3,14.4
			c-3.4,4.2-6.5,8.3-9.2,12.4c-1.7,2.5-2.4,5.6-2.2,9.4c0.2,5,2.4,8.2,6.4,9.8c2.7,1,6.2,1.8,10.6,2.5c0.4,0.1,0.9,0.1,1.3,0
			c0.4,0,0.8,0.1,1.2,0.3c0.3,0.2,0.6,0.3,0.9,0.3c0.2,0,0.4,0,0.5-0.1c0.2-0.1,0.4-0.1,0.5,0c4.2,0.8,8,2.1,11.4,3.9
			c5.5,2.9,9.3,9.1,11.8,14.8c0.6,1.4,1.1,3,1.4,4.8c0.3,1.8-0.2,4.4-1.3,5.5C483.4,389.2,481.7,391,479.9,392.7z"/>
	</g>
	<g>
		<path class="st4" d="M292,683.2c2.8,0.6,4.7,1.1,5.4,1.7c2.8,1.9,5.5,3.4,8,4.7c5.2,2.5,9.5,5.8,15,8c3.4,1.4,6.5,3.3,9.6,5.4
			c4.5,3,9.8,4.5,14.4,7.4c4.1,2.6,6.7,4.1,7.9,4.4c3.8,1.1,6.7,2,8.7,2.9c1.8,0.7,3.4,1.9,4.8,3.5c-0.7,1.9-2.1,4.1-4,6.4
			c-7.8,9.3-15.7,18.7-23.6,28.1c-1.9,2.3-3.7,4.8-5.4,7.3c-1.1,1.8-2.7,2.6-4.3,4c-7.3-1.3-14.5-3.3-21.4-6
			c-3.9-1.5-7.2-2.7-9.9-3.4c-3.5-1-6.9-2-10.2-3.2c-2.9-1-5.4-1.7-7.7-2.2c-4.4-0.9-10.2-1.5-14.2-3.7c-4-2.2-2.4-6.3-0.9-9.4
			c2.1-4.2,4.2-8.7,6.1-13.4c2.4-5.9,7.1-12.7,9.6-19.3c1.2-3.2,2.3-6.3,3.4-9.5C285.1,691.1,288,686.5,292,683.2z"/>
		<path class="st4" d="M409.2,1142.9c-0.7,2.6-1.3,5.3-1.7,8c-0.5,3.7-0.9,6.4-1.3,8c-1,4-2,8-3,12c-0.8,3.1-1.9,5.6-3.3,7.7
			c-0.9,1.3-2.6,2.8-4.1,3.4c-4.1,1.9-8.5,3.6-13.2,5c-1.3,0.4-2.6,0.4-3.9,0.1c-4.3-1.1-8.3-2.5-11.9-4.4c-5.2-2.7-10.2-4-16.7-6.1
			c-3.9-1.2-7.6-2.9-11.2-5c-0.9-0.5-1.8-2.1-2.7-4.7c0.2-2.9,0.4-5.9,0.6-8.9c0.2-3,0.2-6,0.2-8.9c-0.1-4.3,0.5-8.5,0.5-12.8
			c0-18.7,0-37.1,0-55.1c0-4.2,1-8.6,0.6-12.7c-0.5-4.8-0.8-9.4-1-13.8c-0.1-2.5,0-5.2,0.3-8c0.5-5-0.4-10-0.4-15.1
			c0-7.6-0.5-15.1-0.1-22.6c0.3-5.7,0.3-11-0.1-15.9c-0.4-5.7,0.3-11.5-0.4-17.2c-0.3-2.9,0-5.8-0.2-8.7c-0.3-4.8-0.7-9.5-1.1-14.2
			c-0.4-4.7-0.6-9.2-0.5-13.6c0-3,0-6.1,0-9.2c0-2.8-0.1-5.9-0.3-9.2c-0.5-8.2-0.5-14.5-0.2-18.9c0.3-4.6,0.6-9.6,0.7-14.8
			c0-1.1,1-2.1,2.1-2c0,0,0.1,0,0.1,0c1.9,0.2,4.2,2.5,5.6,3.8c5.6,5.7,9.9,11,12.9,15.9c1.5,2.4,3.2,4.7,5.2,6.8
			c3.3,3.5,6.4,7.4,9.4,11.7c1.6,2.4,3.5,4.8,5.5,7.2c5.8,7,10.4,15,15.3,22.1c4.9,7.1,13.1,13,13.3,22.5c0.1,7.5,0.6,15.4,1.5,23.7
			c0.3,2.9,0.5,6.1,0.6,9.7c0.1,3.1,0.3,6.1,0.7,9c0.6,4.4,1.4,8.9,1.6,13.5c0.1,3,0.3,5.9,0.6,8.8c0.3,2.8,0.5,5.8,0.6,8.8
			c0.2,5,0.4,10.1,0.5,15.2c0.1,4.4,0.4,9.5,0.8,15.2c0.5,7.8,0.7,15.7,0.4,23.9c-0.1,2-0.5,4-0.5,6c0,6.2,0.1,12.3,0,18.5
			c0,2.1-0.3,4.7-0.8,7.8C409.6,1137.8,409.4,1140.3,409.2,1142.9z"/>
		<path class="st4" d="M428.7,892.7c1.2,0.1,2.2,0.1,3,0.1c2.7,0,5.1,1.1,7.8,1.2c4.9,0.1,9.2,1.4,13.9,1.9
			c4.2,0.4,8.3,0.9,12.2,1.5c0.9,0.1,1.8,0.3,2.7,0.4c3.8,0.5,7.9,1.1,12.3,1.7c0.6,0.1,1.7,0.4,3.3,0.9c3.7,4.3,6.5,8.3,8.5,11.9
			c3.8,7.1,7.7,12.9,11.5,17.6c1.6,1.9,2.6,4.4,0.9,6.5c-2.6,3.2-7.5,5.2-11.2,6.7c-3.5,1.4-6.5,4.6-9.9,6.4
			c-5.1,2.7-9.8,5.1-14.2,7.4c-2.8,1.4-6.3,1.2-8.5-1.3c-1.8-2.1-3.4-4.2-4.8-6.3c-6-9.6-11.6-18.7-15.9-29.7
			c-1.1-2.9-2.6-5.6-4-8.3C433.4,905.4,430.9,899.2,428.7,892.7z"/>
		<path class="st4" d="M510.1,1104.7c-0.8,0.7-1.6,1.4-2.3,2.1c-0.8,0.9-1.6,1.6-2.3,2c-7.2,4.8-14.7,8.8-22.7,12.2
			c-4.8,2.1-9.2,4.8-13.2,8.3c-0.7,0.6-2.4,1-5.3,1.4c-1-6.6-1.2-13.9-0.7-22.2c0.3-5.8,0.3-12.5,0-20.2c-0.2-4.6-0.1-8.9,0.2-12.8
			c0.4-4.2,0.7-8.4,1.1-12.8c0.5-7.1,0.8-13.8,0.7-20.1c-0.1-4.4,0.1-8.8,0.6-13.4c0.8-8.1,1-16.3,0.6-24.6
			c-0.2-3.4-0.2-6.5-0.1-9.2c0.1-2.5,0.1-5-0.1-7.5c-0.3-3.4-0.3-6.7,0-10c0.2-3.2,0.4-6.4,0.4-9.6c0.1-4.9,2.2-8.4,6.3-10.4
			c7.4-3.6,14.7-7.6,21.5-12c3.3-2.1,7-4.2,11.2-6.2c6.3-3.1,6.6,3.7,6.3,7.5c-0.2,2.9,0.6,5.7,0.8,8.5c0.4,6.4,0.6,12.5,0.5,18.3
			c-0.1,4.1,0.2,8.2,0.6,12.5c0.5,4.4,0.9,8.8,1.1,13.3c0.2,4.2-0.4,8.6-0.4,12.1c0,10.1,0,20.3-0.1,30.4c0,6.3-0.8,13.6-0.8,20.5
			c0,3.6-0.4,7-0.7,10.5c-0.1,1.3-0.1,2.7-0.1,4.2c0.3,7.6,0,14.4-0.8,20.3C512,1099.7,511.3,1102.1,510.1,1104.7z"/>
	</g>
	<g>
		<path class="st5" d="M274.3,194.5l-3.2,4c-2.1,1.2-4.4,2.3-6.8,3.3c-2.7,1.1-5,2.2-6.8,3.2c-2.9,1.5-5.8,3.2-8.9,4.4
			c-1,0.4-2.3,1.1-3.9,1.9c-3.5,2.1-8.1,4-13.7,5.9c-1.4,0.5-4,1.9-7.7,4.4l-7.5,2.5c-1.1,0.5-2.3,0.6-3.6,0.2
			c-0.9-0.3-1.8-0.9-2.9-1.9c-1.8-1.7-3.8-3.5-5.8-5.2c-3.9-3.3-7.9-6.6-11.9-9.9c-2.7-2.2-5.6-4.6-8.4-7c-3-2.5-6.8-5.1-11.5-7.6
			l-3.1-3.1l-3.7-3.9c-0.2-0.2-0.3-0.4-0.3-0.6c-0.8-3.7-1.2-6.8-1.2-9.1c0-4.6-0.3-9.2-0.8-13.5c-0.6-4.9-0.6-9.6-0.5-14.5
			c0-1.1,0-2.3-0.2-3.4c-0.6-4.3-0.2-8.8-0.5-13.7c-0.2-4.4-0.3-9.2-0.2-14.3c0-1.2-0.5-2-0.4-3.1c0.1-1.5,0.1-3-0.2-4.6
			c-0.5-3.2-0.1-6.2-0.5-9.4c-0.3-2.7-0.2-5.2-0.2-7.9c0-0.5-0.1-2.2-0.4-5.1c-0.2-2.3,0.1-4.7-0.1-6.9c-0.3-3-0.4-6-0.3-9
			c0.1-1.2-0.5-2-0.5-3.1c0-2.1-0.1-4.1-0.2-5.9c-0.5-6.1-0.1-12.7,1.2-19.9c1-5.8,6.2-8.4,11.3-5.1c1,0.7,1.9,0.5,2.6-0.5
			c0.4-0.6,0.6-1.3,0.6-2.2c0.1-8,0.8-15.1,2.3-21.3c0.9-3.8,4.6-7.8,8.5-8.4c2.4-0.3,4.2,0.5,5.6,2.4c0.7,1,1.2,2.6,1.6,4.7
			c1.2,7.3,1.9,13.9,2.4,19.8c0.5,7.7,1.2,14.4,1.9,20.1c0,0.3,0.2,0.6,0.5,0.8c0.5,0.3,0.9,0.3,1.3,0.1c0.1-0.1,0.2-0.2,0.2-0.4
			c0.4-4.9-0.2-9.9,0.8-14.9c1-4.9,1.9-10.3,3.9-14.9c1.6-3.8,6.9-5.8,9-1c1.9,4.4,3.1,8.8,3.9,13.5c1.1,7.2,2,14.3,2.8,21.1
			c0.4,3.9,1.1,9.1,2.2,15.6c0.8,5.2,1.4,10.4,1.6,15.8c0.1,2.2,0.5,4.2,0.5,6.3c-0.1,2.3,0.5,4.3,0.5,6.6
			c-0.1,3.7,0.1,7.4,0.4,11.2c0.3,3.9,1,7.3,2,10.4c0.6,1.7,1.6,2.9,3.2,3.6c0.3,0.1,0.6,0.1,0.9,0c1.5-0.6,2.4-1.9,2.8-3.6
			c0.6-3.6,0.8-7,0.5-10c-0.4-3.2-0.6-6.5-0.6-9.9c-0.1-5.4-0.5-10.8-1.3-16.1c-0.5-3.5-0.9-7.1-1.1-10.8c-0.2-3.7-0.6-7.4-0.9-11.1
			c-0.3-2.7,0-5.4,0.8-8c1.3-4,5.7-4.1,8-0.9c1.3,1.9,2.4,4,3.2,6.3c3.6,10.3,5.8,20.7,8.2,31.1c1.1,4.9,2.2,10.2,3.4,16.2
			c1.6,8.2,3.4,16.3,5.4,24.2c1.5,5.9,3.5,12.2,6,19c4.5,12.3,8.7,24.6,12.4,36.8c0.4,1.3,0.2,2.5-0.5,3.5
			C275.1,192.5,274.7,193.5,274.3,194.5z M193.4,76.5c1-2.7,1.3-5.3,1-7.8c-1.6-14-3-28.6-4.2-43.8c-0.4-4.4-0.9-8.8-1.6-13.2
			c-0.3-1.7-1.2-3.4-3.2-3.5c-6.1-0.3-8.3,9-8.1,13.4c0.2,3.5-0.6,6.7-0.4,10.1c0.2,3,0.3,5.9,0.4,8.6c0.1,3.9,1,7.8,0.8,11.5
			c-0.2,3.8-0.5,7.8-0.9,11.9c-0.4,5.7-0.5,11.4-0.2,17c0.2,4,0.3,8,0.6,12c0.6,7.7,0.4,14.9,0.4,22.3c0,2.2,0.4,4.3,0.7,6.5
			c0.3,2.5,2.9,8.9,6.6,6.5c1.2-0.8,1.8-2.3,2-3.7c1.2-8.9,2.1-17.9,2.4-27c0.1-3.4,0.5-6.9,0.9-10.4
			C191.4,83.2,192.2,79.7,193.4,76.5z M234.8,125.7c-1.4,2.9-5,5-8,3.1c-5.1-3.1-6-15-6.1-20.2c0-3.8-0.2-7.5-0.6-11
			c-0.8-8.9-2-19.6-3.6-32.2c-0.4-3.3-0.9-6.7-1.3-10.2c-1-7.7-2-14.6-2.9-20.5c-0.5-3.6-1.5-6.9-3-9.8c-0.5-1-1.7-1.4-2.8-1
			c-0.8,0.4-1.4,1.1-1.7,2.1c-1.1,4.1-2,8.1-2.7,12.1c-0.7,3.8-0.2,7.6-0.5,11.4c-0.4,4.8-0.3,9.3-0.3,14.1c0,3.7,0.8,7.3,2.8,10.4
			c4.4,7,5.1,14.5,6.4,22.4c0.8,4.6,1.1,9.4,1.7,13.9c0.8,5.4,1.6,11.2,2.5,17.3c0.1,0.6,0.2,1.8,0.3,3.7c0.2,3.4,0.7,6.5,0.3,10.2
			c-0.6,4.8-0.2,9.6-0.6,14.4c-0.6,7.2,0.1,15.9,4.9,21.2c2.6,2.9,5.7,5.9,9.4,9c3.1,2.7,5.7,5.6,7.7,8.6c2.1,3.2,3.3,6.9,5.1,10.3
			c1.4,2.5,3.5,3.1,6.3,1.9c2.6-1.1,5.3-2.5,8.1-4.2c4.6-2.7,9.2-4.4,13.7-7.1c2.8-1.7,3.8-4.1,2.9-7.1
			c-3.2-10.7-6.7-21.8-10.9-32.5c-3-7.6-5.5-15.5-7.6-23.9c-2.1-8.2-4.2-17.8-6.4-28.6c-2.4-11.6-5.7-25-10.1-40.2
			c-0.6-2.1-1.8-5.5-4.3-5.2c-0.7,0.1-1.3,0.6-1.6,1.3c-0.6,1.7-0.8,3.5-0.6,5.5c0.3,3.1,0.5,6.3,0.7,9.5c0.2,3.1,0.5,6.2,1.1,9.4
			c0.6,3.5,1.1,7.2,1.6,10.9c0.6,5,0.5,10.9,1.1,16.4c0.2,1.9,0.3,3.6,0.3,5.1C236,119.6,236.4,122.6,234.8,125.7z M227.3,216.7
			c2.2-1.2,4.7-2.3,7.5-3.3c3-1,5.3-2.9,4-6.4c-0.9-2.5-2.1-5.2-3.6-8.1c-2.2-4.3-5.4-7.7-8.9-10.8c-4.4-3.8-12.6-10.6-13.6-16.4
			c-0.7-3.7-1.1-7.3-1.2-10.9c-0.1-3.1-0.1-6.9,0.2-11.2c0.6-9.1,0.7-14.7,0.4-16.9c-1.1-8.6-2.2-17.3-3.5-26.3
			c-0.2-1.2-0.3-2.3-0.5-3.5c-0.6-4.2-1.2-8.3-1.7-12.5c-0.3-2.4-3.2-17.6-8.5-13.7c-0.9,0.7-1.5,1.4-1.7,2.2
			c-1.8,6.7-2.7,14.4-2.9,23.1c-0.1,3.9-0.2,6.9-0.4,9c-0.5,6-0.6,13.3-3.4,18.3c-2.3,4.2-7.2,4.2-9.9,0.4
			c-4.7-6.5-3.9-16.2-3.9-23.8c0-3.4-0.2-6.5-0.5-9.2c-0.6-5-1.3-9.8-1.3-14.8c0-2.6,0-5.2,0-7.9c0-4.7-0.6-9.4-0.5-14.2
			c0.1-3.7-0.2-7.4-0.6-11.2c-0.3-2.8-1.5-7.5-4.2-9.1c-3.3-1.9-6.5-0.1-7.1,3.5c-0.3,1.6-0.5,3.2-0.5,4.7
			c-0.4,7.2-0.5,14.3-0.4,21.2c0,1-0.4,2.4-0.4,3.3c0.5,5.4,0.6,10.9,0.2,16.4c-0.1,1.3,0.1,3.9,0.6,7.9c0.3,2.7,0.3,5.3,0.3,8
			c0,1.4,0.2,3.4,0.5,6c0.6,5.4,0.9,11,1,16.8c0.1,3.8,0.7,11,1.8,21.4c0.3,3.2,0.6,6.7,0.9,10.3c0.2,3.6,0.6,7,1,10.1
			c0.3,2,0.4,4.2,0.5,6.5c0.1,3.8,0.5,8.4,3.5,11.3c2.4,2.4,5,4.5,7.7,6.4c2.6,1.8,5.2,3.8,7.8,5.9c7,5.9,13.9,11.7,20.9,17.5
			c2.4,2,4.3,3.1,5.7,3.5C217.8,221.7,222.9,219.1,227.3,216.7z"/>
		<path class="st5" d="M503.8,120c2.2,0.4,4.4,0.8,6.7,1c0.7,0.1,1.6,0.5,2.7,1.3c2.5,1.9,4.6,4.3,6.2,7c0.7,1.3,1.2,2.7,1.2,4.2
			c0,1,0.2,2,0.4,3c0.2,1,0.3,2,0.3,3c0,4.5-0.4,9.2-1.1,14c-0.8,5.2-1.9,9.5-3.4,12.9c-2.7,6.4-5.5,11.5-8.4,15.4
			c-1.8,2.5-3.7,5-5.5,7.5c-1.1,1.5-2.2,3.2-3.4,5.1c-1,1.7-2.2,3.2-3.5,4.7c-2.8,3.1-5.5,6.4-8.1,9.7c-2.8,3.6-3.8,8.5-3,14.6
			c0,0.3,0.1,0.5,0.2,0.8c0.1,0.2,0.1,0.5,0,0.7c-0.1,0.2-0.1,0.4,0,0.6c1,3,2.9,5.5,5.5,7.6c1.4,1.1,2.7,2.4,3.9,3.8
			c1.7,2.1,3.2,4.1,4.5,6.1c3.1,4.8,5.9,9.8,8.2,15.1c0.6,1.4,1.1,2.9,1.5,4.5c0.3,1.5,0.7,3.1,1.2,4.6c0.9,2.8,1.4,5.6,1.7,8.3
			c0.4,4.3,0.1,8.5-1.7,12.4c-0.9,1.9-1.7,3.7-2.5,5.5c-2,4.6-4.3,8.8-6.2,13.4c-0.1,0.3-0.2,0.6-0.1,0.9c0.2,0.9,0.2,1.7,0.1,2.7
			c0,0.3,0.1,0.7,0.3,0.9c1.5,1.7,3.5,2.9,5.8,3.6c3.3,1,6.4,2.3,9.5,4c2.6,1.4,4,3.5,6.1,5.4c0.8,0.7,1.4,1.5,2,2.4
			c2.5,4,4.1,7,4.7,9.1c1.9,6.1,2.9,11.5,3.2,16.1c0.1,2.5,0.2,5.1,0.3,7.7c0.1,2.6-0.1,5.2-0.3,7.7c-0.4,3.1-0.7,6.2-1.2,9.4
			c-0.3,2.2-0.7,4.4-1.3,6.5c-0.7,0.9-1.3,1.9-1.5,3.2l-2,4.3c-7.2,2.5-14.5,4.9-21.9,7.3c-2.4,0.8-4.8,1.3-7.3,1.7
			c-1.1,0.2-2.2-0.2-3.2,0.1c-0.7,0.2-1.4,0.4-2.1,0.4c-3,0.2-5.8,0.6-8.5,1.3c-0.5,0.1-1.6-0.1-3.2-0.6c-2.6-0.4-2.5-2-3.8-3.6
			l3-4.7c1.8-1.8,3.5-3.5,5.1-5.2c1.1-1.1,1.6-3.7,1.3-5.5c-0.3-1.8-0.8-3.4-1.4-4.8c-2.5-5.6-6.3-11.8-11.8-14.8
			c-3.3-1.8-7.1-3.1-11.4-3.9c-0.2,0-0.4,0-0.5,0c-0.2,0.1-0.3,0.1-0.5,0.1c-0.3,0-0.6-0.1-0.9-0.3c-0.4-0.2-0.8-0.3-1.2-0.3
			c-0.4,0-0.9,0-1.3,0c-4.4-0.7-7.9-1.5-10.6-2.5c-4-1.5-6.2-4.8-6.4-9.8c-0.2-3.7,0.6-6.9,2.2-9.4c2.7-4.1,5.8-8.2,9.2-12.4
			c4.2-5.1,10.6-9.4,15.3-14.4c2.4-2.5,4.6-5,6.6-7.5c4-4.9,7-10.6,9-17.2c1.8-6.2,1.3-11.7-1.6-16.4c-0.5-0.8-1-1.5-1.6-2.1
			c-0.7-0.7-1.4-1.4-2.1-2c-1.5-1.3-5.1-3.2-7.5-3c-2.1,0.2-3.3-0.5-5.5,0.2c-5.1,1.5-8.9,3.8-11.5,6.9c-0.9,1.1-2.2,1.3-3,2.6
			c-0.4,0.7-0.9,1.3-1.4,2c-1.1,1.2-2,2.5-2.8,4c-0.2,0.3-0.4,0.5-0.6,0.7c-0.4,0.3-0.8,0.7-1.1,1.1c-1.5,2.4-3.5,4.5-5.8,6.2
			c-2.5,1.9-5.5,2.6-8.3,3.8c-0.8,0.3-1.6,0.4-2.4,0.4c-2.2-0.1-3.8,0.3-6-0.8c-2.6-1.3-4-3.6-4.1-7c-0.1-2.3,0-4.4,0.4-6.2
			c1.2-5.6,2.8-10.8,4.9-15.6c2.2-5.1,5.1-10.5,8.5-16.5c2.4-4.2,5.4-8,8.3-11.9c1-1.3,2.4-2.1,3.4-3.5c1.6-2.2,3.3-4.2,5.3-6
			c1.6-1.5,3-3,4-4.6c1.2-1.8,2.5-3.4,3.8-4.7c3.3-3.4,5.7-6.9,7.3-10.5c1.7-3.8,3.2-7.6,4.6-11.5c0.3-0.9,0.5-1.8,0.4-2.8
			c0-0.3,0.1-0.6,0.2-0.9c0.4-0.5,0.4-1.1,0.1-1.7c-0.2-0.3-0.3-0.6-0.3-0.9c-0.1-1.9-0.9-3.4-2.4-4.4c-1.4-0.9-2.9-0.9-4.5-1.5
			c-0.3-0.1-0.7-0.1-1,0l-9.5,3.3l-6.4-3.3c2.3,0,3.1-1.9,4.7-3.2c0,2.6,1.4,3.7,3.7,2.8c3.4-1.4,7.4-2.8,11-2.1
			c8.8,1.6,8.4,10.9,6,17.5c-2.1,5.8-4.5,11-7,15.5c-0.6,1-1.3,2-2.1,3c-4,4.7-8.1,9.6-12.5,14.1c-6.3,6.6-11.5,13.6-15.8,21
			c-2.3,4-4.5,8-6.5,12c-1.9,3.7-3.9,9.1-6,16.2c-1.2,4.2-0.9,8.7,3.6,10.6c2,0.9,4.1,0.9,6.4,0c3.3-1.2,6.1-2.8,8.6-4.7
			c2.6-2.1,4.4-5.3,6.4-8c3.8-5.4,8.6-9.4,14.4-12.1c6.4-3,12.5-2.9,18.5,0.5c5.1,2.8,7.8,10.3,8.3,15.5c0.4,3.9-0.2,7.9-1.7,11.9
			c-1.6,4.5-3.5,8.6-5.7,12.4c-1.2,2.1-2.9,3.6-4.6,5.3c-3.2,3.1-5.5,7.4-8.9,9.9c-8.3,5.8-15.1,13-20.7,21.7
			c-2.7,4.3-3.2,10.4,0.9,13.7c1,0.8,2.7,1.5,5,2.1c2.7,0.7,4.5,1.2,5.4,1.2c5.6,0.6,10.9,1.8,16,3.6c7.6,2.7,13.4,13,15.9,20.2
			c2.4,6.8-1.6,11.6-6.6,15.4c-3.4,2.6-3,3.8,1.3,3.6c1.4-0.1,2.9-0.3,4.5-0.7c1.5-0.4,3-0.6,4.4-0.6c6.8-0.2,13.3-1.6,19.7-4.4
			c5.6-2.4,12.9-4,16.1-9.6c2.8-5,2.9-13,3.7-19.2c1.3-9.5-0.6-19.5-4-28.4c-2.9-7.6-8.2-13-15.8-15.8c-3.5-1.3-6.7-2.7-9.5-4.2
			c-6.5-3.5-2.6-12.5,0.3-17.1c2.8-4.5,4.7-10.1,6.5-14.9c1-2.5,1-6.2,0.6-8.4c-1.1-6.5-2.8-14-6-19.9c-1.9-3.5-3.8-6.7-5.6-9.6
			c-2.3-3.6-5.3-7-9.1-10.1c-4-3.3-5.9-7.4-5.7-12.5c0.1-2.3-0.7-4.4-0.4-6.7c0.7-4.8,2.5-8.9,5.6-12.4c2.4-2.7,4.6-5.4,6.7-8
			c2.8-3.4,4.5-7.5,7.2-10.7c6.3-7.3,11-15.8,14.1-25.3c1.1-3.4,1.8-7.1,2.1-11c0.3-4.1,0.5-7.7,0.6-10.8c0.3-10.1-7.2-15.4-17-14.6
			c-4,0.3-7.8,1.5-11.5,3.5l4.4-5l2.5-0.5L503.8,120z"/>
		<path class="st5" d="M799.1,324.4l0.4-5.5c0.2-0.6,0.1-1.5-0.4-2.8c-0.1-0.3-0.1-0.7,0.1-1c0.5-0.9,0.6-1.9,0.1-2.9
			c-0.2-0.3-0.2-0.6-0.2-1c0.1-2.6-0.1-5.4-0.6-8.2c-0.3-1.7-0.1-3.2-0.4-5c-0.5-2.6,0-5.3-0.3-7.6c-0.9-5.8-1.8-11.6-2.7-17.4
			c-0.2-1.3-1.1-2.9-2.8-4.9l-3-3.9c-1.5-2.8-3.2-5.2-4.9-7c-0.8-0.9-1.6-1.7-2.3-2.6c-0.6-0.8-1.4-1.7-2.3-2.6
			c-1.5-1.6-2.9-3.2-4.3-4.9c-1.1-1.4-2.7-2.9-4.7-4.5c-5.1-4.3-8.5-7.4-10-9.4c-4-5.3-8.1-10.3-12.1-15.3c-0.5-1-0.7-1.9-0.8-2.7
			c-0.1-1.4,1-2.1,1-3.7c2.2-1.2,4.6-2.4,7-3.6c6.7-3.4,13.4-6.9,20-10.6c5.1-2.8,9.6-6.5,14.8-9.1c4.7-2.3,9.1-4.8,13.2-7.3
			c5.9-3.7,10.4-6.3,13.6-7.8c5-2.5,10.2-4.6,15.5-6.4c5.7-1.9,23.3-6.7,27.9-1.5c1.8,2,2.2,4.5,1.1,7.5c-1.1,3.1-3.3,5.6-6.8,7.5
			c-2.6,1.4-5,2.9-7.3,4.4c-5.1,3.3-10.9,5.6-16.6,8c-3.3,1.4-6.2,3.1-8.7,5.1c-1.2,0.9-2,3.5-0.4,4.4c1.9,1.1,6,0.9,8.1,0.4
			c3.9-1,7.9-2.8,12-5.6c5.7-3.9,12.8-8,21.3-12.4c4.6-2.4,9.5-3.9,13.9-6.2c5.4-2.8,11.2-4.5,16.9-6.3c3.3-1.1,6.9-1,10.3-0.6
			c4.2,0.5,8,2.8,6.1,7.6c-2.3,5.9-5.8,9.2-11.4,12.6c-2.2,1.3-4.3,2.6-6.3,3.9c-5.2,3.2-10,6.9-15.6,10.1c-1.9,1-3.5,2.3-4.9,3.9
			c-0.2,0.3-0.3,0.5-0.2,0.9c0.4,1.3,1.2,1.8,2.6,1.5c2.8-0.5,5.8-1.3,8.8-2.3c2.8-0.9,5.5-2.2,8.1-3.8c4.9-3,10.2-6,15.7-9.1
			c4-2.2,9.5-5,16.5-8.2c4-1.9,7.9-3.3,11.7-4.4c4-1.1,7.9-2.2,11.7-3.3c5.1-1.5,13-3.5,12.7,5.2c-0.1,3.5-1,6.3-2.5,8.5
			c-1.9,2.6-4.1,5.3-6.6,8.1c-1.7,1.8-3.6,3.3-5.8,4.5c-4.1,2.2-7.8,4-11.3,5.4c-8.2,3.4-15,7-20.3,11c-0.4,0.3-0.7,0.8-0.8,1.3
			c-0.2,1.1,0.1,1.9,0.9,2.4c0.4,0.3,0.9,0.4,1.5,0.4c4.8,0,9.2-0.8,13.2-2.3c5.9-2.3,10.8-4.1,14.7-5.3c1.3-0.4,2.7-0.6,3.9-0.6
			c2,0.1,3.7-0.5,5.7-0.3c3.5,0.3,7.2,1.5,7.7,5.4c0.7,6.5-1.5,11.3-6.6,14.6c-3.8,2.4-7.9,4.7-12.3,6.8c-7.5,3.5-14.1,8.3-21.5,12
			c-5,2.5-9.6,5.8-14.6,8.5c-5.6,2.9-9.9,5.5-12.9,7.9c-3.5,2.6-6.5,5.3-9,8.1c-1.5,1.7-1.4,3.1,0.3,4.3c2.4,1.6,6,0.8,8.8,1.2
			c1.3,0.2,2.5,0.3,3.8,0.2c1.5,0,2.7,0.1,3.8,0.2c3.5,0.6,6.9,1.1,10.3,1.6c3.2,0.5,6.6,0.8,10.1,0.9c4.5,0.1,8.6,0.5,12.4,1.3
			c8,1.6,13.5,4.1,12.9,13.7c-0.3,4.8-1.3,9.8-5.7,12.4c-3.9,2.3-7.4,3.8-10.6,4.6c-2.4,0.6-5.1,1.1-8.2,1.6
			c-2.7,0.4-5.4,0.6-7.9,0.6c-5.2,0-10.6,0.3-15.7-0.6c-3-0.5-5.8-1-8.5-1.4c-3.9-0.6-7.8-1-11.9-1.2c-4-0.2-8.1-0.5-12.2-0.7
			c-0.3,0-0.6-0.1-0.8-0.2c-0.2-0.1-0.5-0.1-0.7-0.1c-1.3,0-2.5-0.1-3.8-0.2c-3.8-0.4-8-0.3-12.6,0.2c-8.4,0.9-15.6,2.2-21.6,3.9
			c-3.3,0.9-6.4,1.5-9.3,1.9c-1.4,0.2-2.7,0.3-4.1,0.4c-1.4,0.1-2.8,0.1-4.2,0c-2.3-0.2-4.6-0.4-6.9-0.5
			C800,325.7,799.3,325.2,799.1,324.4z M915,230.2c-6.3,0.7-11.5-4.6-4.8-9.6c6-4.5,13-8.3,20.9-11.4c5.5-2.1,9.6-4.3,14.3-6.8
			c4-2.1,7.1-7,9.8-10.5c1.4-1.8,2.5-4.1,2.3-6.4c-0.4-4.7-5.7-3.8-9.2-2.9c-8.4,2.2-16.7,4.5-24.7,8.5c-5.4,2.7-11.1,4.7-16.2,7.6
			c-4.6,2.7-9.1,5.4-13.4,8.1c-6.1,3.8-12.8,5.6-19.5,7.8c-1.6,0.5-3.2,0.7-4.7,0.5c-4.1-0.5-5.1-4.3-2.3-7.2
			c3.3-3.5,8.1-5.8,12.4-8.2c2-1.2,4-2.4,5.8-3.7c4.6-3.3,9.5-6.4,14.8-9.4c3-1.7,8-5.9,7.6-9.8c-0.5-5.6-11.6-3.3-14.9-2.1
			c-15.4,5.5-29.7,12-43.3,20.2c-3.6,2.2-7.4,4.4-11.5,6.7c-4.8,2.7-9.4,4-13.9,3.8c-2.2-0.1-5.1-0.6-6.4-2.5
			c-1.6-2.4-1.4-4.5,0.7-6.6c1.8-1.8,4.3-3.5,7.5-5.1c6.9-3.4,14.6-6.2,21.4-10.5c3.9-2.4,8.8-4.4,11.5-8.4c2-2.9,0.3-6.2-3-6.9
			c-2.4-0.5-5-0.5-7.5-0.1c-4.8,0.7-9.9,1.6-14.5,3.2c-9.4,3.4-18.2,7.6-26.5,12.9c-6.7,4.2-13.4,7.2-20,11.4c-5,3.2-10,6.1-15,8.9
			c-5.9,3.2-11.9,6.4-18,9.4c-2.8,1.4-3.3,3.4-1.4,5.9c2.8,3.9,5.6,7.7,8.4,11.4c3.1,4.1,7.1,7.6,10.9,11.1c2.8,2.6,5.5,5.5,8.1,8.5
			c4.2,5,8.4,9.8,12.5,14.4c1.5,1.7,2.5,3.4,3.1,5.1c0.5,1.7,0.9,3.7,1.1,6.1c0.3,3.3,0.8,7.3,1.8,12.3c0.7,3.5,1,7,1.1,10.4
			c0.1,3.8,0.4,7.6,0.9,11.3c0.3,2.1,0.2,4.2,0.5,6.3c0.8,5.8,0,9.8,7.6,9.3c1-0.1,1.9-0.2,2.8-0.4c13.2-3.1,22.4-5.1,27.7-5.7
			c10.2-1.3,16.7-1.8,19.5-1.5c8.8,1,17.4,1.7,25.8,2.1c5.3,0.3,12.1,2.6,18.4,2.6c5.9,0,11.5,0.8,17.5-0.1
			c10.1-1.5,27-4.6,21.8-19.6c-1.4-4-6.1-5.2-9.9-6c-5-1.1-9.6-1.7-13.7-1.7c-6.8-0.1-13.4-1.9-20.2-2.3c-4.4-0.2-8.8-0.7-13.3-0.8
			c-7-0.1-8.4-5.8-4.9-10.9c2.1-3,4-5.2,5.7-6.3c4.9-3.5,10.3-6.7,16.2-9.6c5.3-2.6,10.3-6.1,15.4-8.7c3.7-1.9,7.5-4,11.5-6.3
			c4.6-2.7,9.6-5.3,14.9-7.8c3.6-1.7,6.9-3.8,10-6.4c2.6-2.2,4.9-6.5,3.1-9.8c-2.3-4-11.6-2.7-14.9-1.7c-4.6,1.4-9,4.2-13.7,5.5
			C924.2,228.8,919.7,229.7,915,230.2z"/>
		<path class="st5" d="M166.1,189.6c0.1,0.3,0.1,0.6,0,0.9c-0.1,0.4-0.2,0.4-0.3,0c-0.3-1-0.4-2-0.4-3.1c0-0.5,0.1-0.5,0.4-0.1
			c0.3,0.4,0.4,1,0.3,1.5C166,189.1,166,189.4,166.1,189.6z"/>
		<path class="st5" d="M515.1,1104.2c1.7,2.8,2.6,6,2.7,9.5c0.1,3.2,0.2,4.9,0.2,5c0.6,7.8,0.2,15.6-1.2,23.3
			c-0.7,3.7-1.4,7.4-2.1,11.2c-0.5,2.6-1.5,5.6-2.8,9c-1.4,3.6-2.9,7.1-4.4,10.4c-1.2,2.6-3.1,5.9-5.8,9.9
			c-2.3,3.4-4.6,7.2-6.9,11.5c-1.3,2.4-3.1,4.6-4.9,6.7c-6.5,7.3-10.3,11.9-11.4,13.6c-1.8,2.9-3.8,5.6-6,8.1
			c-4.1,4.7-8,9.2-13.2,12.6c-1.8,1.2-4.5,1.9-6.6,1.2c-3.9-1.3-3.5-5.6-3.6-8.9v-0.8c0-0.4-0.2-0.6-0.5-0.8
			c-0.6-0.2-1.1-0.1-1.6,0.5c-3.4,3.6-5.7,8.2-9.4,11.5c-1.3,1.2-2.8,1.7-4.4,1.6c-3.5-0.2-4.2-3-4.9-6c-0.1-0.5-0.4-0.9-1-1
			c-0.4-0.1-0.8,0-1.2,0.2c-0.3,0.2-0.4,0.4-0.5,0.8c-0.1,1,0.2,2,0.8,2.9c3,4.3,6.5,8.7,10.3,13.4c2.2,2.7,5,4.8,7.5,7.2
			c6,5.6,12.1,13.3,17.1,17.5c3.5,3,6.1,5.6,8,7.8c2.7,3.2,5.1,5.7,7.1,7.6c2.2,2,5.1,4.1,8.9,6.3c5.1,3,11.2,4.5,17,6.2
			c0.5,0.1,1.4,0.7,3,1.6c6.1,3.7,5.3,9.6,1.1,14.2c-1.6,1.8-1.2,4,0.6,5.4c3.8,3,3.4,6,3.4,10.3c0,1.3,0.2,2.6,0.7,3.8
			c1.3,3.3,0.8,7.8-2.5,9.6c-0.9,0.5-1.7,1.1-2.4,1.8c-0.7,0.7-0.7,1.7-0.1,2.5c0.7,0.8,1.4,1.5,2,2.1c2.3,2.1,2.6,5.4,0.6,7.9
			c-2.7,3.3-6.7,3.2-10.5,2.4c-0.7-0.1-1.4,0.3-1.5,1c-0.2,1,0.1,1.8,1,2.4c7.5,4.8,11.5,13.4,8.9,22.2c-1.3,4.3-5.8,5-9.6,4.9
			c0,0-1.9-0.2-5.6-0.5c-5.3-0.5-10.4-1.8-15.3-3.9c-5.1-2.2-9.3-5.2-12.3-10.2c-1.7-2.7-3-5.3-4-7.8c-1-2.5-2.3-4.9-3.7-7
			c-2.9-4.3-5.7-8.2-8.6-11.8c-2.5-3.2-5.8-6.6-9.9-7.5c-5.7-1.2-10.9-3.3-15.5-6.2c-5.3-3.4-10.2-7.7-14.6-13
			c-4.4-5.2-9.7-11.3-15.9-18.3c-1.4-1.6-2.8-3.3-4.4-5.1c-3.9-4.7-8.6-8.1-14.1-10.2c-1.8-0.7-3.9-1.2-6.4-1.5
			c-5.2-0.7-8.7,0.2-12.9,3.4c-3.8,2.8-8.6,5.7-14.4,8.6c-3.3,1.7-6.7,2.9-10,3.8c-8.1,2-14.2-3.3-15-11.1c-0.1-1.5-0.3-2.9-0.6-4.4
			c-0.8-4.8-1.1-9.8-0.8-14.9c0.3-4.9,1.1-9.7,1.2-14.6c0.1-2.1,0.2-4.3,0.5-6.4c0.3-2.9,0.4-5.7,0.2-8.3c-0.3-4.1-0.4-6.9-0.3-8.3
			c0.5-5,1-10.4,1.4-16.1c0.2-3,0.3-5.9,0.3-8.8c0-2.9,0-5.8,0.1-8.8c0-0.8,0.1-1.5,0.1-2.3c0.3-6.5,0-13.7-1-21.7
			c-0.2-1.3-0.2-2.7-0.2-4.3c0-1.7,0-3.1-0.1-4.3c-0.6-8.9-0.2-17.8,1.1-26.6c0.1-0.4,0.4-0.8,1.1-1c1.9-0.8,3.6-0.1,5.3,2l5.3,7.5
			l8.4,12.3c0.9,2.6,1.8,4.2,2.7,4.7c3.6,2.1,7.3,3.8,11.2,5c6.6,2.1,11.5,3.4,16.7,6.1c3.6,1.9,7.6,3.4,11.9,4.4
			c1.4,0.3,2.7,0.3,3.9-0.1c4.7-1.5,9.1-3.2,13.2-5c1.4-0.7,3.2-2.1,4.1-3.4c1.4-2,2.5-4.6,3.3-7.7c1.1-4,2.1-8,3-12
			c0.4-1.7,0.8-4.4,1.3-8c0.4-2.7,0.9-5.4,1.7-8c1.4-1.6,2.5-2.9,4.4-3.6c0.6-0.2,1.1-0.5,1.6-0.8c4.6,0.3,9.1,0,13.6-1.1
			c2.6-0.6,4.9-1,6.9-1.3c3.2-0.4,5.5-0.7,6.9-1.1c5.1-1.2,9.8-1.9,14-2.2c0.9-0.1,1.7-0.5,2.5-1.2c2.6,0.1,4.3-0.2,5.1-0.9
			c2.9-0.4,4.6-0.8,5.3-1.4c4-3.5,8.4-6.2,13.2-8.3c7.9-3.4,15.5-7.4,22.7-12.2c0.7-0.5,1.5-1.2,2.3-2c0.7-0.8,1.5-1.5,2.3-2.1
			C512,1104.9,513.7,1104.8,515.1,1104.2z M515.9,1133.7c0.8-6.4,0.9-12.8,0.4-19.1c-0.2-3.1-3.2-7.8-6.7-4.8
			c-2.3,1.9-4.4,4-7.1,5.4c-5.4,2.7-10.3,6.1-15.9,8.3c-2.8,1.1-5.2,2.3-7.3,3.7c-5,3.4-12.2,8.7-18.1,9.1
			c-4.4,0.3-8.5-0.1-13.1,0.6c-3.4,0.5-7,1-10.9,1.4c-2,0.2-5.4,1-10.2,2.3c-4.5,1.3-11.1-0.8-13.6,4.7c-1.1,2.5-1.9,5.2-2.4,8
			c-0.9,5.2-2,10.7-3.5,16.6c-1.3,5.2-3.9,13.2-9.5,15.1c-7,2.4-13.7,5.7-20,10c-3.8,2.6-5.9,5.4-8,9.4c-2.1,4.2-2.8,7.9-2,11.2
			c1,4.2,7.1,2.6,9.5,1.2c5-2.7,10.4-6.6,16.2-11.5c1.6-1.4,5.1-3.4,7.4-2.2c1.9,1,1.6,3.5,0.5,5c-3,4.4-4.9,8.3-4.8,14
			c0,3.8,3.9,5.7,6.7,3.1c5.7-5.2,10.8-11,15.3-17.3c0.8-1.1,1.8-1.8,3-2.2c1-0.3,2,0.3,2.3,1.3c0,0.1,0,0.2,0.1,0.3
			c0.2,2.7-4.4,9.3-5.8,11.6c-1.3,2.2-4.1,9-1.1,11c3.3,2.2,7.3-1.6,9-4.2c3-4.7,5.9-9.3,8.9-13.8c0.6-0.9,1.7-1.4,2.8-1.2
			c0.5,0.1,0.7,0.6,0.7,1.6c0,0.3-0.1,0.7-0.3,1c-3.6,5.7-7.1,13.1-6.4,19.8c0.1,1,1,1.7,2,1.6c1.1-0.1,2-0.7,2.8-1.7
			c3.6-4.6,7-9,10.4-13.3c1.7-2.1,3.6-3.9,5.6-5.2c0.9-0.6,2-0.5,2.8,0c4.1,2.9-6.5,12.7-2.1,17.2c0.7,0.8,1.9,0.9,2.8,0.4
			c2.3-1.4,4.8-3,7.3-5.1c2-1.6,3.8-3.5,5.5-5.9c3.7-5.3,7.9-10.8,12.7-16.6c1.5-1.8,3.1-3.5,4.7-5.1c5.7-5.7,8.4-12.6,12.7-19.2
			C508.3,1167.1,513.8,1151.4,515.9,1133.7z M484.9,1315.3c1.4-0.5,2.9-0.5,4.3-0.1c5.1,1.5,13.2,3.4,17.1-1.2c3-3.6,0-7.4-3.6-8.6
			c-3-1-6.1-2-9.3-2.9c-5.3-1.5-10.4-4-15.5-7.6c-4-2.9-7.1-6.9-10.4-10.7c-5.2-5.9-10.9-10.6-16.3-16.5c-2.5-2.7-5.4-5.7-8.9-8.8
			c-4.9-4.5-9.7-9.9-14.3-16.4c-2.7-3.8-5.8-6.2-9.4-7.2c-2.7-0.8-5-2.2-5.3-5.3c-0.2-3.1,0.4-6.5,1.9-10.2c0.2-0.4,0-0.9-0.4-1
			c-0.2-0.1-0.4-0.1-0.6,0c-0.5,0.2-0.9,0.5-1.3,1c-2.2,2.8-4.8,5.6-7.9,8.3c-3.4,3.1-8.5,4.6-10.5-0.8c-1.1-2.9-1.1-6.9,0-12
			c0.2-0.9,0.1-1.6-0.2-2.3c-0.4-0.9-1.5-1.3-2.4-0.9c-0.1,0.1-0.3,0.1-0.4,0.2c-5,4-11.1,8.7-17.1,10.2c-6.2,1.6-9.6-0.9-10.1-7.5
			c-0.5-5.6,1.2-10.9,5.1-15.8c1.7-2.1,5.9-6.1,2.3-8.7c-6.5-4.6-12.9-7.5-20.3-9.5c-4.7-1.3-8.9-3.4-12.9-6.1
			c-3.8-2.5-5.4-7.5-8.1-11.1c-3.2-4.3-6.4-8.9-9.5-13.7c-0.5-0.8-1.6-1-2.4-0.5c-0.1,0.1-0.2,0.1-0.3,0.2c-0.7,0.7-1.1,1.5-1.2,2.5
			c-0.4,3.9-0.5,8.1-0.4,12.4c0.1,3.1,0.2,6.1,0.3,9.2c0.1,4.4,0.4,8.5,0.9,12.4c0.6,4.7,0.2,9.5,0.8,14.2c0.2,1.8-0.3,3.4-0.3,5.1
			c-0.1,7-0.1,14.4-0.1,22.3c0,2.2-0.4,4.4-0.5,6.6c0,2.5-0.2,5.2-0.4,7.9c-0.5,5.9-0.3,11.7-0.3,17.7c0,3.5-0.2,6.8-0.5,10
			c-0.5,5.3-0.7,9.5-0.7,12.6c0.1,3,0.4,6.6,0.9,10.8c0.9,7.2,4.2,12.8,12.5,10.6c7.9-2.1,17.3-7.7,24.2-13.8c2.5-2.2,5.6-3.3,9-3
			c6.8,0.7,11.8,1.5,17.8,5.8c3.9,2.7,6.6,5,7.9,6.8c2.2,2.8,4.4,5.5,6.7,7.9c5,5.4,9.7,11.1,14.5,16.8c7.1,8.4,17.4,16.2,28.5,17.2
			c4,0.4,7.3,2.1,10,5.2c3.2,3.7,6.6,8.1,10.1,13.1c1.6,2.3,3,4.8,4.1,7.4c3.5,8.4,7.1,15.1,15.9,18.7c6.5,2.7,13.3,4.2,20.3,4.3
			c4.3,0.1,7.5-1.7,7.2-6.4c-0.3-5.2-2.5-9.4-6.8-12.6c-3.6-2.7-7.3-5.5-11.2-8.2c-1-0.7-1.5-1.6-1.4-2.7c0.1-0.9,0.8-1.6,1.7-1.6
			c3.1-0.1,6.1,0.1,9.2,0.6c2.1,0.3,4.2,0.4,6.1,0.3c3.1-0.3,3.8-3.5,1.7-5.5c-4.5-4.3-10.4-6.7-17.6-7.2c-0.5,0-1-0.3-1.3-0.6
			c-0.8-0.9-1.1-1.6-0.7-2.1c0.9-1,2-1.5,3.4-1.3c4.1,0.5,8.1,1.1,12.3,1.6c3.1,0.4,9.4-0.4,8-5c-1.1-3.5-7.5-4.8-10.5-5
			c-3.8-0.3-7.7-0.7-11.5-1.2c-1-0.1-1.9-0.5-2.5-1.1c-0.6-0.6-0.6-1.6,0-2.2c0.2-0.2,0.5-0.4,0.7-0.4c1.5-0.4,3-0.5,4.6-0.3
			c3.4,0.3,7.1,0.9,11,1.6c0.6,0.1,1.6,0.1,3.2,0.1c4.1-0.1,4.3-3.9,1.6-6c-1.4-1.1-2.9-1.9-4.4-2.3c-4.6-1.2-9.3-2.4-14.1-3.6
			c-2.1-0.5-3-1.7-2.7-3.5C484.3,1315.7,484.6,1315.4,484.9,1315.3z"/>
	</g>
	<path class="st6" d="M492.1,87.4c-0.5,2.3-0.3,3.8,0.6,4.6c0.3,3.8,0.4,7.2,0.4,10.4c0,1.6,0.1,3.2,0.3,4.8c0.4,3,0.3,5.7,1.7,8.7
		l0,4.6c-0.4,0.4-0.6,0.8-0.5,1.2l-4.4,5c-6.2,4.6-10.1,7.9-11.8,10c-3.1,3.8-6.2,7.6-9.2,11.4c-7,8.6-15.5,16.7-20.1,27.2
		c-1.5,1.3-2.4,3.2-4.7,3.2c-1.4,0-2,0-3.3-0.8c-1.1-0.6-2.4-1-3.7-1.2c-3.5-2.2-7-4.5-10.6-7c-1.8-1.3-3.7-2.8-5.5-4.7
		c-2.9-2.9-6.3-5.7-10-8.4c-2.8-2-5.2-4.2-8.1-6.3c0.2-1.3-0.2-3.2-1.1-5.6c1.3-3.6,1.6-6.7,0.9-9.3c-1.3-4.6-2.1-8.5-2.6-11.9
		c-0.6-4.6-1.3-9.4-2.1-14.5c-0.2-1.2-0.3-2.3-0.2-3.4c0-1.8-0.6-3.3-0.4-5.1c0.2-1.8,0.2-3.6,0.1-5.5c-0.3-4.6-0.7-9.4-1.1-14.1
		c-0.3-3.5-1.1-6.9-1.7-10.3c-0.7-4.3-0.3-9.1-0.3-13.5c0-1,0.5-2.7,1.1-3.5c2.8-3.8,5.9-7.3,9.2-10.6c3.6-3.5,6.6-7.4,10.4-10.6
		c3.6-3.1,7-6.6,10.2-10.7c2.5-3.2,5.6-4.5,9.8-4.6c4.3,0,8.4,0.2,12.2,0.7c2.6,0.4,4.9,0.6,6.8,0.6c2.4,0,4.6,0.2,6.7,0.5
		c4.3,0.6,9.4,1.3,15.4,2.3c4.5,0.7,7.2,2.4,8.3,6.9c0.7,3.1,1.5,6,1.6,9.2c0.1,2.9,0.3,5.9,0.6,8.8c0.3,2.6,0.5,5.2,0.6,7.9
		c0.1,2,0.3,4,0.6,6c0.2,1.4,0.3,2.7,0.4,4c0,1.3,0.2,2.7,0.4,4c0.3,1.6,0.6,3.2,0.9,4.7c0.2,1.2,0.4,2.8,0.5,4.7
		C490.2,80.7,490.9,84.1,492.1,87.4z"/>
	<g>
		<path class="st7" d="M171.6,192.7c4.7,2.6,8.6,5.1,11.5,7.6c2.9,2.4,5.7,4.8,8.4,7c4,3.2,8,6.5,11.9,9.9c2,1.7,4,3.5,5.8,5.2
			c1.1,1,2,1.6,2.9,1.9c1.3,0.4,2.6,0.3,3.6-0.2c1.9,1.8,3,3.3,3.3,4.6c1.5,7.6,1.3,16.3,2.3,24c0.9,6.7,1,13.9,1.8,21
			c1,8.8,1.2,18,1.4,26.7c0.1,5.4,0.7,11.4,1.7,18.1c0.9,5.9,1.9,11.9,2.9,18c0.7,4.2,2.7,7.2,6,8.9c3.6,1.9,7,4.5,10.4,6.9
			c2,1.4,4.3,3.4,6.8,5.9c3.9,3.9,8.1,7.4,12.5,10.6c3.4,2.5,6.4,4.8,9,6.9c5.8,4.9,11.6,10.1,17.3,15.7c2.7,2.6,5.5,5.3,8.4,7.9
			c6.1,5.5,11,11.3,16.8,17.1c2.5,2.5,1.9,5.9-0.5,8.4c-1.4,1.5-2.7,3-3.9,4.7c-4.1,5.8-8.1,11.4-12,17.1c-2.3,3.4-5.1,6.6-7.8,9.8
			c-1.2,1.3-3.2,1.5-4.5,0.3c-0.1-0.1-0.1-0.1-0.2-0.2c-5.5-5.5-11.8-10.4-16.8-15.4c-9-9.1-18.1-17.6-26.6-26.9
			c-3.3-3.6-6.2-7-8.6-10.2c-3.5-4.5-6.4-7.9-8.9-10.3c-7-6.6-13.2-12.9-18.8-18.8c-5.5-5.9-11.8-12-18.8-18.2
			c-5.1-4.6-6.9-10.4-7.6-17.2c-0.8-7.9-1.5-15.5-2.1-22.8c-0.2-2.9-0.1-5.7-0.6-8.7c-0.5-3.7-1-7.5-1.3-11.3
			c-0.6-6.9-1.6-15.6-3-26.1c-0.6-4-0.9-8-1.1-12.2c-0.3-5.4-0.4-10.9-1-16.3c-0.6-4.8-0.9-9.4-1.1-13.7c-0.1-4.8-0.4-9.3-0.7-13.4
			c-0.4-4.6-0.7-9-1-13.3c-0.1-1.7-0.2-3.9-0.1-6.6C169.3,194.1,170,193.3,171.6,192.7z"/>
		<path class="st7" d="M792.3,268.2c1.7,2,2.6,3.6,2.8,4.9c0.9,5.8,1.7,11.6,2.7,17.4c0.4,2.3-0.1,5,0.3,7.6c0.3,1.7,0.1,3.2,0.4,5
			c0.5,2.8,0.7,5.6,0.6,8.2c0,0.3,0,0.7,0.2,1c0.5,1,0.5,2-0.1,2.9c-0.2,0.3-0.2,0.6-0.1,1c0.5,1.3,0.7,2.2,0.4,2.8
			c-2.4,2.5-4.9,4.4-7.5,5.6c-4.7,2.1-9.1,4.9-13.9,6.5c-2.3,0.8-4.5,1.8-6.8,3.1c-2.7,1.6-5.6,2.5-8.6,3.7
			c-3.9,1.4-6.9,4.1-10.8,5.3c-2.9,0.9-5.5,2-8,3.2c-6.3,3.2-12.4,6.4-18.4,9.7c-4.7,2.5-10.6,2.7-14.8,4.8c-5.8,2.9-12,6.3-18.6,10
			c-1.9,1.1-4.5,2.3-7.6,3.7c-5.2,2.3-9.9,5.6-14.5,8.9c-5.4,3.8-12.1,6.6-17.1,10c-6,4-12.9,8.3-20.9,13c-4.6,2.7-8.7,5.3-12.2,7.7
			c-3.8,2.6-7.7,5.3-11.7,8.2c-2.9,2-5.6,4.4-8.3,6.7c-1.7,1.5-3.1,2.3-4.3,2.4c-2.1,0.2-3-0.8-2.6-2.9c0.8-4.9,1.6-9.9,2.5-14.9
			c0.8-4.7,1.3-9.7,1.4-15.2c0.1-5.6,0.2-11.2,0.2-16.8c0.1-8.7,3.8-15.3,11-19.8c2.1-1.3,4.4-2.6,6.6-3.8c4.5-2.4,7.9-5.1,12-7.9
			c9.5-6.5,19.4-11.9,29.7-16c2.5-1,4.6-2.1,6.1-3.1c5.9-3.9,12.3-6.9,19-9.9c4.9-2.2,9.3-4.3,13.3-6.3c6.2-3.1,12.8-5,19.1-8.2
			c7.7-3.9,16.4-7.8,25.9-11.6c3.4-1.4,6.5-3.1,9.3-5.1c4.5-3.3,6.8-4.9,6.8-4.9c4.4-2.7,8.6-5,12.7-7c2.8-1.4,5.7-3.3,8.8-4.7
			C782.3,271,787.2,269.4,792.3,268.2z"/>
		<path class="st7" d="M558.9,495.9c1-0.2,2-0.5,2.9-0.9c2.3-0.9,4.5-1.8,6.7-2.6c5.9-2.3,12.2-3.8,18.2-5.8
			c3.6-1.2,7.5-1.6,11.1-2.8c5.9-1.9,11.9-3.9,17.9-6c2.8-1,6-1.9,9.5-2.9c2.8-0.7,4.3,0.3,4.3,3.3c0.1,3.9,0.1,7.9-0.5,11.8
			c-0.6,4.4-0.9,8.7-0.8,13.1c0.1,2.7-0.1,5.4-0.5,8.3c-0.5,3.7-0.6,7.2-1.2,10.9c-1.6,9.3-2.6,17-2.9,23c-0.3,6.6-1,13.2-2,19.8
			c-0.2,1.6-0.2,3.1-0.2,4.8c0,0.7-0.1,1.3-0.2,2c-0.8,3.2-0.5,6.5-1,9.8c-0.2,1.5-0.4,3-0.4,4.5c-0.1,1.4-0.2,2.9-0.4,4.3
			c-0.7,5.6-0.9,11.9-0.5,18.8c0.1,1.7-0.4,5-1.4,9.7c-0.7,3.4-1.2,6.5-1.4,9.5c-0.4,6.3-0.9,12.5-1.5,18.4c0,0.1-0.2,2.6-0.6,7.7
			c-0.6,7.4-2,14.6-4.5,21.5c-1.4,3.9-7.7,5-11.4,5.4c-2.2,0.2-4.3,0.6-6.4,1.1c-7.3,1.7-14.5,3.5-21.6,5.5c-2.7,0.8-4-1.5-4-3.9
			c0-4.9,0.5-9.7,1.5-14.4c0.8-4,1.3-7.6,1.5-10.7c0.6-8.8,0.7-17,0.4-24.8c-0.2-3.8-0.1-7.8,0.1-11.9c0.5-10.1-0.2-19.4-1.8-28
			c-1.2-6.3-4.3-12.7-9.3-19.1c-5.3-6.8-14.5-10.2-22.5-8.9c-2.3,0.4-5.3,1.2-8.9,2.6c-2.6,1-5.5,1.9-8.8,2.8c-3.4,1-6.7,3-9.5,5.3
			c-5.6,4.6-11.1,9.4-16.7,14.2c-2.9,2.5-5.4,5.1-7.6,7.9c-3.1,4-6.8,7.5-9.5,11.7c-7.1,10.8-12.7,21.9-14.6,34.1
			c-0.9,5.5-2.5,10.8-3.7,16.1c-1.1,4.9-2.2,9.7-3.3,14.3c-0.9,3.6-1.4,6.6-1.5,9.2c-0.2,4.1-0.7,8-0.8,12.1
			c0,6.6-0.6,12.8-1.8,18.6c-0.5,2.7-3.2,3.6-5.5,4c-10,1.8-18.9,4.3-28.4,6.5c-4.8,1.1-9.3,2.8-14.1,3.7c-4.6,0.9-5.4-2.9-4.9-6.4
			c0.9-5.9,1.6-12.2,2.1-18.9c0.3-4.1,1-9.6,2.2-16.6c0.5-3.3-0.3-6-0.1-9.2c0.2-3.7,0.6-7.3,1.1-10.9c0.5-3.8,0.4-7.4,0.7-11.1
			c0.1-1.5,0.2-3,0.2-4.5c-0.1-6.2,1.2-11.3,2.2-17.2c1.1-6.5,2.1-12.8,2.9-18.8c0.6-4.5,0.9-10.8,0.9-19.1c0-6.6,1.2-12.9,1.4-19.4
			c0.1-5.4,0.6-11.7,1.4-18.8c0.5-4.7,2.6-7.5,6.9-9.1c2.3-0.9,4.7-2,7-3.4c5-3,10.6-5.2,15.9-7.5c3.8-1.7,7.5-3.1,10.9-4.3
			c5.1-1.7,9.4-4.2,14.5-5.7c6.6-1.9,13.3-4.1,20.1-6.7c0.1,0,3.4-1.2,10-3.6c4.1-1.5,9-3.5,14.7-6.1c3.7-1.6,10.3-4.3,19.9-7.9
			c6.9-2.6,14.3-3.2,20.9-6.3C554.1,497.2,556.4,496.5,558.9,495.9z"/>
		<path class="st7" d="M585.5,720.8c-1.5,4.8-2.6,9.7-4.3,14.4c-0.8,2.2-3,3.5-5.1,4.1c-4,1.1-8.2,2.6-12.7,4.4
			c-6.1,2.5-11.7,5-16.8,7.3c-1.6,0.7-3.2,1.4-4.7,2c-5.6,2.3-11.5,4.4-17.7,6.4c-6.1,2-11.4,4-16,6c-5.1,2.3-10.1,4.6-14.9,6.8
			c-2.2,1-6.3,1.9-8.4,0c-1-0.9-1.5-2.1-1.4-3.6c0.3-6.5,0.8-13.2,1.5-20c0.3-2.8,0.2-5.9-0.2-9.1c-0.2-1.3,0.1-2.8,0.9-4.6
			c1.6-3.8,5.7-3.1,9-3.5c1.5-0.2,2.9-0.3,4.3-0.3c6.2-0.2,11.4-0.9,15.6-2.3c7.8-2.5,15-4.4,21.8-5.8c5.4-1.1,10-2.3,13.8-3.6
			c10.7-3.6,21.1-7.8,31.3-12.4c3.5-1.6,5.9,0.3,5.6,4C587.2,714.3,586.5,717.6,585.5,720.8z"/>
		<path class="st7" d="M521.9,802.4c0-2.4-0.7-4.7-0.9-7.2c-0.3-3.2,1.3-4.4,4.1-5.6c12.9-5.5,26.1-11.8,39.5-16.7
			c4.5-1.6,9-4.7,12.6-6.3c6.5-2.7,13.7-6.1,21.4-10c3.3-1.7,4.8,0.6,5,3.6c0.5,8.8-0.1,17.2-0.1,25.7c0,1.5-0.4,2.9-1.3,4.1
			c-0.6,0.9-1.5,1.7-2.8,2.5c-10.9,6.8-19.2,11.5-24.7,14.2c-2.9,1.4-5.8,2.8-8.8,4.1c-2.8,1.2-5.9,2.3-9.5,3.4
			c-6.1,1.7-12.2,3.7-18.3,6c-1.5,0.6-4.2,1.2-8,2c-3.8,0.8-6.1-0.6-6.9-4.1C522.2,814,521.8,808.8,521.9,802.4z"/>
		<path class="st7" d="M635.4,823.7c-0.7,10.2-13.9,16.9-21.5,21.4c-2,1.2-4.4,2.4-7.2,3.7c-3.7,1.7-6.1,2.9-7.2,3.7
			c-3.6,2.7-6.2,4.4-7.7,5.3c-7.3,4-14.6,8.3-21.7,12.6c-1.1,0.7-2.2,1.3-3.5,1.8c-2.1,0.8-6.7,3-7.3-1c-0.1-0.9-0.2-1.7-0.2-2.4
			c0-2.6,0-5.4,0.2-8.6c0.2-4.1,1.7-7.3,1.3-11.5c-0.2-1.9,1.1-3.4,2.8-4.1c3.6-1.5,7.1-3,10.3-4.5c7.3-3.3,14.6-7.4,21.9-10.9
			c3.1-1.5,6.2-3.4,9.4-5.6c3.4-2.4,7-4.7,10.9-6.9c1.5-0.8,2.9-1.9,4.1-3.2c2.7-2.7,5.5-5.1,8.4-7.1c3.2-2.2,6.9-1.6,7.1,3
			C635.7,815,635.7,819.7,635.4,823.7z"/>
	</g>
	<g>
		<path class="st8" d="M323.6,772.5c-2.5,4.8-6.9,8.8-10.3,12.9c-1.4,1.6-2.7,3.1-4.1,4.3c-1.3,1.1-2.5,2.5-3.7,4
			c-1.4,1.7-3,3.5-5,5.1c-4.4-5-8.5-10.2-12.5-15.7c-3.1-4.3-5.7-8.8-8.8-13c-3-4-5.9-8-8.7-12.1c-0.9-1.3-1-2.6-0.3-3.8
			c0.2-0.3,0.4-0.5,0.8-0.6c3-0.8,8.3,0.7,11.2,1.6c4.5,1.4,9,3.2,13.7,4.5c3.9,1,7.9,2.5,12.1,4.2c3.8,1.6,7.6,2.6,11.5,3.8
			C322,768.5,323.4,770.1,323.6,772.5z"/>
		<path class="st8" d="M330.4,882c1.5,1.2,2.2,2.7,2.1,4.5c-0.2,3.5-0.1,6.9,0.1,10.3c0.1,2-0.1,5.8-0.6,11.3
			c-0.3,3.2,0.4,6.3,0.4,9.4c0,10.9-0.4,21.9,0.6,32.8c0.3,3.9,0.7,7.7,1,11.4c0.3,3.3,0.4,6.4,0.5,9.5c0,3.3,0.2,6.5,0.6,9.6
			c0.5,3.6,0.2,7.1-0.1,10.7c-0.2,2.1-0.1,5,0.4,8.7c0.2,2,0.2,4.9-0.1,8.7c-0.2,2.9-0.3,5.8-0.3,8.7c0,6.4,0,12.7,0.4,19.1
			c0.4,6.4-0.6,12.9-0.1,18.9c0.5,7.3,0.8,14.2,0.2,22c-0.7,9.7-0.8,19.4-0.9,29.2c-0.1,6.6,0.9,13.4,0.4,20.1
			c-0.2,2.8-0.3,5.6-0.4,8.4c0,6.3-0.7,12.5-0.3,19c0.1,1-0.3,1.9-1,2.6c-0.8,0.8-2.1,0.8-2.9,0l-2.5-2.3l-5.3-7.5
			c-3.4-5-5-10-4.9-16.2c0.1-3.5-0.1-6.9,0-10.4c0.1-3.4,0-6.9-0.5-10.6c-0.9-7.9-1.1-16.1-1.7-24c-0.5-6.5-0.8-13-0.9-19.5
			c-0.1-3.6,0-7.4,0.3-11.3c0.2-3.1,0.2-5.9-0.1-8.4c-0.4-3.8-1-7.2-0.7-11.1c0.4-6.8,0.7-13.7,0.9-20.5c0.2-5.3,0-10-0.4-13.9
			c-0.5-4.8-0.9-9.5-1-13.8c-0.1-3.7-0.2-7.2,0.2-10.9c0.5-5,0.7-10.1,0.6-15.2c0-1.8,0.3-3.5,0.3-5.3c0.1-8.9,0.9-17.6,1.1-26.3
			c0.1-4.8,0.6-9.5,0.3-14.2c-0.5-8.4-0.6-14-0.4-16.7c0.2-1.8,0.3-5.9,0.3-12.2c0-2.2,0.9-3.9,2.6-5
			C322.5,880.5,326.5,880.7,330.4,882z"/>
		<path class="st8" d="M422.3,891.1c2.2,2.2,3.7,4,4.6,5.4c3.5,5.6,6.8,12.1,9.4,18.4c2.8,6.9,5.3,14.2,8.8,20.6
			c3.3,6,7,12.2,11.1,18.5c1.3,2,2.2,5.1-0.9,5.9c-10.9,2.5-22.8,5.1-35.8,7.8c-6.1,1.2-12.8,0.8-16.8-4c-5.1-6.2-9.9-12-14.1-17.7
			c-2.7-3.6-4.8-7.6-7.6-11.2c-4.5-5.8-8.7-11.5-12.7-17.1c-3.6-5.1-8.3-9-11.6-14.2c-4.1-6.4-9.4-12.2-14.3-18
			c-1.2-1.4-1.6-2.8-1.1-4c4.8-0.3,9.6-0.4,14.4-0.2c4.6,0.2,9.4,0.8,14.3,1.8c7.3,1.5,13.1,2.4,17.5,2.7c6.4,0.5,12.8,1.3,19.3,2.4
			c0.9,0.2,3.5,0.5,7.8,0.9C417.5,889.4,420.1,890.1,422.3,891.1z"/>
		<path class="st8" d="M459.2,1131.7c-0.8,0.7-1.6,1.1-2.5,1.2c-4.2,0.2-8.9,1-14,2.2c-1.5,0.3-3.8,0.7-6.9,1.1
			c-2,0.2-4.3,0.7-6.9,1.3c-4.5,1.1-9,1.4-13.6,1.1c-2-0.9-2.9-2.2-2.7-4c0.6-7.8,0.8-13.9,0.6-18.3c-0.2-4.8-0.2-9,0-12.6
			c0.3-4.4,0.4-8.5,0.4-12.3c-0.1-6-0.5-12.9-1.2-20.6c-0.3-3.6-0.4-6.8-0.4-9.8c0-2.3-0.1-4.5-0.3-6.7c-0.2-2.2-0.4-4.3-0.5-6.4
			c-0.5-10.2-1.4-20.5-2.7-30.9c-0.5-4.1-0.8-8.2-1-12.2c-0.1-4.1-0.5-8.3-1-12.4c-0.8-5.9-0.6-11.7-0.5-17.5c0-2.3,1.9-4.1,4.2-4.2
			c2.9,0,5.9-0.3,9.1-0.9c9.7-1.7,19.1-3.6,28.4-5.4c4.4-0.9,8.6-1.4,12.6-1.5c2.8,0,4.5,2.2,4.5,5c0,1.7,0,3.3-0.1,4.8
			c-0.4,5.5-0.5,11-0.4,16.5c0,1.4,0.5,2.9,0.5,4.4c-0.1,5.1,0,10.2,0.3,15.2c0.1,2,0.1,4-0.1,5.8c-0.3,2.6-0.2,5.1-0.4,7.7
			c-0.7,6.7-1,13.3-1.1,19.9c0,3.1-0.2,6.1-0.3,9.1c-0.2,4.1,0.1,8.1-0.3,12.2c-0.8,6.7-1.2,12.8-1.2,18c0,12.7-0.2,25.7-0.5,38.9
			c0,2.1-0.1,4.4-0.3,7.1C460.8,1128.8,460.2,1130.2,459.2,1131.7z"/>
	</g>
	<g>
		<path class="st9" d="M592.4,281.6l-0.2,5c-1,7.4-1.3,12.6-0.9,15.6c0.8,6.3,1.1,10.6,0.9,13c-0.8,8.2-1.7,16.3-2.5,24.5
			c-0.4,3.8-1.7,8.2-3.8,13.3l-2.7,9.8c-2.9,4.7-6.2,9.2-9.9,13.2c-2.3,2.5-4.9,4.4-7.9,5.6c-1.4,0.6-2.8,1.2-4.2,1.7
			c-3.3,1.3-6.3,2.9-9.8,3.8c-0.4,0.1-0.7,0.1-1.1,0c-0.5-0.1-0.9-0.1-1.3,0.1c-0.3,0.1-0.6,0.2-0.9,0.2l-10.7,0.7
			c-3.6,0.2-6.4-0.5-8.6-2c0.3-1.3,0.8-2.3,1.5-3.2c0.7,2.1,2.1,2.8,4,2.2c3.8-1.1,6.8-1.6,9.1-1.2c6.9,1,13.3-2.1,19.8-4.8
			c5.8-2.3,9-6.5,12.7-11.4c1.7-2.2,3.1-4.6,4.4-7.3c4-8.5,6.5-16.5,7.7-24c0.4-2.7,0.5-5.4,0.9-8.1c0.6-4.3,0.4-8.6,0.9-12.9
			c0.7-5.6-0.1-11.7-0.7-17.2c-0.5-4.6-0.2-9.1,0.1-13.8c0.5-6.8,0.4-13.8,0.4-20.5c0-3.2-0.2-6.6-0.5-10.2c-0.3-3-0.3-6.1,0-9.5
			c0.5-6.8-0.4-13.8,0-20.8c0.2-5.5,0.4-10.9,0.6-16.3c0.3-9.2-3.4-17.8-3-27.2c0.1-3.3,0.1-6.3-0.1-9.1c-0.2-2.6-0.3-5.2-0.3-7.9
			c-0.1-3.2-0.5-6.2-1.4-8.9c-1.9-6-3.9-12.5-6-19.3c-1.6-5.3-4.9-11.1-9.1-14.4c-15.8-12.2-33.4-15.1-52.8-8.8
			c-1.7,0.6-5.6,2.2-11.6,4.9c-1.4,0.6-1.9,1.6-1.6,2.8l-6.7,1.1c-0.8-0.6-1.4-0.8-2-0.7l0-4.6c1.4,1.2,2.9,1.4,4.5,0.6
			c3.1-1.6,5.8-2.8,8.1-3.9c2.3-1,5.1-1.9,8.5-2.6c3.6-0.7,7.1-1.4,10.5-2c5.2-1,10.5-1.1,15.6-0.9c9.5,0.4,18.3,3.5,26.3,9.3
			c0.7,0.5,1.8,0.4,2.3-0.4c0.2-0.2,0.3-0.5,0.3-0.8c0.1-1.4-0.4-3.1-1.1-4.4c-2.7-5-5.6-10.1-8.7-15.4c-1.5-2.4-3.1-4.3-4.9-5.7
			c-7.1-5.2-14.9-8.5-23.2-9.8c-4.5-0.7-11.5-0.8-15.6-0.4c-10.6,1.2-19,5.3-25.1,12.4c-0.9-0.8-1.1-2.3-0.6-4.6
			c1.7-1.7,4.3-3.6,7.6-5.6c2.7-1.6,5.1-2.7,7.2-3.3c2.2-0.7,4.4-1.3,6.7-1.8c2-0.5,4.1-0.7,6.4-0.8c4.8-0.1,8.9,0.2,12.2,0.8
			c3.4,0.6,7,1.5,10.8,2.7c7.5,2.5,15.6,6.5,20.2,13.3c4.5,6.6,7.8,12.2,9.8,16.9c1.5,3.4,3,6.8,4.5,10c2,4.3,3.3,8.5,4.9,12.8
			c0.8,2.1,1.4,4.4,1.8,6.9c0.3,1.6,0.5,3.2,0.7,4.8c0.5,4.4,1.9,8.4,2.9,12.6c0.7,3,0.9,8,0.6,14.9c0,0.8,0.5,1.5,0.5,2.4
			c-0.3,7.4,0.3,14.7,1.8,21.9c0.6,2.8,0.8,5.6,0.8,8.4c-0.1,11.9-0.1,23.9,0.1,36c0,0.9,0.1,1.8,0.1,2.8c0.1,1.2,0,2.6-0.2,4.4
			c-0.3,1.7-0.2,4.9,0.2,9.8C592.2,263.1,592.5,271.3,592.4,281.6z"/>
		<path class="st9" d="M402,144.4c1,2.4,1.3,4.2,1.1,5.6c-2.4,2.5-4.5,5.3-6.4,8.3c-2.9,4.6-4.7,7.6-5.6,8.8
			c-6,8.7-10.6,17.7-13.5,27.8c-2.3,8-5,15.8-7,24.1c-1.7,7.2-3.4,14.5-5.1,21.9c-1.5,6.6-1.6,14.5-2.6,20.6
			c-1.3,8.2-2.6,16.7-3.9,25.7c-0.9,5.9-1.3,12.2-2,18.2c-0.5,3.9-0.5,7.8-1,11.7c-0.4,2.9-0.7,5.9-0.8,8.8
			c-0.2,5.8-0.4,11.4-0.7,17c-0.1,0.9-0.1,1.8-0.3,2.8c-0.3,2.2-0.1,4.4-0.4,6.7c-1.4,9.4-0.5,19.6,2.7,30.6
			c2.7,9.5,15.2,15.7,24.4,15.7c1.8,0,3.1-1.3,3.3-3.1c0.6-4.1,0.8-8.2,0.6-12.3c-0.1-2.5,0.1-5.2,0.7-8c0.8-4.3,1.2-9,1.1-14.1
			c0-2,0-4.2,0.2-6.6c0.4-5.4,0.1-10.5,0.6-16.1c0.5-5.7,0.9-11.2,1.2-16.6c0.4-6.3-0.1-12.5,0.5-18.8c0.5-4.7,1.1-9.4,2-14.1
			c0.8-4.1,2-8.3,3.7-12.8c2.3-5.9,4.6-12.4,7-19.4c3-9,7-18,11.7-27c2.6-4.8,3.7-10.2,6.5-14.9c2.3-3.8,4.4-7.5,6.4-11.4
			c2.9-5.6,6.8-10.3,10.9-15c1.4-1.6,2.3-3.3,2.7-5.2c0.5-2.5-0.4-4.8-2.9-6.8c1.3,0.2,2.6,0.6,3.7,1.2c1.3,0.8,1.9,0.8,3.3,0.8
			l6.4,3.3c-3.2,2-5.9,3.9-8.1,5.9c-4.8,4.1-9,9-12.5,14.8c-4.3,6.9-8,14.1-11.1,21.5c-2.9,6.9-6.6,13.1-9.2,19.9
			c-4.2,11.1-8.6,23.3-13.1,36.5c-2.6,7.7-4,15.6-4.3,23.9c-0.2,5.6,0.1,11.3-0.4,17.1c-0.9,10.8-1.2,21.8-0.8,32.8
			c0,1.2,0.4,2.3,0.4,3.5c-0.1,2.5,0,4.9,0.2,7.3c0.4,4.7-0.1,8.2-0.9,12.5c-0.2,1.2-0.4,3-0.6,5.5c-0.2,2.7-0.7,5.6-1.5,8.6
			c-0.2,0.7-0.3,1.9-0.2,3.7c0.2,4.9,6,5.9,9.7,5.3c2.2-0.3,4.4-0.8,6.6-1.3c2-0.5,4.3-0.7,6.9-0.7c8.6,0.2,16.7,0.3,24.1,0.5
			c4.7,0.1,11.6,1.2,17.2,0.6c8.9-1,17.9-3.2,26.9-6.8l-3,4.7l-9.4,3.2c-1.9,0.5-4,0.9-6.2,1.1c-1.4,0.1-2.7,0.3-4.1,0.4
			c-1.8,0.2-3.7,0.5-5.5,0.7c-1.7,0.2-3.4,0.2-4.9,0.1c-3.7-0.3-7.4-0.6-10.9-1c-7.1-0.6-14-0.1-21-0.1c-2.7,0-5.2,0.2-7.5,0.6
			c-4.2,0.8-8.6,1.9-12.9,1.9c-1.9,0-3.8,0-5.6,0.1c-1.1,0-2.3-0.1-3.5-0.5c-1.2-0.3-2.5-0.6-3.7-0.9c-1.3-0.3-2.6-0.6-4.1-1.1
			c-1.4-0.4-2.8-0.6-4.2-0.7c-2.9-1-4.9-1.9-5.9-2.6c-1.9-1.3-3.9-2.5-6.2-3.5c-2.9-2.4-5.2-5.3-6.9-8.5c-1.2-2.3-1.8-3.8-1.9-4.7
			c-0.3-2.7-0.7-5.5-1.2-8.5c-1.5-6.4-1.8-13-0.8-19.7c0.3-2,0.3-3.9,0.6-6c0.2-1.6,0.2-3.4,0.2-5.5c-0.1-1.5,0-3.4,0.3-5.5
			c0.3-2.5,0.3-5.1,0.1-7.6c0.7-2.4,0.7-4.7,0-6.8c0.3,0.1,0.4,0,0.3-0.5c-0.1-0.3,0-0.6,0.1-1c0.4-1.2,0.9-2.2,1-3.5
			c0.4-4.3,0.7-8.8,0.9-13.5c0.3-5.6,1.1-12.5,2.5-20.6c0.2-1.2-0.1-2.2,0.1-3.3c0.5-3.1,1.1-6.3,1.6-9.4c0.3-1.9,0.7-4.8,1.1-8.6
			c0.3-2.9,0.7-5.8,1.3-8.6c0.3-1.7,0.6-3.5,0.7-5.2c0.2-2.5,0.4-4.3,0.6-5.2c1.1-5.2,2.3-10.7,3.5-16.5c3-14.6,7.8-30.5,14.5-48
			c2.7-6.9,9-13.3,11.9-18.6C394.7,154.8,398.1,149.5,402,144.4z"/>
	</g>
	<g>
		<path class="st10" d="M351.6,329.4c0.2,2.6,0.2,5.1-0.1,7.6c-0.2,2.1-0.3,4-0.3,5.5c0.1,2.1,0,3.9-0.2,5.5c-0.2,2-0.3,4-0.6,6
			c-1,6.8-0.8,13.4,0.8,19.7c-0.8,0.4-1.5,0.6-2.1,0.7c-1.6,0.2-3.7-1.7-4.8-2.8c-5-4.7-10.1-9.2-14.9-14.1c-2.3-2.4-4.9-5-7.7-7.6
			c-2.5-2.3-7.8-8-2.5-10.5c3-1.4,7.1-2.8,12.1-4.1c2.4-0.6,4.5-1.5,6.3-2.5c3.1-1.9,8.1-5.2,11.7-5.2c0.4,0,0.6,0.1,0.9,0.4
			L351.6,329.4z"/>
		<path class="st10" d="M354.3,386.9c1.8,3.2,4.1,6.1,6.9,8.5c6.5,8.1,13.2,15.1,20.3,21c2.7,2.3,6.7,5.5,11.9,9.5
			c4.2,3.3,8,7,12,10.4c2.4,2,4.2,4.7,4.1,7.9c-0.3,5.8,0,11.7,0.8,17.6c1.5,10.9,0.3,21.5,0.4,32.6c0,0.7-0.3,1.3-0.9,1.6
			c-1,0.6-2,0.5-3-0.2c-7.4-5.1-15.5-11.4-24.2-18.7c-4.8-4.1-9-7.4-12.4-9.9c-3.7-2.6-6.8-5.8-10.2-8.8c-2.3-2.1-4.7-4.5-7.2-7.1
			c-3.4-3.6-6.7-7.2-9.9-10.8c-2.1-2.3-5.3-5.7-9.6-10.1c-3.2-3.3-6.4-6.7-9.4-10.3c-2.3-5.3-3.7-9.6-4-13
			c-0.7-5.9-1.4-11.7-2.3-17.4c-0.8-5.1-1.2-9.8-1.2-14.1c0-6.7,0-13.2,0-19.6c0-0.9,0.4-1.3,0.6-2.1c1.4-0.7,2.9-0.2,4.6,1.3
			c8.6,8.3,17.4,16.3,26.4,24.1c1.9,1.7,3.6,3.4,4.8,5.7C353.2,385.8,353.7,386.4,354.3,386.9z"/>
		<path class="st10" d="M583.2,362.9c4,0.6,6.9,3.3,8.5,8.2c-5.7,4-11.6,7.8-17.7,11.2c-5.6,3.2-11.3,5.3-17.2,7.6
			c-3.2,1.2-6.8,2.6-10.9,3.9c-5.3,1.8-10.3,4.3-15.6,5.6c-7.2,1.8-13.8,3.3-21.2,6.2c-4.2,1.6-8.5,2.7-12.8,4.4
			c-8,3.2-16.2,5.8-24.2,9.2c-1.7,0.7-3.3,1.3-5,1.8c-7.9,2.3-15.6,5.8-23.5,7.9c-4.1,1.1-8,2.3-11.7,3.5c-3.4,1.1-7,2.3-10.5,3.4
			c-3,1-5.4,1.3-7.2,0.9c-2.7-0.5-5-1.6-6.9-3.3c-4.9-4.5-10.3-8.8-16-13.2c-6.2-4.8-12.2-10.1-17.9-15.6c-1.2-1.1-1.3-2.2-0.4-3.2
			c1.4,0,2.8,0.2,4.2,0.7c1.5,0.4,2.8,0.8,4.1,1.1c1.2,0.3,2.5,0.6,3.7,0.9c1.2,0.3,2.4,0.5,3.5,0.5c1.9,0,3.7,0,5.6-0.1
			c4.3,0,8.7-1.1,12.9-1.9c2.3-0.4,4.8-0.6,7.5-0.6c7,0,13.9-0.5,21,0.1c3.6,0.3,7.2,0.6,10.9,1c1.5,0.1,3.2,0.1,4.9-0.1
			c1.8-0.2,3.7-0.4,5.5-0.7c1.4-0.2,2.7-0.3,4.1-0.4c2.3-0.2,4.3-0.6,6.2-1.1c3.6,0.5,7,1,10.2,1.5c2.1,0.3,3-0.1,2.9-1.1
			c1.7,0.5,2.8,0.7,3.2,0.6c2.7-0.7,5.6-1.1,8.5-1.3c0.7,0,1.4-0.2,2.1-0.4c1.1-0.4,2.1,0,3.2-0.1c2.5-0.4,4.9-0.9,7.3-1.7
			c7.4-2.4,14.7-4.9,21.9-7.3c3.9-0.1,7.4-0.9,10.7-2.4l10.7-0.7c0.3,0,0.6-0.1,0.9-0.2c0.4-0.2,0.8-0.2,1.3-0.1
			c0.4,0.1,0.7,0.1,1.1,0c3.5-0.9,6.5-2.5,9.8-3.8c1.4-0.6,2.8-1.1,4.2-1.7c3-1.2,5.6-3.1,7.9-5.6
			C577.1,372.1,580.4,367.6,583.2,362.9z"/>
		<path class="st10" d="M288.6,681c1.6,0.6,2.7,1.3,3.4,2.2c-3.9,3.4-6.9,7.9-8.8,13.6c-1.1,3.1-2.2,6.3-3.4,9.5
			c-2.5,6.7-7.2,13.5-9.6,19.3c-1.9,4.7-3.9,9.2-6.1,13.4c-1.6,3.1-3.1,7.2,0.9,9.4c4,2.2,9.8,2.8,14.2,3.7c2.3,0.5,4.9,1.2,7.7,2.2
			c3.3,1.2,6.7,2.2,10.2,3.2c2.7,0.7,6,1.9,9.9,3.4c6.9,2.7,14,4.7,21.4,6l-4.8,5.6c-0.3-2.4-1.7-4-4.2-4.8
			c-3.8-1.1-7.7-2.1-11.5-3.8c-4.1-1.8-8.2-3.2-12.1-4.2c-4.7-1.2-9.2-3.1-13.7-4.5c-2.8-0.8-8.2-2.3-11.2-1.6
			c-0.3,0.1-0.6,0.3-0.8,0.6c-0.7,1.2-0.6,2.5,0.3,3.8c2.8,4.1,5.7,8.1,8.7,12.1c3.1,4.1,5.6,8.7,8.8,13c4,5.4,8.1,10.7,12.5,15.7
			l-2.5,3.4c-0.1-0.2-0.3-0.4-0.7-0.6c-0.3-0.1-0.5-0.3-0.7-0.6c-2.3-3.9-4.8-7.8-7.4-11.5c-2.6-3.6-5.2-7.4-7.7-11.3
			c-4.9-7.4-9.9-14.8-15.1-22c-0.8-1.2-1.8-2.2-2.8-3.2c-1.2-1.1-2.3-2-3.3-2.9c-3.3-2.9-2.2-6.7-0.4-10c3.1-5.7,5.8-11.1,8-16.5
			c1.3-3.2,3.1-6.6,5.2-10.2c2.7-4.6,4.9-9.2,6.5-13.7C282.2,692.6,285.2,686.3,288.6,681z"/>
		<path class="st10" d="M449.9,721c1.7,1.5,2.5,3.7,2.3,6.7c-0.7,9.5-1.5,19-2.3,28.4c-0.2,2.7,0,5.2-0.8,7.8
			c-0.2,0.6-0.8,0.9-1.3,0.7c-0.1,0-0.2-0.1-0.3-0.2c-0.8-0.6-1.4-1.4-1.9-2.4c-3.5-8.2-7-15.9-10.4-23.1c-2-4.4-3.9-8.9-5.7-13.7
			c4.7-2.1,9.7-3.4,15-4.2C445.7,720.9,447.4,720.9,449.9,721z"/>
		<path class="st10" d="M504.1,874.3c-1.8-3.2-2.8-6.5-5.1-9.6c-2-2.7-3.3-5.8-5.2-8.6c-2.5-3.6-4.5-7.1-6-10.5
			c-0.9-2-0.3-3.2,1.8-3.4c1.7-0.2,3.5,0.2,5.4,1.3c8.8,5,15.4,9,19.9,12c1.7,1.2,2.8,3.3,3,5.4c0.2,2.4,0.4,4.9,0.6,7.3
			c0.1,2.2,0.1,4.7,0,7.4c-0.3,6-0.4,11.9-0.2,17.6c0,0.6-0.4,1.2-1,1.5c-1,0.4-1.8,0.1-2.4-0.7c-1.4-2.2-2.6-4.1-3.5-5.9
			C509.3,883.9,506.9,879.2,504.1,874.3z"/>
		<path class="st10" d="M312.9,880.7l5.7,0.6c-1.7,1.1-2.5,2.8-2.6,5c0,6.4-0.1,10.5-0.3,12.2c-0.2,2.7-0.1,8.3,0.4,16.7
			c0.3,4.7-0.2,9.5-0.3,14.2c-0.3,8.8-1,17.5-1.1,26.3c0,1.8-0.3,3.5-0.3,5.3c0.1,5.1-0.1,10.2-0.6,15.2c-0.4,3.7-0.3,7.2-0.2,10.9
			c0.2,4.4,0.5,9,1,13.8c0.4,3.9,0.5,8.5,0.4,13.9c-0.2,6.8-0.5,13.7-0.9,20.5c-0.2,3.9,0.3,7.3,0.7,11.1c0.3,2.5,0.3,5.2,0.1,8.4
			c-0.3,3.9-0.4,7.7-0.3,11.3c0.1,6.5,0.4,13,0.9,19.5c0.6,7.9,0.8,16.1,1.7,24c0.4,3.7,0.6,7.2,0.5,10.6c-0.1,3.5,0.1,6.9,0,10.4
			c-0.1,6.2,1.5,11.1,4.9,16.2c-1.7-2.2-3.4-2.9-5.3-2c-1-1.1-1.7-2.6-2-4.5c-0.9-5.1-1.1-9.9-0.7-14.4c0.6-6.8,0.5-13.1-0.3-19.1
			c-0.6-4.2-0.8-8.3-0.8-12.5c0-0.6-0.1-1.2-0.2-1.8c-0.4-1.4,0.1-2.9-0.2-4.3c-0.2-1-0.3-2-0.3-3c0.1-4.9,0-9.3-0.4-13.4
			c-0.3-3.2-0.3-7.3-0.1-12.4c0.1-2.1,0.2-4.2,0.5-6.2c0.4-3.1-0.4-6.1-0.4-9.1c0-2.7-0.1-5.3-0.3-7.8c-0.2-2.4-0.1-4.9,0.1-7.6
			c0.7-7.3,1-14.7,1.1-22.2c0-0.7-0.1-1.3-0.3-2c-0.3-0.9,0-1.9-0.1-2.8c-0.4-4-0.8-7.9-1.1-11.8c-0.5-5.9-0.3-12.2,0.4-19
			c0.5-4.6,0.1-9.4,0.5-14.1c0.3-3.6,0.1-7.1,0.5-10.7c0.9-9.9,1.3-19.4,1.4-28.6c0-1-0.1-2.1-0.3-3.1c-0.3-1.4,0-3-0.1-4.5
			c-0.2-5-0.2-10.1,0-15.3c0.1-2.4,0.8-5.8,0.4-8.6C314.3,885.2,313.7,883.4,312.9,880.7z"/>
		<path class="st10" d="M341.4,881.5c-0.4,1.2-0.1,2.5,1.1,4c4.9,5.9,10.2,11.7,14.3,18c3.4,5.3,8,9.1,11.6,14.2
			c3.9,5.6,8.2,11.3,12.7,17.1c2.8,3.6,4.8,7.6,7.6,11.2c4.3,5.6,9,11.5,14.1,17.7c4,4.8,10.7,5.3,16.8,4
			c12.9-2.7,24.9-5.3,35.8-7.8c3.2-0.7,2.2-3.9,0.9-5.9c-4.1-6.3-7.8-12.5-11.1-18.5c-3.5-6.4-6-13.7-8.8-20.6
			c-2.6-6.3-5.9-12.8-9.4-18.4c-0.9-1.4-2.4-3.2-4.6-5.4c3.3,0.3,5.5,0.8,6.4,1.6c2.1,6.5,4.7,12.7,7.7,18.5c1.4,2.7,2.9,5.4,4,8.3
			c4.3,11,9.9,20.1,15.9,29.7c1.3,2.1,2.9,4.2,4.8,6.3c2.2,2.5,5.7,2.7,8.5,1.3c4.4-2.3,9.1-4.8,14.2-7.4c3.5-1.8,6.5-5,9.9-6.4
			c3.7-1.5,8.7-3.4,11.2-6.7c1.7-2.2,0.7-4.6-0.9-6.5c-3.9-4.6-7.7-10.5-11.5-17.6c-2-3.6-4.8-7.6-8.5-11.9c3.1-0.1,5.9,0.3,8.5,1.4
			c1.4,5.6,3.7,10.8,6.8,15.7c3.1,4.8,6.6,9.3,10.6,13.3c3.2,3.2,4.1,7,4,11.6c-0.1,3.6,0,7.2,0.5,10.6c0.2,1.4,0.3,2.7,0.3,4
			c0,1.4,0.1,2.7,0.3,4c0.3,1.8-0.2,4.7,0.5,6.2c0.1,0.3,0.2,0.6,0.1,0.9c-0.5,3-0.5,6.6-0.2,10.8c0.3,3.9,0.6,7.5,1,10.9
			c0.4,3.6,0.6,7.2,0.6,10.8c0,5.5,0,10.9,0,16.2c0,0.6-0.4,1.1-0.4,1.6c0,4.2,0,8.3,0,12.4c0,0.2,0.1,0.4,0.2,0.7
			c0.1,0.1,0.1,0.2,0.2,0.3c0,0.1,0.1,0.2,0.1,0.3c0,2.2,0,4.4,0,6.7c0,3.9-0.6,7.7-0.5,11.6c0,1-0.4,1.7-0.4,2.7
			c0,6.8,0.3,13.5-0.4,20.1c-0.3,2.8-0.4,5.6-0.4,8.2c0,2.9-0.1,5.9-0.4,9c-0.3,3.3-0.3,6.3,0,9c0.2,2.2,0.3,3.7,0.3,4.7
			c-1.4,0.5-3.1,0.7-5,0.5c1.2-2.6,2-5,2.3-7c0.9-5.9,1.1-12.6,0.8-20.3c-0.1-1.5,0-2.9,0.1-4.2c0.3-3.5,0.7-6.9,0.7-10.5
			c0.1-6.8,0.8-14.1,0.8-20.5c0-10.1,0-20.3,0.1-30.4c0-3.5,0.6-7.9,0.4-12.1c-0.2-4.5-0.6-8.9-1.1-13.3c-0.5-4.2-0.7-8.4-0.6-12.5
			c0.1-5.8-0.1-11.9-0.5-18.3c-0.2-2.9-0.9-5.7-0.8-8.5c0.2-3.8-0.1-10.6-6.3-7.5c-4.1,2-7.9,4.1-11.2,6.2
			c-6.8,4.4-14.1,8.5-21.5,12c-4.1,2-6.3,5.5-6.3,10.4c0,3.2-0.2,6.4-0.4,9.6c-0.2,3.3-0.2,6.6,0,10c0.2,2.5,0.2,5,0.1,7.5
			c-0.1,2.7-0.1,5.8,0.1,9.2c0.5,8.3,0.3,16.4-0.6,24.6c-0.5,4.6-0.7,9-0.6,13.4c0.1,6.3-0.1,13-0.7,20.1c-0.3,4.4-0.7,8.7-1.1,12.8
			c-0.4,4-0.4,8.2-0.2,12.8c0.4,7.7,0.4,14.4,0,20.2c-0.5,8.2-0.3,15.6,0.7,22.2c-0.8,0.7-2.5,1-5.1,0.9c1-1.5,1.6-2.9,1.7-4.2
			c0.1-2.7,0.2-5,0.3-7.1c0.3-13.2,0.4-26.1,0.5-38.9c0-5.3,0.4-11.3,1.2-18c0.5-4.1,0.1-8.1,0.3-12.2c0.2-3,0.3-6,0.3-9.1
			c0.1-6.6,0.5-13.3,1.1-19.9c0.3-2.6,0.1-5.1,0.4-7.7c0.2-1.8,0.2-3.8,0.1-5.8c-0.3-5.1-0.4-10.2-0.3-15.2c0.1-1.5-0.5-3-0.5-4.4
			c-0.1-5.5,0.1-11,0.4-16.5c0.1-1.4,0.1-3,0.1-4.8c0-2.8-1.7-5.1-4.5-5c-4,0.1-8.2,0.6-12.6,1.5c-9.3,1.9-18.7,3.7-28.4,5.4
			c-3.2,0.6-6.3,0.9-9.1,0.9c-2.3,0-4.2,1.9-4.2,4.2c-0.1,5.8-0.3,11.6,0.5,17.5c0.6,4.1,0.9,8.2,1,12.4c0.1,4,0.5,8,1,12.2
			c1.3,10.3,2.2,20.6,2.7,30.9c0.1,2.1,0.3,4.2,0.5,6.4c0.2,2.2,0.3,4.4,0.3,6.7c0,3,0.1,6.3,0.4,9.8c0.6,7.7,1,14.6,1.2,20.6
			c0.1,3.8,0,7.8-0.4,12.3c-0.3,3.6-0.3,7.8,0,12.6c0.2,4.4,0,10.5-0.6,18.3c-0.1,1.8,0.8,3.1,2.7,4c-0.5,0.3-1,0.6-1.6,0.8
			c-1.9,0.7-3.1,2-4.4,3.6c0.1-2.6,0.4-5.2,0.8-7.7c0.5-3.1,0.7-5.6,0.8-7.8c0-6.1,0-12.3,0-18.5c0-2,0.4-4,0.5-6
			c0.3-8.2,0.2-16.1-0.4-23.9c-0.4-5.7-0.7-10.8-0.8-15.2c-0.1-5.1-0.3-10.2-0.5-15.2c-0.1-3-0.3-5.9-0.6-8.8
			c-0.3-2.9-0.5-5.9-0.6-8.8c-0.2-4.7-1-9.1-1.6-13.5c-0.4-2.9-0.6-5.9-0.7-9c-0.1-3.6-0.3-6.8-0.6-9.7c-0.9-8.3-1.4-16.2-1.5-23.7
			c-0.2-9.4-8.4-15.4-13.3-22.5c-5-7.1-9.6-15.1-15.3-22.1c-2-2.4-3.9-4.8-5.5-7.2c-3-4.3-6.1-8.2-9.4-11.7
			c-1.9-2.1-3.7-4.3-5.2-6.8c-3-4.9-7.3-10.2-12.9-15.9c-1.3-1.3-3.7-3.7-5.6-3.8c-1.1-0.1-2.1,0.8-2.2,1.9c0,0,0,0.1,0,0.1
			c-0.1,5.3-0.3,10.2-0.7,14.8c-0.3,4.4-0.3,10.7,0.2,18.9c0.2,3.3,0.3,6.4,0.3,9.2c0,3.1,0,6.2,0,9.2c0,4.4,0.2,8.9,0.5,13.6
			c0.4,4.7,0.8,9.4,1.1,14.2c0.2,2.9-0.1,5.8,0.2,8.7c0.7,5.8-0.1,11.5,0.4,17.2c0.4,5,0.4,10.3,0.1,15.9c-0.4,7.5,0.1,15,0.1,22.6
			c0,5,0.9,10.1,0.4,15.1c-0.3,2.8-0.4,5.5-0.3,8c0.2,4.4,0.6,9,1,13.8c0.4,4.1-0.6,8.5-0.6,12.7c0,18,0,36.3,0,55.1
			c0,4.3-0.6,8.5-0.5,12.8c0.1,3,0,5.9-0.2,8.9c-0.2,3-0.4,6-0.6,8.9l-8.4-12.3l2.5,2.3c0.8,0.8,2.1,0.8,2.9,0c0.7-0.7,1-1.5,1-2.6
			c-0.3-6.4,0.3-12.6,0.3-19c0-2.8,0.1-5.6,0.4-8.4c0.5-6.7-0.5-13.4-0.4-20.1c0.1-9.8,0.2-19.5,0.9-29.2c0.6-7.8,0.3-14.6-0.2-22
			c-0.4-6,0.5-12.5,0.1-18.9c-0.4-6.3-0.3-12.7-0.4-19.1c0-2.9,0.1-5.8,0.3-8.7c0.3-3.9,0.3-6.8,0.1-8.7c-0.4-3.7-0.6-6.5-0.4-8.7
			c0.3-3.6,0.6-7.1,0.1-10.7c-0.4-3.1-0.6-6.2-0.6-9.6c0-3.1-0.2-6.3-0.5-9.5c-0.3-3.7-0.6-7.5-1-11.4c-1-10.8-0.6-21.9-0.6-32.8
			c0-3.2-0.8-6.2-0.4-9.4c0.6-5.6,0.8-9.4,0.6-11.3c-0.3-3.4-0.3-6.8-0.1-10.3c0.1-1.8-0.6-3.2-2.1-4.5L341.4,881.5z"/>
	</g>
	<g>
		<path class="st11" d="M495,115.8c-1.3-3.1-1.3-5.7-1.7-8.7c-0.2-1.6-0.3-3.2-0.3-4.8c0-3.2-0.1-6.6-0.4-10.4
			c6.1-7.1,14.5-11.2,25.1-12.4c4.1-0.4,11.1-0.3,15.6,0.4c8.4,1.3,16.1,4.6,23.2,9.8c1.8,1.3,3.4,3.2,4.9,5.7
			c3.1,5.2,6,10.3,8.7,15.4c0.7,1.2,1.2,3,1.1,4.4c-0.1,0.9-0.9,1.6-1.8,1.5c-0.3,0-0.6-0.1-0.8-0.3c-8-5.8-16.8-8.9-26.3-9.3
			c-5.2-0.2-10.4-0.1-15.6,0.9c-3.5,0.6-7,1.3-10.5,2c-3.4,0.7-6.2,1.5-8.5,2.6c-2.3,1-5,2.3-8.1,3.9
			C497.9,117.2,496.4,117,495,115.8z"/>
		<path class="st11" d="M403.1,150c2.9,2.1,5.4,4.4,8.1,6.3c3.8,2.7,7.1,5.5,10,8.4c1.8,1.8,3.6,3.4,5.5,4.7c3.6,2.5,7.1,4.8,10.6,7
			c2.5,2,3.4,4.3,2.9,6.8c-0.4,1.9-1.3,3.7-2.7,5.2c-4.1,4.6-8,9.3-10.9,15c-2,3.8-4.1,7.6-6.4,11.4c-2.9,4.7-4,10.1-6.5,14.9
			c-4.8,9-8.7,18-11.7,27c-2.4,7-4.7,13.4-7,19.4c-1.7,4.4-3,8.7-3.7,12.8c-0.9,4.7-1.5,9.4-2,14.1c-0.6,6.3-0.1,12.5-0.5,18.8
			c-0.3,5.4-0.7,10.9-1.2,16.6c-0.5,5.6-0.2,10.7-0.6,16.1c-0.2,2.4-0.3,4.6-0.2,6.6c0.1,5.1-0.2,9.8-1.1,14.1
			c-0.5,2.8-0.8,5.4-0.7,8c0.1,4-0.1,8.1-0.6,12.3c-0.2,1.8-1.5,3.1-3.3,3.1c-9.3,0-21.7-6.2-24.4-15.7c-3.1-11-4-21.2-2.7-30.6
			c0.3-2.3,0.1-4.5,0.4-6.7c0.1-0.9,0.2-1.8,0.3-2.8c0.3-5.5,0.5-11.2,0.7-17c0.1-2.9,0.3-5.8,0.8-8.8c0.6-3.9,0.6-7.8,1-11.7
			c0.7-6.1,1.1-12.3,2-18.2c1.3-9,2.6-17.6,3.9-25.7c1-6,1.1-14,2.6-20.6c1.7-7.4,3.3-14.7,5.1-21.9c2-8.3,4.7-16.1,7-24.1
			c2.9-10.1,7.5-19.1,13.5-27.8c0.9-1.2,2.7-4.2,5.6-8.8C398.6,155.3,400.7,152.6,403.1,150z"/>
	</g>
	<g>
		<path class="st12" d="M168.5,189.6l3.1,3.1c-1.6,0.6-2.3,1.4-2.4,2.3c0,2.7,0,4.9,0.1,6.6c0.3,4.3,0.7,8.7,1,13.3
			c0.3,4.1,0.6,8.5,0.7,13.4c0.1,4.4,0.5,9,1.1,13.7c0.7,5.4,0.8,10.9,1,16.3c0.2,4.2,0.6,8.2,1.1,12.2c1.5,10.5,2.5,19.2,3,26.1
			c0.3,3.8,0.7,7.6,1.3,11.3c0.4,3,0.3,5.8,0.6,8.7c0.6,7.3,1.4,14.9,2.1,22.8c0.7,6.8,2.4,12.6,7.6,17.2c7,6.3,13.2,12.3,18.8,18.2
			c5.6,6,11.9,12.3,18.8,18.8c2.5,2.3,5.4,5.8,8.9,10.3c2.5,3.2,5.4,6.6,8.6,10.2c8.5,9.3,17.6,17.8,26.6,26.9
			c5,5,11.3,10,16.8,15.4c1.2,1.2,3.3,1.2,4.5,0c0.1-0.1,0.1-0.1,0.2-0.2c2.7-3.2,5.5-6.4,7.8-9.8c3.9-5.6,7.9-11.3,12-17.1
			c1.2-1.6,2.5-3.2,3.9-4.7c2.4-2.5,3-5.9,0.5-8.4c-5.8-5.8-10.7-11.6-16.8-17.1c-2.9-2.6-5.7-5.3-8.4-7.9
			c-5.7-5.5-11.5-10.8-17.3-15.7c-2.6-2.2-5.6-4.5-9-6.9c-4.5-3.2-8.6-6.7-12.5-10.6c-2.5-2.5-4.8-4.5-6.8-5.9
			c-3.4-2.4-6.8-5-10.4-6.9c-3.3-1.8-5.3-4.8-6-8.9c-1-6.1-2-12.1-2.9-18c-1-6.7-1.6-12.7-1.7-18.1c-0.2-8.7-0.4-17.9-1.4-26.7
			c-0.8-7-0.9-14.3-1.8-21c-1-7.7-0.8-16.4-2.3-24c-0.3-1.3-1.3-2.8-3.3-4.6l7.5-2.5c-1.5,2.5-2.1,4.9-1.8,7.3
			c0.4,3.3,0.7,6.3,0.8,8.9c0.1,3.2,0.4,6.1,0.7,8.9c0.7,5.4,1.2,10.2,1.5,14.4c0.4,6.8,0.9,13.4,1.6,19.8c0.4,3.4,0.6,6.9,0.5,10.5
			c0,3.5,0.2,6.9,0.5,10.4c0.5,4.7,0.2,9.1,1.1,13.7c1.1,6,2.2,11.9,3.2,17.5c0.8,4.4,2.8,8,6.4,10.6c3.4,2.5,6.8,5,10.1,7.6
			c3.2,2.5,5.6,5.9,8.6,8.5c3.6,3,7.6,6.1,11.9,9.3c10.6,7.8,20.5,16.8,30.5,25.5c2.2,2,4.4,4.2,6.4,6.7c2.9,3.5,6.3,6.5,10.4,9.2
			c0.6,0.4,1.4,0.2,1.9-0.4c0.2-0.3,0.2-0.6,0.2-0.9c-0.4-4.2-0.3-8.5-1.1-12.6c-1.7-8.5-2.5-15.5-2.5-21.1
			c0-10.2,0.6-20.9-1.7-30.9c-0.6-2.8-1.9-4.9-3.9-6.5c-3.9-3.1-8.1-6.3-12.6-9.4c-4.5-3.1-7.8-7.2-11.8-10.9
			c-2.4-2.2-3.7-4.9-3.8-8.2c-0.3-5.4-0.2-10.7,0.3-16c0.3-4,0.4-8,0.1-12.1c-0.6-8.6-1.1-17.9-1.5-27.7c-0.2-3.7-0.1-7.3,0.1-10.9
			c0.2-3.6,0.1-7.2-0.2-11c-0.7-8.1-0.5-16-0.6-23.9c0-1.9-0.3-3.9-0.9-5.8c-0.8-2.9-3.1-4.2-6.7-3.7l3.2-4c2.9,0.7,4.7,2.3,5.4,4.8
			c0.6,2.3,0.9,4.7,0.9,7.1c0,0.8,0.4,1.3,0.4,2.1c0,5.2,0,10.3,0,15.4c0,3.2,0.7,6.3,0.4,9.5c-0.1,0.9,0.5,1.6,0.5,2.4
			c0,4.7,0,9.5-0.1,14.6c0,3.2,0.5,7.4,0.5,11.1c0,1.5,0.1,2.9,0.3,4.4c0.3,2.6,0.5,5.2,0.5,7.7c0.1,2.5,0.6,4.9,0.4,7.5
			c0,0.3,0,0.5,0.1,0.7c0.1,0.1,0.1,0.3,0.2,0.4c0.1,0.1,0.1,0.3,0.1,0.5c0,4.7,0.2,9.4-0.3,14c-0.3,2.4-0.3,4.7,0,7.1
			c0.2,1.6,0.3,3.2,0.4,4.8c0.2,5.5,5.2,9.3,8.7,12.8c1.3,1.3,2.9,2.7,4.8,4c5.9,4.1,11.2,8.2,16.1,12.3l3.4,16.2
			c-0.2,0.8-0.6,1.2-0.6,2.1c0,6.4,0,12.9,0,19.6c0,4.3,0.4,9,1.2,14.1c0.9,5.7,1.6,11.5,2.3,17.4c0.4,3.3,1.7,7.6,4,13
			c-0.4,0.8-0.8,1.7-1,2.5c-0.1,0.4-0.1,0.7,0,1c0.1,0.3,0.3,0.6,0.5,1c-1.4,0.1-2.6,0.8-3.4,2c-3.2,4.6-7,8.7-10.3,12.9
			c-4.2,5.3-8.7,11.1-13.5,17.4c-1.9,2.5-3.5,5.6-0.9,8.2c3.7,3.6,7.7,7.8,12,12.6c2.2,2.4,5.9,5.6,11.1,9.8
			c8.2,6.4,16.3,15.2,24.3,20.5c5.2,3.5,10.3,6.9,15.2,10.2c6.2,4.1,12.8,7.8,19.2,12c10,6.6,15.9,10.5,24,15.8
			c1.1,0.7,2.5,0.5,3.2-0.5c0.5-0.6,0.8-1.4,0.8-2.3c0.3-4.3,1.1-9,2.2-14.3c1.9-8.6,2.9-17.1,2.9-25.5l6.4,1.2
			c-2.1,3.6-1.6,6.7-2.1,9.9c-0.7,4.3-1.7,8.3-2.9,11.9c-2.1,6.4-3,12.8-2.9,19.5c0,4,3.7,4,6.4,2.9c10.2-4.3,19.5-10.8,30.2-14.3
			c4.3-1.4,8.5-3,12.6-4.7c4-1.6,8.1-3.1,12.3-4.4c12.8-4,23.6-7.9,32.4-11.6c6.9-2.9,14.1-5.9,21.7-9.1c5.6-2.3,11.6-4.1,18.2-5.5
			c4.7-0.9,9-2.2,13.1-3.8c10-4,19.7-7.4,28.9-10.3c4.9-1.5,10.1-2,15-3.8c7.1-2.6,14.4-5.2,22-7.9c2.5-0.9,6.2-3,3.6-6.1
			c-4-4.5-9-10.1-14.4-13.8c-4.5-3.1-7.5-7.4-11.9-10.4c-3.3-2.2-6.8-4.1-10.4-5.5c0.8-0.3,0.8-1.4,0.1-3.4
			c-0.1-0.3-0.1-0.6,0.1-0.9c0.6-1,0.9-2,1.2-2.9c1.8-7.4,3.3-15.1,4.5-23c0.5-3,0.5-6.6,0.4-9.7c-0.2-6.6-0.1-12.9,0.3-18.9
			c0.1-0.8-0.2-1.6-0.6-2.5c-0.4-0.7-0.7-1.5-1-2.3c-0.4-1.4-1-2.3-1.8-3c-1.6-4.9-4.5-7.6-8.5-8.2l2.7-9.8c0.5,0.7,0.7,1.8,0.5,3.1
			c-0.1,0.4,0,0.8,0.2,1.1c2.6,5.3,8.5,14.1,15.1,7.5c2.3-2.4,4.9-4.3,7.8-5.9c6.5-3.6,12.2-7.1,17.1-10.4c5.3-3.6,11-7,16.6-10.3
			c4.7-2.8,10.8-3.5,15.6-6.7c7.4-4.9,14.9-9.1,22.5-12.5c6.3-2.8,12.4-6.1,18.6-8.8c13.3-5.7,27.2-12,41.7-18.9
			c3.3-1.6,6.9-3.6,10.7-6.2c3.4-2.3,7-4.5,10.6-6.6c1.9-1.1,6-3.1,12.3-6.1c5-2.3,9.7-5,14.2-8l3,3.9c-5.1,1.2-10,2.8-14.8,5
			c-3.1,1.4-5.9,3.3-8.8,4.7c-4.1,2-8.3,4.3-12.7,7c0,0-2.3,1.7-6.8,4.9c-2.8,2-6,3.7-9.3,5.1c-9.5,3.8-18.2,7.7-25.9,11.6
			c-6.3,3.2-13,5.1-19.1,8.2c-4,2-8.4,4.2-13.3,6.3c-6.7,3-13.1,6-19,9.9c-1.6,1-3.6,2.1-6.1,3.1c-10.3,4.2-20.2,9.5-29.7,16
			c-4,2.8-7.5,5.5-12,7.9c-2.3,1.2-4.5,2.5-6.6,3.8c-7.2,4.6-10.9,11.2-11,19.8c-0.1,5.6-0.1,11.1-0.2,16.8
			c-0.1,5.5-0.5,10.5-1.4,15.2c-0.9,5-1.7,10-2.5,14.9c-0.3,2.2,0.6,3.1,2.6,2.9c1.2-0.1,2.6-0.9,4.3-2.4c2.7-2.3,5.4-4.7,8.3-6.7
			c4-2.8,7.9-5.5,11.7-8.2c3.5-2.5,7.6-5,12.2-7.7c7.9-4.6,14.9-9,20.9-13c5-3.3,11.7-6.2,17.1-10c4.6-3.3,9.3-6.6,14.5-8.9
			c3.1-1.4,5.7-2.6,7.6-3.7c6.6-3.7,12.8-7.1,18.6-10c4.2-2.1,10.1-2.3,14.8-4.8c6-3.3,12.1-6.5,18.4-9.7c2.4-1.2,5.1-2.3,8-3.2
			c3.9-1.2,6.9-3.9,10.8-5.3c3-1.1,5.8-2.1,8.6-3.7c2.3-1.3,4.5-2.4,6.8-3.1c4.8-1.6,9.1-4.4,13.9-6.5c2.7-1.2,5.2-3,7.5-5.6
			l-0.4,5.5c-5.8,2.9-11.7,5.6-17.9,8.1c-5.2,2.1-10,5.2-14.6,7.3c-3.1,1.4-5.9,3-9.2,4.1c-9.2,3.2-18.1,7.4-26.8,12.5
			c-2.4,1.4-4.9,2.6-7.7,3.5c-5,1.6-10.1,2-14.8,4.8c-4.3,2.5-8.6,5-12.9,7.5c-2.5,1.4-5.3,2.8-8.4,4.2c-4.3,1.8-7.1,3.2-8.5,4.1
			c-5.4,3.6-10.4,7.4-16.3,10.3c-3.8,1.9-6.9,3.6-9.2,5.1c-5.5,3.7-11.1,7.2-16.9,10.6c-12.9,7.7-25.3,16.1-37,25.3
			c-1.6,1.2-2.7,2.7-3.3,4.4c-0.1,0.3,0,0.6,0.2,0.8c3,2.6,6.4,4.7,9.3,7.5c1.7,1.7,3.7,3.3,5.9,5c1.9,1.4,3.8,3.1,5.8,5
			c4,3.8,7.9,7.6,11.7,11.3c1.9,1.8,3,3.4,3.4,4.7c0.5,1.8,0.6,3.7,0.4,5.8c-0.3,2.7-0.5,5.3-0.7,8c-0.1,2.9-0.4,5.6-0.8,8.1
			c-0.5,2.9-0.7,5.9-0.6,8.8c0,1-0.1,2-0.3,3.1c-0.3,1.5-0.1,2.8-0.4,4.3c-0.5,3.1-0.8,6.2-0.7,9.3c0,1.5-0.5,2.7-0.4,4.2
			c0,0.6,0,1.1-0.2,1.7c-1.2,4.2-2,8.4-2.2,12.7c-0.2,2.8-0.4,5.5-0.7,8.2c-0.4,4.3-0.8,8.7-1.2,13.1c-0.4,4.8-1,10.3-1.9,16.3
			c-0.5,3.2-0.8,6.7-0.9,10.5c-0.1,3-0.3,5.8-0.6,8.4c-0.3,2.7-0.5,5.6-0.5,8.5c0,0.7-0.1,1.4-0.3,2.1c-0.2,0.9,0.3,1.8,0.3,2.7
			c0,2.5,0.2,5-0.2,7.5c-0.6,3.4-1.2,6.8-1.8,10.1c-0.5,3.1-0.9,6.5-1.2,10.2c-0.4,6.5-0.9,13.2-1.4,19.9c-0.2,2.3-0.5,4.4-0.9,6.3
			c-0.6,3-1.3,5.8-1.4,8.9c-0.1,3.1-0.5,5.9-1.1,8.4c-0.4,1.8-1.7,3-3.8,3.5c-9.7,2.3-19.8,4.5-30.5,6.6c-2.1,0.4-4.1,1.2-5.8,2.4
			c-0.3,0.2-0.6,0.3-0.9,0.3c-0.7,0-1.3,0.2-2,0.5c-0.7,0.3-0.6,0.4,0.1,0.3c2.9-0.4,4.2,1.5,6.7,2.2c2.9,0.8,6.5,1.9,10.8,3.3
			c3.7,1.2,4.8,3.8,4,7.3c-0.9,4.3-1.5,8.3-1.9,12.1c-0.2,1.8-0.6,3.9-1.4,6.3c-1.2,3.8-2.8,8.5-2.9,11.9c-0.1,2.5,1.6,4.6,3.7,5.9
			c5.4,3.3,10.6,6.5,14.6,11.2c1.6,1.8,2.2,4.3,1.8,7.2c0,0.3,0,0.7,0.2,0.9c0.2,0.4,0.3,0.7,0.3,1.2c-0.1,1.8,0,3.6,0.1,5.3
			c0.2,1.8,0.2,3.4,0,5c-0.4,4-0.6,8-0.5,12c0.1,4.6,2.2,7.7,6.2,9.3c6,2.4,12,5.2,18.1,7.1c4.2,1.4,8,3.8,8.2,8.6
			c0.3,7.3,0.1,14.3-0.5,21.2c-0.2,2.7-1.9,4.6-4,6.1c-9.8,6.7-17,11.2-21.4,13.6c-4.8,2.5-9.8,4.4-14.3,7.6c-2,1.4-3.8,2.5-5.3,3.4
			c-9.8,5.4-18.8,10.8-26.8,16.1c-3.2,2.1-7.8,2.4-10.9,0.2c-7.4-5.2-15.7-9.9-24.9-14.3c-0.9-0.4-2.1-0.7-3.6-0.8
			c-1.4-0.1-2.6-0.5-3.6-1.2l-3.2-5.9c3.7,1.2,6.5,2.3,8.3,3.4c5.5,3.3,11.1,6.2,16.9,8.6c2.9,1.2,5.6,3.1,8.5,4.6
			c1.3,0.7,2.4,0.6,3.3-0.3c0.8-0.8,0.8-2,1-3c0.2-0.8,0.2-1.5,0.2-2.3c0-3.5,0-7.2,0.2-11.1c0.1-2.7-1-4.8-3.2-6.4
			c-4.2-2.9-8.1-6.2-12.5-8.8c-4.2-2.5-8.7-5.3-13.5-8.4c-3.4-2.2-6-4.7-7.2-8.7c-1.1-3.5-1.6-6.5-1.5-9.1c0.2-4.8-0.1-9.5-1.1-14.1
			c-0.4-1.9-1.3-3.3-2.8-4.2c-5.5-3.5-11.5-7.3-17.9-11.3c-4.2-2.7-8.7-4.5-13.4-6c-3.7-1.2-3.8-4.7-3.3-8.1
			c0.7-4.8,0.6-9.6,1.4-14.3c1.1-6.5,0.5-12.1-0.5-18.5c-0.8-4.8-6.6-7.2-10.8-8.5c-4.2-1.3-8.3-2.5-12.5-3.5
			c-1-0.3-2.2,0.3-3.6,1.8c-0.5-1.6-0.5-2.9-0.1-4c0.5-1.3,0.1-1.8-1.3-1.5l-3.9,0.9c-2.5-0.1-4.2-0.1-5.3,0.1
			c-5.3,0.7-10.3,2.1-15,4.2c-1.5-0.1-3.3,0.3-5.3,1.2c-0.3,0.1-0.6,0.2-1,0.1c-0.9-0.1-1.7-0.1-2.5,0.1c-5.2,1.2-10.6,2.8-16.3,4.7
			c-4.2,1.4-11.1,3.9-14,1.3c-4.4-3.9-10.2-5.7-15.6-7.5c-1.4-0.5-2.9-1.1-4.5-1.9c-1.5-0.8-3-1.5-4.5-2.2c-1.4-1.6-3-2.8-4.8-3.5
			c-2-0.8-4.9-1.8-8.7-2.9c-1.2-0.3-3.8-1.8-7.9-4.4c-4.5-2.9-9.9-4.4-14.4-7.4c-3.1-2.1-6.2-4-9.6-5.4c-5.5-2.2-9.8-5.5-15-8
			c-2.5-1.2-5.2-2.8-8-4.7c-0.8-0.5-2.6-1.1-5.4-1.7c-0.7-0.9-1.8-1.6-3.4-2.2c-5.1-4-9.3-8.7-12.6-14.2c-1.3-2.2-2.4-4.7-3.4-7.3
			c-0.9-2.5-1.2-5.1-1.1-7.9c0.2-4.1,0.7-8.1,1.7-11.8c1.2-4.7,2.4-9.3,2.9-14.2c0.4-4.1,0.7-8,1.1-11.7c0.3-3,0.7-6.1,1.2-9.1
			c0.7-4.2,0.8-8.4,1.7-12.6c1-4.9,1.8-9.2,2.2-12.9c0.6-5.1,1.2-10,1.9-14.9c0.5-3.4,0.9-6.9,1.2-10.3c0.3-3.3,0.6-6.8,0.9-10.4
			c0.4-3.9,0.4-7.6,0.4-11.4c0-1.9,0.1-4,0.3-6.2c0.2-1.5,0.2-3,0-4.4c-0.2-1.4-0.2-2.8-0.3-4.1c0-4-0.1-7.9-0.1-11.9
			c-0.1-4.1,0.2-7.9,0.8-11.6c0.8-5.1,1.4-10.6,2-16.6c0.3-2.8,0.6-5.4,1-7.9c0.3-1.5,0.2-3-0.2-4.5c-0.1-0.4,0-0.7,0.2-1
			c0.1-0.1,0.2-0.3,0.2-0.5c0-0.4-0.2-0.6-0.6-0.6l-1.2,0c-0.3,0-0.6-0.1-0.9-0.4c-2.2-2.3-4-4.9-6.2-7c-3.9-3.8-8.2-7-12-10.7
			c-2.8-2.8-5.9-5.6-8.3-8.7c-1.2-1.6-3-2.6-4.4-4c-4.7-4.7-9.5-9.3-13.8-14.3c-1.7-2-3.5-4-5.4-6c-3.4-3.7-6.5-7.8-9.6-11.8
			c-1.2-1.5-2.5-2.9-3.9-4c-3.3-2.7-6-5.8-9.1-8.5c-2.1-1.9-4.1-3.9-6-6.1c-2-2.2-4-4.2-6.2-6c-1.2-1-2.2-2-3.1-3.1
			c-1-1.2-2.1-2.3-3.2-3.4c-4.3-4-8.4-7.7-12.5-11c-1.9-1.6-3.4-3.7-3.8-6.2c-0.8-4.5-1.6-9-2.4-13.5c-0.4-2.1-0.6-4.3-0.7-6.6
			c-0.1-2.2-0.2-4.4-0.4-6.6c-0.4-4.9-0.8-9.8-0.9-14.5c-0.2-4.8-0.5-9.4-1-13.6c-0.4-2.9-0.7-6-0.9-9.1c-0.2-2.8-0.6-5.8-1.2-8.9
			c-0.9-5.1-1.6-10.1-2.1-15.1c-0.4-3.2,0-6.5-0.4-9.7c-0.3-2.3-0.5-4.6-0.6-6.9c-0.1-2.3-0.2-4.7-0.5-7c-0.7-5.9-1-11.7-0.9-17.4
			c0-0.9-0.1-1.9-0.3-2.8c-0.3-1.3-0.1-2.7-0.3-4.1c-0.7-4.4-1.4-8.9-1.9-13.4c-0.3-3,0.9-5.6,0.1-8.5c-0.2-0.9-0.1-1.7,0.4-2.6
			C166.8,190.7,167.6,190,168.5,189.6z M290.3,485.2c-1.4,9.6-1.9,18.6-1.5,27c0.5,10,0.4,18.8-0.3,26.3c-0.5,5.2-0.1,10.8-0.7,16.1
			c-2,16.2-4.2,32.3-6.7,48.3c-0.2,1.4,0,2.7-0.2,4.1c-0.9,5.8-1.5,11.5-1.9,17c-0.4,5.2-1,9.6-1.9,13c-1.1,4.8-2.1,9.5-2.8,14.1
			c-0.5,3.1,0,6.1,1.3,9.1c2.8,6.2,7.8,14.6,14,17.8c3.5,1.8,6.8,3.8,10,6.1c3.6,2.6,7.9,3.5,11.7,5.8c2.4,1.5,4.8,3,7.3,4.2
			c4.3,2.1,8.4,4.5,12.4,7.4c2.4,1.8,5.3,3,8.1,4c5.4,1.8,9.6,5.5,15,7.1c6.9,2.1,13.3,4.9,19.2,8.4c4.3,2.5,9.4,4,13.9,6.1
			c2.4,1.1,4.5,1.5,5.3-1.6c1.8-6.7,2.9-13.5,3.4-20.6c0.3-4.2,1-9.6,2.1-16.2c0.6-3.3,0.8-6.4,0.7-9.4c-0.1-3.7,0.1-7.2,0.6-10.5
			c0.9-6,0.8-11.9,0.7-18.1c0-0.9,0.1-1.9,0.2-2.8c0.3-2.3,0.5-4.7,1-6.9c0.9-3.8,1.5-7.6,2-11.5c0.3-2.5,0.6-4.9,1-7
			c0.7-3.7,1.7-7.6,1.8-11.4c0-3.7-0.1-7.4,0.3-11.1c0.4-3.8,0.1-7.6,0.5-11.5c0.9-8.4,1.6-17.4,2.2-26.8c0.2-3,0.5-6.4-2.8-8.7
			c-12.4-8.3-25-17.2-38-25.3c-9.7-6.1-19.4-12.3-29-18.7c-3.1-2.1-6.3-4.6-9.6-7.7c-5.5-5.1-11-9.7-16.7-14.3
			c-5.4-4.4-9.9-9-14.4-14.2c-1.3-1.6-2.8-2.2-4.4-2.1c-0.4,0-0.6,0.2-0.9,0.5c-1.1,1.2-1.6,2.5-1.7,3.9
			C291.2,478.1,290.8,481.6,290.3,485.2z M558.9,495.9c-2.5,0.6-4.9,1.4-7,2.4c-6.6,3.1-14,3.7-20.9,6.3c-9.6,3.6-16.2,6.2-19.9,7.9
			c-5.7,2.6-10.6,4.6-14.7,6.1c-6.6,2.4-9.9,3.6-10,3.6c-6.8,2.6-13.5,4.8-20.1,6.7c-5.1,1.5-9.4,4-14.5,5.7
			c-3.4,1.1-7,2.6-10.9,4.3c-5.3,2.4-10.9,4.6-15.9,7.5c-2.3,1.4-4.7,2.5-7,3.4c-4.3,1.6-6.4,4.3-6.9,9.1
			c-0.8,7.1-1.3,13.3-1.4,18.8c-0.2,6.5-1.4,12.8-1.4,19.4c0,8.2-0.3,14.6-0.9,19.1c-0.8,6.1-1.8,12.3-2.9,18.8
			c-1,5.9-2.4,11-2.2,17.2c0,1.4,0,2.9-0.2,4.5c-0.3,3.7-0.2,7.3-0.7,11.1c-0.5,3.6-0.8,7.2-1.1,10.9c-0.2,3.2,0.6,5.9,0.1,9.2
			c-1.2,7-1.9,12.5-2.2,16.6c-0.5,6.8-1.2,13.1-2.1,18.9c-0.5,3.5,0.3,7.3,4.9,6.4c4.8-0.9,9.3-2.6,14.1-3.7
			c9.5-2.2,18.4-4.7,28.4-6.5c2.4-0.4,5-1.3,5.5-4c1.2-5.9,1.8-12.1,1.8-18.6c0-4.1,0.6-8,0.8-12.1c0.1-2.6,0.6-5.6,1.5-9.2
			c1.1-4.6,2.2-9.4,3.3-14.3c1.2-5.3,2.9-10.6,3.7-16.1c1.9-12.2,7.5-23.3,14.6-34.1c2.8-4.2,6.4-7.7,9.5-11.7
			c2.2-2.8,4.8-5.4,7.6-7.9c5.6-4.9,11.2-9.6,16.7-14.2c2.8-2.3,6.1-4.3,9.5-5.3c3.3-0.9,6.2-1.9,8.8-2.8c3.6-1.4,6.6-2.2,8.9-2.6
			c8.1-1.3,17.2,2.1,22.5,8.9c5,6.4,8.1,12.8,9.3,19.1c1.7,8.6,2.3,18,1.8,28c-0.2,4.1-0.2,8.1-0.1,11.9c0.3,7.7,0.2,16-0.4,24.8
			c-0.2,3.1-0.7,6.7-1.5,10.7c-1,4.8-1.5,9.6-1.5,14.4c0,2.4,1.3,4.6,4,3.9c7.1-2,14.3-3.8,21.6-5.5c2.1-0.5,4.2-0.8,6.4-1.1
			c3.7-0.4,10-1.5,11.4-5.4c2.4-6.9,3.9-14.1,4.5-21.5c0.4-5,0.6-7.6,0.6-7.7c0.5-5.9,1-12,1.5-18.4c0.2-3,0.7-6.1,1.4-9.5
			c1-4.7,1.5-8,1.4-9.7c-0.4-6.9-0.2-13.2,0.5-18.8c0.2-1.4,0.3-2.9,0.4-4.3c0.1-1.5,0.2-3,0.4-4.5c0.5-3.3,0.2-6.6,1-9.8
			c0.2-0.6,0.2-1.3,0.2-2c0-1.6-0.1-3.1,0.2-4.8c1-6.6,1.7-13.2,2-19.8c0.3-6,1.3-13.6,2.9-23c0.6-3.7,0.7-7.2,1.2-10.9
			c0.4-2.9,0.5-5.6,0.5-8.3c-0.1-4.3,0.1-8.7,0.8-13.1c0.6-3.9,0.6-7.9,0.5-11.8c-0.1-2.9-1.5-4-4.3-3.3c-3.6,0.9-6.7,1.9-9.5,2.9
			c-6,2.1-12,4.1-17.9,6c-3.7,1.2-7.5,1.6-11.1,2.8c-6,2-12.3,3.6-18.2,5.8c-2.2,0.8-4.4,1.7-6.7,2.6
			C560.9,495.3,560,495.6,558.9,495.9z M567,600.5c-1.1-9-3.9-16.4-9.5-23.5c-3.9-4.9-9.3-7.9-16.2-8.9c-2.6-0.4-5.1-0.1-7.6,0.8
			c-4.4,1.6-8.7,3.1-13.1,4.5c-5.5,1.8-9.1,4.5-13.4,8.2c-5.1,4.4-9.9,8.6-14.5,12.7c-3.7,3.3-6.6,7.2-9.9,10.9
			c-11.8,13.2-18.9,31.2-21,48.6c-0.4,3.3,1.1,5.5,4.4,6.6c8.3,2.9,17.1,5.7,26.4,8.6c3.6,1.1,6.9,2.3,10,3.5
			c6.6,2.5,12.4,4,19.2,4.8c2.4,0.3,5.3,1.1,8.9,2.4c8.5,3.1,17,5.9,25.2,9.2c3,1.2,5,0.4,5.9-2.6c0.7-2.5,1.2-5.6,1.4-9.4
			c0.3-6.2,2.7-12,3.2-18.2c0.3-3.3,0.5-6.7,0.8-10.2c0.3-3.4,0.4-6.8,0.4-10.1c-0.1-7.9-0.1-15.7,0.1-23.4
			C567.8,610.1,567.6,605.3,567,600.5z M502.8,675.1c-1.7-0.7-3.3-1.3-4.8-1.8c-9.9-3.1-19.6-6.2-28.9-9.1c-1.7-0.5-3.4-1-5-1.3
			c-3.1-0.6-4.9,0.9-5.7,3.9c-2.8,10.6-4.1,19.8-3.9,27.7c0.1,2.9-0.1,5.8-0.5,8.8c-0.5,3.2-0.7,6.5-0.8,10c0,3.8,3.8,3.6,6.6,3.2
			c7.5-1,14.4-2.1,22.1-4.9c4.8-1.7,9.3-3.1,13.4-4.2c8.8-2.2,17.7-4.8,26.6-6.2c9.4-1.5,18.2-5.1,27.2-8.6c0.8-0.3,1.2-1.2,0.9-2
			c-0.1-0.2-0.1-0.3-0.3-0.4c-0.8-0.9-1.8-1.6-3-2.1c-6.4-2.4-13.1-4.8-20.1-7.2c-2.1-0.8-4.6-1.3-7.4-1.7
			C513.1,678.5,507.7,677.1,502.8,675.1z M578.3,705.8c1.9-0.7,4.2-1.4,5.9-2.6c1.6-1.1,0.8-3.1-0.8-3.6c-3.6-1.1-7.2-2.4-10.7-3.9
			c-4.8-1.9-9.9-2.6-15.4-1.9c-2.5,0.3-5,0.7-7.5,1.2c-5,1-9.7,3.4-14.5,5.1c-2.4,0.9-5,1.6-7.8,2.1c-17.2,3.2-33.6,7.5-49.5,12.9
			c-4.7,1.6-9.8,2.2-14.8,3.2c-1.3,0.3-1.7,1-1.3,2.1c0.1,0.4,0.4,0.7,0.8,0.8c6.6,1.9,13,4.4,19.1,7.5c2,1,4.5,1.5,6.6,1.3
			c4-0.5,8.4-0.8,13.3-1.2c4.8-0.3,9-0.9,12.5-1.9c6.7-1.8,13.3-4.5,19.8-5.8c4.7-0.9,9.1-2,13.1-3.1c7.3-2,16.3-5.5,26.9-10.4
			C575.5,706.9,576.9,706.3,578.3,705.8z M585.5,720.8c1-3.2,1.6-6.5,1.9-9.8c0.2-3.6-2.1-5.5-5.6-4c-10.2,4.6-20.6,8.8-31.3,12.4
			c-3.8,1.3-8.4,2.5-13.8,3.6c-6.8,1.4-14,3.3-21.8,5.8c-4.3,1.4-9.5,2.1-15.6,2.3c-1.4,0-2.8,0.2-4.3,0.3c-3.3,0.4-7.4-0.3-9,3.5
			c-0.8,1.8-1.1,3.4-0.9,4.6c0.4,3.2,0.5,6.3,0.2,9.1c-0.6,6.8-1.1,13.5-1.5,20c-0.1,1.5,0.4,2.7,1.4,3.6c2.1,1.8,6.2,1,8.4,0
			c4.8-2.2,9.8-4.4,14.9-6.8c4.5-2.1,9.8-4.1,16-6c6.2-2,12.2-4.2,17.7-6.4c1.5-0.6,3.1-1.3,4.7-2c5.1-2.3,10.7-4.8,16.8-7.3
			c4.4-1.8,8.6-3.3,12.7-4.4c2.1-0.6,4.3-1.9,5.1-4.1C582.9,730.5,584,725.7,585.5,720.8z M510.2,787.7c5.3,3.2,10.5,1.6,15.8-0.7
			c8.7-3.9,17.3-7.4,26-11.4c6.9-3.2,14.4-5.4,21.1-9c4.7-2.5,10.3-5.2,16.9-8.2c2.1-0.9,4-1.9,5.8-3c2.8-1.7,3.1-4.6,0.5-6.5
			c-4.6-3.6-13.1-9.5-18.5-7.6c-11.7,4-23.1,8.5-34.4,13.5c-4.2,1.9-8.5,3.2-12.8,4.9c-2.9,1.2-6.1,2.3-9.7,3.4
			c-9.2,2.8-17.4,6.9-26,11c-0.7,0.3-1.2,0.8-1.6,1.5c-0.6,1.1-0.2,2.5,0.9,3.1c0,0,0,0,0,0C499.9,781.7,505.3,784.7,510.2,787.7z
			 M521.9,802.4c-0.1,6.4,0.3,11.6,1.2,15.6c0.7,3.5,3,4.8,6.9,4.1c3.9-0.8,6.5-1.4,8-2c6.2-2.3,12.3-4.3,18.3-6
			c3.6-1,6.8-2.1,9.5-3.4c3-1.3,6-2.7,8.8-4.1c5.5-2.7,13.8-7.4,24.7-14.2c1.2-0.8,2.1-1.6,2.8-2.5c0.9-1.2,1.3-2.6,1.3-4.1
			c-0.1-8.5,0.6-16.9,0.1-25.7c-0.2-3-1.7-5.3-5-3.6c-7.7,3.9-14.9,7.3-21.4,10c-3.7,1.5-8.2,4.6-12.6,6.3
			c-13.4,5-26.6,11.2-39.5,16.7c-2.8,1.2-4.3,2.4-4.1,5.6C521.2,797.7,521.9,800,521.9,802.4z M551.7,841.8
			c4.1,2.7,9.3,1.3,13.5-0.3c9.4-3.7,18.2-8.4,26.9-12.9c12.4-6.3,23.3-15,33.8-23.8c1-0.8,1.1-2.3,0.3-3.2
			c-0.6-0.8-1.5-1.4-2.5-1.8c-5-2-10-3.9-15.1-5.4c-2.6-0.8-5.5-1-7.9,0.4c-11.6,7-23.9,13.3-36.9,19.1c-1.5,0.7-3.1,1.2-4.6,1.6
			c-5.9,1.5-11.2,3.2-16,5.2c-3.7,1.5-7.5,2.6-11.2,3.7c-1.6,0.5-2.6,2.4-1.2,3.8c1.2,1.2,2.5,2.3,3.9,3.1
			C540.5,834.6,546.1,838.1,551.7,841.8z M635.4,823.7c0.3-4,0.3-8.7,0-14.3c-0.2-4.6-3.9-5.2-7.1-3c-2.9,2-5.7,4.3-8.4,7.1
			c-1.3,1.3-2.7,2.3-4.1,3.2c-3.9,2.2-7.5,4.5-10.9,6.9c-3.2,2.3-6.3,4.1-9.4,5.6c-7.3,3.5-14.5,7.6-21.9,10.9
			c-3.2,1.5-6.7,3-10.3,4.5c-1.7,0.7-3,2.2-2.8,4.1c0.4,4.2-1.1,7.4-1.3,11.5c-0.2,3.2-0.2,6.1-0.2,8.6c0,0.8,0.1,1.6,0.2,2.4
			c0.7,4,5.3,1.8,7.3,1c1.2-0.5,2.4-1.1,3.5-1.8c7.1-4.4,14.4-8.6,21.7-12.6c1.6-0.9,4.1-2.6,7.7-5.3c1.1-0.8,3.4-2,7.2-3.7
			c2.8-1.3,5.2-2.5,7.2-3.7C621.5,840.6,634.7,833.9,635.4,823.7z"/>
		<path class="st12" d="M748.9,211.5c0,1.6-1.1,2.3-1,3.7c0,0.8,0.3,1.7,0.8,2.7c-2.2-0.9-4.3-1-6.2-0.2c-5.7,2.1-11.2,4.3-16.5,6.7
			c-4.2,1.8-8.4,2.8-12.8,4.8c-7.5,3.5-15.9,5.6-23.4,9.3c-6.8,3.4-13.9,5.8-20.8,8.9c-4.9,2.2-9.7,4.2-14.4,6
			c-4.3,1.6-8.1,4.1-12.5,5.6c-7.4,2.4-13.9,5.8-20.8,9.1c-3.4,1.7-6.9,3.6-10.6,6c-3.3,2.1-6.8,4.2-10.5,6.5
			c-2.7,1.6-5.4,3.7-8,6.1l0.2-5c0.9-0.5,1.9-0.8,3.1-1.2c1.2-0.3,2.3-0.8,3.2-1.4c5.1-3.4,10.2-6.7,15.3-9.9c1.6-1,3.3-1.9,5-2.6
			c4.4-1.8,8.6-3.8,12.5-5.8c2.5-1.3,5.2-2.4,7.9-3.3c2.9-0.9,5.5-2,7.9-3.3c2.4-1.2,4.9-2.4,7.7-3.5c3.8-1.5,5.7-2.2,5.8-2.2
			c5-2.2,9.7-4.1,14.1-5.9c4.4-1.8,9.1-3.8,14-6.1c6-2.8,11.9-5.1,17.7-7c3.4-1.1,6.1-3,9.5-4.2c3.4-1.2,6.7-2.5,9.8-3.9
			C733.5,218.2,741.2,214.8,748.9,211.5z"/>
	</g>
</g>
</svg>
