<?xml version="1.0" encoding="utf-8"?>
<!-- Generator: Adobe Illustrator 28.3.0, SVG Export Plug-In . SVG Version: 6.00 Build 0)  -->
<svg version="1.1" id="Layer_1" xmlns="http://www.w3.org/2000/svg" xmlns:xlink="http://www.w3.org/1999/xlink" x="0px" y="0px"
	 viewBox="0 0 878.9 1098.8" style="enable-background:new 0 0 878.9 1098.8;" xml:space="preserve">
<style type="text/css">
	.st0{fill:#279F6D;}
	.st1{fill:#C6615C;}
	.st2{fill:#2F2521;}
	.st3{fill:#BFDFB8;}
	.st4{fill:#ECCA63;}
	.st5{fill:#857348;}
	.st6{fill:#EA5006;}
	.st7{fill:#EC7274;}
	.st8{fill:#CE414A;}
	.st9{fill:#2CB280;}
	.st10{fill:#A9C69D;}
	.st11{fill:#695A2C;fill-opacity:0.42;}
	.st12{fill:#F28A75;}
</style>
<g>
	<g>
		<path class="st0" d="M425.8,379.4c1.2-9.5,2.1-21,2.7-34.5c0.7-16.6,1.9-32.8,3.7-48.6c0.2-2.1,1.7-3.4,4.3-3.9
			c5-1,10-1.3,14.9-1.1c2.5,0.1,5,0.1,7.5-0.1c2.4-0.2,4.7-0.2,6.7,0.1c5.3,0.6,10.3,0.6,14.8,0.1c11.9-1.5,23.5-1.9,34.8-1.4
			c5.9,0.3,11.7,0.7,17.8,0.5c4.8-0.2,19.6-4.5,18.9,5.2c-0.2,2.8-0.1,6.3,0.3,10.6c0.4,4,0.5,7.5,0.5,10.5c-0.1,4.6,0.2,9.3,0,13.9
			c-0.3,7.8-0.2,15.6,0.2,23.4c0.1,2.3,0.1,4.6,0,6.7c-0.2,3.2-0.3,5.4-0.2,6.7c0.3,5.6,0.4,11.2,0.2,16.9
			c-0.4,11.8-0.4,23.5-0.4,35.3c0,3.4-0.4,8.2-5.3,7.4c-5.4-0.9-10.7-1.7-15.9-2.3c-5.4-0.7-12.1-0.6-20.3,0.3
			c-7.5,0.8-15.4,0.1-23.8-2.1c-1.9-0.5-3.8-0.8-5.8-1.1c-7.5-0.8-15-1.5-22.5-2.1c-4-0.3-7.8-1.3-12-1.3c-6.7-0.1-13.7,0-20.9,0.1
			c-2.2,0.1-4-1.7-4.1-3.8C421.4,402.8,424.3,391.1,425.8,379.4z"/>
		<path class="st0" d="M493.1,580.2c-6.3,0.1-12.3-0.2-18.1-0.9c-4.7-0.6-8.8-1-12.5-1.1c-4.9-0.2-9.3-0.6-13.1-1.3
			c-4-0.7-8-1.5-12.2-2.4c-6.2-1.3-12.6-1-19-1.9c-10-1.5-19.4-2.7-28.2-3.4c-2.3-0.2-4.6-0.2-7-0.1c-4.4,0.2-12.6-1.6-15-5.8
			c-1.6-2.8-1.6-6.5-1.4-9.7c0.2-2.4,0.3-4.8,0.3-7.1c0.1-4.8,0.3-9.4,0.1-14.3c-0.3-6.6-1-13.1-1.1-19.6c-0.1-6.2-0.6-12-0.3-18.2
			c0.2-5.2,1-10.4,0.5-15.5c-0.5-4.9,0.6-10.1,1.7-14.8c2-8.3,7.7-7.6,14.5-7.3c4.4,0.2,8.5-0.9,12.9-0.9c3.7,0,7.2,0,10.8-0.2
			c8.2-0.4,17.3-0.8,25.4,0.6c5,0.9,9.4,1.5,14.6,1.1c11.7-1,23.7-1.4,35.9-1.4c7.3,0,14.1,1,21.6-0.2c1.8-0.3,3.7-0.4,5.7-0.2
			c3.2,0.2,3.8,4.3,3.3,6.8c-0.5,2.9-0.2,5.6-0.6,8.5c-0.7,5.9-1.3,11.8-1.7,17.6c-0.3,4.3-0.1,8.6-0.5,13c-0.3,3.3-0.6,6.7-0.9,10
			c-0.7,8.6-0.5,17.1-0.7,26c-0.2,12.3-1.1,22.2-2.5,29.8c-0.7,3.7,0,7.9-2,11.3C501.6,582.1,496.5,580.2,493.1,580.2z"/>
		<path class="st0" d="M644.3,486.5c-1.1,8.1-2.3,16.5-3.5,25.4c-1.1,8.3-2.2,16.7-3.2,25.2c-0.3,2.7-0.1,5.4-0.5,8.1
			c-1.1,8.2-2.2,16.3-3.3,24.2c-0.2,1.8-0.4,3.6-0.4,5.5c-0.1,4.8-0.6,8.7-6.2,9.2c-6.1,0.5-12.2,0.3-18.5,0.5c-8.9,0.2-18-0.2-27,0
			c-5.6,0.1-12.3-0.7-18.1-0.4c-2.8,0.1-5.2,0.1-7.3-0.1c-3.2-0.3-6.5-0.3-9.8-0.7c-3.3-0.4-6.7-0.6-10-0.6
			c-4.1-0.1-8.3-0.5-12.7-1.2c-3.8-0.7-7.6-0.3-11.3-0.8c-4-0.5-4.7-3.5-4.4-7.2c0.8-8.4,1.6-17,2.3-26c0.3-4.5,0.5-8.7,0.5-12.7
			c0-5.7-0.1-11.1,0.4-16.8c0.5-6.2,1.1-12.3,1.7-18.4c0.2-2.5,0-5,0.4-7.4c0.8-5.9,1.6-11.9,2.5-17.9c0.6-3.6,0.8-7.7,0.7-12.3
			c0-2.3,0.8-5.1,3.2-5.8c2.4-0.7,4.8,0.3,7.2,0.2c5.4-0.1,10.8,0.1,16.3,0.7c5.9,0.6,10.6,1,14.2,1.2c10.2,0.4,20.5,1.3,31.1,2.8
			c7.2,1,14.2,1.9,21.4,2.1c11.3,0.3,22,1.1,32.1,2.5c2.8,0.4,4.2,2,4,4.9C645.5,475.9,645,481.3,644.3,486.5z"/>
	</g>
	<path class="st1" d="M531.6,651.9c2.8-0.3,5.8-0.8,9-1.3c4.2-0.7,8.2,0.2,12.5,0.1c3.5-0.1,8.2,0.2,14.1,0.7
		c4.3,0.4,9.4,0.2,15.1-0.5c3.1-0.4,6.2-0.6,9.3-0.7c3-0.1,6.2-0.3,9.6-0.5c3.3-0.2,5.7,1,6.8,4.2c2.5,7.7,5.9,17.3,10.1,28.5
		c1.2,3.1,2.2,6.3,3.2,9.5c1.1,3.5,1.8,6.6,2.4,9.3c0.8,4.3,1.3,8.8,1.3,13.3c0,3.7,0.3,7.5,0.8,11.2c0.7,5.3,1.7,10.5,2,15.9
		c0.2,3.1,0.5,6.3,1.1,9.5c0.6,3.1,1,6.2,1.3,9.5c0.3,3.7,0.7,7.5,1.2,11.4c0.6,4.9,1,9.7,1.4,14.5c0.2,3.4,0.5,6.6,0.9,9.7
		c0.4,3.3,0.5,6.4,0.4,9.4c-0.3,8.5-0.5,16.8-0.8,25c-0.1,2.4-0.3,4.7-0.6,7.1c-0.5,3.4-0.6,6.9-1.3,10.3c-1,5-1.6,9.2-1.9,12.8
		c-0.4,4.9-1.3,9.6-1.4,14.4c-0.1,6.9-0.8,14.2-2.3,21.9c-0.5,2.5-1.5,4.9-2,7.4c-0.6,3-1.8,5.5-3.5,7.5c-3.8,4.3-7.6,8.2-13.1,10.8
		c-8.8,4.2-15.4,7-23.7,7.4c-4.2,0.2-8.3,0.2-12.5,0.8c-6,0.8-12.5,0.5-19.3-1.1c-4-0.9-8.1-1.7-12.3-2.4
		c-8.8-1.4-23.5-6.3-26.1-16.3c-2.2-8.7-3.4-17-3.4-24.8c0-3.8-0.7-7.4-0.6-11.3c0.1-4.4,0.4-8.5,0.8-12.3c0.5-3.9,0.7-7.8,0.8-11.7
		c0-7.6,0.1-15.3,0.3-23.2c0.1-2.7,0.2-5.4,0.4-7.9c0.2-2.4,0.2-4.7-0.1-7.1c-0.2-2.4-0.3-4.6-0.1-6.8c0.2-2.8,0.4-5.6,0.7-8.4
		c0.3-2.9,0.4-5.7,0.5-8.4c0.1-4.7,0.3-9.5,0.6-14.6c0.3-7.4,0.4-15,0.3-22.8c-0.1-4.9,0.4-10.7,1.3-17.6c0.4-2.6,0.4-5.2,0.1-7.9
		c-0.4-4.7-0.4-9.7,0.1-15.2c0.4-4.6,0.7-9.1,1-13.6c0.2-3.4,1.1-6.6,2-9.8c0.5-1.9,0.9-4.3,1.2-7.1c0.2-2.4,0.5-4.8,0.7-7.2
		c0.3-2.7-0.4-5.3-0.5-8c0-3.7,0-7.2,0-10.5c0.1-3.7,5.2-3.9,7.7-3.5C528.6,652,530.1,652.1,531.6,651.9z"/>
	<g>
		<path class="st2" d="M531.2,47.1c7,7.1,13.2,14.8,18.6,23.2c0.5,0.8,1.4,1.3,2.7,1.6c0.5,0.1,0.9-0.1,1.3-0.6
			c0.3-0.4,0.3-0.9,0-1.3c-4.5-6.6-9.2-13.3-14.6-19.3c-3.2-3.5-5.3-5.9-6.2-7c-2.2-2.7-4.5-5.4-7-8.3l-4.3-9.5c0.8-4.8,3-7.5,6.7-8
			c7.8-1.2,17,5.7,22.8,10.8c2.6,2.3,5.5,6,8.7,11.1c5,8.2,10,16.2,14.8,24.2c4,6.5,6.3,13.5,11.4,19.5c2.3,2.7,4.4,5.7,6.2,9.1
			c0.5,0.9,1.4,1.8,2.3,2.2c0.8,0.3,1.5,0,1.9-0.8c0.4-0.8,0.3-1.7-0.2-2.4l-6.5-9.2c1.6-0.4,2.1-1.2,1.5-2.4
			c-3.6-7.6-7.7-14.8-12.3-21.8l-5-6.5c-0.5-2.7-1.1-5.4-1.7-8c-0.8-3.3-1-5.5-0.9-6.8c0.4-2.8,2.4-4.6,5.9-5.2
			c5.7-1,11.4,0.1,15.1,4.9c4,5.3,8.6,10,12.3,15.4c5.5,8,10.2,16.5,14.1,25.4c2.8,6.4,8.3,12.4,11.5,18.4c1.8,3.4,3.4,6.7,5,9.9
			c2.2,4.6,7.8,10.5,10.5,16.6c1,2.2,2.2,4.5,3.7,6.8c1.9,3,3.3,6,4.2,9c1.7,5.7,3.2,11.2,4.7,16.5c0.6,2.2,1.8,4.9-0.5,6.7
			c-4.8-4.5-10.1-8-15.8-10.6c-1.2-0.5-2.3-1.1-3.4-1.6c-2.9-1.4-5.4-3.1-8.7-3.9c-2.4-0.6-4.7-1.3-6.9-2.1
			c-2.1-0.8-4.4-1.2-6.9-1.4c-3.7-0.2-7.5,0-11.3,0.6c-4.5,0.8-8.8,1.9-13.3,2.4c-2.7,0.3-5.6,0.7-8.5,1.1c-5.1,0.8-9,3.1-13.4,5.3
			c-2.9,1.5-8,3-10.7,5.4c-5.1,4.4-10.3,8.7-15.6,13c-2.9,2.3-5.7,4.1-8.1,7.1c-7.6,9.1-12.9,20.2-11.5,32c0.4,3.5,0.6,7,0.5,10.5
			c-1.1,0.2-1.8,0-2.2-0.6c-4.8-7.8-9.8-15.5-14.8-23.2c-1.1-1.7-2.3-4.1-3.8-7.4c-3.1-7-6.6-13.4-10-20.4
			c-1.7-3.6-3.9-6.8-6.1-10.1c-1.5-2.2-2.9-5.9-4.5-11.1c-1.7-6-3.5-12.1-4.7-18.2c-1.4-6.7,1.9-11.1,9.2-11.3l1,0.5
			c3.9,2.3,7.5,5.7,10.9,10c1.4,1.8,2.6,1.9,3.5,0.1c3,5.2,6.1,10.3,9.2,15.4c0.6,1,1.4,1.4,2.4,1.1c0.7-0.2,1.1-0.9,0.8-1.6
			c0,0,0,0,0-0.1c-0.7-1.9-1.5-3.5-2.4-4.9c-3.5-5.2-7.1-10.9-10.7-17.1c-2.4-4.1-4.4-8.5-7.1-12.5c-5.8-8.6-11.2-18.4-16.1-29.2
			c-2-4.4-3.8-10.8-5.4-19c-0.3-1.5-0.4-4.5,0.2-5.9c1.3-3,3.5-4,6.8-3.1c2.9,0.8,6,2.7,9.1,5.7L500,68.3c1.4,3.1,3.1,6.1,5,8.8
			c3.1,4.5,6.4,9.3,10,14.2c4.9,6.7,7.9,14.1,12.5,20.9c1.2,1.8,2.2,3.6,3.1,5.4c0.4,0.8,1,1.3,1.8,1.6c0.9,0.3,1.8-0.1,2.2-0.9
			c0-0.1,0.1-0.3,0.1-0.4c0.4-2.7-3.3-5.9-4.7-8.3c-3.1-5.7-6.3-11.4-9.5-17.1l1.5,0.7c0.6,0.2,1.2,0,1.5-0.6c0.1-0.2,0.1-0.5,0-0.8
			c-0.7-2.4-4.1-5.7-5.8-7.7c-1.2-1.4-2.8-3.3-4.8-5.9c-2-2.5-4.2-5.1-6.6-7.5l-3-4.3c-1.2-2.3-2.5-4.6-3.9-6.9
			c-4.1-6.7-7.2-14-10.7-21.1c-3.6-7.2-6.7-17.9-4.1-25.4c1.4-4,5.7-4.8,9.2-3.4c4.8,2.1,8.9,5.4,12.3,9.9c3.3,4.5,6.4,8.9,9.3,13.2
			c3.5,5.2,7,11,10.5,17.4c4.1,7.4,9.7,16,14.2,24.5c1.2,2.3,3.3,5.3,6.2,9.1c4.9,6.3,9.6,13.3,13.9,19.9c0.7,1.1,1.3,2,1.8,2.7
			c1.5,2.1,2.8,2.7,3.9,1.6c0.7-0.7,0.8-1.4,0.3-2.2c-4.3-6.6-7.5-13.2-11.4-19.8c-2.7-4.5-5.4-9-8-13.5c-1.9-3.4-4.7-7.4-8.4-12.1
			C536.2,57.5,533.8,53.1,531.2,47.1z"/>
		<path class="st2" d="M311.2,320.3c3.7,4.5,6.9,9.4,9.4,14.7c2.1,4.3,3.7,7.4,4.9,9.4c2.6,4.3,5.2,8.6,7.8,12.9
			c5.6,9.3,11.3,18.4,17,27.4c1,1.9,2,3.6,3.1,5.1c2.6,3.7,5.2,7.2,7.8,10.5c5.2,6.6,12.9,8,20,11.7c2.6,1.4,5.4,2.6,8.4,3.6
			c2.4,0.8,5.4,1.4,8.9,1.8c3.4,0.4,6.5,0.6,9.5,0.9c2.5,0.2,3.7,1.3,3.6,3.4c-5.3,4-10.6,8.1-15.8,12.2c-3.3,2.6-6.8,3.7-10.1,6
			c-7,4.9-12.6,10.2-16.9,15.9c-2.3,3.1-3.7,7.2-4.1,12.3c-0.4,5.5-0.6,11.4-0.5,17.8c0.1,8.3-1,16.6,0.1,25
			c0.5,3.4,0.1,6.8,0.5,10.2c0.5,4.6-0.1,9.1,0.5,13.6c0.2,1.8,0.3,3.6,0.1,5.3c-0.2,1.8-0.3,3.8-0.3,6c0,2-0.3,4.1-0.8,6
			c-3.8,2.6-11.5,0.5-12.6-3.9c-0.5-1.7-0.4-3.4,0.1-5.3c0.8-3,1.1-6.3,0.8-9.6c-0.2-2.7-0.2-4.9,0.1-6.5c0.7-3.8,2.1-7.7,1.8-11.7
			c-0.3-4-5.2-4-8-4c-4.4,0-7.4-2-8.5-6.7c-1.3-5.2-1.4-10.2-0.5-14.9c1-4.9,2.3-9.7,4-14.5c2.5-7.1,4.7-13.8,6.6-20.1
			c2.3-7.4,2.7-14.5,1.3-21.3c-0.8-3.8-3-6.7-6.5-8.6c-6.6-3.5-16.1,5.1-20.7,9.2c-4.1,3.6-9.6,6.2-13.2,0c-2.2-3.8-3-7.8-2.5-12.1
			c0.7-5.4,0-10.7,0.7-16.1c0.4-3,0-6,0.4-9.1c0.3-2.3,0.1-4.6,0.4-7c0.4-3.1,0.6-6.2,0.6-9.4c0-3.7,0.2-6.8,0.4-9.4
			c0.5-5.3,0.6-11.1,0.5-17.2c-0.1-3.6,0.6-7,0.3-10.5c-0.2-2.5-0.3-6.2-0.3-11.2C309.2,327.7,309.8,323.6,311.2,320.3z
			 M359.2,426.3c2.3,0.8,5.1-1,6.2-4.2l0,0c1.1-3.1,0.2-6.4-2.2-7.2c0,0,0,0,0,0c-2.3-0.8-5.1,1-6.2,4.2c0,0,0,0,0,0
			C355.9,422.3,356.9,425.5,359.2,426.3z"/>
		<path class="st2" d="M347.1,435.5c-2.1-7.2-6.7-9.5-13.6-6.8c1.3-1.1,2.8-1.6,4.6-1.7C343.4,426.9,346.4,429.7,347.1,435.5z"/>
		<path class="st2" d="M251.4,549.9c-2.9,2.8-6.1,5.1-8.8,8c-2.8,3-5.6,5.9-8.5,8.8c-2.1,2.1-4,4.2-5.7,6.4
			c-3.6,4.6-7.5,8.2-11.4,12.5c-1.9,2.1-3.7,4.2-5.6,6.4c-5.3,6.2-13.1,6.8-20,10.8c-2.6,1.5-5.3,3-7.8,4.3c-3,1.1-5.8,2.2-8.6,3.3
			c-0.9,0.4-2.1,0.6-3.5,0.6c-1.1,0-2.3-0.1-3.5-0.3c-4.4-0.9-9-1.5-14-1.8c-2.9-0.2-7.6-1.5-8.6-4.6c-0.8-2.5,2-4.5,4.1-5.2
			c3.7-1.4,7.4-2.7,11-4c3.1-1.1,7.8-5.2,5.2-9c-2-2.8-8.4-2.6-11.4-2.5c-3,0.1-7.9-1.1-7.4-5c0.3-2,2.8-2.7,4.5-3
			c3-0.4,5.7-0.8,8.8-0.4c3.3,0.4,6.3,0.4,9.1,0c1.8-0.3,3.2-1.2,4.3-2.8c2.1-3.2-0.8-6.9-3.3-8.7c-2.3-1.7-5.8-3.1-10.4-4.2
			c-3.8-0.9-7.4-5.2-5.1-9.1c2.3-3.7,8.3-1.6,11.5,0.2c3.5,2,9.5,6.8,13.8,5c2-0.9,2.8-3.2,2.2-5.2c-1.4-4.5-4.8-7.7-8.1-10.9
			c-3.2-3-5.1-7.9-3.2-12.2c3-6.7,10.5-2.9,14.4,0.1c2.8,2.1,3.9,5.5,6.5,7.7c6.5,5.3,13.6-2.6,10.1-9.3c-1.9-3.6-4.4-7.1-5.7-11.1
			c-1.7-5.1-2.5-9.2-2.6-12.3c-0.1-6,2.5-13.6,9.4-14.3c3.8-0.4,7.2,1.1,10.2,4.6c4,4.5,8.2,9,12.5,13.6c2.2,2.3,4.3,5,6.3,8
			c2.5,3.8,5.6,7,8.1,10.8c2.9,4.2,6.1,9.5,9.7,15.9C251.7,544,252.2,547,251.4,549.9z"/>
		<path class="st2" d="M346.9,514.4c3.7,0.2,5.2,2.2,4.5,6.3C351.1,517.5,349.6,515.4,346.9,514.4z"/>
		<path class="st2" d="M199.1,526.4c1.2,3.7,0.4,5.7-2.4,6.2c-1.1,0.2-2.1,0-2.9-0.6c-1-0.7-1.6-1.5-2-2.5
			C196.2,533.1,198.7,532,199.1,526.4z"/>
		<path class="st2" d="M175.6,545.1c1.8,1,5,5.4,1.6,6.7c-1.7,0.7-3.2,0.2-4.4-1.3c1,0.2,1.7,0.2,2.3,0.2c1.3-0.1,2.2-1.3,2-2.5
			c0-0.3-0.1-0.6-0.3-0.9L175.6,545.1z"/>
		<path class="st2" d="M165.8,565c2,0.2,3.4,1.3,4.3,3.4c0.4,1,0.1,2.1-0.8,2.7c-1.5,0.9-2.9,1.1-4.3,0.6c0.8-0.3,1.5-0.6,2.2-0.9
			C170.2,569.1,168,566.3,165.8,565z"/>
		<path class="st2" d="M156.3,586.7c1.7-0.2,3,0,4.2,0.8c0.8,0.5,1.1,1.6,0.5,2.5c-0.1,0.2-0.2,0.3-0.4,0.4c-1,0.8-2,1.3-3,1.2
			C160.5,589.5,159.5,587.3,156.3,586.7z"/>
		<path class="st2" d="M263.1,714.6c0.4,1.4,0.8,2.6,0.8,4.1c0.3,5.4,1.7,10.4,4.4,15.2c3.6,6.5,10.4,10.1,14.8,15.9
			c0.5,0.7,2,1.9,4.5,3.6c5.9,4,11.6,8.1,17.2,12.3c3.1,2.3,5.7,4,7.8,5.2c3.1,1.7,6,3,8.7,3.9c2.3,0.7,4.8,1.4,7.2,2.1
			c1.9,0.5,3.9,0.9,5.8,1.2c1.9,0.3,3.9,0.5,6,0.8c2.3,2.2,3.6,5.1,3.9,8.8c0.8,9.1,1.9,17.8,1.4,27.3c-0.3,5.1-0.4,8.9-0.4,11.3
			c0,6.1,0.2,12.3-0.7,18c-1.2,7.5-2.8,15.1-4.8,22.7c-1.2,4.6-4.5,11.5-9.9,11.8c-2.6,0.1-4.2-2.3-5.1-4.4
			c-1.4-3.3-2.1-6.7-1.9-10.3c0.4-8.2-0.9-17.4-1.9-26.1c-0.7-5.9-2.7-12.6-5.9-20.1c-0.9-2.1-2.1-3.7-3.5-5
			c-2.7-2.4-7.2-4.3-10.3-1.5c-3.3,3-4.6,7.7-6.6,11.6c-1.1,2.1-2.4,4.3-3.9,6.6c-4.1,6.4-8.1,13-11.9,19.8c-2.1,3.8-5,7.1-6.8,11.1
			c-2.1,4.8-4.2,10.1-9,12.8c-4.3,2.3-6.6-2.2-6.2-5.7c1-8.9,3.2-18.3,6.6-28c1.7-5,4.2-9.9,6.3-14.7c2-4.6,5.9-11,7.7-17
			c0.6-2.1,0.3-3.7-1-4.7c-0.3-0.3-0.8-0.4-1.2-0.3c-1.2,0.2-2.1,0.6-2.9,1.5c-4.2,4.4-8.4,10-12.6,16.8c-3.3,5.4-6.9,10.5-9.9,15.8
			c-2.5,4.4-4.9,8.3-7.3,11.8c-5.8,8.5-11.9,18.1-18.2,28.8c-1.9,3.2-5.3,7.4-9.3,7.2c-3-0.1-4.6-1.7-4.6-4.7
			c-0.1-5.6,1.2-10.9,3.9-16.1c4-7.6,7.3-14.4,10-20.3c2.3-5,5.4-9.6,7.5-14.8c1.7-4.1,4.1-7.8,6.5-11.4c3.3-4.9,5.4-10.3,8.9-14.6
			c1.9-2.3,7-8.4,7-11.1c0-0.9-0.7-1.6-1.7-1.6c-0.3,0-0.5,0.1-0.7,0.2c-2,1-3.8,2.4-5.4,4.3c-5.4,6.2-10.4,12.8-15,19.9
			c-4,6.3-9.3,11.5-13.6,17.5c-5.3,7.4-10.3,14.5-15,21.5c-2,3-6.3,6.3-9.6,3.4c-4.1-3.8,2.4-16.9,4.7-20.8
			c4.8-8.1,10.3-16.1,16.1-23.6c7.7-10,16-20.6,24.9-31.6c1.3-1.7,6.4-8.2,6-10.7c-0.1-0.9-1-1.6-1.9-1.4c-0.3,0-0.5,0.1-0.7,0.3
			c-3,2.1-4.8,5.1-7.5,7.5c-3.1,2.8-5.7,6.2-8.8,9.2c-5,4.9-9.8,9.9-14.6,15.2c-4.5,5-10.2,1.6-8.4-4.8c1.8-6.3,3.9-11.1,6.4-14.2
			c6.7-8.6,13.2-17.3,19.5-26.2c2.1-3,4.7-6.1,7.7-9.5c5.9-6.6,11.2-13.5,16.1-20.9l7.8-10.7C260.9,715.2,261.8,715.2,263.1,714.6z"
			/>
		<path class="st2" d="M238.9,739.3c-0.3,1.8-1.3,3.1-3,4L238.9,739.3z"/>
		<path class="st2" d="M220.6,798.8c0-0.3,0-0.7,0-0.9c0-0.4-0.2-0.6-0.4-0.8c-0.4-0.2-0.8-0.2-1.3,0l5-4.3c0.3-0.3,0.6-0.2,0.8,0.1
			c0.1,0.1,0.2,0.3,0.2,0.5c0,0.2-0.1,0.3-0.2,0.5C223.4,795.6,222.1,797.3,220.6,798.8z"/>
		<path class="st2" d="M270.2,817.4c0.2-0.7,0.2-1.3,0-1.8c-0.2-0.6-0.6-0.9-1.1-0.9c-0.4,0-1,0.2-1.6,0.6c0.5-1.6,1.5-2.8,2.9-3.6
			c0.6-0.3,1.3-0.1,1.6,0.4c0.1,0.2,0.1,0.4,0.1,0.6C272.1,814.4,271.5,816,270.2,817.4z"/>
		<path class="st2" d="M310.7,818.9c-3.3-3.7-6.5-3.7-9.6,0c0.6-2.3,2.2-3.5,4.5-3.6C308.2,815.1,309.9,816.3,310.7,818.9z"/>
		<path class="st2" d="M230.9,824.3c-0.3-1.5-1.2-1.8-2.6-0.9c1.4-2.7,3.2-4.7,5.3-6.1c0.8-0.5,1-0.3,0.7,0.5
			C233.5,820.1,232.4,822.3,230.9,824.3z"/>
		<path class="st2" d="M493.3,905.1c-1.1,1.6-2.1,3.3-3.2,4.9c-3.2,4.8-8.6,10.1-10.7,13.7c-3.3,5.9-6.7,11.5-10,16.9
			c-1.7,2.8-3.3,6-4.7,9.4c-3.3,8.2-8.9,17.4-11.1,26.2c-1,3.8,0.5,6.1,4.4,6.8c5.4,1,12,2.4,19.7,4.2c9.3,2.2,19.1,3.8,29.4,5.1
			c3.3,0.4,6.6,0.9,9.9,1.5c4.4,0.8,8.8,1.6,13.1,2.8c5.6,1.5,11.2,2.9,16.9,4.1c3.1,0.7,6.1,1.1,9.1,1.3c4.2,0.3,8.2,0.9,12.4,1.1
			c4.1,0.1,8.3,0.5,12.5,1c2.5,0.3,5.2,0.5,8.3,0.5c2.8,0,5.5,0.1,8.2,0.2c3.4,3.6-0.6,6.2-3.5,7.3c-3.2,1.2-6.5,2.1-9.6,3.6
			c-5.1,2.5-10,4.6-14.5,6.3c-4.2,1.5-8.1,3.2-12,4.9c-4.5,2.1-9.4,3.7-14.4,4.8c-3.4,0.7-6.8,1.5-10,2.4c-6.4,1.7-13.1,3-19.6,5.5
			c-5.5,2.1-10.6,3.9-15.6,7.5c-8.2,6.1-15,11.9-20.2,17.6c-6.4,6.9-13.7,12.5-20.3,19c-5.2,5.1-11.2,6.3-18.1,3.5
			c-6.3-2.6-5.2-11.3-3.2-16.4c2.3-5.7,5.6-10.9,10.1-15.4c2.6-2.7,5.3-5.5,8.3-8.3c3.1-3,13.6-14.8,12.6-18.9
			c-0.2-1-1.1-1.7-2.1-1.7c-7.4,0-16.7,6.1-22.2,10.5c-2.1,1.6-4.3,3.2-6.7,4.7c-4.4,2.8-7.8,6.7-11.8,9.9c-2.8,2.3-5.1,4.8-7.7,7.1
			c-3,2.7-10.3,3.2-9.8-2.8c0.3-4.1,2.9-7.7,5.5-10.9c3.4-4.4,7.4-7.8,10.9-11.9c3.2-3.7,7.4-6.5,10.2-10.2c1.9-2.6,1-6-2.3-6.9
			c-3.3-0.9-6.8,0.8-9.8,2.5c-4.9,2.8-9.6,5.5-13.9,8c-2.5,1.4-5.2,3.7-8.2,6.9c-2.7,2.9-6.2,4.6-10.1,5.4c-4.3,0.9-5.2-3.1-3.9-6.2
			c0.5-1.2,1.3-2.4,2.4-3.5c3.7-3.8,7.1-7.2,11.5-10.7c4.1-3.2,7.7-6.6,11-10.2c1.5-1.7,1.8-3.3,0.6-5c-2.1-3.1-7-1.2-9.8,0.1
			c-7.3,3.6-13.3,7.7-18.2,12.3c-2.8,2.7-6.1,5-9.2,7.2c-1.1,0.8-2.3,1.1-3.6,1c-1.1-0.1-1.7-0.7-1.8-1.8c-0.1-1.5,0.4-2.8,1.6-4
			c5.9-6.2,12.1-11.7,18.5-16.6c2-1.5,5.4-4.4,6-6.8c0.5-2.5-0.4-3.8-2.9-3.9c-1.9-0.1-3.7,0.5-5.5,1.9c-3.6,2.8-6.9,5.8-11.3,7.5
			c-2,0.8-3.8,2-5.5,3.7c-3.2,3.2-9.1,1.4-6.2-3.8c1.4-2.4,3.1-4.4,5.2-6.2c4-3.4,8.1-7,12.2-10.9c2.5-2.3,5.3-4.5,8.4-6.6
			c2.9-1.9,5.9-4,9-6.3c5-3.6,9.9-7,14.7-10.2c4.4-2.9,8.5-5.9,12.4-9.2c7.3-6.2,14.7-11.3,21.9-17.3c3.2-2.6,6.5-5.1,10-7.4
			c4.9-3.3,9.8-6.7,14.6-10.3l2.9-2c2.7-1.3,6.1-3.1,10.3-5.5C487.2,907.2,490,906,493.3,905.1z"/>
		<path class="st2" d="M379.6,1004.6c0.2-0.5,0.3-1,0.1-1.3c-0.2-0.6-0.7-0.8-1.6-0.7c1.8-1.4,3.3-2.3,4.4-2.7
			c2.4-0.8,2.8-0.2,1.2,1.7C382.9,1002.6,381.5,1003.6,379.6,1004.6z"/>
		<path class="st2" d="M403.1,1011.4c0.5-0.8,1.3-1.6,1.1-2.6c-0.2-1-0.9-1.4-2.1-1.2c-0.6,0.1-1.2,0.2-1.8,0.3c1.1-1,2.7-1.7,4.8-2
			c0.6-0.1,1.2,0.2,1.5,0.7c0.4,0.7,0.3,1.3-0.2,1.9C405.3,1009.8,404.6,1010.8,403.1,1011.4z"/>
		<path class="st2" d="M428.1,1024.3c0.5-0.8,0.7-1.5,0.6-2.2c-0.1-0.7-0.6-1.1-1.4-1.3c-0.9-0.2-1.9-0.2-3.1,0.1
			c1.4-1.2,3-1.7,5-1.4c0.9,0.1,1.3,0.6,1.2,1.5C430.3,1022.6,429.5,1023.6,428.1,1024.3z"/>
		<path class="st2" d="M459.2,1037c0.7-1.7,0.7-2.9-0.2-3.6c-1.1-1-2.7-0.3-3.9,0.2c1.6-1.5,3.3-2.2,5.2-2.1c0.7,0,1.3,0.7,1.3,1.4
			c0,0.1,0,0.2-0.1,0.4C460.9,1035,460.1,1036.3,459.2,1037z"/>
	</g>
	<g>
		<path class="st3" d="M657.8,161.1l5,4.4c1.2,3.8,2.5,7.6,3.8,11.5c1.2,3.8,2.3,7.7,3.3,11.7c1.4,5.7,2.7,11.3,4.5,16.7
			c1.4,4.2,2.5,8.4,3.4,12.5c1,4.5,2,8.7,3.1,12.6c1.2,4.6,2.1,9.3,2.6,14.2c0.3,3.5,0.9,6.8,1.7,9.9c1.9,8.1,2.9,14.9,3,20.4
			c0,3.5-0.4,8.2-1.2,14c-0.6,4.4-1.7,8.9-3.1,13.3c-3.1,9.4-6.9,18.4-11.4,27c-6,11.5-11.1,19.9-15.4,25.3
			c-3.4,4.2-7.9,9.1-13.6,14.8c-2.4,2.4-4.8,4.4-7.1,6.1c-4.7,3.3-9.2,6.5-13.9,10.3c-2.3,1.9-4.6,3.7-7,5.3c-0.3,0.2-0.7,0-1.1-0.4
			c-2-1.6-4.3-4.2-4.3-6.7c0.1-1.5-0.5-2.7-0.5-4.2c0-4.4-0.1-8.9-0.2-13.6c-0.1-2.2-0.8-4.5-0.3-6.6c1.3-5.2,1.4-10.5,0.2-16
			c-0.4-1.8-0.5-3.7-0.4-5.6c0.7-16.4,0.2-32.8-0.3-49.2c0.9-4.1,1.3-7.1,1.3-8.7c0-1.9,0.1-3.6,0.2-5.1c0-0.1,0.1-0.2,0.2-0.3
			c0.2-0.2,0.3-0.4,0.3-0.7c0-4.4,0.1-8.9,1-13.2c1.2-5.6-2.5-9.6-7.3-11.7c-0.5-0.2-0.5-0.4,0-0.7l1.7-0.8c0.3-0.2,0.6-0.4,0.7-0.8
			c0.4-1,0.5-2,0.3-3c-1.2-5.5-2.9-10.8-5-16.2c-3.9-10.3-7.5-20.7-11-31.3c-2.6-8.1-6.2-16-8.1-24.3c-1.2-5.2-3.1-10.2-4.4-15.4
			c-0.7-2.6-2.7-5.5-5.6-3.8c-2.6,1.5-5.4,2.8-8.6,4c-1.3,0.5-2.7,1.4-3.8,2.3c-3.4,2.9-6.4,5.7-10.1,8.4c-4.7,3.4-8.3,6.4-10.9,8.9
			c-8.1,8-14.8,22.6-12.8,34.5c1,6,2.2,11.8,3.6,17.4c1.2,4.7,3.3,9.1,4.8,13.7c0.3,0.8,0.7,1.5,1.3,2c0.9,0.9,0.7,1.3-0.6,1.2
			c-0.9,0-2,0.1-3.3,0.3c-1.1-4.2-2.4-7.9-4-11c-1.5-3-2.6-5.8-3.3-8.2l-1-7.8c0.1-3.5-0.1-7-0.5-10.5c-1.4-11.8,3.9-22.9,11.5-32
			c2.5-3,5.2-4.7,8.1-7.1c5.3-4.2,10.5-8.5,15.6-13c2.7-2.4,7.8-3.9,10.7-5.4c4.4-2.2,8.3-4.6,13.4-5.3c2.9-0.4,5.8-0.8,8.5-1.1
			c4.5-0.5,8.8-1.6,13.3-2.4c3.8-0.6,7.6-0.9,11.3-0.6c2.5,0.2,4.8,0.6,6.9,1.4c2.3,0.8,4.6,1.5,6.9,2.1c3.3,0.8,5.8,2.5,8.7,3.9
			c1.1,0.6,2.3,1.1,3.4,1.6C647.7,153.1,653,156.7,657.8,161.1z"/>
		<path class="st3" d="M359.2,426.3c-2.3-0.8-3.3-4-2.2-7.2s3.9-5,6.2-4.2c0,0,0,0,0,0c2.3,0.8,3.3,4,2.2,7.2v0
			C364.3,425.3,361.5,427.1,359.2,426.3C359.2,426.3,359.2,426.3,359.2,426.3z"/>
		<path class="st3" d="M373,571.5c3.3,0.7,6.6,1.1,9.8,0.9c1.7-0.1,3.3,0.1,4.9,0.3c1.6,0.3,3.2,0.4,4.9,0.6c3.1,0.2,6.3,0.6,9.4,1
			c1.1,0.2,2.1,0.2,3.1,0.2c1.6-0.1,2.8,0.5,4.3,0.5c2.4,0,4.8,0.3,7.3,0.9c1.1,0.3,2.3,0.4,3.4,0.3c1.7-0.1,3,0.5,4.6,0.5
			c2.4-0.1,5,0.1,7.9,0.7c2.3,0.5,5,1,7.9,1.4c3.2,0.5,6.3,1.2,9.3,2.1c1.6,1.1,2.7,2.7,4.2,3.7c5.3,3.3,10.7,7.4,16.5,12.3
			c4.3,3.7,5.8,7.6,7.2,13.5c0.9,4.1,1.9,7.9,2.8,11.5c1.2,4.4,1.8,8.2,1.7,11.4c0,5.7-0.8,11.1-2.2,16.2c-1.6,5.9-3.8,12-6.5,18.4
			c-1.8,4.2-4.1,7.3-6.8,9.2c-5.9,4.2-10.1,8.9-12.8,14.2l-4.4,4.3c-0.8,0.6-1.8,1.3-2.8,1.9c-1.1,0.7-2.1,1.3-2.8,1.9
			c-5.2,4-9.3,7.8-12.4,11.4c-2.4,2.8-4.4,4.8-6.1,6.2c-1.5,1.2-2.9,2.6-4.1,4c-1.1,1.3-2.3,2.5-3.4,3.7c-3.8,3.9-7.4,7.7-10.8,11.4
			c-2.5,2.6-5.2,5-8.2,7.1c-3.9,2.8-7.7,5.5-11.2,8.7c-5,4.6-9.8,9.1-14.5,13.6c-3,2.8-6.7,5.3-11.3,7.3c-5.9,2.6-11.5,4.8-16.8,6.5
			l-4.8-0.3c-2-0.3-4-0.5-6-0.8c-1.9-0.3-3.9-0.7-5.8-1.2c-2.5-0.7-4.9-1.4-7.2-2.1c-2.7-0.9-5.6-2.1-8.7-3.9
			c-2.1-1.2-4.7-2.9-7.8-5.2c-5.6-4.2-11.4-8.2-17.2-12.3c-2.5-1.7-3.9-2.9-4.5-3.6c-4.4-5.8-11.2-9.4-14.8-15.9
			c-2.7-4.8-4.1-9.9-4.4-15.2c-0.1-1.5-0.5-2.7-0.8-4.1c0.3-1,0.3-2.1,0.2-3.3c0.2-3.3,1.2-6.8,3-10.5c3-4.7,6-9.5,8.8-14.5
			c2.1-3.6,4.1-7,6-10.1c5.7-9.1,12.5-16.3,18.8-24.6c3.6-4.8,7.4-9.2,11.2-13.7c5-6.1,10.4-11.6,15.2-18c2.1-2.7,4.3-5.3,6.8-7.7
			c5.5-5.5,11.1-11.2,16.9-17.2c2.7-2.8,5.4-6,8.1-9.6l5.8-5L373,571.5z M268,707c-1.9,7-1.5,14.1,1.3,21.5c1.3,3.5,3.1,6.1,5.2,8
			c3.2,2.7,5.9,5.3,8,7.7c2.1,2.4,4.6,4.7,7.4,6.7c6.8,4.9,13.6,9.4,20.3,14.4c4.2,3.2,8.7,5.6,13.5,7.5c5.5,2.1,10.3,3.1,14.1,3
			c3.9-0.1,8.6-0.9,14-2.3c4.7-1.3,9.4-3.3,14.1-6c3.6-2.1,6.1-5.4,9.2-8.1c4.1-3.5,8-6.9,11.7-10.4c5.3-4.9,11.6-8.6,16.7-13.8
			c4.7-4.7,9.1-9.6,13.4-14.6c2.7-3.1,5.7-5.7,8.9-8.2c4.4-3.5,8-8,12.4-11.6c3.3-2.7,6.1-5.4,8.4-7.9c0.4-0.5,0.6-1,0.4-1.6
			c-0.2-0.8-1.1-1.3-1.9-1c-0.1,0-0.1,0-0.2,0.1c-4.2,1.7-8.4,3.3-12.6,4.8c-11.3,3.9-22.4,3.4-33.5-1.8c-3.6-1.6-6.6-3.4-9.2-5.4
			c-5.6-4.2-10.2-9.2-14-15c-3.3-5-5.6-10.8-8.3-16.2c-1.4-2.8-2.2-6.3-2.5-10.3c-0.7-10.4-1.2-20.7-1.2-30.9
			c0-3.9,0.3-7.6,0.9-11.2c1-5.7,1.6-11.2,1.8-16.5c0-1-0.4-1.6-1.3-2c-1.3-0.5-2.8,0.8-3.7,1.6c-4.6,4.4-9,9-13.1,13.9
			c-2.4,2.8-5.3,4.9-7.8,7.8c-3.3,3.8-6.9,7.3-10.1,11.1c-4.9,5.8-10.1,11.1-15,16.9c-3.1,3.7-6.1,7.3-8.9,10.8
			c-4.1,5.1-8.3,10.4-12.8,15.9c-3.2,4-6.1,8.1-9.1,12.2c-2.9,3.9-6,8.9-9.3,14.9C271.5,697.5,269.1,703,268,707z"/>
	</g>
	<path class="st4" d="M485.3,249.5c-5,0.1-9.4,1.4-13.1,3.9c-2.1,1.4-4.4,3.1-7,5c-4.1,3.1-8.4,6.2-12.8,9.4c-1.4,1-2.8,2.3-4.3,4
		c-1.2,1.3-3.4,3.9-5,4.7c-0.3,0.1-0.6,0.3-0.8,0.6c-1.5,1.7-3.2,3.2-4.9,4.6c-3.5,2.9-6.2,6.3-8.1,10.3c-1.3,0.3-2.4,0.4-3.4,0.2
		c-1.1-0.5-2-0.7-2.6-0.7c-5.2-0.2-13.6-0.3-20.2,0.5c-3.2,0.4-5.7,0.9-7.4,1.3c-6.2,1.7-12.7,3.9-18,7.3c-3.2,2-5.4,3.7-6.6,5.1
		c-3.9,4.4-8.7,8.9-11.8,13.5c-3.2,4.7-5.5,9-7.1,13c-2.5,6.5-3.9,13.5-4.1,20.9c0,1.3,0,2.5,0.3,3.8c0.5,2.7,0.1,5.3,0.6,8
		c1.3,7.8,3.6,15.5,7,23c-2-0.5-3.9-1.5-5.8-3.2c-5.8-8.9-11.5-18.1-17-27.4c-2.6-4.3-5.2-8.6-7.8-12.9c-1.2-1.9-2.8-5.1-4.9-9.4
		c-2.5-5.3-5.6-10.2-9.4-14.7l-4-7.3c-0.6-2.2-0.9-4.5-0.9-6.9c0-2.7-0.2-4.9-0.5-6.4c-2.1-10.4-3.7-17.8-4.8-22.1
		c-1.1-4.4-1.8-7.2-1.9-8.5c-0.3-3.2-0.8-6.4-1.6-9.8c-1.2-5.1-1.9-8.3-2.1-9.7c-0.7-5.3-1.3-10.4-1.7-15.5
		c-0.2-2.6-0.6-5.4-1.2-8.4c-0.6-2.7-1.1-5.5-1.6-8.3c-0.5-2.7-1.1-5.4-1.7-8.1c-0.7-2.9-1.2-5.6-1.6-8.1c-1.4-10.1-3.2-20-5.2-29.8
		c-0.6-2.8-1-5.4-1.2-7.9c-0.2-2.7-0.5-5.3-0.8-7.9c-0.4-3.6-1.1-7.1-1.9-10.6c-1.6-6.3-2.9-11.8-4-16.7c-0.8-3.6,1.5-6.4,5.4-5.3
		c7.2,2,13.3,5.1,20.5,6.8c3.6,0.9,7.6,2.1,11.8,3.8c6.6,2.6,13.2,4.8,19.7,6.7c3.6,1,7.8,2.5,12.5,4.4c5.1,2,9.7,4,13.8,6
		c6.5,3.1,13.3,6.4,20.3,9.9c2.8,1.4,6.1,2.7,9.7,4c3.4,1.2,6.6,2.6,9.5,4.3c2.9,1.7,6.7,2.3,9.9,3.6c5.6,2.2,10.9,4.6,16.8,6.2
		c2.6,0.7,5.2,1.4,7.8,2.1c4.6,1.2,7.5,4.9,10.2,8.5c0.8,1,1.8,1.8,2.6,2.8c4,4.8,10.3,13.2,18.7,25.3c6.8,9.7,12.7,18.7,17.5,26.8
		C482.3,245.8,483.9,247.5,485.3,249.5z"/>
	<g>
		<path class="st5" d="M518.8,31.6l9.6,11.6l2.8,3.9c2.6,6,5,10.4,7.1,13.1c3.7,4.7,6.5,8.8,8.4,12.1c2.6,4.5,5.2,9,8,13.5
			c4,6.5,7.2,13.2,11.4,19.8c0.5,0.8,0.4,1.5-0.3,2.2c-1.1,1-2.4,0.5-3.9-1.6c-0.5-0.7-1.1-1.6-1.8-2.7c-4.3-6.5-9-13.6-13.9-19.9
			c-2.9-3.8-5-6.8-6.2-9.1c-4.5-8.5-10.1-17.1-14.2-24.5c-3.5-6.3-7-12.1-10.5-17.4c-2.9-4.3-6-8.7-9.3-13.2
			c-3.4-4.5-7.5-7.8-12.3-9.9c-3.5-1.5-7.8-0.6-9.2,3.4c-2.6,7.5,0.6,18.3,4.1,25.4c3.5,7.1,6.6,14.4,10.7,21.1
			c1.4,2.3,2.7,4.5,3.9,6.9l-12-15.1c-4.7-10.3-9.9-19.8-10.8-31.1c-0.3-3.9,0.6-9.6,4-12c7.6-5.2,17,2.7,22,7.8
			C510.7,20.1,514.8,26.4,518.8,31.6z"/>
		<path class="st5" d="M569.5,50.5l8.3,10.6l11.8,21.1l6.5,9.2c0.5,0.7,0.6,1.6,0.2,2.4c-0.4,0.9-1,1.2-1.9,0.8
			c-0.9-0.4-1.8-1.3-2.3-2.2c-1.8-3.4-3.8-6.4-6.2-9.1c-5.1-5.9-7.5-12.9-11.4-19.5c-4.9-8-9.8-16-14.8-24.2
			c-3.1-5.1-6-8.8-8.7-11.1c-5.9-5.2-15-12-22.8-10.8c-3.6,0.5-5.8,3.2-6.7,8c-0.9-2.2-1.2-4.3-0.9-6.5c1.1-1.8,2.9-3,5.3-3.5
			c3.7-0.8,7.3-0.5,10.8,0.9c9.8,4.1,17.2,10,22.1,17.8C563.7,42,567.2,47.3,569.5,50.5z"/>
		<path class="st5" d="M662.8,165.6l-5-4.4c2.3-1.8,1.1-4.6,0.5-6.7c-1.4-5.2-3-10.7-4.7-16.5c-0.9-3.1-2.3-6.1-4.2-9
			c-1.5-2.3-2.7-4.5-3.7-6.8c-2.7-6.1-8.3-12-10.5-16.6c-1.6-3.3-3.2-6.6-5-9.9c-3.1-6-8.6-12-11.5-18.4
			c-3.9-8.9-8.6-17.4-14.1-25.4c-3.7-5.4-8.3-10.1-12.3-15.4c-3.7-4.8-9.4-5.9-15.1-4.9c-3.6,0.6-5.5,2.3-5.9,5.2
			c-0.2,1.2,0.1,3.5,0.9,6.8c0.6,2.6,1.2,5.3,1.7,8l-3.3-5.4c-3-6.7-3.6-14.9,5.6-16.8c4.7-1,9.2-0.4,13.5,1.8
			c3,1.5,6.1,4.3,9.4,8.4c6.3,7.9,11.1,14.8,14.4,20.9c5.1,9.3,10.3,18.3,15.3,26.8c4.4,7.4,8.3,15.2,13,22.5
			c2.8,4.3,5.5,8.9,8.3,13.8c2.5,4.5,4.4,8.7,5.6,12.6c1.3,4.4,2.6,8.8,3.9,13.3C661.4,155.5,662.4,160.9,662.8,165.6z"/>
		<path class="st5" d="M485.7,51.1l3.7,5c-3.1-2.9-6.2-4.8-9.1-5.7c-3.3-0.9-5.5,0.1-6.8,3.1c-0.6,1.4-0.5,4.3-0.2,5.9
			c1.6,8.3,3.5,14.6,5.4,19c4.9,10.8,10.2,20.5,16.1,29.2c2.7,4,4.7,8.4,7.1,12.5c3.6,6.2,7.2,11.9,10.7,17.1c0.9,1.4,1.7,3,2.4,4.9
			c0.2,0.7-0.1,1.4-0.8,1.7c0,0,0,0-0.1,0c-0.9,0.3-1.7-0.1-2.4-1.1c-3.1-5.1-6.2-10.2-9.2-15.4l-3.2-6l-5.1-9.1
			c-5.6-8.4-10.7-17.1-15.4-26.1c-4.2-8.1-6.1-15-8.2-23.4c-1.6-6.7-1.7-16.9,8.6-14.7C481.9,48.4,484,49.5,485.7,51.1z"/>
		<path class="st5" d="M500,68.3l9.9,11.4l10.5,12.8c3.2,5.7,6.4,11.4,9.5,17.1c1.3,2.4,5.1,5.5,4.7,8.3c-0.1,0.9-1,1.5-1.9,1.4
			c-0.1,0-0.3-0.1-0.4-0.1c-0.8-0.3-1.4-0.9-1.8-1.6c-0.9-1.8-1.9-3.6-3.1-5.4c-4.5-6.7-7.6-14.2-12.5-20.9
			c-3.6-4.9-6.9-9.6-10-14.2C503,74.3,501.4,71.4,500,68.3z"/>
		<path class="st5" d="M485.4,114.1c0.4,0,0.2,0.3-0.6,0.8c-0.2,0.1-0.2,0.3,0,0.4l2.4,1.3c-7.3,0.2-10.6,4.6-9.2,11.3
			c1.3,6.2,3,12.3,4.7,18.2c1.5,5.2,3,8.9,4.5,11.1c2.2,3.3,4.4,6.5,6.1,10.1c3.4,7,6.9,13.4,10,20.4c1.4,3.3,2.7,5.8,3.8,7.4
			c5,7.7,9.9,15.4,14.8,23.2c0.4,0.6,1.1,0.8,2.2,0.6l1,7.8c-1.2-1.1-2.3-2.4-3.2-3.8c-4.7-7.1-9.4-14.2-14.1-21.5
			c-7-11.1-12-23.8-18.5-34.5c-4.1-6.8-6.9-12.2-8.2-16c-2-5.7-4-12.6-5.9-20.7C473.2,121.7,476.3,114.9,485.4,114.1z"/>
		<path class="st5" d="M307.1,313l4,7.3c-1.3,3.3-2,7.3-1.9,12.1c0.1,5,0.2,8.8,0.3,11.2c0.2,3.5-0.4,6.9-0.3,10.5
			c0.1,6.1,0,11.9-0.5,17.2c-0.2,2.6-0.3,5.7-0.4,9.4c0,3.2-0.2,6.3-0.6,9.4c-0.3,2.3-0.1,4.6-0.4,7c-0.4,3.1,0,6.1-0.4,9.1
			c-0.7,5.3,0,10.7-0.7,16.1c-0.5,4.3,0.3,8.3,2.5,12.1c3.6,6.2,9.1,3.6,13.2,0c4.6-4.1,14.1-12.7,20.7-9.2c3.6,1.9,5.7,4.8,6.5,8.6
			c1.4,6.8,1,13.9-1.3,21.3c-1.9,6.3-4.1,12.9-6.6,20.1c-1.7,4.8-3,9.7-4,14.5c-0.9,4.7-0.8,9.7,0.5,14.9c1.1,4.6,4.1,6.6,8.5,6.7
			c2.8,0,7.7,0,8,4c0.3,4.1-1.1,8-1.8,11.7c-0.3,1.6-0.3,3.8-0.1,6.5c0.3,3.4,0.1,6.6-0.8,9.6c-0.5,1.9-0.5,3.6-0.1,5.3
			c1.2,4.4,8.8,6.5,12.6,3.9c0.1,1.4,0,2.8-0.4,4.1c-4.4,1.4-9.6,1.1-12.5-2.8c-3.2-4.3-2.4-8.3-1.7-13.2c0.3-1.7,0.4-3.6,0.3-5.8
			c-0.1-4.7,0.4-9.4,1.5-13.9c0.7-4-0.8-6.1-4.5-6.3c-6.2-1.1-10.3-1.8-11.2-8.5c-0.8-5.9-1.2-10.6-1.1-14c0.1-2.2,1.2-6.9,3.4-13.9
			c1.6-5.1,3.2-10.1,4.9-15.1c2-5.9,3.5-10.5,4.3-13.9c1-4.4,1-8.8,0-13.4c-0.7-5.8-3.7-8.6-9-8.5c-1.8,0-3.3,0.6-4.6,1.7
			c-5.1,2.8-10,6.1-14.6,9.9c-3.8,3.1-7.2,2.9-10.2-0.7c-2.5-3-4-6.2-4.7-9.5c-0.8-4.2-1-8.3-0.8-12.3c0.1-1.1-0.5-2.2-0.5-3.2
			c0.1-3.3,0-6.7-0.4-10.2c-0.3-2.8-0.5-5.6-0.5-8.5c0-2.7,0.1-5.4,0.4-8.2c0.3-2.8,0.4-5.5,0.5-8.2c0.1-2.9,0.3-5.6,0.6-8
			c0.7-5.4,1.3-10.7,1.8-16c0.4-4.6,0.7-9.8,1-15.4c0-0.7,0-1.3,0-2c0-3.3,0.5-6.4,0.5-9.7C306.5,322.2,306.7,317.6,307.1,313z"/>
		<path class="st5" d="M350.2,384.6c1.9,1.6,3.8,2.7,5.8,3.2c1.8,3.3,4,6.6,6.7,9.8c3.7,4.4,8,7.4,13.1,9c2.1,0.7,4,1.5,5.8,2.5
			c4.2,2.3,8.7,3.9,13.3,4.8c1.1,0.2,2.9,0.4,5.5,0.6c3.4,0.2,6.6,1.2,10,0.8c0.7-0.1,1.6,0.2,2.6,0.9c1.1,0.9,1.9,1.8,2.4,2.8
			c-1,1.1-2.3,2-3.9,2.7c0-2.1-1.2-3.3-3.6-3.4c-2.9-0.2-6.1-0.5-9.5-0.9c-3.5-0.4-6.5-1-8.9-1.8c-2.9-1-5.7-2.2-8.4-3.6
			c-7.1-3.8-14.8-5.1-20-11.7c-2.6-3.3-5.2-6.8-7.8-10.5C352.2,388.2,351.2,386.5,350.2,384.6z"/>
		<path class="st5" d="M255,549.5l-3.6,0.4c0.8-2.9,0.3-5.9-1.5-9.1c-3.6-6.3-6.8-11.6-9.7-15.9c-2.5-3.8-5.6-7-8.1-10.8
			c-2-3-4.1-5.7-6.3-8c-4.3-4.6-8.5-9.2-12.5-13.6c-3-3.4-6.4-4.9-10.2-4.6c-6.9,0.7-9.5,8.4-9.4,14.3c0,3.1,0.9,7.2,2.6,12.3
			c1.3,4,3.8,7.5,5.7,11.1c3.5,6.7-3.5,14.7-10.1,9.3c-2.6-2.2-3.8-5.5-6.5-7.7c-3.9-2.9-11.4-6.7-14.4-0.1c-2,4.3-0.1,9.2,3.2,12.2
			c3.4,3.1,6.8,6.3,8.1,10.9c0.6,2-0.3,4.3-2.2,5.2c-4.3,1.9-10.3-2.9-13.8-5c-3.1-1.8-9.2-3.9-11.5-0.2c-2.3,3.9,1.2,8.1,5.1,9.1
			c4.6,1.1,8,2.5,10.4,4.2c2.5,1.8,5.4,5.5,3.3,8.7c-1.1,1.6-2.5,2.5-4.3,2.8c-2.7,0.4-5.8,0.4-9.1,0c-3.1-0.4-5.8,0.1-8.8,0.4
			c-1.7,0.2-4.2,0.9-4.5,3c-0.6,3.9,4.4,5.1,7.4,5c3-0.1,9.4-0.3,11.4,2.5c2.7,3.7-2,7.8-5.2,9c-3.6,1.3-7.3,2.6-11,4
			c-2.1,0.8-4.9,2.7-4.1,5.2c1,3.1,5.7,4.4,8.6,4.6c5,0.4,9.7,1,14,1.8c1.3,0.2,2.4,0.3,3.5,0.3c1.4,0,2.5-0.2,3.5-0.6
			c2.8-1.1,5.6-2.2,8.6-3.3l-4.5,4.6c-4.4,1.5-7.8,2.2-10,1.9c-5.4-0.7-11.1-1.3-17.1-1.8c-1.2-0.1-3-0.7-5.4-1.9
			c-3.3-1.6-4.9-4.4-4.8-8.2c0-3.2,2.6-4.9,5.3-6c3.5-1.4,7-2.8,10.4-4.1c1,0,2-0.4,3-1.2c0.8-0.6,0.9-1.8,0.2-2.5
			c-0.1-0.1-0.2-0.3-0.4-0.4c-1.1-0.7-2.5-1-4.2-0.8c-2.1-0.3-4.3-0.6-6.6-0.9c-4.8-0.8-6.9-6.8-4.3-10.5c0.9-1.3,2.5-2.2,4.7-2.6
			c5-1,10-1.3,15-0.9c1.4,0.5,2.8,0.3,4.3-0.6c0.9-0.6,1.3-1.7,0.8-2.7c-0.9-2.1-2.4-3.2-4.3-3.4c-6.9-2.6-13.3-3.9-14-12
			c-0.3-3.9,1.9-6.9,5.8-7.4c5.6-0.8,10.4,2.3,15.1,4.8c1.3,1.5,2.7,2,4.4,1.3c3.4-1.3,0.2-5.7-1.6-6.7c-5.5-5.1-9.8-10.8-7-18.6
			c3.3-9.3,13.5-6.3,19.1-1.9c0.8,0.7,2.2,2.3,4.2,4.8c0.4,1,1,1.9,2,2.5c0.9,0.6,1.8,0.8,2.9,0.6c2.8-0.5,3.6-2.6,2.4-6.2
			c-2.8-5.4-4.5-8.9-5.2-10.8c-1.7-4.8-2.6-9.2-2.8-12.9c-0.2-4.8,1.7-13.8,7-16.2c5.8-2.7,11-2.1,15.7,1.9c2.2,1.9,6,5.8,11.3,11.8
			c3.4,3.9,6.8,8.1,10.1,12.7c5.9,8.3,11.6,16.1,17.3,25.3C254.6,541.6,255.5,545.4,255,549.5z"/>
		<path class="st5" d="M263.3,711.3c0.1,1.2,0.1,2.3-0.2,3.3c-1.3,0.6-2.1,0.7-2.6,0.2C261.8,714.1,262.8,712.9,263.3,711.3z"/>
		<path class="st5" d="M252.6,725.5c-4.8,7.4-10.2,14.4-16.1,20.9c-3,3.4-5.6,6.5-7.7,9.5c-6.2,8.9-12.7,17.6-19.5,26.2
			c-2.5,3.2-4.6,7.9-6.4,14.2c-1.8,6.3,3.9,9.8,8.4,4.8c4.8-5.3,9.7-10.3,14.6-15.2c3.1-3,5.6-6.4,8.8-9.2c2.7-2.4,4.5-5.4,7.5-7.5
			c0.8-0.5,1.8-0.3,2.4,0.4c0.1,0.2,0.2,0.5,0.3,0.7c0.4,2.5-4.7,9-6,10.7c-8.9,11-17.2,21.6-24.9,31.6
			c-5.8,7.5-11.2,15.5-16.1,23.6c-2.3,3.9-8.9,17.1-4.7,20.8c3.3,3,7.6-0.4,9.6-3.4c4.8-6.9,9.8-14.1,15-21.5
			c4.3-6.1,9.6-11.3,13.6-17.5c4.6-7.1,9.6-13.8,15-19.9c1.6-1.8,3.4-3.3,5.4-4.3c0.8-0.4,1.8-0.1,2.2,0.7c0.1,0.2,0.2,0.5,0.2,0.7
			c0,2.7-5.1,8.8-7,11.1c-3.6,4.3-5.7,9.8-8.9,14.6c-2.4,3.6-4.8,7.3-6.5,11.4c-2.1,5.2-5.2,9.7-7.5,14.8c-2.7,5.9-6,12.7-10,20.3
			c-2.7,5.2-4,10.5-3.9,16.1c0,3,1.6,4.6,4.6,4.7c4,0.1,7.4-4.1,9.3-7.2c6.3-10.7,12.4-20.3,18.2-28.8c2.4-3.5,4.8-7.4,7.3-11.8
			c3-5.3,6.6-10.5,9.9-15.8c4.2-6.8,8.4-12.4,12.6-16.8c0.8-0.8,1.7-1.3,2.9-1.5c0.4-0.1,0.8,0,1.2,0.3c1.3,1,1.7,2.5,1,4.7
			c-1.8,6-5.8,12.4-7.7,17c-2,4.8-4.5,9.7-6.3,14.7c-3.4,9.7-5.6,19.1-6.6,28c-0.4,3.5,1.9,8.1,6.2,5.7c4.8-2.6,6.8-8,9-12.8
			c1.8-4,4.6-7.3,6.8-11.1c3.8-6.8,7.8-13.4,11.9-19.8c1.5-2.3,2.8-4.5,3.9-6.6c2-3.9,3.3-8.6,6.6-11.6c3.1-2.8,7.6-0.8,10.3,1.5
			c1.4,1.3,2.6,2.9,3.5,5c3.2,7.5,5.2,14.2,5.9,20.1c1.1,8.7,2.3,17.9,1.9,26.1c-0.2,3.6,0.5,7,1.9,10.3c0.9,2.1,2.6,4.5,5.1,4.4
			c5.4-0.3,8.7-7.2,9.9-11.8c1.9-7.6,3.5-15.2,4.8-22.7c1-5.8,0.7-12,0.7-18c0-2.4,0.2-6.2,0.4-11.3c0.5-9.5-0.6-18.3-1.4-27.3
			c-0.3-3.7-1.6-6.6-3.9-8.8l4.8,0.3c2,11.6,3.1,23.4,3.1,35.2c0,1.3-0.1,2.6-0.3,4c-0.3,1.8-0.1,3.6-0.2,5.4
			c-0.2,1.7-0.3,3.5-0.5,5.2c-0.2,1.8-0.3,3.4-0.2,5c0.1,5-0.3,9.8-1.3,14.6c-2.1,10.6-3.7,23.1-11.5,31.3c-2.1,2.2-4.4,2.8-6.9,1.9
			c-1.7-0.6-3.1-2-4.3-4.2c-2.1-3.9-3.1-8.2-3.1-12.7c0-1.9,0-3.8-0.2-5.7c-0.2-3.1-0.4-6.2-0.6-9.4c-0.7-11-3.6-21.2-8.5-30.8
			c-0.9-2.6-2.6-3.8-5.1-3.6c-2.4,0.1-3.9,1.4-4.5,3.6c-2.8,4.5-5.5,8.9-8.5,13.3c-6.9,10.1-13.4,20.9-19.4,32.5
			c-2.4,4.6-5.7,8.3-10,11.1c-3.3,2.2-7.1,0.4-8.1-3.3c-0.9-3.4-1-6.6-0.3-9.7c1.3-5.7,2.6-11.3,3.9-17c2-8.8,5.8-18.3,11.5-28.4
			c1.3-1.4,2-3,2-4.7c0-0.6-0.5-1.1-1.1-1.1c-0.2,0-0.4,0.1-0.6,0.1c-1.4,0.8-2.4,2-2.9,3.6c-6.4,8-11.8,16.9-16.9,25.6
			c-6.3,10.8-14.7,20.9-20.2,31.6c-2.4,4.6-5.9,9.2-9.8,12.4c-2.2,1.8-4.6,2.6-7.5,2.3c-7.9-0.6-4.6-14-3.4-18.3
			c0.7-2.6,2.2-5.9,4.4-9.9c6.2-11.3,11.9-22.9,16.9-34.8c1.5-2.1,2.6-4.3,3.4-6.5c0.3-0.9,0.1-1-0.7-0.5c-2.1,1.4-3.9,3.4-5.3,6.1
			c-8.7,10.8-15.2,21.1-22.8,30.6c-2.3,2.9-5.6,5.8-9.4,6.1c-7.1,0.6-6.8-7.8-5.4-12.4c3.6-11.8,10.7-21.1,17.4-31.3
			c3.6-5.5,8.5-11.5,12.4-17.5c1.5-1.6,2.8-3.2,4-5c0.1-0.2,0.2-0.4,0.2-0.5c0-0.2-0.1-0.4-0.2-0.5c-0.2-0.3-0.5-0.3-0.8-0.1l-5,4.3
			c-1.3,1.1-3.7,2.9-7.1,5.5c-2.6,2-5.3,2.7-8.1,2.3c-0.3,0-0.6-0.2-0.8-0.4c-2.2-2-2.9-4.4-2.3-7.2c0.9-4.5,2.3-8.5,4.2-12.2
			c1.2-2.4,3.6-5.8,7.2-10.3c8.3-10.4,16.2-20.9,23.9-31.7c1.7-0.9,2.8-2.2,3-4l4.5-5.1l7.3-8.5L252.6,725.5z"/>
		<path class="st5" d="M471.7,916.1c-4.8,3.6-9.7,7-14.6,10.3c-3.5,2.3-6.8,4.8-10,7.4c-7.2,6-14.6,11.2-21.9,17.3
			c-3.9,3.3-8,6.3-12.4,9.2c-4.8,3.2-9.7,6.5-14.7,10.2c-3.1,2.3-6.1,4.4-9,6.3c-3.1,2.1-5.9,4.3-8.4,6.6
			c-4.1,3.8-8.2,7.5-12.2,10.9c-2.1,1.8-3.9,3.9-5.2,6.2c-2.9,5.1,3,6.9,6.2,3.8c1.7-1.7,3.6-2.9,5.5-3.7c4.4-1.7,7.7-4.7,11.3-7.5
			c1.8-1.4,3.6-2,5.5-1.9c2.4,0.1,3.4,1.4,2.9,3.9c-0.5,2.4-3.9,5.3-6,6.8c-6.5,4.9-12.6,10.4-18.5,16.6c-1.1,1.2-1.6,2.5-1.6,4
			c0.1,1.1,0.6,1.7,1.8,1.8c1.3,0.1,2.5-0.2,3.6-1c3.1-2.2,6.5-4.5,9.2-7.2c4.8-4.6,10.9-8.7,18.2-12.3c2.7-1.3,7.7-3.2,9.8-0.1
			c1.1,1.7,0.9,3.3-0.6,5c-3.3,3.5-7,6.9-11,10.2c-4.3,3.5-7.7,6.9-11.5,10.7c-1.1,1.1-1.9,2.2-2.4,3.5c-1.3,3.1-0.3,7.1,3.9,6.2
			c3.9-0.8,7.4-2.5,10.1-5.4c3-3.2,5.7-5.5,8.2-6.9c4.3-2.5,9-5.2,13.9-8c2.9-1.7,6.5-3.4,9.8-2.5c3.3,0.9,4.2,4.3,2.3,6.9
			c-2.8,3.8-7,6.6-10.2,10.2c-3.5,4.1-7.5,7.5-10.9,11.9c-2.6,3.3-5.2,6.8-5.5,10.9c-0.5,6,6.8,5.4,9.8,2.8c2.6-2.3,4.9-4.8,7.7-7.1
			c3.9-3.2,7.3-7.1,11.8-9.9c2.3-1.5,4.5-3.1,6.7-4.7c5.5-4.4,14.9-10.5,22.2-10.5c1,0,1.9,0.7,2.1,1.7c1,4.1-9.5,15.9-12.6,18.9
			c-3,2.9-5.7,5.7-8.3,8.3c-4.4,4.6-7.8,9.7-10.1,15.4c-2,5.1-3.2,13.8,3.2,16.4c6.9,2.8,12.9,1.7,18.1-3.5
			c6.6-6.6,13.9-12.1,20.3-19c5.3-5.7,12-11.5,20.2-17.6c5-3.7,10-5.4,15.6-7.5c6.5-2.5,13.2-3.8,19.6-5.5c3.2-0.8,6.6-1.6,10-2.4
			c5.1-1.1,9.9-2.7,14.4-4.8c3.8-1.8,7.8-3.4,12-4.9c4.5-1.7,9.4-3.8,14.5-6.3c3-1.5,6.3-2.4,9.6-3.6c2.9-1.1,6.9-3.7,3.5-7.3
			l2.9-0.3c0.8,4.6-0.6,8.2-4,10.6c-1.7,1.2-4.2,2.2-7.5,3c-3.5,0.9-6.9,2.1-10.2,3.6c-8.3,3.7-14,6.1-17.2,7.3
			c-10.1,3.7-21.4,7.1-33.9,10.1c-6.3,1.5-11,2.9-14.2,4.1c-4.8,1.9-9,4.1-12.5,6.4c-5.8,3.9-11.7,8.5-16.4,13.8
			c-5.4,6.1-11.8,11.2-18.1,16.5c-2,1.6-3.9,3.5-5.9,5.5c-7,7.2-15.4,8.9-24.4,3c-3.9-2.6-4.1-8.8-3.5-13.4c0.5-3.6,1.3-6.5,2.5-8.8
			c4.4-8.4,10.5-15.9,18.3-22.6c1.6-1.4,3.5-3.7,5.7-7c0.9-0.7,1.7-2,2.3-3.7c0.2-0.7-0.1-1.5-0.8-1.7c-0.1,0-0.2-0.1-0.4-0.1
			c-1.9-0.1-3.6,0.6-5.2,2.1c-7.7,4.5-15.3,8.9-22.1,14.8c-3.9,3.3-8,6.6-11.6,10.2c-3.2,3.2-7.2,5.1-11.7,4.6
			c-3.6-0.4-5.2-3.1-5.1-6.5c0.3-8,5.4-13.7,10.6-19.5c2-2.2,6.3-6.5,13-13c1.5-0.7,2.3-1.7,2.4-3.2c0.1-0.9-0.3-1.4-1.2-1.5
			c-2-0.3-3.6,0.2-5,1.4c-4.6,3-9.2,5.9-14,8.8c-5.4,3.2-10.1,7.7-15.3,10.9c-2.5,1.6-7.7,3-10.4,0.9c-3.6-2.8-2.8-8.9-0.6-12.2
			c1.5-2.2,3.5-4.5,6.1-6.7c4.3-3.8,8.7-7.5,13.1-11.1c1.4-0.6,2.2-1.6,3.2-2.8c0.5-0.6,0.6-1.2,0.2-1.9c-0.3-0.5-0.9-0.8-1.5-0.7
			c-2.1,0.3-3.7,1-4.8,2c-6.4,3.5-12.3,7.6-17.9,12.4c-3.5,3-6.5,5.2-8.9,6.4c-1.5,0.8-4.6,0.9-6.2-0.1c-4.2-2.7-0.8-9.4,1.8-12.1
			c3.4-3.5,6.8-6.9,10.4-10.1c2-1,3.4-2,4.2-3c1.6-2,1.2-2.5-1.2-1.7c-1.1,0.4-2.6,1.3-4.4,2.7c-2.3,1.1-5,2.7-8.1,4.7
			c-5.7,3.8-14.3-1.3-9.3-8.5c5-7.1,11.8-12.1,18.3-18c3.4-3.1,6.7-5.8,9.9-8.1c10.4-7.6,20.8-14.4,31-21.6
			c4.6-3.2,8.9-6.5,12.9-9.9c2.9-2.5,6-4.8,9.3-7.1c3.3-2.2,6.4-4.5,9.5-6.8L471.7,916.1z"/>
	</g>
	<path class="st6" d="M426,292.1c1.4,0.7,2.2,1.8,2.6,3.1c-0.3,4.4-0.7,8.8-1.2,13.3c-0.5,4.6-0.8,8.9-0.8,13
		c0,3.5-0.3,7.4-0.7,11.5c-0.3,3.2-0.5,6.5-0.6,10c-0.1,4.9-0.4,10.3-0.9,16.2c-0.4,4.4,0.1,8.8-0.5,13.2
		c-1.3,9.6-2.7,19.2-4.2,28.7c-0.2,1.4-0.5,3.6-0.7,6.6c-0.2,2.3-0.5,4.6-1,6.7c-1.5,1.5-3.1,2.1-4.9,1.8c-1-0.7-1.9-0.9-2.6-0.9
		c-3.4,0.4-6.6-0.6-10-0.8c-2.5-0.1-4.4-0.3-5.5-0.6c-4.6-1-9.1-2.6-13.3-4.8c-1.8-1-3.8-1.8-5.8-2.5c-5.1-1.6-9.4-4.6-13.1-9
		c-2.7-3.2-4.9-6.5-6.7-9.8c-3.4-7.5-5.7-15.2-7-23c-0.5-2.8-0.1-5.4-0.6-8c-0.2-1.2-0.3-2.5-0.3-3.8c0.2-7.4,1.6-14.4,4.1-20.9
		c1.6-4,3.9-8.3,7.1-13c3.1-4.5,7.8-9.1,11.8-13.5c1.2-1.3,3.4-3,6.6-5.1c5.3-3.4,11.8-5.6,18-7.3c1.8-0.5,4.2-0.9,7.4-1.3
		c6.6-0.8,15.1-0.7,20.2-0.5C424,291.4,424.9,291.7,426,292.1z"/>
	<g>
		<path class="st7" d="M643.3,578.9c0.2,0.4,0.6,0.6,1.1,0.8c0.3,0.1,0.6,0.3,0.8,0.5c1,1.2,0.5,2.1,0.7,3.4c0.6,2.9,1,5.7,1.4,8.6
			c0,0.3,0.2,0.5,0.5,0.7c0.1,0,0.1,0.1,0.2,0.2c0,0.1,0,0.2-0.1,0.3c-0.4,0.6-0.5,1.2-0.1,1.9c0.2,0.3,0.2,0.6,0.2,0.9
			c0,2,0.2,3.9,0.5,5.8c0.1,0.3,0.2,0.6,0.5,0.9c0.2,0.2,0.2,0.4,0.1,0.7c-0.4,0.6-0.5,1.2-0.2,1.9c0.2,0.5,0.3,1.1,0.3,1.6
			c0.2,2.6,0.2,5.3,0.1,7.9c0,0.3,0.1,0.6,0.4,0.8c0.3,0.2,0.4,0.4,0.3,0.8c-0.5,1.5-0.5,3,0.2,4.5c0.1,0.2,0.1,0.4,0,0.6
			c-0.2,0.5-0.2,0.9-0.1,1.4c0.5,2.2,1.1,4.4,1.8,6.7c0.5,1.8,1.6,3.9,3.5,6.4c0.2,0.3,0.5,0.5,0.9,0.6c0.6,0.1,1,0.4,1.3,0.9
			c0.2,0.4,0.6,0.5,1,0.5c0.7,0,1.3,0.2,1.8,0.5c0.3,0.2,0.6,0.2,0.9,0.2c0.7-0.2,1.3-0.1,1.9,0.3c0.3,0.2,0.6,0.3,1,0.2
			c1.1-0.1,2.1-0.2,3.1-0.1c0.6,0,1.5-0.1,2.6-0.3c0.8-0.2,1.7-0.2,2.7-0.2c1.8,0.1,3,0.8,3.7,2.2c0.5,1,0.8,2.2,0.7,3.4
			c-0.1,3.2-0.1,6.4-0.1,9.6c0,0.7,0.1,1.3,0.3,2c0.3,1,0.3,2,0,2.9c-0.1,0.4,0,0.7,0.4,0.8c0.1,0,0.2,0.1,0.3,0.2
			c0.2,0.2,0.2,0.5,0.2,0.7c-0.3,1-0.6,2-0.9,3.1c-0.3,1.3-1.3,2.3-3.1,2.8c-5.9,1.8-12,2.1-18.1,3c-2.1,0.3-4.2,0.5-6.4,0.7
			c-2.2,0.1-4.4,0.3-6.4,0.5c-3.6,0.4-7.2,0.2-10.8,0.5c-3.1,0.3-6.3,0.5-9.4,0.6c-3.4,0.1-4.9-1.5-6.2-4.5
			c-2.5-5.8-4.2-11.8-5.1-18c-0.7-4.9-0.2-9.6-0.2-14.5c0-0.4-0.1-0.8-0.3-1.2c-0.2-0.4-0.2-0.7,0.2-0.9c0.4-0.2,0.5-0.6,0.5-1
			c-0.3-2-0.1-3.8,0.3-5.5c0.1-0.2,0-0.4,0-0.6c-0.2-0.4-0.1-0.7,0.2-1c0.2-0.2,0.3-0.4,0.3-0.7c0.3-3.6,2.1-5.7,5.5-6.2
			c0.2,0,0.3-0.2,0.4-0.4c0-0.1,0.1-0.2,0.2-0.2c0.3-0.2,0.6-0.2,0.8,0.1c0.2,0.2,0.5,0.3,0.8,0.3c2.7-0.4,5.2-1.1,7.5-2.2
			c2.2-1.1,3.1-4,4.3-6c0.1-0.2,0.2-0.5,0.1-0.7c-0.1-0.4,0-0.7,0.3-1c0.2-0.2,0.3-0.4,0.3-0.7c0.2-2,0.6-4,1.2-5.8
			c0.1-0.4,0.1-0.7,0-1.1c-0.3-0.7-0.3-1.4,0.1-2.1c0.2-0.3,0.3-0.7,0.3-1.1v-6.5c0-0.4,0.1-0.7,0.3-1c0.2-0.3,0.2-0.6,0.1-0.9
			c-0.2-0.4-0.1-0.7,0.2-1c0.3-0.3,0.4-0.6,0.3-1C637.3,583.2,640,580.7,643.3,578.9z"/>
		<path class="st7" d="M500,584.1c4.2,1.9,3.3,5.3,3.3,8.8c0,0.3-0.1,0.5-0.3,0.7c0,0-0.1,0.1-0.1,0.1c-0.2,0.1-0.3,0.2-0.1,0.4
			c0.5,0.5,0.6,1,0.2,1.5c-0.2,0.3-0.3,0.6-0.4,1c-0.3,2.1-0.6,5.5,0.3,7.7c0.5,1.1,0.1,1.9,0.5,3c0.6,1.6,1.4,2.9,2.3,4
			c0.2,0.3,0.5,0.5,0.9,0.6c1,0.2,2,0.5,3,0.7c1,0.3,2,0.4,2.9,0.4c3,0,6.1,0,9.2-0.1c0.2,0,0.5,0.1,0.7,0.2
			c0.9,0.5,1.4,1.6,1.4,3.2c0,0.2,0,0.5-0.1,0.7c-1,3.2-2.2,6.2-3.4,9.1c-0.5,1.2-0.9,2.4-1.2,3.6c-0.3,1.3-0.6,2.5-0.9,3.9
			c-0.9,4.5-1.8,9-2.5,13.4c-0.3,1.7-0.3,3.7,0,6.1c0.8,7,0.4,14.5,0.3,21.5c0,3.3-1.6,5.3-4.7,6.2c-5.5,1.6-15.4,3.4-22.8,5.8
			c-4.4,1.4-9,1.3-13.3,2.6c-5.8,1.7-11.8,3.1-17.9,3.7c-1.3,0.1-2.4-0.4-3.3-1.7c2.7-5.2,6.9-9.9,12.8-14.2c2.7-2,5-5.1,6.8-9.2
			c2.7-6.4,4.9-12.5,6.5-18.4c1.4-5.2,2.1-10.6,2.2-16.2c0-3.2-0.5-7-1.7-11.4c-0.9-3.5-1.9-7.3-2.8-11.5c-1.3-5.8-2.8-9.8-7.2-13.5
			c-5.7-4.9-11.2-9-16.5-12.3c-1.5-1-2.7-2.5-4.2-3.7c4.5-0.6,9-0.6,13.5,0c3.6,0.5,6.3,0.8,8,0.9c6.1,0.5,12.3,1.8,18.5,1.8
			C493.3,583.6,496.7,583.7,500,584.1z"/>
		<path class="st7" d="M358,585.5c-2.7,3.6-5.4,6.9-8.1,9.6c-5.7,6-11.4,11.7-16.9,17.2c-2.4,2.4-4.7,5-6.8,7.7
			c-4.8,6.3-10.2,11.9-15.2,18c-3.8,4.5-7.5,8.8-11.2,13.7c-6.2,8.3-13,15.5-18.8,24.6c-2,3.1-4,6.5-6,10.1c-2.8,5-5.8,9.8-8.8,14.5
			c-1.8,0.1-2.9-0.1-3.4-0.5c-4-3.7-7.5-8-10.3-12.7c-2.6-4.4-4.6-9.4-5.9-14.9c-1.4-6.4-2.4-12.1-3-17.1c-0.2-1.7-0.2-3.3-0.1-4.9
			c0.1-1.2,0-2.5-0.3-4c-0.5-2.4,0.5-4.9-0.6-7.3c-0.1-0.3-0.2-0.6-0.1-0.9c0.2-1.3,0.2-2.7-0.1-4c-0.1-0.3,0-0.7,0.2-0.9
			c0.4-0.6,0.6-1.3,0.4-2.1c-0.1-0.3,0-0.6,0.1-0.9c0.1-0.3,0.2-0.7,0.3-1.1c0.5-5.2,1.6-10.7,3.2-16.4c0.8-2.8,2.5-4.4,5.2-5
			c3.2-0.7,6.4-1.3,9.5-1.7c3.8-0.5,8.5-1.3,14.3-2.4c2-0.4,4.1-0.7,6.2-1.1c2.8-0.5,5.6-1.1,8.3-1.8c3.3-0.8,9.1-2,17.4-3.5
			c6.5-1.2,12.9-2.9,19.1-4.9c4.4-1.4,8.8-2.2,12.9-3.8c2-0.8,4.8-1.8,8.5-3.2C352.2,584.3,355.4,584.2,358,585.5z"/>
	</g>
	<g>
		<path class="st8" d="M705.8,523.7c2.8,1.4,4.2,4.2,4.3,8.5c0.1,3.1,0.1,6-0.1,8.5c-0.2,4.4-0.4,7.3-0.3,8.5
			c0,8.4-0.5,17.1,0.4,25.5c0.3,3.3,0,6.7,0.2,10c0.3,4.8,0.7,9.5,1.2,14.2c0.2,2.2,0.1,5-0.2,8.2c-0.3,2.5-0.2,5.3,0.1,8.3
			c0.4,3.5,0.6,7.3,0.6,11.5c0,4.8,0.9,9,1.6,13.6c0.6,3.5,0.4,6.9,0.4,10.5c-0.1,3.5-1.7,5.8-4.8,6.9c-7.7,2.6-14.7,4.6-21,6.1
			c-4.9,1.1-7.7-0.8-8.4-5.7c-0.6-4.1-0.9-8.5-0.9-12.7c0-2.2-0.2-4.5-0.7-7c-0.7-3.9-3.3-4.4-6.9-4c-1.7,0.2-3.4,0.3-5.1,0.5
			c-2.2,0.2-3.9,0.1-5.1-0.2c-5.8-1.6-7.7-7.5-8.3-12.8c-1-7.8-0.6-15.8-1.8-23.6c-0.7-4.5-1.1-8.4-1.4-11.9
			c-0.2-3.6-0.1-8.1,0.4-13.5c3.6-4,7.4-7.8,11.4-11.5c7.6-6.9,11.6-10.6,11.9-10.9c4.5-4.3,8.9-8.6,13.4-12.9
			C691.2,533.4,697.5,528.7,705.8,523.7z"/>
		<path class="st8" d="M249.2,606.9c-2.8,0.7-4.2,2.8-4.7,5.4c-0.8,4.3-1.7,8.6-2.8,12.9c-1.3,5.3-1.1,11.1-0.9,16.6
			c0.2,5.3,0.7,11.4,1.3,18.5c0.4,4.7,1.5,10.2,3.3,16.5c3.1,10.8,8.5,18.9,16.2,26.8c2,2.1,2,4.2,0.1,6.3l-0.3,0.3
			c-1.9,2-3.8,2-5.6-0.1c-2.3-2.6-3.9-4.9-4.8-6.9c-2-4.2-4-8.3-6-12.5c-2.4-4.9-3.8-10-6-14.6c-3-6.2-5.2-12.7-8.4-18.7
			c-6.5-12.2-11.4-25.4-16.8-38.3c-1.8-4.3-2.9-8.9-4.3-13.3c-1.9-6.2,1.5-10.2,6.2-13.9c2.7-2.1,5.4-4.7,8-7.8
			c3.8-4.5,8.3-8.2,11.6-12.8c1.7-2.3,3.6-4.7,5.9-7.1c3.2-3.4,6-7.2,9.9-10.2c3.4-2.5,6.3-2.4,9,1.2c5.6,7.7,10,16.8,14.1,25.3
			c1,2,2.2,4,3.6,6.2c2,2.9,4.1,5.9,4.9,9.2c0.5,2.2-0.9,4.4-3.1,4.9C270,603.1,259.3,604.3,249.2,606.9z"/>
		<path class="st8" d="M628.6,588.1c1.3,1.3,2,2.7,2.2,4c0.2,1.8,0.3,5,0.1,9.5c-0.1,2.3-0.6,4.5-1.3,6.7c-2.2,6.8-8.4,6.7-14.3,7.8
			c-4.3,0.8-5.8,6.1-6.4,10.1c-0.3,2.1-0.5,4.2-0.7,6c-0.2,3.6,0.9,6.5,0.1,10.3c-0.6,2.9-2.3,4.5-5.1,4.7
			c-9.2,0.6-18.5,1.4-27.8,2.3c-3.5,0.3-8.6,0.1-15.5-0.6c-3.6-0.4-7.3,0.1-11-0.4c-3.4-0.4-7.3-0.3-11.7,0.6
			c-4.1,0.8-9.2,0.8-13.2-0.4c-2.8-0.9-4.1-2.9-3.9-6.2c0.6-8.2,3.4-15.4,5.9-23c1-3,1.5-8.2-3.1-8.6c-3.3-0.2-6.6-0.3-9.8-0.3
			c-2.5,0-4.6-0.7-6.2-2.2c-2.8-2.5-2.6-8.8-1.9-12.3c0.9-3.9,2.2-7.7,3.9-11.5c3.1-1,5.9-1.4,8.3-1.1c11.6,1.2,23.9,1.3,36,2.5
			c8.3,0.8,17.8,0.4,26.3,0.8c6.3,0.3,12.7,0.2,19.3,0.6c3.2,0.2,6,0.2,8.3,0C614.9,586.7,622.1,587,628.6,588.1z"/>
		<path class="st8" d="M250.6,725.7l-7.3,8.5c-0.9,1-1.8,1.8-2.9,2.3c-1.7-1.1-3.2-2.8-4.3-5c-3.8-7.7-8.6-15.3-11.7-23.4
			c-2.8-7-6.2-13.5-8.8-20.8c-1.8-5-3.8-9.9-6.5-14.7c-3.4-6.2-6.1-13-9.1-19.2c-2-4.2-3.8-8.6-6-12.6c-4.5-8.4-8.4-17.2-11.9-26.4
			c-0.5-1.3-0.4-2.5,0.2-3.6c0.5-0.9,1.3-1.6,2.5-2.2c4.3-1.9,8.6-3.9,13-5.9c0.6-0.3,2.1-0.7,4.4-1.1c0.3-0.1,0.6,0,0.9,0.1
			c1.6,0.8,2.7,2.1,3.3,3.8c1.9,5.7,3.6,11.2,5.9,16.8c4.1,10,8.3,19.7,12.5,29c2.1,4.7,5.1,9.3,6.9,14.3c1.1,3.1,2.1,6.1,3.6,9
			c5.2,10.3,7.9,21.9,13.7,31.9c1.9,3.3,3.3,6,4.2,8.2C254.7,718,253.8,721.7,250.6,725.7z"/>
		<path class="st8" d="M489.6,957c-3.8-1.6-7.6-3.1-11.2-4.5c-2.5-1-4.7-2.3-6.6-4c-3.2-2.9,0.2-7,1.8-9.7
			c5.4-9.2,9.2-15.1,11.4-17.8c4.2-5,8.5-10.7,13-17c1.8-2.5,3.7-4.4,5.9-5.8c1.1-0.7,2.5-0.5,3.3,0.5c0.4,0.5,0.7,1.1,0.8,1.7
			c0.8,3,1.4,6,1.9,9.1c0.4,2.7,1.1,4.9,2.1,6.8c2.6,4.8,7.8,8.5,12.8,10.3c6.3,2.3,12.3,3.8,17.9,4.7c5.1,0.8,10.4,1.5,15.8,2.3
			c3.7,0.5,7.5-0.3,11.3-0.4c8.4-0.3,18.1-0.3,25.6-2.6c5.9-1.8,10-3.2,12.3-4.4c8.2-4.2,14.9-9.4,18.2-18.2
			c0.9-2.4,1.7-4.7,2.4-7.1c0.7-2.4,2.3-3.3,4.9-2.9c4.7,0.8,9.1,2.3,13,4.2c2.7,1.3,3.5,3.6,2.6,6.9c-1.8,6.2-4.5,11.8-6.4,17.8
			c-1.3,4-3.5,7-5,10.8c-2.5,6.1-6,11.7-8.3,17.9c-2.3,6.4-5.8,10.9-9,16.2c-3.1,5.1-6,6.9-11.8,5.8c-8.3-1.7-16-4.6-24.2-6.2
			c-2.7-0.6-5.4-1.2-8.1-1.9c-4-1-8-1-12.1-2.1c-7.3-1.9-15.5-3.9-23.1-3.4c-4.5,0.3-9,0.8-13.4,0.4c-7.9-0.8-15.1-2-21.5-3.7
			c-3-0.8-5.7-1.3-8.1-1.6C494.7,958.6,492,957.9,489.6,957z"/>
		<path class="st8" d="M515.9,964.8c6,0.4,11.9,2.1,18.1,1.6c7.2-0.6,14-0.2,20.2,1.5c7.2,1.9,14.5,3.2,21.8,4.6
			c3.6,0.7,7.7,1.7,12.4,3.1c6.7,1.9,13.4,3.5,20.2,4.9c2.7,0.5,5.3,1.6,3.9,4.8c-2.1,4.7-4.3,8.9-6.6,12.8
			c-1.5,2.5-3.6,3.8-6.3,3.9c-3.2,0.1-6.3,0.1-9.3-0.1c-7.9-0.5-16.8-1.1-26.8-2c-2.6-0.2-5.3-0.4-7.9-0.5c-3.3-0.1-6-0.5-7.9-1
			c-18.2-4.9-36.2-8.3-54.2-10.2c-2.5-0.3-6.5-1.1-12-2.6c-5.3-1.4-10.7-2.7-16.1-3.7c-3.5-0.7-9.5-2.1-7.6-7.2
			c1.7-4.8,8-20.6,12.4-21.6c0.8-0.2,1.8,0,3,0.5c5.1,2.3,10.4,4.2,15.8,5.9c2.8,0.9,5.4,1.4,8,1.7c3.9,0.4,6.6,0.8,8.1,1.3
			C509.7,963.8,513.3,964.6,515.9,964.8z"/>
	</g>
	<g>
		<path class="st9" d="M499.9,249.7c2.9-0.4,5.8-0.7,8.8-0.9c3.6-0.3,6.8-0.8,10.4-0.5c5.2,0.5,9.6,0.5,13.2,0.2c12-1.2,23-2,33-2.4
			c2.1-0.1,4.3,0,6.8,0.3c6.6,0.8,16.5,2.5,29.6,5c1.7,0.3,3.1,0.9,4,1.8c0.3,0.3,0.4,0.6,0.4,1c-0.1,1.2-0.7,2-1.7,2.6
			c-5.8,3.2-10.9,6.8-15.3,10.9c-2,1.8-3.9,3.4-5.9,4.8c-4.3,3.1-8.7,6.5-13.3,8.8c-3.3,1.6-6.2,4.3-9.7,5.2
			c-3.4,0.9-6.7,1.1-9.9,0.8c-3.6-0.4-6.9-0.6-10.8,0c-7.2,1.1-15.1,1.4-23.9,0.8c-10.2-0.7-22.2,0-33.1,1.1
			c-5.3,0.6-10.2,0.7-15,0.3c-3.3-0.3-6.5-0.4-9.5-0.4c-4.5,0-9.3-0.3-13.8,0.3c-1.7,0.2-5.3,0.6-6.7-0.9c-0.7-0.7-0.7-1.5,0-2.2
			c6.6-6.9,13.3-13.9,21.1-19.2c6.9-4.7,14.3-11.9,22.7-13.8c1.7-0.4,3.6-0.7,5.6-0.9C491.5,251.8,495.6,250.2,499.9,249.7z"/>
		<path class="st9" d="M608.5,289.1c0.5,16.4,0.9,32.8,0.3,49.2c0,12.8-0.4,22-1.2,27.5c-1,6.5-1.3,12.3-0.9,17.5
			c0.3,4.2,0.4,7.8,0.2,10.9c-0.1,1.8-1.1,3.3-2.9,4.4c-2.6,1.6-5.4,3-7.8,4.7c-5.4,3.8-11.2,7.3-17.3,10.3
			c-6.7,3.4-12.7,7.4-18.9,11.4c-1.6,1.1-4.1,0.9-4.5-1.4c-0.2-1.1-0.3-2.1-0.2-2.9c0.3-15.7,0.4-31.1,0.4-46.1c0-3-0.7-6.4-0.7-9.5
			c0-8.2,0-16.4,0-24.5c0-2.2,0.1-4.6,0.4-7.1c0.2-1.6,0.2-3.2,0.1-4.8c-0.2-3.9,0.7-7.6,0.3-11.5c-0.6-6.3-0.3-12.9-0.2-19.1
			c0-3.3,1.9-5.6,4.7-7.4c3.3-2.1,6.3-4.8,9.6-6.7c10-5.8,19.1-12.3,27.2-19.4c2.2-1.9,5-3.8,7.8-4.8c3.5-1.3,4.3,2.9,4.4,5.4
			c0.3,6.8,0.2,13.1-0.4,18.8C608.6,285.6,608.5,287.3,608.5,289.1z"/>
		<path class="st9" d="M651.9,460.2c-3,2.3-6.6,3-10.2,2.6c-11.1-1-22.4-2.6-33.8-2.4c-4.1,0-8.1-0.2-12.1-0.8
			c-8.6-1.3-17.7-2.4-27.4-3.3c-5.1-0.5-10.2-0.7-15.3-0.8c-4.2,0-11.1-1.4-16.8-1.6c-2.8-0.1-5.5-0.7-8.2-0.5c-1,0-2-0.1-2.9-0.6
			c-0.3-0.1-0.5-0.4-0.5-0.7c-0.3-1.1,0.2-2,1.3-2.7c5.3-3.1,10.4-6.4,15.3-9.8c5.2-3.6,11.1-6.5,16.3-10.2
			c4.3-3.1,8.8-5.9,13.2-8.8c1.9-1.2,3.8-2.3,5.7-3.3c10.5-5.3,21.1-11.4,31.6-18.1c2.3-1.4,4.5-2.4,6.7-2.9
			c5.3-1.1,9.9-0.3,15.1-0.2c6.7,0.1,13.6,0.5,20.8,1.3c3.8,0.4,7.4-0.8,11.4-0.2c3.4,0.5,7,0.9,10.6,1.3c3.5,0.4,7,0,10.3,0.4
			c1.4,0.2,2.8,0.3,4.3,0.3c5.7,0.1,11.3,0.4,16.9,0.9c2.9,0.3,5.7,0.4,8.2,0.4c2.8,0,5.7,0.2,8.6,0.8c1.2,0.2,2,1.4,1.7,2.6
			c0,0.1,0,0.2-0.1,0.3c-0.2,0.6-0.7,1.2-1.3,1.7c-2.3,1.9-4.4,3.5-6.3,4.7c-4.2,2.7-9.2,6.3-15,10.9c-3.1,2.4-6.2,4.9-9.2,7.4
			c-2,1.7-4,3.2-5.8,4.6c-4.5,3.3-8.7,6.3-12.9,10.2c-3,2.8-6.4,5-9.5,7.6C659.2,454.5,655.6,457.4,651.9,460.2z"/>
		<path class="st9" d="M731.5,458c-0.7,4.3-1.1,9.1-1.2,14.6c0,3.9-0.4,8-1,12.2c-0.8,5-1.5,9.6-2.1,13.9
			c-1.3,8.8-13.1,15.2-20.1,19.2c-1.9,1.1-4.1,2.6-6.6,4.6c-7.6,6-14.7,12.2-21.3,18.6c-7.1,6.9-14.7,13.8-21.5,20.7
			c-1.9,1.9-4,3.7-6.5,5.3c-3,2-5.7,4.5-8.1,7.5c-0.8,1.1-1.9,1.8-3.1,2.3c-1,0.4-2,0-2.5-0.9c-0.6-1.1-0.9-2.4-0.7-3.8
			c2.1-19.6,4.2-39.2,6.3-58.8c0.4-3.7,1.7-9.2,2.1-13.9c0.2-2.1,0.4-4,0.7-5.8c1.1-7.6,2-15.2,2.7-22.8c0.3-2.8,1.5-5.2,3.9-7.2
			c6.3-5.4,12.7-10.5,19.1-15.2c2.3-1.7,4.4-3.6,6.4-5.8c4.6-5,10.8-8.5,16.2-12.9c4.4-3.6,9.7-7.5,15.9-11.8
			c6.4-4.4,12.5-8.6,18.4-12.6c5.5-3.7,5.8,3.6,5.6,6.9c-0.4,6.1-0.4,11.4,0,16.2c0.2,2.8,0.3,5.5,0.1,8.2
			C733.5,444,732.6,451.2,731.5,458z"/>
		<path class="st9" d="M435.4,420.4c1.8-0.1,3.5-0.1,5.3,0.1c3.4,0.3,6.9,0.1,10.4,0.4c8.3,0.7,16.5,1.4,24.8,2.2
			c3.3,0.3,6.5,0.8,9.5,1.4c4.1,0.8,8,2,12.1,2.5c5.1,0.6,11.6,0.6,19.5,0.2c9.6-0.6,18.8,0.6,27.7,3.5c0.7,0.2,1.2,1,1.1,1.8
			c-0.1,0.9-0.6,1.7-1.5,2.3c-2.8,2-5.3,3.9-7.6,5.8c-1.9,1.5-4.6,3.1-8.1,4.7c-3.4,1.6-6.5,3.3-9.5,5.2c-1.6,1.1-3.5,1.6-5.7,1.7
			c-8.6,0.2-17.4,0.4-26.3,0.4c-6.9,0.1-13.6,0.3-20,0.5c-7,0.3-14.4,0.6-22.1,1c-3.7,0.2-7,0-9.8-0.5c-5.1-0.8-9.9-1.4-15.1-1.2
			c-8,0.3-15.9,0.4-23.8,0.1c-5.9-0.2-11.3,2-17.1,0.3c-1.1-0.3-1.8-1.5-1.5-2.6c0-0.1,0.1-0.2,0.1-0.4c0.3-0.6,0.7-1.2,1.3-1.7
			c4.5-3.8,8.6-6.8,12.2-8.9c3-1.7,5.7-3.6,8.3-5.7c3.9-3.1,8-6.3,12.4-9.6c2.4-1.8,4.7-2.7,7.1-2.8
			C424.6,421,430,420.7,435.4,420.4z"/>
	</g>
	<g>
		<path class="st10" d="M608.5,289.1c0-1.7,0.1-3.5,0.2-5.2c0.6-5.7,0.7-12,0.4-18.8c-0.1-2.4-0.9-6.7-4.4-5.4c-2.8,1-5.6,3-7.8,4.8
			c-8.1,7.1-17.2,13.6-27.2,19.4c-3.3,2-6.3,4.6-9.6,6.7c-2.9,1.8-4.7,4.1-4.7,7.4c0,6.2-0.3,12.8,0.2,19.1
			c0.4,3.9-0.5,7.6-0.3,11.5c0.1,1.6,0,3.2-0.1,4.8c-0.2,2.6-0.4,4.9-0.4,7.1c0,8.1,0,16.2,0,24.5c0,3.2,0.7,6.5,0.7,9.5
			c0.1,15,0,30.4-0.4,46.1c0,0.9,0.1,1.8,0.2,2.9c0.4,2.3,2.8,2.4,4.5,1.4c6.2-4.1,12.2-8.1,18.9-11.4c6.1-3,11.9-6.5,17.3-10.3
			c2.5-1.7,5.2-3.1,7.8-4.7c1.8-1.1,2.8-2.6,2.9-4.4c0.2-3.1,0.1-6.7-0.2-10.9c-0.4-5.2-0.1-11.1,0.9-17.5
			c0.9-5.6,1.3-14.7,1.2-27.5c-0.1,1.9,0,3.7,0.4,5.6c1.1,5.5,1.1,10.8-0.2,16c-0.5,2.1,0.2,4.4,0.3,6.6c0.2,4.6,0.2,9.2,0.2,13.6
			c0,1.5,0.6,2.8,0.5,4.2c-0.1,2.5,2.3,5.1,4.3,6.7c0.5,0.4,0.9,0.5,1.1,0.4c0.1,0.3,0.2,0.5,0.5,0.6c4.9,1,9.8,1.5,14.7,1.4
			c1.4,0,2.9,0.1,4.6,0.3c3.1,0.3,6.2,0,9.3,0.4c1.6,0.2,3.3,0.3,5,0.4c8.2,0.3,16.7,0.8,25.5,1.6c2.7,0.2,5.3,0.4,7.8,0.4
			c3.6,0,7.7-0.4,11.3,0.3c1.4,0.3,3.1,0.1,4.6,0.2c3.9,0.3,7.9,0.5,11.8,0.8c0.3,0,0.6,0.1,0.9,0.2c0.3,0.1,0.7,0.2,1.1,0.2
			c6.3,0,12.3,0.5,17.9,1.5c4.1,0.7,6.2,3.1,6.4,7.3c0.3,5.5,0.3,11,0,16.8c0,0.7,0,1.4,0,2.1c0,6.5-0.2,12.2-0.5,17.1
			c-0.3,5-1.2,11.6-2.7,20c-0.4,1.9-0.5,4-0.6,6.2c0,2.1-0.2,4.2-0.4,6.3c-0.6,5.5-1.2,11.2-1.9,17.3c-0.3,2.3-0.6,4.4-1,6.5
			c-0.9,4.4-1.5,8.9-5.3,11.6c-4.6,3.3-9.1,6.8-13.5,10.4l-5.2,2.6c-8.3,5.1-14.6,9.8-19.1,14.1c-4.4,4.3-8.9,8.6-13.4,12.9
			c-0.4,0.3-4.3,4-11.9,10.9c-4,3.7-7.8,7.5-11.4,11.5l-6.7,5.8c-3.3,1.8-6.1,4.3-8.2,7.7l-6.5,1.5c-6.6-1.1-13.7-1.4-21.5-0.7
			c-2.4,0.2-5.2,0.2-8.3,0c-6.5-0.4-13-0.3-19.3-0.6c-8.5-0.4-18.1,0-26.3-0.8c-12.2-1.2-24.4-1.4-36-2.5c-2.4-0.2-5.2,0.1-8.3,1.1
			l-8.9-0.4c-3.3-0.4-6.6-0.6-10.1-0.6c-6.2,0-12.4-1.3-18.5-1.8c-1.7-0.1-4.4-0.4-8-0.9c-4.5-0.6-9-0.6-13.5,0
			c-3-0.9-6.1-1.6-9.3-2.1c-2.9-0.4-5.5-0.9-7.9-1.4c-2.9-0.6-5.5-0.8-7.9-0.7c-1.6,0.1-2.9-0.6-4.6-0.5c-1.1,0.1-2.3,0-3.4-0.3
			c-2.4-0.6-4.9-0.9-7.3-0.9c-1.5,0-2.8-0.6-4.3-0.5c-1,0.1-2.1,0-3.1-0.2c-3.2-0.5-6.3-0.8-9.4-1c-1.6-0.1-3.3-0.3-4.9-0.6
			c-1.6-0.3-3.2-0.4-4.9-0.3c-3.3,0.1-6.6-0.2-9.8-0.9c-1.3-1-2.7-2-4.1-3.1c-1.7-1.3-2.9-2.5-3.6-3.6c-1.5-2.4-2.1-5.3-1.6-8.5
			c0.4-1.4,0.6-2.8,0.4-4.1c0.5-2,0.8-4,0.8-6c0-2.2,0.1-4.3,0.3-6c0.2-1.8,0.2-3.6-0.1-5.3c-0.6-4.6,0-9.1-0.5-13.6
			c-0.4-3.4,0-6.8-0.5-10.2c-1.2-8.3,0-16.6-0.1-25c-0.1-6.4,0.1-12.3,0.5-17.8c0.4-5.1,1.8-9.2,4.1-12.3c4.3-5.7,9.9-11,16.9-15.9
			c3.3-2.3,6.8-3.4,10.1-6c5.3-4.1,10.5-8.2,15.8-12.2c1.6-0.7,2.9-1.6,3.9-2.7l2.5-4.7c0.5-2.1,0.8-4.3,1-6.7
			c0.2-3,0.4-5.2,0.7-6.6c1.5-9.6,2.9-19.1,4.2-28.7c0.6-4.3,0.1-8.8,0.5-13.2c0.5-5.8,0.8-11.2,0.9-16.2c0.1-3.4,0.3-6.7,0.6-10
			c0.4-4.1,0.7-7.9,0.7-11.5c0.1-4.1,0.3-8.4,0.8-13c0.5-4.4,0.9-8.9,1.2-13.3l0.8-3.3c1.9-4,4.6-7.4,8.1-10.3
			c1.7-1.4,3.4-3,4.9-4.6c0.2-0.2,0.5-0.4,0.8-0.6c1.6-0.8,3.8-3.4,5-4.7c1.5-1.6,2.9-3,4.3-4c4.4-3.2,8.7-6.3,12.8-9.4
			c2.5-1.9,4.9-3.6,7-5c3.7-2.5,8.1-3.8,13.1-3.9c2.8,0,5.1-0.1,7-0.5c10-2.2,20.3-3.2,31-2.9c1.4,0,2.7,0.7,4.6,0.1
			c0.3-0.1,0.6-0.2,1-0.1c1.3,0.2,2.5,0.1,3.7-0.1c1.3-0.3,2.4-0.4,3.3-0.3c1.3,0.1,1.5-0.3,0.6-1.2c-0.6-0.5-1-1.2-1.3-2
			c-1.5-4.6-3.6-9-4.8-13.7c-1.4-5.6-2.6-11.4-3.6-17.4c-2-12,4.7-26.5,12.8-34.5c2.5-2.5,6.1-5.5,10.9-8.9
			c3.7-2.7,6.7-5.5,10.1-8.4c1.1-0.9,2.4-1.8,3.8-2.3c3.1-1.1,6-2.5,8.6-4c2.9-1.7,4.9,1.2,5.6,3.8c1.3,5.1,3.2,10.2,4.4,15.4
			c2,8.3,5.5,16.2,8.1,24.3c3.4,10.6,7.1,21,11,31.3c2,5.4,3.8,10.8,5,16.2c0.2,1,0.1,2-0.3,3c-0.1,0.3-0.4,0.6-0.7,0.8l-1.7,0.8
			c-0.5,0.2-0.5,0.5,0,0.7c4.8,2.1,8.5,6.1,7.3,11.7c-0.9,4.3-1,8.8-1,13.2c0,0.3-0.1,0.5-0.3,0.7c-0.1,0.1-0.2,0.2-0.2,0.3
			c-0.1,1.5-0.2,3.2-0.2,5.1C609.8,282,609.3,284.9,608.5,289.1z M499.9,249.7c-4.3,0.6-8.4,2.1-12.8,2.5c-2,0.2-3.9,0.5-5.6,0.9
			c-8.4,1.9-15.8,9.2-22.7,13.8c-7.8,5.3-14.5,12.3-21.1,19.2c-0.7,0.7-0.7,1.5,0,2.2c1.4,1.5,5,1.2,6.7,0.9
			c4.5-0.6,9.3-0.3,13.8-0.3c3,0,6.2,0.1,9.5,0.4c4.7,0.4,9.7,0.3,15-0.3c10.9-1.2,23-1.8,33.1-1.1c8.7,0.6,16.7,0.3,23.9-0.8
			c3.9-0.6,7.2-0.3,10.8,0c3.2,0.3,6.5,0.1,9.9-0.8c3.4-0.8,6.4-3.5,9.7-5.2c4.6-2.3,9-5.7,13.3-8.8c2-1.4,3.9-3,5.9-4.8
			c4.4-4,9.5-7.7,15.3-10.9c1-0.6,1.6-1.4,1.7-2.6c0-0.4-0.1-0.7-0.4-1c-0.9-0.9-2.3-1.5-4-1.8c-13.1-2.5-23-4.1-29.6-5
			c-2.5-0.3-4.7-0.4-6.8-0.3c-10.1,0.4-21.1,1.2-33,2.4c-3.6,0.4-8,0.3-13.2-0.2c-3.5-0.3-6.8,0.2-10.4,0.5
			C505.7,249,502.8,249.3,499.9,249.7z M425.8,379.4c-1.5,11.8-4.5,23.5-4,35.2c0.1,2.2,1.9,3.9,4.1,3.8c7.2-0.2,14.2-0.2,20.9-0.1
			c4.2,0,8,1,12,1.3c7.5,0.6,15,1.3,22.5,2.1c2,0.2,4,0.6,5.8,1.1c8.3,2.2,16.2,2.9,23.8,2.1c8.2-0.9,14.9-0.9,20.3-0.3
			c5.2,0.7,10.5,1.4,15.9,2.3c4.9,0.8,5.3-4,5.3-7.4c0-11.8,0-23.5,0.4-35.3c0.2-5.7,0.1-11.3-0.2-16.9c-0.1-1.3,0-3.6,0.2-6.7
			c0.1-2.1,0.2-4.4,0-6.7c-0.4-7.8-0.5-15.6-0.2-23.4c0.1-4.6-0.1-9.3,0-13.9c0-3-0.1-6.5-0.5-10.5c-0.4-4.3-0.5-7.8-0.3-10.6
			c0.7-9.7-14.1-5.4-18.9-5.2c-6.1,0.2-11.9-0.2-17.8-0.5c-11.3-0.6-22.9-0.1-34.8,1.4c-4.6,0.6-9.5,0.5-14.8-0.1
			c-2.1-0.2-4.3-0.3-6.7-0.1c-2.4,0.2-4.9,0.2-7.5,0.1c-4.9-0.2-9.9,0.1-14.9,1.1c-2.6,0.5-4,1.8-4.3,3.9c-1.8,15.8-3,32.1-3.7,48.6
			C428,358.3,427.1,369.9,425.8,379.4z M641.7,462.8c3.6,0.3,7.2-0.4,10.2-2.6c3.7-2.8,7.3-5.7,10.8-8.8c3.1-2.6,6.5-4.8,9.5-7.6
			c4.2-3.9,8.4-6.9,12.9-10.2c1.9-1.4,3.8-2.9,5.8-4.6c3-2.5,6.1-5,9.2-7.4c5.8-4.5,10.8-8.1,15-10.9c1.9-1.2,4-2.8,6.3-4.7
			c0.6-0.5,1-1.1,1.3-1.7c0.4-1.2-0.2-2.4-1.4-2.9c-0.1,0-0.2-0.1-0.3-0.1c-2.9-0.6-5.7-0.9-8.6-0.8c-2.5,0-5.3-0.1-8.2-0.4
			c-5.5-0.5-11.1-0.9-16.9-0.9c-1.5,0-2.9-0.1-4.3-0.3c-3.4-0.4-6.8,0-10.3-0.4c-3.6-0.4-7.2-0.8-10.6-1.3
			c-3.9-0.6-7.5,0.6-11.4,0.2c-7.2-0.7-14.2-1.1-20.8-1.3c-5.2-0.1-9.8-0.9-15.1,0.2c-2.2,0.5-4.5,1.4-6.7,2.9
			c-10.6,6.7-21.1,12.8-31.6,18.1c-1.9,1-3.8,2.1-5.7,3.3c-4.4,2.9-8.9,5.7-13.2,8.8c-5.2,3.7-11.1,6.6-16.3,10.2
			c-4.9,3.4-10,6.6-15.3,9.8c-1.1,0.7-1.6,1.6-1.3,2.7c0.1,0.3,0.3,0.5,0.5,0.7c0.9,0.4,1.9,0.6,2.9,0.6c2.7-0.1,5.4,0.5,8.2,0.5
			c5.8,0.1,12.6,1.5,16.8,1.6c5.1,0,10.2,0.3,15.3,0.8c9.7,0.9,18.8,2,27.4,3.3c3.9,0.6,7.9,0.9,12.1,0.8
			C619.3,460.3,630.6,461.8,641.7,462.8z M731.5,458c1.2-6.9,2-14,2.5-21.4c0.2-2.7,0.2-5.4-0.1-8.2c-0.4-4.7-0.4-10.1,0-16.2
			c0.2-3.2-0.1-10.6-5.6-6.9c-5.9,4-12,8.2-18.4,12.6c-6.2,4.3-11.5,8.2-15.9,11.8c-5.4,4.4-11.6,7.9-16.2,12.9
			c-2,2.1-4.1,4.1-6.4,5.8c-6.4,4.8-12.8,9.8-19.1,15.2c-2.3,2-3.6,4.4-3.9,7.2c-0.7,7.6-1.6,15.1-2.7,22.8
			c-0.3,1.8-0.5,3.7-0.7,5.8c-0.4,4.7-1.7,10.2-2.1,13.9c-2.1,19.6-4.2,39.2-6.3,58.8c-0.2,1.4,0.1,2.7,0.7,3.8
			c0.5,0.9,1.6,1.3,2.5,0.9c1.2-0.5,2.2-1.2,3.1-2.3c2.4-3,5.1-5.5,8.1-7.5c2.4-1.6,4.6-3.4,6.5-5.3c6.8-6.9,14.4-13.8,21.5-20.7
			c6.6-6.3,13.7-12.5,21.3-18.6c2.5-2,4.7-3.5,6.6-4.6c7-4,18.8-10.3,20.1-19.2c0.6-4.3,1.3-8.9,2.1-13.9c0.7-4.2,1-8.3,1-12.2
			C730.4,467.2,730.8,462.3,731.5,458z M435.4,420.4c-5.4,0.3-10.8,0.6-16.1,0.8c-2.4,0.1-4.8,1-7.1,2.8c-4.4,3.3-8.5,6.5-12.4,9.6
			c-2.6,2.1-5.4,3.9-8.3,5.7c-3.6,2.1-7.7,5-12.2,8.9c-0.6,0.5-1,1-1.3,1.7c-0.5,1.1-0.1,2.4,1,2.9c0.1,0.1,0.2,0.1,0.4,0.1
			c5.8,1.6,11.2-0.5,17.1-0.3c7.9,0.3,15.8,0.2,23.8-0.1c5.2-0.2,10.1,0.4,15.1,1.2c2.9,0.5,6.2,0.6,9.8,0.5
			c7.7-0.3,15.1-0.7,22.1-1c6.4-0.3,13.1-0.5,20-0.5c8.9-0.1,17.7-0.2,26.3-0.4c2.2,0,4.1-0.6,5.7-1.7c3-1.9,6.2-3.7,9.5-5.2
			c3.5-1.6,6.1-3.2,8.1-4.7c2.3-1.8,4.8-3.7,7.6-5.8c0.8-0.6,1.3-1.4,1.5-2.3c0.1-0.8-0.3-1.5-1.1-1.8c-8.9-2.9-18.1-4.1-27.7-3.5
			c-7.9,0.5-14.4,0.4-19.5-0.2c-4.1-0.5-8.1-1.7-12.1-2.5c-3-0.6-6.2-1.1-9.5-1.4c-8.3-0.7-16.5-1.5-24.8-2.2
			c-3.5-0.3-7-0.1-10.4-0.4C438.9,420.4,437.2,420.3,435.4,420.4z M493.1,580.2c3.4-0.1,8.4,1.8,10.7-1.8c2.1-3.4,1.4-7.6,2-11.3
			c1.4-7.6,2.2-17.5,2.5-29.8c0.2-8.8,0-17.4,0.7-26c0.3-3.3,0.6-6.7,0.9-10c0.4-4.3,0.2-8.6,0.5-13c0.4-5.8,1-11.7,1.7-17.6
			c0.4-2.9,0.1-5.7,0.6-8.5c0.5-2.5-0.1-6.6-3.3-6.8c-2-0.1-3.9-0.1-5.7,0.2c-7.4,1.2-14.3,0.2-21.6,0.2c-12.2,0-24.2,0.5-35.9,1.4
			c-5.2,0.4-9.6-0.2-14.6-1.1c-8.1-1.4-17.2-1-25.4-0.6c-3.5,0.2-7.1,0.2-10.8,0.2c-4.4,0-8.5,1-12.9,0.9c-6.8-0.2-12.5-1-14.5,7.3
			c-1.1,4.7-2.2,9.9-1.7,14.8c0.5,5.1-0.2,10.4-0.5,15.5c-0.3,6.1,0.3,12,0.3,18.2c0.1,6.6,0.8,13.1,1.1,19.6
			c0.2,4.8,0,9.4-0.1,14.3c0,2.3-0.1,4.7-0.3,7.1c-0.2,3.2-0.2,6.9,1.4,9.7c2.4,4.2,10.7,6,15,5.8c2.4-0.1,4.7-0.1,7,0.1
			c8.9,0.8,18.3,1.9,28.2,3.4c6.3,1,12.8,0.6,19,1.9c4.1,0.9,8.2,1.7,12.2,2.4c3.8,0.7,8.2,1.1,13.1,1.3c3.7,0.1,7.9,0.5,12.5,1.1
			C480.8,580,486.9,580.4,493.1,580.2z M644.3,486.5c0.7-5.2,1.3-10.6,1.6-16.1c0.2-2.9-1.1-4.5-4-4.9c-10.1-1.3-20.8-2.1-32.1-2.5
			c-7.3-0.2-14.2-1.1-21.4-2.1c-10.6-1.5-20.9-2.4-31.1-2.8c-3.6-0.1-8.3-0.5-14.2-1.2c-5.5-0.6-10.9-0.8-16.3-0.7
			c-2.4,0.1-4.8-1-7.2-0.2c-2.4,0.7-3.2,3.6-3.2,5.8c0.1,4.6-0.1,8.7-0.7,12.3c-0.9,6-1.8,11.9-2.5,17.9c-0.3,2.4-0.1,4.9-0.4,7.4
			c-0.6,6-1.1,12.2-1.7,18.4c-0.5,5.7-0.4,11.2-0.4,16.8c0,4-0.2,8.2-0.5,12.7c-0.7,8.9-1.4,17.6-2.3,26c-0.4,3.7,0.3,6.7,4.4,7.2
			c3.7,0.4,7.5,0.1,11.3,0.8c4.4,0.8,8.6,1.2,12.7,1.2c3.4,0,6.7,0.3,10,0.6c3.3,0.4,6.5,0.4,9.8,0.7c2.1,0.2,4.6,0.2,7.3,0.1
			c5.9-0.3,12.6,0.5,18.1,0.4c9-0.1,18.2,0.2,27,0c6.2-0.2,12.3,0,18.5-0.5c5.6-0.5,6.1-4.4,6.2-9.2c0-1.8,0.2-3.7,0.4-5.5
			c1-7.9,2.1-15.9,3.3-24.2c0.4-2.7,0.2-5.4,0.5-8.1c1.1-8.5,2.1-16.9,3.2-25.2C642,503,643.1,494.6,644.3,486.5z"/>
		<path class="st10" d="M275.3,690.7c3.3-6,6.4-11,9.3-14.9c3-4.1,5.9-8.3,9.1-12.2c4.4-5.5,8.7-10.8,12.8-15.9
			c2.9-3.5,5.8-7.2,8.9-10.8c4.9-5.8,10.1-11.1,15-16.9c3.2-3.8,6.8-7.3,10.1-11.1c2.5-2.8,5.4-5,7.8-7.8c4.1-4.8,8.5-9.4,13.1-13.9
			c0.9-0.9,2.4-2.1,3.7-1.6c0.9,0.3,1.3,1,1.3,2c-0.2,5.3-0.8,10.8-1.8,16.5c-0.6,3.6-1,7.4-0.9,11.2c0.1,10.2,0.5,20.5,1.2,30.9
			c0.3,4.1,1.1,7.5,2.5,10.3c2.7,5.4,5,11.2,8.3,16.2c3.8,5.8,8.5,10.8,14,15c2.6,2,5.7,3.8,9.2,5.4c11.1,5.1,22.3,5.7,33.5,1.8
			c4.2-1.5,8.3-3,12.6-4.8c0.8-0.3,1.7,0.1,2,0.8c0,0,0,0.1,0.1,0.2c0.2,0.6,0,1.1-0.4,1.6c-2.3,2.5-5.1,5.2-8.4,7.9
			c-4.4,3.7-7.9,8.1-12.4,11.6c-3.2,2.6-6.3,5.1-8.9,8.2c-4.3,5-8.8,9.9-13.4,14.6c-5.1,5.2-11.4,8.9-16.7,13.8
			c-3.7,3.5-7.6,6.9-11.7,10.4c-3.1,2.7-5.6,6-9.2,8.1c-4.7,2.8-9.4,4.8-14.1,6c-5.4,1.4-10.1,2.2-14,2.3c-3.9,0.1-8.6-0.9-14.1-3
			c-4.8-1.8-9.3-4.3-13.5-7.5c-6.6-5-13.5-9.4-20.3-14.4c-2.8-2-5.2-4.2-7.4-6.7c-2.1-2.4-4.7-5-8-7.7c-2.1-1.8-3.8-4.5-5.2-8
			c-2.8-7.4-3.3-14.5-1.3-21.5C269.1,703,271.5,697.5,275.3,690.7z"/>
	</g>
	<g>
		<path class="st11" d="M520.8,19.4c-0.2,2.1,0.1,4.3,0.9,6.5l4.3,9.5l2.4,7.9l-9.6-11.6c0.2,0,0.4-0.1,0.6-0.3
			c0.3-0.2,0.3-0.5,0.2-0.8c-1.1-3.1-1.2-6.2-0.4-9.4C519.5,20.4,520,19.8,520.8,19.4z"/>
		<path class="st11" d="M570.6,46l3.3,5.4l5,6.5c-1.2-0.4-1.5,0.7-1,3.2l-8.3-10.6C570.7,49.8,571.1,48.3,570.6,46z"/>
		<path class="st11" d="M491.2,51.2l12,15.1l3,4.3c1,3,2.5,5.7,4.4,8.2c0.2,0.2,0.1,0.3-0.1,0.3c0,0-0.1,0-0.1,0
			c-0.2-0.1-0.3,0-0.4,0.2c0,0.1-0.1,0.2-0.1,0.3L500,68.3l-10.5-12.2l-3.7-5C489,53,490.8,53,491.2,51.2z"/>
		<path class="st11" d="M494.4,112.1l5.1,9.1c-3.4-2.6-6.6-4.1-9.6-4.6c-0.7-0.1-1.2,0.1-1.6,0.5l-1-0.5l-2.4-1.3
			c-0.2-0.1-0.2-0.3,0-0.4c0.8-0.5,1-0.7,0.6-0.8C488.8,113.3,491.4,115.6,494.4,112.1z"/>
		<path class="st11" d="M502.6,895.4c-2.6,2.7-4.5,4.2-5.8,4.6c-2.9,0.5-5.6,1.6-8.2,3.2c-0.2,0.2-2.6,1.9-7,5.1
			c-2.4,1.8-4.7,3.7-7,5.7l-2.9,2l-20.2,11.3c4.2-3.6,8.5-6.9,13.1-9.9c3.8-2.5,7-4.7,9.5-6.8c6.1-4.9,12.4-9.7,18.9-14.2
			C497.1,893.7,500.3,893.4,502.6,895.4z"/>
	</g>
	<g>
		<path class="st12" d="M710.9,521c2.1,2.3,2.9,5.3,2.5,9.1c-0.5,4.8-0.9,9.4-1.2,13.9c-0.1,1.4-0.2,2.8-0.4,4.2
			c-0.2,1.8-0.2,3.6,0,5.3c0.5,5.4,0.3,11,0.3,16.4c0,0.3,0.1,0.6,0.2,0.9c0,0.1,0.1,0.2,0.1,0.3c0.1,0.1,0.1,0.2,0.1,0.3
			c0,3.8-0.1,7.5,0.3,11.4c0.3,2.8,0,5.4,0.3,8.2c0.4,3.1,0.6,6.2,0.6,9.2c0,0.6,0.1,1.3,0.3,1.9c0.3,0.9,0.3,1.9,0,3
			c-0.8,3.4,0.2,6.7,0.2,10.1c0,2.6,0.1,5.3,0.5,8.2c0.4,2.7,0.7,5.4,0.9,8.2c0.3,4.3,0.6,8.5,0.9,12.6c0.2,2.2,0.1,4.4-0.2,6.5
			c-0.5,3.8-0.2,8.7-4.9,10.4c-8.8,3.2-17.6,5.4-26.5,6.8c-1.7,0.3-3.2,0-4.4-0.9c-0.3-0.2-0.5-0.2-0.8,0.1
			c-0.7,0.9-1.7,1.5-2.7,1.7c-4.7,1.1-9.5,1.8-14.3,2.2c-3.3,0.3-6.7,0.7-10.1,1.2c-4.8,0.7-8.2,1.1-10.2,1.1
			c-6.6-0.1-12.7,0.4-18.3,1.3c-2.5,0.4-3.9,2.3-3.2,4.7c2.8,9.4,4.7,16.6,5.8,21.7c0.7,3.3,1.1,6.9,1.2,10.7c0.1,3,0.5,5.9,0.5,8.9
			c0,1.1,0.1,2.3,0.2,3.6c0.6,4,1,7.8,1.4,11.2c0.8,7.1,1.3,11.9,1.5,14.2c0.5,5.1,0.9,9.9,1.4,14.5c0.8,7.3,1.5,14.3,2.3,21
			c0.5,4.5,0.8,8.8,0.9,12.8c0.1,4.5,0,8.8-0.2,13.1c-0.2,3.7-0.3,7.4-0.3,10.9c0,4.1-0.3,7.7-0.7,10.7c-0.6,4.1-1.1,8-1.3,11.6
			c-0.2,3-0.6,6-1,9c-0.4,2.5-0.7,4.9-0.9,7.4c-0.2,2.5-0.3,5-0.3,7.3c0,1.3-0.5,2.3-0.4,3.6c0.1,1.3,0,2.6-0.2,3.9
			c-0.6,3.3,0,6.8-0.4,10.2c-0.3,2.7,0,5.3-0.5,7.9c-0.1,0.4,0.1,0.5,0.5,0.3c0.7-0.3,1.3-0.5,1.9-0.4c4.7,0.6,10.1,2.3,16,5.2
			c1.7,0.8,2.9,1.6,3.7,2.5c2.3,2.4,0.9,6.7-0.2,9.5c-5,12.5-9.1,22.7-12.6,30.6c-2.4,5.5-5.8,10.4-7.9,16.2
			c-0.9,2.6-2.1,5.1-3.5,7.6c-2.9,5.1-5.8,10.2-8.8,15.2c-1.9,3.3-3.7,6.8-5.5,10.4c-1.7,3.6-3.7,7.2-5.9,11
			c-0.2,0.3-0.4,0.5-0.7,0.6l-6.6,2.4l-2.9,0.3c-2.6-0.1-5.4-0.2-8.2-0.2c-3,0-5.8-0.2-8.3-0.5c-4.2-0.6-8.4-0.9-12.5-1
			c-4.2-0.2-8.3-0.8-12.4-1.1c-3-0.2-6.1-0.6-9.1-1.3c-5.7-1.2-11.3-2.6-16.9-4.1c-4.3-1.2-8.8-2-13.1-2.8c-3.3-0.6-6.6-1.1-9.9-1.5
			c-10.3-1.2-20.1-2.9-29.4-5.1c-7.8-1.8-14.3-3.2-19.7-4.2c-3.9-0.7-5.4-3-4.4-6.8c2.2-8.8,7.8-18.1,11.1-26.2
			c1.4-3.5,3-6.6,4.7-9.4c3.4-5.4,6.7-11.1,10-16.9c2.1-3.7,7.5-8.9,10.7-13.7c1.1-1.6,2.2-3.3,3.2-4.9c1.4-1.4,2.5-3.1,3.5-5.1
			c1.3-0.4,3.3-1.9,5.8-4.6l3.6-1.1c0.3-0.1,0.5-0.3,0.5-0.6c-0.1-6.9-0.1-13.8-0.1-20.5c0-3.7,0.3-7.6,0.8-11.9
			c0.6-4.8,0.8-9.8,0.5-15.1c-0.1-1.2,0.5-2.4,0.5-3.7c-0.1-7.4-0.3-14.5,0.6-21.4c0.2-1.8,0.3-3.6,0.3-5.3
			c-0.1-7,0.1-13.4,0.4-19.1c0-0.5,0.1-1,0.2-1.5c0.1-0.6,0.2-1.3,0.2-1.9c0-4.2,0.3-8.4,0.7-12.8c0.4-4.3,0.6-8.5,0.6-12.6
			c0-3.2,0-6.5,0-9.8c0-3.1,0.1-6.4,0.4-9.8c0.5-5.7,0.9-11.7,1.1-18c0-0.4,0-0.9,0-1.4c0.1-4.7,0.2-9.3,0.2-13.8
			c0-2,0.1-4.3,0.3-6.8c0.3-3,0-5.9,0.5-8.9c0.4-2.8,0.7-5.5,0.9-8.3c0.3-5-2-7.1-6.7-6.5c-1.4,0.2-3,0.3-4.3,0.7
			c-5.2,1.5-10.6,2.8-16,4c-3.5,0.8-7.4,0.9-11.1,1.9c-8.8,2.4-17.8,3.8-27.1,4.2l4.4-4.3c1,1.2,2.1,1.8,3.3,1.7
			c6.1-0.6,12.1-2,17.9-3.7c4.3-1.2,8.9-1.2,13.3-2.6c7.5-2.4,17.3-4.2,22.8-5.8c3.1-0.9,4.6-3,4.7-6.2c0.1-6.9,0.4-14.5-0.3-21.5
			c-0.3-2.4-0.2-4.4,0-6.1c0.7-4.4,1.6-8.9,2.5-13.4c0.3-1.3,0.6-2.6,0.9-3.9c0.3-1.2,0.7-2.5,1.2-3.6c1.2-2.9,2.4-6,3.4-9.1
			c0.1-0.2,0.1-0.5,0.1-0.7c0-1.6-0.5-2.6-1.4-3.2c-0.2-0.1-0.4-0.2-0.7-0.2c-3.1,0.1-6.2,0.2-9.2,0.1c-1,0-1.9-0.2-2.9-0.4
			c-1-0.3-1.9-0.5-3-0.7c-0.4-0.1-0.7-0.3-0.9-0.6c-0.9-1.1-1.7-2.5-2.3-4c-0.4-1.1,0-1.9-0.5-3c-0.9-2.1-0.6-5.5-0.3-7.7
			c0.1-0.3,0.2-0.7,0.4-1c0.4-0.5,0.3-1.1-0.2-1.5c-0.2-0.2-0.2-0.3,0.1-0.4c0,0,0.1,0,0.1-0.1c0.2-0.2,0.3-0.4,0.3-0.7
			c0-3.5,1-6.9-3.3-8.8l8.9,0.4c-1.7,3.8-3,7.6-3.9,11.5c-0.8,3.5-0.9,9.8,1.9,12.3c1.7,1.5,3.7,2.2,6.2,2.2c3.2-0.1,6.5,0,9.8,0.3
			c4.7,0.3,4.1,5.5,3.1,8.6c-2.5,7.6-5.3,14.9-5.9,23c-0.2,3.3,1.1,5.4,3.9,6.2c3.9,1.2,9.1,1.2,13.2,0.4c4.4-0.8,8.3-1,11.7-0.6
			c3.7,0.5,7.4,0,11,0.4c6.8,0.8,12,1,15.5,0.6c9.3-0.9,18.6-1.6,27.8-2.3c2.8-0.2,4.5-1.8,5.1-4.7c0.8-3.8-0.3-6.7-0.1-10.3
			c0.1-1.9,0.4-3.9,0.7-6c0.6-4,2.1-9.2,6.4-10.1c5.9-1.1,12.1-1,14.3-7.8c0.7-2.2,1.2-4.4,1.3-6.7c0.2-4.5,0.1-7.7-0.1-9.5
			c-0.2-1.4-0.9-2.7-2.2-4l6.5-1.5c0.1,0.3-0.1,0.6-0.3,1c-0.3,0.3-0.3,0.6-0.2,1c0.1,0.3,0.1,0.6-0.1,0.9c-0.2,0.3-0.3,0.6-0.3,1
			v6.5c0,0.4-0.1,0.7-0.3,1.1c-0.4,0.7-0.4,1.4-0.1,2.1c0.2,0.4,0.2,0.7,0,1.1c-0.7,1.8-1.1,3.7-1.2,5.8c0,0.3-0.1,0.5-0.3,0.7
			c-0.3,0.3-0.4,0.6-0.3,1c0.1,0.2,0,0.5-0.1,0.7c-1.2,2-2,4.9-4.3,6c-2.3,1.1-4.8,1.9-7.5,2.2c-0.3,0-0.6-0.1-0.8-0.3
			c-0.2-0.3-0.5-0.4-0.8-0.1c-0.1,0-0.1,0.1-0.2,0.2c0,0.2-0.2,0.3-0.4,0.4c-3.4,0.5-5.2,2.5-5.5,6.2c0,0.3-0.1,0.5-0.3,0.7
			c-0.3,0.3-0.4,0.6-0.2,1c0.1,0.2,0.1,0.4,0,0.6c-0.5,1.7-0.6,3.6-0.3,5.5c0.1,0.4-0.1,0.8-0.5,1c-0.4,0.2-0.5,0.5-0.2,0.9
			c0.2,0.4,0.3,0.8,0.3,1.2c0,4.8-0.5,9.6,0.2,14.5c0.9,6.2,2.6,12.2,5.1,18c1.3,3,2.8,4.5,6.2,4.5c3.2-0.1,6.3-0.3,9.4-0.6
			c3.6-0.4,7.2-0.1,10.8-0.5c2-0.2,4.2-0.4,6.4-0.5c2.2-0.1,4.3-0.3,6.4-0.7c6.1-0.9,12.2-1.2,18.1-3c1.7-0.5,2.8-1.5,3.1-2.8
			c0.2-1.1,0.5-2.1,0.9-3.1c0.1-0.3,0-0.5-0.2-0.7c-0.1-0.1-0.2-0.1-0.3-0.2c-0.4-0.1-0.6-0.4-0.4-0.8c0.3-1,0.4-2,0-2.9
			c-0.2-0.6-0.3-1.3-0.3-2c0-3.3,0-6.5,0.1-9.6c0-1.2-0.2-2.4-0.7-3.4c-0.7-1.4-1.9-2.1-3.7-2.2c-1,0-1.9,0-2.7,0.2
			c-1.1,0.2-2,0.3-2.6,0.3c-1,0-2,0-3.1,0.1c-0.3,0-0.7,0-1-0.2c-0.6-0.4-1.2-0.5-1.9-0.3c-0.3,0.1-0.6,0-0.9-0.2
			c-0.5-0.4-1.1-0.6-1.8-0.5c-0.4,0-0.8-0.2-1-0.5c-0.3-0.5-0.8-0.8-1.3-0.9c-0.4-0.1-0.7-0.3-0.9-0.6c-1.8-2.5-3-4.7-3.5-6.4
			c-0.6-2.3-1.2-4.5-1.8-6.7c-0.1-0.5-0.1-0.9,0.1-1.4c0.1-0.2,0.1-0.4,0-0.6c-0.6-1.5-0.7-3-0.2-4.5c0.1-0.3,0-0.6-0.3-0.8
			c-0.3-0.2-0.4-0.5-0.4-0.8c0.1-2.7,0.1-5.3-0.1-7.9c0-0.5-0.2-1.1-0.3-1.6c-0.2-0.7-0.2-1.3,0.2-1.9c0.2-0.2,0.1-0.5-0.1-0.7
			c-0.3-0.2-0.4-0.5-0.5-0.9c-0.3-1.8-0.5-3.8-0.5-5.8c0-0.3-0.1-0.6-0.2-0.9c-0.4-0.6-0.3-1.2,0.1-1.9c0.1-0.1,0.1-0.2,0.1-0.3
			c0-0.1-0.1-0.2-0.2-0.2c-0.3-0.1-0.4-0.4-0.5-0.7c-0.4-2.9-0.8-5.7-1.4-8.6c-0.2-1.3,0.2-2.1-0.7-3.4c-0.2-0.3-0.5-0.4-0.8-0.5
			c-0.5-0.1-0.9-0.4-1.1-0.8l6.7-5.8c-0.5,5.5-0.6,10-0.4,13.5c0.2,3.5,0.7,7.4,1.4,11.9c1.2,7.8,0.8,15.7,1.8,23.6
			c0.7,5.4,2.5,11.2,8.3,12.8c1.2,0.3,2.8,0.4,5.1,0.2c1.6-0.1,3.3-0.3,5.1-0.5c3.6-0.3,6.2,0.2,6.9,4c0.5,2.5,0.7,4.8,0.7,7
			c0,4.2,0.3,8.6,0.9,12.7c0.7,4.9,3.5,6.8,8.4,5.7c6.3-1.4,13.3-3.5,21-6.1c3.2-1.1,4.8-3.4,4.8-6.9c0.1-3.6,0.2-7-0.4-10.5
			c-0.8-4.6-1.6-8.8-1.6-13.6c0-4.2-0.2-8-0.6-11.5c-0.3-3.1-0.4-5.8-0.1-8.3c0.4-3.3,0.5-6,0.2-8.2c-0.4-4.7-0.8-9.5-1.2-14.2
			c-0.2-3.4,0.1-6.7-0.2-10c-0.8-8.3-0.4-17.1-0.4-25.5c0-1.2,0.1-4,0.3-8.5c0.1-2.5,0.2-5.4,0.1-8.5c-0.1-4.3-1.5-7.1-4.3-8.5
			L710.9,521z M531.6,651.9c-1.5,0.2-3,0.1-4.7-0.1c-2.5-0.4-7.7-0.2-7.7,3.5c-0.1,3.3-0.1,6.9,0,10.5c0,2.7,0.8,5.3,0.5,8
			c-0.3,2.4-0.5,4.7-0.7,7.2c-0.2,2.8-0.6,5.1-1.2,7.1c-0.9,3.2-1.8,6.4-2,9.8c-0.3,4.6-0.5,9.1-1,13.6c-0.5,5.4-0.6,10.5-0.1,15.2
			c0.3,2.7,0.2,5.3-0.1,7.9c-0.9,6.8-1.4,12.7-1.3,17.6c0.1,7.7,0,15.3-0.3,22.8c-0.2,5.1-0.4,9.9-0.6,14.6
			c-0.1,2.8-0.3,5.6-0.5,8.4c-0.3,2.8-0.5,5.6-0.7,8.4c-0.1,2.2-0.1,4.4,0.1,6.8c0.2,2.3,0.2,4.7,0.1,7.1c-0.2,2.6-0.3,5.2-0.4,7.9
			c-0.2,7.9-0.2,15.7-0.3,23.2c0,3.9-0.3,7.8-0.8,11.7c-0.5,3.8-0.8,7.9-0.8,12.3c-0.1,3.9,0.6,7.5,0.6,11.3
			c0,7.9,1.1,16.2,3.4,24.8c2.6,10,17.3,14.9,26.1,16.3c4.2,0.7,8.4,1.5,12.3,2.4c6.9,1.5,13.3,1.9,19.3,1.1
			c4.2-0.6,8.3-0.6,12.5-0.8c8.3-0.4,15-3.3,23.7-7.4c5.4-2.6,9.3-6.5,13.1-10.8c1.7-2,2.9-4.5,3.5-7.5c0.5-2.5,1.6-4.9,2-7.4
			c1.4-7.7,2.2-15,2.3-21.9c0.1-4.8,1-9.5,1.4-14.4c0.3-3.6,0.9-7.9,1.9-12.8c0.6-3.3,0.7-6.8,1.3-10.3c0.4-2.4,0.6-4.7,0.6-7.1
			c0.2-8.2,0.5-16.6,0.8-25c0.1-3,0-6.2-0.4-9.4c-0.3-3.1-0.6-6.3-0.9-9.7c-0.3-4.8-0.8-9.6-1.4-14.5c-0.4-3.8-0.8-7.6-1.2-11.4
			c-0.3-3.3-0.7-6.5-1.3-9.5c-0.6-3.2-1-6.4-1.1-9.5c-0.3-5.3-1.3-10.5-2-15.9c-0.5-3.8-0.7-7.5-0.8-11.2c0-4.6-0.5-9.1-1.3-13.3
			c-0.5-2.7-1.3-5.9-2.4-9.3c-1-3.2-2-6.4-3.2-9.5c-4.2-11.3-7.5-20.8-10.1-28.5c-1-3.1-3.4-4.4-6.8-4.2c-3.4,0.2-6.6,0.4-9.6,0.5
			c-3.1,0.1-6.2,0.3-9.3,0.7c-5.7,0.7-10.8,0.9-15.1,0.5c-5.9-0.5-10.6-0.8-14.1-0.7c-4.2,0.1-8.2-0.8-12.5-0.1
			C537.4,651.1,534.4,651.6,531.6,651.9z M489.6,957c2.3,1,5.1,1.7,8.2,2c2.5,0.3,5.2,0.9,8.1,1.6c6.4,1.7,13.6,2.9,21.5,3.7
			c4.4,0.4,8.9-0.1,13.4-0.4c7.6-0.5,15.8,1.5,23.1,3.4c4,1.1,8.1,1.1,12.1,2.1c2.7,0.7,5.4,1.3,8.1,1.9c8.2,1.7,15.8,4.5,24.2,6.2
			c5.8,1.2,8.7-0.7,11.8-5.8c3.3-5.3,6.7-9.8,9-16.2c2.2-6.2,5.8-11.8,8.3-17.9c1.5-3.8,3.7-6.8,5-10.8c1.9-6,4.6-11.7,6.4-17.8
			c0.9-3.2,0.1-5.5-2.6-6.9c-3.9-2-8.2-3.4-13-4.2c-2.6-0.5-4.2,0.5-4.9,2.9c-0.7,2.3-1.5,4.7-2.4,7.1c-3.2,8.9-10,14.1-18.2,18.2
			c-2.2,1.1-6.3,2.6-12.3,4.4c-7.5,2.2-17.2,2.3-25.6,2.6c-3.8,0.1-7.6,0.9-11.3,0.4c-5.4-0.7-10.7-1.5-15.8-2.3
			c-5.6-0.8-11.6-2.4-17.9-4.7c-5-1.8-10.2-5.5-12.8-10.3c-1-1.8-1.7-4.1-2.1-6.8c-0.5-3.1-1.1-6.1-1.9-9.1
			c-0.2-0.6-0.4-1.2-0.8-1.7c-0.8-1-2.2-1.2-3.3-0.5c-2.1,1.4-4.1,3.4-5.9,5.8c-4.5,6.3-8.8,11.9-13,17c-2.2,2.6-6,8.6-11.4,17.8
			c-1.6,2.7-4.9,6.8-1.8,9.7c1.9,1.7,4.1,3,6.6,4C482.1,953.9,485.8,955.4,489.6,957z M534,966.3c-6.2,0.6-12.1-1.2-18.1-1.6
			c-2.6-0.2-6.2-1-10.8-2.6c-1.5-0.5-4.2-0.9-8.1-1.3c-2.5-0.2-5.2-0.8-8-1.7c-5.4-1.7-10.6-3.6-15.8-5.9c-1.2-0.5-2.2-0.7-3-0.5
			c-4.4,1-10.7,16.8-12.4,21.6c-1.8,5.1,4.1,6.5,7.6,7.2c5.4,1.1,10.7,2.3,16.1,3.7c5.5,1.5,9.5,2.3,12,2.6c18,1.9,36,5.3,54.2,10.2
			c2,0.5,4.6,0.9,7.9,1c2.7,0.1,5.3,0.3,7.9,0.5c10,0.9,18.9,1.6,26.8,2c3,0.2,6.1,0.2,9.3,0.1c2.7-0.1,4.8-1.4,6.3-3.9
			c2.3-3.8,4.5-8.1,6.6-12.8c1.4-3.2-1.2-4.3-3.9-4.8c-6.8-1.4-13.5-3-20.2-4.9c-4.7-1.3-8.9-2.4-12.4-3.1
			c-7.3-1.4-14.5-2.7-21.8-4.6C548,966.2,541.3,965.7,534,966.3z"/>
		<path class="st12" d="M363.8,580.5l-5.8,5c-2.6-1.3-5.8-1.2-9.7,0.2c-3.6,1.3-6.4,2.4-8.5,3.2c-4.2,1.6-8.6,2.4-12.9,3.8
			c-6.2,2.1-12.6,3.8-19.1,4.9c-8.3,1.5-14.1,2.7-17.4,3.5c-2.8,0.7-5.6,1.3-8.3,1.8c-2.1,0.4-4.2,0.7-6.2,1.1
			c-5.7,1.1-10.5,1.9-14.3,2.4c-3.1,0.4-6.3,1-9.5,1.7c-2.7,0.6-4.5,2.3-5.2,5c-1.6,5.7-2.7,11.2-3.2,16.4c0,0.4-0.1,0.7-0.3,1.1
			c-0.1,0.3-0.2,0.6-0.1,0.9c0.2,0.7,0,1.4-0.4,2.1c-0.2,0.3-0.3,0.6-0.2,0.9c0.3,1.3,0.3,2.7,0.1,4c-0.1,0.3,0,0.6,0.1,0.9
			c1,2.3,0.1,4.9,0.6,7.3c0.3,1.5,0.4,2.8,0.3,4c-0.1,1.6-0.1,3.2,0.1,4.9c0.5,5,1.5,10.7,3,17.1c1.3,5.5,3.2,10.5,5.9,14.9
			c2.8,4.7,6.2,8.9,10.3,12.7c0.5,0.4,1.6,0.6,3.4,0.5c-1.9,3.7-2.9,7.2-3,10.5c-0.5,1.6-1.4,2.8-2.8,3.6l-7.8,10.7l-2,0.2
			c3.2-4,4.1-7.7,2.7-11.1c-0.9-2.2-2.3-5-4.2-8.2c-5.7-10-8.4-21.6-13.7-31.9c-1.5-2.9-2.6-5.9-3.6-9c-1.7-5-4.7-9.6-6.9-14.3
			c-4.3-9.3-8.4-19-12.5-29c-2.3-5.6-4-11.2-5.9-16.8c-0.6-1.8-1.7-3-3.3-3.8c-0.3-0.1-0.6-0.2-0.9-0.1c-2.3,0.5-3.8,0.9-4.4,1.1
			c-4.4,2-8.7,4-13,5.9c-1.2,0.5-2,1.3-2.5,2.2c-0.6,1.1-0.6,2.4-0.2,3.6c3.4,9.2,7.4,18,11.9,26.4c2.2,4.1,4,8.5,6,12.6
			c3,6.2,5.7,13,9.1,19.2c2.7,4.8,4.6,9.7,6.5,14.7c2.7,7.3,6.1,13.8,8.8,20.8c3.2,8.1,8,15.7,11.7,23.4c1.1,2.2,2.5,3.9,4.3,5
			l-1.4,1.8c-0.4,0.6-1,0.7-1.6,0.3c-1.2-0.7-2.2-1.8-3-3.2c-3-5.4-5.8-11.2-8.4-17.3c-3.7-8.7-7.9-16.8-11.1-25.6
			c-2.5-7-4.8-13.1-8.2-19.6c-3.8-7.3-6.2-12.3-7.3-14.8c-2.9-7-5.9-13.3-9-19c-3.3-6.1-5.6-11.8-8.1-18c-0.2-0.5-0.9-1.6-2.1-3.4
			c-1.1-1.7-1.5-3.7-1.2-6.1l4.5-4.6c2.6-1.4,5.2-2.8,7.8-4.3c6.8-4,14.7-4.5,20-10.8c1.8-2.2,3.7-4.3,5.6-6.4
			c3.9-4.3,7.8-7.9,11.4-12.5c1.7-2.2,3.6-4.3,5.7-6.4c2.9-2.9,5.7-5.8,8.5-8.8c2.7-2.9,5.9-5.2,8.8-8l3.6-0.4
			c1.5-0.4,2.8-0.3,4.1,0.2c0.3,0.1,0.5,0.3,0.7,0.6c2.3,3.9,4.6,7.8,7,11.8c3.1,5.1,5.3,10.6,8.5,15.6c3.8,5.9,7.5,11.9,11.1,18
			c0.5,0.9,0.6,1.8,0.4,2.8c-0.1,0.5,0.1,0.7,0.5,0.6c6.2-1.4,12.4-2.6,18.5-3.6c2.6-0.4,5.1-1,7.5-1.7c5.4-1.5,10.9-2.8,16.2-4.7
			c3.6-1.3,7.3-1.8,10.8-3.5c3.8-1.8,7.8-3.2,12.2-4.1c2.7-0.5,5.4-1.2,8-2C361.4,579.3,362.5,579.6,363.8,580.5z M249.2,606.9
			c10.2-2.6,20.9-3.8,30.3-6.1c2.2-0.5,3.6-2.7,3.1-4.9c-0.7-3.3-2.9-6.3-4.9-9.2c-1.4-2.2-2.7-4.2-3.6-6.2
			c-4.2-8.5-8.5-17.6-14.1-25.3c-2.7-3.7-5.6-3.8-9-1.2c-3.9,2.9-6.7,6.8-9.9,10.2c-2.2,2.4-4.2,4.8-5.9,7.1
			c-3.3,4.7-7.8,8.4-11.6,12.8c-2.6,3-5.3,5.6-8,7.8c-4.7,3.7-8,7.7-6.2,13.9c1.3,4.4,2.5,9,4.3,13.3c5.4,12.9,10.4,26.1,16.8,38.3
			c3.2,6.1,5.4,12.5,8.4,18.7c2.2,4.6,3.6,9.7,6,14.6c2,4.2,4,8.4,6,12.5c1,2,2.6,4.3,4.8,6.9c1.8,2.1,3.7,2.1,5.6,0.1l0.3-0.3
			c2-2.1,1.9-4.2-0.1-6.3c-7.7-7.9-13.1-16-16.2-26.8c-1.8-6.3-2.9-11.8-3.3-16.5c-0.6-7.1-1.1-13.2-1.3-18.5
			c-0.2-5.4-0.5-11.3,0.9-16.6c1.1-4.3,2-8.6,2.8-12.9C244.9,609.6,246.3,607.6,249.2,606.9z"/>
	</g>
</g>
</svg>
